<svg xmlns="http://www.w3.org/2000/svg" viewBox="0 0 257.62 421.54"><g style="isolation:isolate"><path d="M251.57,240.13c2.57,9.08-112.71,175.68-119.8,180-3.51,2.11-15,1.89-28.9-.43a197.27,197.27,0,0,1-28.31-6.92c-3.07-.72-6.25-1.52-9.55-2.42C36.22,402.46,2.83,380.86.21,373c-1-3.16,1.92-38.05,6.35-79C13.16,233.12,23,158.82,27.7,155.69c7.86-5.24,104.41-52.36,104.41-52.36l23.07-53.51S139,42,139,39.51s6.19-16.64,8.35-16.2c31.91,6.38,100.15,37.31,110,44.67,2,1.47-5.4,16.69-7.85,17.18s-22.58-6.38-22.58-6.38l-19.4,52.37C213.08,144.69,249.2,231.76,251.57,240.13Z" fill="#2babce"/><path d="M158.62,76.22a104.68,104.68,0,0,1,3-26.79C166,32.36,172.83,6.64,176.29,3.18c5.24-5.24,38-3.28,47.79.65S246.33,28.71,245,35.25,213,94.82,204.44,97.44c-2,.6-22.91-2-32.73-7.21s-13.09-11.12-13.09-13.74Z" fill="#eb8020"/><path d="M9.38,360.57s8.51-56.95,19-112.58S48,162.89,48.65,159.62,222.44,260.91,222.44,260.91s-94.59,137-97.86,138.93S48.65,391.34,9.38,360.57Z" fill="#a45fa3"/><path d="M127.2,325.22a51,51,0,1,1-7.77-27.08A51.06,51.06,0,0,1,127.2,325.22Z" fill="#924996"/><path d="M92.83,265.33a32.38,32.38,0,1,1-4.92-17.18A32.39,32.39,0,0,1,92.83,265.33Z" fill="#924996"/><path d="M166.47,321.3a37.29,37.29,0,1,1-5.67-19.79A37.31,37.31,0,0,1,166.47,321.3Z" fill="#924996"/><path d="M86.16,294.61a31.42,31.42,0,1,1,4.53-44.21,30.64,30.64,0,0,1,3.9,6.11A31.42,31.42,0,0,1,86.16,294.61Z" fill="#f0e8f4"/><circle cx="57.15" cy="267.58" r="14.2" transform="translate(-214.86 297.2) rotate(-84.16)" fill="#55368c"/><circle cx="56.3" cy="267.5" r="7.05" transform="translate(-212.89 315.08) rotate(-88.14)" fill="#2b1f4c"/><path d="M186,276.62C142.89,282,86.45,254,59.71,212.31A105.54,105.54,0,0,1,53,200.17c-12.6-26.77-8-48.8,7.74-49.22,18-.5,26.72,14.23,61.58,46.14,9.72,8.9,19.78,15.44,28.27,21.23,13.81,9.41,37.74,20.61,56.66,27.52,4.05,1.47,7.86,2.76,11.29,3.78C226.53,252,229.08,271.22,186,276.62Z" fill="#b477b1"/><path d="M190,163.22c1,2.29,26.18,51.71,31.74,53.35s10.48,1,11.46-4.59S205.92,142.27,195,142.27C179.56,142.27,190,163.22,190,163.22Z" fill="#fff"/><path d="M198.87,107.91s-9.49,22.25-8.5,26.18,8.83,2.62,10.8-.65,10.14-30.77,8.83-32.08S203.78,100.05,198.87,107.91Z" fill="#fff"/><path d="M86.16,294.61a31.43,31.43,0,0,1-46.61-40.83,31.36,31.36,0,0,0,3.53,11.87c2.89,5.26,7.83,9.9,16,12.45A39.62,39.62,0,0,0,65,279.44c19,2.75,29.37-12.09,29.62-22.93A31.42,31.42,0,0,1,86.16,294.61Z" fill="#ccbdd8" opacity="0.82" style="mix-blend-mode:multiply"/><path d="M151.75,321.3a51.06,51.06,0,0,1-101.21,9.63,51.72,51.72,0,0,1-.91-9.63,51.06,51.06,0,1,1,102.12,0Z" fill="#f0e8f4"/><circle cx="109.53" cy="334.06" r="23.07" fill="#55368c"/><circle cx="110.51" cy="335.04" r="11.45" fill="#2b1f4c"/><path d="M151.75,321.3a51.06,51.06,0,0,1-101.21,9.63c5.23,8.8,16.15,18.17,38.7,22.44,48.43,9.16,43.2-57.6,43.2-57.6L141.6,318S145,305.3,144,294.22A50.82,50.82,0,0,1,151.75,321.3Z" fill="#ccbdd8" opacity="0.82" style="mix-blend-mode:multiply"/><path d="M164.51,70.93s9.82-60.88,13.75-62.84,34.36-3.93,39.27,0,20.62,24.54,20.62,24.54l-21.6-15.71L186.11,12s44.18,27.5,44.18,32.41S205.75,88.6,200.84,88.6,170.4,78.78,164.51,70.93Z" fill="#cb4917"/><path d="M32.94,162.24S.21,359.92,5.45,366.46s28.8,26.18,64.15,35.35,62.84,7.85,62.84,7.85S239.78,240.79,239.78,235.55s-49.41-101.46-49.41-101.46l31.09-60.87s19.63,3.92,23.56,3.92S250.26,68,250.26,68l-99.5-39.27-3.92,7.85,8.34,13.26L139,105.94Z" fill="#8cd2f1" opacity="0.46" style="mix-blend-mode:screen"/><path d="M207.22,245.84c-4.07.29-9.64-.14-17.18-2.11-17.8-4.64-31.93-14.16-37.13-18,1.25,1.46,2.75,4.17,3.75,9.15,2,9.82-45.17-14.72-43.21-26.51,1.59-9.52,10.89-1.71,14.38,1.62l-5.54-5.54c-6.87-6.88-26.51-39.28-54-44.19-19-3.38-17.84,23.13-15.32,39.9-12.6-26.77-8-48.8,7.74-49.22,18-.5,26.72,14.23,61.58,46.14,9.72,8.9,19.78,15.44,28.27,21.23C164.37,227.73,188.3,238.93,207.22,245.84Z" fill="#d4a7ce"/><path d="M195,257.48c0,9.81-66,123.71-92.08,162.18a197.27,197.27,0,0,1-28.31-6.92c-3.07-.72-6.25-1.52-9.55-2.42C36.22,402.46,2.83,380.86.21,373c-1-3.16,1.92-38.05,6.35-79C19.2,245.31,35.6,185.1,40.8,179.91c8.83-8.84,189.49,52,189.49,52L65.34,203.47S195,245.69,195,257.48Z" fill="#43b3db" opacity="0.6" style="mix-blend-mode:multiply"/><path d="M76.14,143.91l55-24.87S104.94,145.22,76.14,143.91Z" fill="#2babce"/></g></svg>