<svg xmlns="http://www.w3.org/2000/svg" viewBox="0 0 112.84 81.9"><polygon points="2.53 32.22 67.87 64.26 63.4 81.9 112.84 42.9 54.71 20.04 59.18 32.59 15.45 19.05 0 0 2.53 32.22" fill="#e94793"/><polygon points="67.87 64.26 63.4 81.9 112.84 42.9 54.71 20.04 59.18 32.59 26.63 22.53 2.53 32.22 67.87 64.26" fill="#fff" opacity="0.2" style="isolation:isolate"/><polyline points="7.76 29.75 72.84 57.93 69.99 72.09 101.03 47.48 104.14 45.01 60.5 27.33 68.74 38.68 12.84 21.66 5.97 15.4" fill="#f08db9"/><polygon points="5.97 15.4 10.24 22.85 11.89 24.27 75.41 43.15 68.2 32.79 101.03 47.48 104.14 45.01 60.5 27.33 68.74 38.68 12.84 21.66 5.97 15.4" fill="#e72b5d"/></svg>