<svg xmlns="http://www.w3.org/2000/svg" xmlns:xlink="http://www.w3.org/1999/xlink" viewBox="0 0 138.95 123.85"><defs><radialGradient id="a" cx="38.02" cy="36.43" r="75.42" gradientUnits="userSpaceOnUse"><stop offset="0" stop-color="#7d7767"/><stop offset="0.19" stop-color="#6a596a"/><stop offset="0.34" stop-color="#5f476c"/><stop offset="0.84" stop-color="#47295e"/></radialGradient><radialGradient id="b" cx="67.26" cy="-10.15" r="94.01" xlink:href="#a"/><radialGradient id="c" cx="77.07" cy="10.53" r="18.01" gradientUnits="userSpaceOnUse"><stop offset="0" stop-color="#6fbb77"/><stop offset="1" stop-color="#36bde6"/></radialGradient><radialGradient id="d" cx="53.41" cy="95.37" r="33.67" gradientUnits="userSpaceOnUse"><stop offset="0" stop-color="#dddbe3"/><stop offset="1" stop-color="#9f8bc1"/></radialGradient><radialGradient id="e" cx="42.51" cy="94.74" r="33.87" xlink:href="#d"/><radialGradient id="f" cx="52.6" cy="110.88" r="56.06" xlink:href="#d"/><radialGradient id="g" cx="23.98" cy="45.57" r="55.64" xlink:href="#d"/><radialGradient id="h" cx="57.1" cy="96.63" r="51.74" xlink:href="#d"/><radialGradient id="i" cx="102.4" cy="121.23" r="18.84" xlink:href="#d"/><radialGradient id="j" cx="109.38" cy="109.92" r="12.5" xlink:href="#d"/></defs><g style="isolation:isolate"><polygon points="9.47 39.15 0 40.71 24.14 48.4 133.66 44.96 138.95 40.71 131.09 36.76 9.47 39.15" fill="#dddbe3"/><polygon points="33.7 90.17 27.96 91.12 42.61 95.78 109.04 93.69 112.25 91.12 107.49 88.72 33.7 90.17" fill="#dddbe3"/><path d="M136.24,52.44c-.23.84-.51,1.71-.82,2.61a76.09,76.09,0,0,1-7.65,15.52c-7,11.08-17.73,22.33-31.32,27.74a45.6,45.6,0,0,1-16,3.3H60.13C30.94,101.4,10.8,73,4.58,55.29q-.51-1.49-.9-2.85a14.35,14.35,0,0,1,0-8C7.55,31.07,28.8,21.36,28.8,21.36V18H24.65S22.84,3.49,23.36,2.72c.16-.24,5.41-.46,12.59-.64,7.81-.2,17.91-.36,26.23-.47L70,1.51l7.78.1c16,.21,38.49.61,38.82,1.11a1,1,0,0,1,.08.42c.16,2.51-1.33,14.49-1.37,14.85h-4.15v3.36a73.37,73.37,0,0,1,7,3.8c6.8,4.17,16.42,11.47,18.36,20.26A14.09,14.09,0,0,1,136.24,52.44Z" fill="url(#a)"/><path d="M134.14,52.42c-4.89,17.23-28,46.83-58.48,47.5-13.85-2-17.79-2.48-8.46-4.13C83.05,93,96.75,81.67,103.86,70.41l3.74-2.6.5-6.39a20.1,20.1,0,0,0,.94-6.09v0c1-.5,2.07-1.28,1.9-2.33-.13-.79-1.28-2-2.65-3.24-3-11.64-14.57-22.31-33.94-26.42l-1.13-.05H72.9l-.33,0L28.8,21.36V18l58.72,3.67L87.23,3.14h29.41c.17,2.55-1.37,14.86-1.37,14.86h-4.15v3.36s.42.19,1.15.56c1.22.61,3.33,1.72,5.81,3.24C126.62,30.4,137.5,40.56,134.14,52.42Z" fill="#60468c" opacity="0.2" style="mix-blend-mode:multiply"/><path d="M111.12,21.36s4.2,2.23,4.93,2.6c-4.56,1.91-19.09,1.79-42.84,1.79A239.91,239.91,0,0,1,28.8,21.36V18a323,323,0,0,0,41.31,2.37c30.81-.31,45.16-2.37,45.16-2.37h-4.15Z" fill="#60468c" opacity="0.5" style="mix-blend-mode:multiply"/><path d="M115.27,18h0s-1.44.21-4.15.52a352.51,352.51,0,0,1-42,1.85C40.66,20.08,28.8,18,28.8,18H24.65S22.84,3.49,23.36,2.72c.16-.24,5.41-.46,12.59-.64,26.83.12,79.26.38,80.61.64C118.36,3.06,115.35,17.61,115.27,18Z" fill="url(#b)"/><polygon points="25.89 3.14 27.89 13.07 31.64 16.83 67.87 19.77 63.19 16.58 63.86 3.73 25.89 3.14" fill="#9f9889" style="mix-blend-mode:soft-light"/><path d="M30.14,25.14S13.78,33.83,12.45,40.85s0,8.41,0,8.41,3.5-.14,4,1.33,3.13,3.33,3.13,3.33S24.29,44.13,28.8,38,39.16,21.77,30.14,25.14Z" fill="#9f9889" style="mix-blend-mode:soft-light"/><path d="M34.15,40.85c-3.49,6.79-1.34,6-.84,7.11s.61-.92,1.56-.75,3.28-3.57,3.28-3.57S35.17,38.87,34.15,40.85Z" fill="#9f9889" style="mix-blend-mode:soft-light"/><path d="M9.21,45.08C8.15,47.15,8.8,46.91,9,47.25s.18-.28.47-.23,1-1.09,1-1.09S9.52,44.47,9.21,45.08Z" fill="#9f9889" style="mix-blend-mode:soft-light"/><path d="M18.7,57.29c-1.37,2.68-.52,2.38-.33,2.81s.24-.36.62-.3,1.29-1.41,1.29-1.41S19.1,56.51,18.7,57.29Z" fill="#9f9889" style="mix-blend-mode:soft-light"/><path d="M14.28,64c4.18,1.86,2.77,0,2.87-.64s-.64-.38-1.09-1.29-3-2.32-3-2.32S13.06,63.45,14.28,64Z" fill="#9f9889" style="mix-blend-mode:soft-light"/><path d="M117.14,58.09c-7.22,11-3.39,10.07-2.73,12s1.21-1.46,2.81-1,6.28-5.51,6.28-5.51S119.26,54.87,117.14,58.09Z" fill="#60468c" opacity="0.2" style="mix-blend-mode:multiply"/><path d="M119.94,36.69c-1.11-2-1.29-1.37-1.65-1.43s.13.31-.08.52.34,1.44.34,1.44S120.26,37.29,119.94,36.69Z" fill="#60468c" opacity="0.5" style="mix-blend-mode:multiply"/><path d="M124.2,42c-2.63-4.84-3-3.25-3.9-3.39s.3.74-.19,1.23.79,3.41.79,3.41S125,43.41,124.2,42Z" fill="#60468c" opacity="0.5" style="mix-blend-mode:multiply"/><path d="M101.46,30.2c-3.9,2.41-1.59,2.27-1.09,2.73s.67-.31,1.67-.17,3.59-1.15,3.59-1.15S102.6,29.5,101.46,30.2Z" fill="#60468c" opacity="0.2" style="mix-blend-mode:multiply"/><path d="M19.87,75.63c.36,5.59,6.87,4,7,5.08s1.89-.8,1.89-.8S19.51,69.92,19.87,75.63Z" fill="#9f9889" style="mix-blend-mode:soft-light"/><path d="M44.37,82.49a17.76,17.76,0,0,0,5.08,3.06l-3.14-3.91-3.23-1.53-2-4.31S39.44,78.17,44.37,82.49Z" fill="#9f9889" style="mix-blend-mode:soft-light"/><path d="M127.77,70.57c-7,11.08-17.73,22.33-31.32,27.74H71.52l-29.36-1.8-1.42-4.1S36,85.27,36,84.6s1.11.34,1.11.34S48.06,92.06,49,90.28s3.89-.45,3.89-.45,16,6.79,23.37.34c4.19-3.68,3.58-3.78,3.58-3.78l5.55-2.87,9.17-2,1.85.27L107.82,74S119.65,73.91,127.77,70.57Z" fill="#60468c" opacity="0.2" style="mix-blend-mode:multiply"/><path d="M82.24,79.55c5.45-2.91,9.32-12.14,2.41-11.58a11.56,11.56,0,0,0-2.17.36,10.87,10.87,0,0,1,4.08-1.09C94.27,66.62,88.58,78.16,82.24,79.55Z" fill="#9f9889" style="mix-blend-mode:soft-light"/><path d="M83.28,78.91c-.34.23-.69.45-1,.64-1.59-.59-2.52-.45-4-1.81-.19-.17.41-7,4.26-9.41l.48-.12c-4.43,3.07-4.2,9.14-4,9.3A5.21,5.21,0,0,0,83.28,78.91Z" fill="#60468c" opacity="0.5" style="mix-blend-mode:multiply"/><path d="M83.28,78.91a5.21,5.21,0,0,1-4.34-1.4c-.18-.16-.41-6.23,4-9.3A12.28,12.28,0,0,1,84.65,68C91.11,67.45,88.15,75.49,83.28,78.91Z" fill="#60468c" opacity="0.2" style="mix-blend-mode:multiply"/><path d="M101,65.92c0,2-1.94,3.19-3.39,3.32-1.19.11-2-.5-1.28-2,1.25-2.44,2.77-3.74,3.73-3.5C100.66,63.89,101,64.59,101,65.92Z" fill="#60468c" opacity="0.2" style="mix-blend-mode:multiply"/><path d="M30.8,91.12s23.57,2.11,36.84,2.11S110,91.12,110,91.12l-1.25,1.13L67.7,98.79,31.14,95Z" fill="#60468c" opacity="0.5" style="mix-blend-mode:multiply"/><path d="M101.53,65.92c0,2.21-2.43,3.47-3.89,3.32,1.45-.13,3.39-1.34,3.39-3.32,0-1.33-.37-2-.94-2.18C100.93,63.56,101.53,64.23,101.53,65.92Z" fill="#9f9889" style="mix-blend-mode:soft-light"/><path d="M100.09,7.65H92.32L89.74,18.78s24.59-.56,25-1.23,1.79-13.18,1.79-13.18l-10.93,1Z" fill="#60468c" opacity="0.2" style="mix-blend-mode:multiply"/><path d="M116.56,2.72S105.59,7,70.2,7,23.36,2.72,23.36,2.72c.33-.5,23-2.41,39-2.62L70.11,0l7.78.1C93.84.31,116.23,2.22,116.56,2.72Z" fill="#9f98bc"/><path d="M108.1,2.92s-5.52.93-12.53,1.74l-1.74.19a221.56,221.56,0,0,1-23.54,1c-10.48,0-18.33-.45-24-1l-1.71-.17c-7.8-.79-12.94-1.58-12.94-1.58C31.9,2.67,51.33.69,63.36.49L69.23.4,75.1.49C87.13.69,107.85,2.45,108.1,2.92Z" fill="#009f91"/><path d="M95.57,4.66l-1.74.19a221.56,221.56,0,0,1-23.54,1c-10.48,0-18.33-.45-24-1l-1.71-.17c6.11-.49,12.86-.88,18.66-1l7.27-.12,7.27.12C83.33,3.83,89.72,4.2,95.57,4.66Z" fill="url(#c)"/><polygon points="115.22 3.14 115.13 3.34 114.45 4.68 112.94 7.65 112.94 4.76 108.1 4.76 104.81 5.14 100.08 7.04 87.29 6.66 110.7 3.71 113.27 3.39 115.22 3.14" fill="#9f98bc"/><path d="M115.13,3.34l-.68,1.34c-.81-.18-2.72-.69-3.75-1L110,3.52l3.28-.13,1.28-.05Z" fill="#8f4667" opacity="0.5" style="mix-blend-mode:multiply"/><path d="M112.25,91.12v1.55l-1.33.2c-2.38.36-7.75,1.13-14.41,1.88-7.93.91-17.68,1.81-26.4,2-18.69.36-42.15-4-42.15-4V91.12s23.46,4.41,42.15,4c8.08-.15,17.07-.93,24.66-1.77,6.75-.74,12.39-1.53,15.32-2Z" fill="#dddbe3"/><path d="M112.25,92.67v7.79L71,103,28,100.46V92.67s23.46,4.41,42.15,4S112.25,92.67,112.25,92.67Z" fill="url(#d)"/><path d="M112.25,92V102L71,104.53,28,102V91.12s23.46,6,42.15,5.6S112.25,92,112.25,92Z" fill="url(#e)"/><path d="M125.18,110.23l-4.28,12.08h-7.38l.89-9.47-15.79-7.27L72,107.73l-30.72-2.16-15.79,7.27.88,9.47H19l-4.28-12.08,13-11.92h.2s27.65,3.29,43.59,3.3S112,99.94,112,99.94V98.31h.19Z" fill="url(#f)"/><path d="M26.36,121.82l0,.49h-2L23,111.61l17.2-7.47s25.49,2.17,31.36,2.17,4.44,3.83-2.4,3.83-28.29-2.08-28.29-2.08l-14,4.33Z" fill="#7d70a6"/><path d="M117,111.57l-1.08,10.74h-2.42l.3-9.48-14.35-4.77s-2.68.26-6.45.6l-1.35.12c-3.11.27-6.77.58-10.22.83l-3.26.23-4.09.23h0c-1.14.05-2.13.07-2.92.07-.44,0-.86,0-1.25,0-5.72-.43-6.63-3.76-1.25-3.79h.1c1.2,0,3.22-.09,5.68-.23l4.25-.27.67,0c4.12-.28,8.65-.63,12.42-.93l1.76-.14,6.58-.54Z" fill="#7d70a6"/><path d="M74.46,106.07l-.36,4h0c-1.14.05-2.13.07-2.92.07-.44,0-.86,0-1.25,0l-1.25-3.79h.1C70,106.3,72,106.21,74.46,106.07Z" fill="#7d70a6" opacity="0.2" style="mix-blend-mode:multiply"/><path d="M81.45,109.61l-3.26.23.52-4,.67,0-.73,3.86Z" fill="#7d70a6" opacity="0.2" style="mix-blend-mode:multiply"/><path d="M93.56,104.68l-.54,4-1.35.12.13-4v-.07Z" fill="#7d70a6" opacity="0.2" style="mix-blend-mode:multiply"/><path d="M110.94,92.25l0,.62-.13,6.31-13.71,2.2-22.62.22,22.05-1.22V94.43l-1.74-1c6.75-.74,12.32-1.85,15.25-2.28Z" fill="#7d70a6" opacity="0.5" style="mix-blend-mode:multiply"/><polygon points="117.02 111.57 124.92 110.64 120.9 122.31 115.94 122.31 117.02 111.57" fill="#7d70a6" opacity="0.5" style="mix-blend-mode:multiply"/><path d="M136.24,52.44c-.23.84-.51,1.71-.82,2.61-5.57.93-17.19,2.74-31,4.22-10.75,1.15-22.84,2.09-34.5,2.27-25.88.4-54.38-4.26-65.29-6.25q-.51-1.49-.9-2.85a14.35,14.35,0,0,1,0-8c10.41,2.41,40.69,8.83,65.76,8.35,26.12-.5,57.9-5.81,67-7.41A14.09,14.09,0,0,1,136.24,52.44Z" fill="#60468c" opacity="0.5" style="mix-blend-mode:multiply"/><polygon points="22.96 111.61 15.9 110.64 19.02 122.31 24.35 122.31 22.96 111.61" fill="#7d70a6"/><polygon points="30.02 93.23 29.13 97.25 39.95 98.86 40.83 94.59 30.02 93.23" fill="#fff9db" opacity="0.7" style="mix-blend-mode:soft-light"/><path d="M139,40.71v2.56S100.27,49.36,69.48,50,0,43.27,0,43.27V40.71S38.68,48,69.48,47.4,139,40.71,139,40.71Z" fill="#dddbe3"/><path d="M139,42.08v9.48l-1,.18c-3.63.63-17,2.88-33.61,4.65-10.75,1.15-22.84,2.09-34.5,2.27C37.05,59.17,0,51.53,0,51.53V40.71S38.68,50.54,69.48,50,139,42.08,139,42.08Z" fill="url(#g)"/><polygon points="21.21 46.44 19.77 53.48 1.92 50.83 1.92 43.62 2.99 43.77 19.04 46.13 21.21 46.44" fill="#fff9db" opacity="0.7" style="mix-blend-mode:soft-light"/><polygon points="28.25 99.41 16.45 109.75 17.93 109.75 37.42 100.06 28.25 99.41" fill="#fff9db" opacity="0.7" style="mix-blend-mode:soft-light"/><polygon points="77.63 113.05 77.5 113.29 74.5 123.85 60.03 123.85 57.37 113.54 57.01 112.84 60.2 104.91 74.91 104.53 77.63 113.05" fill="url(#h)"/><polygon points="77.5 113.29 74.5 123.85 60.03 123.85 57.37 113.54 77.5 113.29" fill="#7d70a6"/><polygon points="59.88 105.68 59.13 109.59 74.43 113.34 57.37 113.54 57.01 112.84 59.88 105.68" fill="#fff9db" opacity="0.7" style="mix-blend-mode:soft-light"/><path d="M138,43.25v8.49c-3.63.63-17,2.49-33.61,4.26V54.49l4-1.85-4,.17,1.26-5.68-1.26-2L135,41.31Z" fill="#7d70a6" opacity="0.5" style="mix-blend-mode:multiply"/><path d="M31.51,46.92s6.79,1.8,7.91,2.24,11.63,0,11.63,0L36.41,46.92Z" fill="#edebf7"/><path d="M76,49.77l9.46.22s4.3-1.19,4.13-1.18-11.87,0-11.87,0Z" fill="#edebf7"/><polygon points="22.96 111.61 24.35 122.31 26.4 122.31 26.83 112.39 40.83 108.06 40.16 104.14 22.96 111.61" fill="#7d70a6" opacity="0.3" style="mix-blend-mode:multiply"/><polygon points="100.14 104.14 99.47 108.06 113.82 112.83 113.52 122.31 115.94 122.31 117.02 111.57 100.14 104.14" fill="url(#i)"/><polygon points="104.13 105.89 107.75 108.7 111.08 108.96 107.53 106.92 104.13 105.89" fill="url(#j)"/></g></svg>