<svg xmlns="http://www.w3.org/2000/svg" xmlns:xlink="http://www.w3.org/1999/xlink" viewBox="0 0 196 34"><defs><linearGradient id="a" x1="98.36" y1="80.03" x2="115.98" y2="-68.56" gradientUnits="userSpaceOnUse"><stop offset="0" stop-color="#0e0d36"/><stop offset="0.17" stop-color="#1b1a3d"/><stop offset="0.49" stop-color="#3f3e4f"/><stop offset="0.92" stop-color="#77766d"/><stop offset="1" stop-color="#838273"/></linearGradient><linearGradient id="b" x1="102.21" y1="108.95" x2="105.78" y2="6.31" xlink:href="#a"/></defs><polygon points="196 34 0 34 36.55 16.64 36.62 16.61 40 15 160 15 180.46 25.8 180.47 25.8 196 34" fill="#590922"/><polygon points="40 15 41 28 160 28 160 15 40 15" fill="#720d32"/><polygon points="167.58 34 31.58 34 41 26 160 26 167.58 34" fill="#330918"/><polygon points="55 34 59 0 66 0 68 3 67.37 21 62 32 55 34" fill="#b2ae87"/><polygon points="153.9 33.63 148 0 141 0 139 4 140.85 21.31 146.8 32.01 153.9 33.63" fill="#b2ae87"/><polygon points="66 1 68 4 67 31 141 32 139 5 141 1 146 33 62 32 66 1" fill="url(#a)"/><polygon points="60 1 55.22 34 154.42 34 147 1 141 1 143 31 65 30 66 1 60 1" fill="url(#b)"/></svg>