<svg xmlns="http://www.w3.org/2000/svg" xmlns:xlink="http://www.w3.org/1999/xlink" viewBox="0 0 127 169.79"><defs><linearGradient id="a" x1="28.08" y1="100.53" x2="43.04" y2="142.33" gradientTransform="matrix(-1, 0, 0, 1, 125.54, 0)" gradientUnits="userSpaceOnUse"><stop offset="0" stop-color="#fff1d2"/><stop offset="0.09" stop-color="#f6dfc7"/><stop offset="0.4" stop-color="#dba7a4"/><stop offset="0.67" stop-color="#c77e8a"/><stop offset="0.87" stop-color="#bb647b"/><stop offset="1" stop-color="#b65b75"/></linearGradient><linearGradient id="b" x1="48.77" y1="117.07" x2="36.63" y2="129.21" gradientUnits="userSpaceOnUse"><stop offset="0" stop-color="#fff1d2"/><stop offset="0.02" stop-color="#fae6cb"/><stop offset="0.11" stop-color="#e8c1b4"/><stop offset="0.21" stop-color="#d8a1a1"/><stop offset="0.31" stop-color="#cc8891"/><stop offset="0.43" stop-color="#c27484"/><stop offset="0.56" stop-color="#bb667c"/><stop offset="0.72" stop-color="#b75d77"/><stop offset="1" stop-color="#b65b75"/></linearGradient><linearGradient id="c" x1="-5.77" y1="21.16" x2="28.56" y2="55.49" gradientTransform="matrix(-1, 0, 0, 1, 103.48, 0)" gradientUnits="userSpaceOnUse"><stop offset="0" stop-color="#eb5c76"/><stop offset="0.25" stop-color="#e9485b"/><stop offset="0.5" stop-color="#e73846"/><stop offset="0.76" stop-color="#e62f39"/><stop offset="1" stop-color="#e62c35"/></linearGradient><clipPath id="d"><path d="M63.07,19.45s3.42,1.18,8.66,7.31S78.05,33.54,82.17,33a12.14,12.14,0,0,1,7.49,1.12c1.59.66,7.63-2.15,8.56-3.37,0,0-5.29,12.13-16,13.06S66.58,32.61,65.83,29,63.07,19.45,63.07,19.45Z" fill="none"/></clipPath><linearGradient id="e" x1="21.53" y1="20.98" x2="42.73" y2="42.18" gradientTransform="matrix(-1, 0, 0, 1, 103.48, 0)" gradientUnits="userSpaceOnUse"><stop offset="0" stop-color="#fffdec"/><stop offset="1" stop-color="#f7b488"/></linearGradient><linearGradient id="f" x1="-38.72" y1="43.29" x2="93.53" y2="75.59" gradientTransform="matrix(-1, 0, 0, 1, 103.48, 0)" gradientUnits="userSpaceOnUse"><stop offset="0" stop-color="#f4aba5"/><stop offset="0.21" stop-color="#f3a29d"/><stop offset="0.54" stop-color="#f18a86"/><stop offset="0.96" stop-color="#ec6362"/><stop offset="1" stop-color="#ec5f5e"/></linearGradient><linearGradient id="g" x1="37.63" y1="177.23" x2="40.36" y2="65.76" gradientTransform="matrix(-1, 0, 0, 1, 103.48, 0)" gradientUnits="userSpaceOnUse"><stop offset="0" stop-color="#b65b75"/><stop offset="0.14" stop-color="#b86078"/><stop offset="0.31" stop-color="#bf6e81"/><stop offset="0.49" stop-color="#cb8690"/><stop offset="0.68" stop-color="#dba7a4"/><stop offset="0.87" stop-color="#f0d2bf"/><stop offset="1" stop-color="#fff1d2"/></linearGradient><linearGradient id="h" x1="21.34" y1="127.31" x2="60.93" y2="166.9" gradientTransform="matrix(-1, 0, 0, 1, 103.48, 0)" gradientUnits="userSpaceOnUse"><stop offset="0" stop-color="#fff1d2"/><stop offset="0.19" stop-color="#f4dbc4"/><stop offset="0.57" stop-color="#d8a1a0"/><stop offset="1" stop-color="#b65b75"/></linearGradient><linearGradient id="i" x1="2.83" y1="100.5" x2="12.45" y2="110.12" xlink:href="#c"/><linearGradient id="j" x1="71.58" y1="85.63" x2="83.23" y2="97.27" xlink:href="#c"/><linearGradient id="k" x1="102.61" y1="-3.12" x2="86.43" y2="13.07" gradientUnits="userSpaceOnUse"><stop offset="0" stop-color="#f4e600"/><stop offset="0.08" stop-color="#d9cd00"/><stop offset="0.34" stop-color="#8d8500"/><stop offset="0.57" stop-color="#514d01"/><stop offset="0.76" stop-color="#262401"/><stop offset="0.91" stop-color="#0b0a01"/><stop offset="1" stop-color="#010101"/></linearGradient><linearGradient id="l" x1="83.91" y1="38.66" x2="74.82" y2="47.74" xlink:href="#k"/><linearGradient id="m" x1="82.49" y1="116.45" x2="60.83" y2="151.76" gradientUnits="userSpaceOnUse"><stop offset="0" stop-color="#fff"/><stop offset="0.1" stop-color="#fef9f8"/><stop offset="0.25" stop-color="#fbe8e6"/><stop offset="0.42" stop-color="#f6ccc7"/><stop offset="0.61" stop-color="#f0a59d"/><stop offset="0.81" stop-color="#e77467"/><stop offset="1" stop-color="#de402e"/></linearGradient><linearGradient id="n" x1="28.88" y1="123" x2="46.47" y2="176.17" gradientTransform="matrix(-1, 0, 0, 1, 103.48, 0)" gradientUnits="userSpaceOnUse"><stop offset="0" stop-color="#fff"/><stop offset="0.26" stop-color="#f5c6c1"/><stop offset="0.62" stop-color="#e97f72"/><stop offset="0.87" stop-color="#e15141"/><stop offset="1" stop-color="#de402e"/></linearGradient></defs><g style="isolation:isolate"><path d="M51.63,157.19S53.34,118.38,33,94.44c0,0,13.5,21.37,14.53,51.29,0,0-10.26-24.62-34.37-54,0,0,16.93,38.12,27.7,51.8,0,0-9.57-13.51-40.86-14.53C0,129,36.24,140.6,51.63,157.19Z" fill="#055c55"/><path d="M80.77,153.08s4.88-17.09,25.4-30.6C106.17,122.48,94.69,148.12,80.77,153.08Z" fill="#055c55"/><path d="M51.63,157.19a121.64,121.64,0,0,0-5.36-37.77c0,.29,3,22.34-.21,6.74A90.46,90.46,0,0,0,35.48,98.94a114.83,114.83,0,0,1,12.05,46.79s-5.28-12.66-17.15-30.67c0,.07,7.09,13.21,4.32,12.76s-15.17-22.45-15.29-22.66c5.88,12.28,14.73,29.74,21.33,38.19l.12.16-.12-.16c-.64-.81-3.93-4.66-11.44-8.18.17.12,8.53,6.06,6.06,6.37-1.65.21-11.58-3.43-18.13-5.93C28.75,140.63,43.27,148.17,51.63,157.19Z" fill="#0870b4" opacity="0.24" style="mix-blend-mode:multiply"/><path d="M102.37,129.86c-3.76,5.81-13.67,16.43-14.51,13.86-.77-2.38,4.49-9.3,5.23-10.26-9.64,10.31-12.32,19.62-12.32,19.62C89.84,149.85,97.88,137.84,102.37,129.86Z" fill="#0870b4" opacity="0.24" style="mix-blend-mode:multiply"/><path d="M92,109.83S80.3,139.58,81.78,151.54s-2.46,0-2.46,0S74,147.1,90.23,109.83Z" fill="url(#a)"/><path d="M79.32,151.54s3.93,12,2.46,0c-.65-5.28,1.27-14,3.62-22.13-1,3-2.41,6.87-3.05,5.08-1-2.78,6.22-19.94,6.86-19.87s-.45,4.22-.45,4.22c.94-2.74,1.78-5,2.38-6.64l-1.55-.88C74.12,147.2,79.32,151.54,79.32,151.54Z" fill="#de402e" opacity="0.28" style="mix-blend-mode:multiply"/><path d="M25.83,98.89A36.61,36.61,0,0,1,36.25,116.5c2.91,11.28.76,23.42,12.56,29.91s9.93-.17,9.93-.17-17.26-6-18.92-24.79c-1-11.62-10.6-23.93-10.6-23.93Z" fill="url(#b)"/><path d="M25.83,98.89A36.61,36.61,0,0,1,36.25,116.5c2.91,11.28.76,23.42,12.56,29.91s9.93-.17,9.93-.17a31.54,31.54,0,0,1-15.57-13.59,2.26,2.26,0,0,0,.4,1c2.83,3.65.19,7.75-1.67,3.52s-1.8-7.5-4.3-19.17-7.33-14.12-6.6-15.19,2.36,1,2.45,1.11a64.28,64.28,0,0,0-4.23-6.41Z" fill="#de402e" opacity="0.28" style="mix-blend-mode:multiply"/><path d="M74.24,119.4s-10.81,10.94-25.43,9.06A25.26,25.26,0,0,1,50.62,146c-2.58,9.74,27.85.68,27.85.68Z" fill="#842d4b"/><path d="M125.94,80.36a12.2,12.2,0,0,0-3.27-14.3c-7.18-6.5-24-26-24.45-34.39,0,0,3.42-4.59,2.14-6.55s-2.48-2.91-2.48-8.3S92.83.84,84.37.07,73,5.11,70.61,9.64,66.26,11,64.27,11.87s-1.9,7-1.9,7-2.79,7.74-17.49,10.74S18.55,28.62,16,42.38,125.94,80.36,125.94,80.36Z" fill="url(#c)"/><path d="M71.47,13.85c1.78,3.57,9.12.32,10.11-3.44C82.3,7.64,82.31.6,78.7.72c-3.37,1.25-5.35,4-6.89,6.7C71.08,9.45,70.55,12,71.47,13.85Z" fill="#f4f3c0" style="mix-blend-mode:screen"/><path d="M94.19,20.84c-1.54-3.25-9.36,1.72-9,4.54C86.24,32.91,95.73,24.09,94.19,20.84Z" fill="#f4f3c0" style="mix-blend-mode:screen"/><path d="M86,19.78c-2.39-1.67-8.32-.71-4.67,4.28C82.66,25.91,88.38,21.45,86,19.78Z" fill="#f4f3c0" style="mix-blend-mode:screen"/><path d="M88.72,16.65c4.27,1.2,3.76-3,1.06-3.76S86.44,16,88.72,16.65Z" fill="#f4f3c0" style="mix-blend-mode:screen"/><path d="M94.79,17.45c.5,4,2.69,8.7,3.4,3.25a19.5,19.5,0,0,1-.31-3.88,16,16,0,0,0-1.1-5.25C94.77,10.83,94.33,13.79,94.79,17.45Z" fill="#f4f3c0" style="mix-blend-mode:screen"/><path d="M100.26,48.37c4.36,3.93,4.31-3.42,4.31-3.42-2.8-4.1-5-8-5.89-11C95,37.45,96.13,44.64,100.26,48.37Z" fill="#f4f3c0" style="mix-blend-mode:screen"/><path d="M49,35.05c-9,2.29,10.86,11.61,13.42,10.32S61.62,31.83,49,35.05Z" fill="#f4f3c0" style="mix-blend-mode:screen"/><path d="M50.62,30.59c6.1.4,10.43-2.76,5.08-4.92a34.16,34.16,0,0,1-10.82,4c-2.09.42-4.11.7-6.05.91A100.72,100.72,0,0,1,50.62,30.59Z" fill="#f4f3c0" style="mix-blend-mode:screen"/><path d="M94.36,42.9c-1.8-1.29-4,2.32-1.62,3.42C98.62,49,96.16,44.18,94.36,42.9Z" fill="#f4f3c0" style="mix-blend-mode:screen"/><path d="M61,28.89c-1.79-.51-3.57,3.61-1.16,3.5C65.36,32.14,62.82,29.39,61,28.89Z" fill="#f4f3c0" style="mix-blend-mode:screen"/><path d="M38.8,32.87c-1.95,3,8.61,1.41,8.1,0S39.76,31.38,38.8,32.87Z" fill="#f4f3c0" style="mix-blend-mode:screen"/><path d="M70.61,9.64c-2.4,4.53-4.35,1.37-6.34,2.23s-1.9,7-1.9,7-2.79,7.74-17.49,10.74S18.55,28.62,16,42.38s110,38,110,38A12.17,12.17,0,0,0,124,67.46c-.71-.69-1.45-1.42-2.27-2.25l-.2-.2c-.56-.53-1.15-1.11-1.77-1.75-19.65-18.93-26.56-11.35-41-11.54-14.94-.19-17.82-9.94-17.82-9.94,12.5,13.85,24.17,4.56,24.17,4.56-15.84,5.7-21.35-8.82-21-13.82s-1-13.07-1-13.07a19.14,19.14,0,0,1,2-5.55c1.27-1.92,5.78-.2,5,3.49s-2.41,3.07-2.41,3.07S70,22.29,73,10.11C75.72-1.15,84.93.18,86.3.45A10.15,10.15,0,0,0,84.37.07C75.91-.7,73,5.11,70.61,9.64Z" fill="#b01378" opacity="0.28" style="mix-blend-mode:multiply"/><path d="M63.07,19.45s3.42,1.18,8.66,7.31S78.05,33.54,82.17,33a12.14,12.14,0,0,1,7.49,1.12c1.59.66,7.63-2.15,8.56-3.37,0,0-5.29,12.13-16,13.06S66.58,32.61,65.83,29,63.07,19.45,63.07,19.45Z" fill="#641548"/><path d="M63.07,19.45s2.2-10.53,3-2.71c0,0-.76-3.52-2.6,2.88l.12.84Z" fill="#641548"/><path d="M97.4,32.39s1.92-2.52,1.39-5.07-1.34-2.79-2.09.51c0,0,1.13-2.55,1.72,0A3.75,3.75,0,0,1,97,31.74Z" fill="#641548"/><path d="M98.88,29S93.54,45,81.56,44.54,65.28,31.75,64.27,22.19L76,36.12l11.81.75,8.41-3.5A22.48,22.48,0,0,0,98.88,29Z" fill="#7e82be" opacity="0.36" style="mix-blend-mode:multiply"/><g clip-path="url(#d)"><path d="M96,31.11s-4.15,9-5.38,7.49c-.6-.76-2.85-10.3-2.85-10.3l0,4.73s-3.46,8.19-5.47,8S79,31.78,79,31.78l-.62.55s-4.06,7.44-6.17,7-.84-15.4-.84-15.4l-.93.56s-2.83,3.37-4,3.24-1.56-8.57-1.56-8.57l-2.81-1,1.45,10.25L65.65,30s3.32-4.24,4.58-3.48S69.67,40,69.67,40,73,42,73.09,42s3.82-7.17,5.28-7.31,3,9.83,3,9.83l3-.65s1.94-8.28,3.37-8.94c1.59-.73,3.93,7.19,1.87,7,0,0-12.26,6.27-11.79,6.46S63.07,34.2,63.07,34.2L59.89,14.12l30.84,9Z" fill="url(#e)"/><path d="M60.35,17c.2-1.24.38-2.21.5-2.63l2.2.64C69.27,17.74,87.73,25.91,94.59,29L96,31.11s-.69,1.52-1.6,3.2c0-.38-.46-.67-2.09-.13-2.56.83-1.93,3.6-1.68,4.43C90,37.84,87.79,28.3,87.79,28.3l0,4.73s-.3.72-.78,1.72c-.2-.59-.86-1.65-3.12-1.25-3.07.53-3.81,3.9-2.1,7.22C80.11,39.22,79,31.78,79,31.78l-.62.55s-.4.73-1,1.72c-.13-.77-.69-2.3-3-3.67-2.93-1.77-3.3,3.76-3.08,7.12-.75-4.07.06-13.6.06-13.6l-.93.56s-.42.5-1,1.11c0-.57-.2-1.56-1.75-2.63-2.43-1.68-2.28,2-1.84,3.75a46.5,46.5,0,0,1-.94-7.56l-2.81-1,1.45,10.25L65.65,30a20.27,20.27,0,0,1,2.47-2.62,4.31,4.31,0,0,0-.7,1.94c-.25,2.24.71,5.85,1.88,6.13a3.52,3.52,0,0,0,.92.13C70,38,69.67,40,69.67,40S73,42,73.09,42,76.38,35.9,78,34.86a9.41,9.41,0,0,0-2.22,5.24c-.38,3.23,4.52,3.76,5.23,2.53.2,1.13.32,1.91.32,1.91l3-.65a50.15,50.15,0,0,1,2.41-7.63,8.9,8.9,0,0,0-.38,3.13c.13,2.51,3.32,2,4,.25.19,1.33,0,2.39-.74,2.33,0,0-3.11,1.59-6.14,3.19L75,45.64C70.75,41.49,63.07,34.2,63.07,34.2Z" fill="#b93d26" opacity="0.36" style="mix-blend-mode:multiply"/></g><path d="M122.37,84.23c12.95-8.85-6.29-23.21-18-26.55S65.31,53.32,56.2,47.55s-25-15.13-32.94-13.07S12.51,47.78,18,59C35.13,93.93,104.06,96.73,122.37,84.23Z" fill="url(#f)"/><path d="M59.88,49.31s1.19,17.61,8.75,19.79S91.87,55.3,91.87,55.3s-5.68,10.46-16,15c0,0,26.09,2.2,35.2-9.86,0,0-8.08,15.25-35.26,12.17,0,0,29.93,13.22,47.66-2.69,0,0-13.29,19.23-48.43,4.48,0,0,16.1,16.68,44.79,11.35,0,0-24.4,8-46.07-9.68,0,0,2.56,14.22,21.28,14.87,0,0-19.19.9-23.57-13,0,0-5.17,6,1,11.87,0,0-5.38-1.83-5.12-7.55s-9.87-3.86-9.87-3.86-2.31,7-10.65,4.73c0,0,7.44.84,9.36-7.49,0,0-11.42,7.36-25-1.2a25.39,25.39,0,0,0,24.5-1.24S34.91,77.3,19,60.89c0,0,15.15,14.59,37.44,9.87,0,0-43-3.52-38.28-33,0,0-5.83,25.42,39.31,30.67,0,0-31.89-7-26.2-33.4,0,0-4,26.41,28.38,31.74,0,0-22.2-8.13-14.44-25.73,0,0-6.09,16.75,16.49,24.32C61.71,65.38,58.43,60.94,59.88,49.31Z" fill="#de402e" opacity="0.28" style="mix-blend-mode:multiply"/><path d="M94.19,86.14c-15.47-8.86,5.14-8.45,5.14-8.45-28.29-3.07-4-8.75-4-8.75-12,0-3.48-13.63-3.47-13.64S79,67.69,72.09,66.88s-4.16-15.33-4.16-15.33a57.88,57.88,0,0,1-8-2.21c-4,5.27-2.88,10.14-2.88,10.14-14.67-5.87-11.9-18.29-11.87-18.42-7.95-4.29-16.69-7.94-22-6.58C15.3,36.53,12.51,47.78,18,59,31.45,86.42,76.83,94,104.57,90,88.65,91.36,94.19,86.14,94.19,86.14Z" fill="#de402e" opacity="0.28" style="mix-blend-mode:multiply"/><path d="M64.57,95.64c.54-14.88,13-27.7,13-27.7-11,9.58-13.73,1.64-14.31-1.06-2.52,3.77-8.67,14.35-8.6,27.56,0,7.06,1,19,.86,27.53s-8.72,33-2.74,40,26.67,1.88,27.19-7.69S64,110.51,64.57,95.64Z" fill="url(#g)"/><path d="M63.22,66.88c-2.52,3.77-8.67,14.35-8.6,27.56,0,7.06,1,19,.86,27.53s-8.72,33-2.74,40,26.67,1.88,27.19-7.69c.32-6-6.05-21.77-10.69-36.34,1.38,16.07-7.45,10.61-10.87-12.81S60.68,77,65.28,75.46,67.66,83,67.66,83a56.78,56.78,0,0,1,9.87-15C66.55,77.52,63.8,69.58,63.22,66.88Z" fill="#de402e" opacity="0.28" style="mix-blend-mode:multiply"/><path d="M66.08,166.76a24.44,24.44,0,0,1-19,1.88c-10.26-3.42,5.47-28.38,1.71-40.18l3.42,2.31L52,135.3,53.43,131s3.93,2.39,4.44,4.1,1.2,18,1.2,18l.08-17.86,1.37,18s.81-16.49,2.67-19.06c0,0,4.94,7.78,4.77,16.33a21.61,21.61,0,0,0-2.14-13.68A25.26,25.26,0,0,1,70.91,151s.72-11.11-3.38-19.57a43.16,43.16,0,0,1,6.58,15.64s1.37-9.83-5-17.27c0,0,5.29-6.5,5.08-10.43,0,0,9,16.93,10.22,26.33S86.34,161.8,66.08,166.76Z" fill="url(#h)"/><path d="M98.39,114.62c-1.38,2.13-9.4-.69-12.74-5.13s.86-5.3,2.91-8.12,4.27-6,7.52-5.05,1.63,8.12,2.31,11.11S100.1,112,98.39,114.62Z" fill="url(#i)"/><path d="M35.82,94c-2.11,6.73-8.29,10.6-12.91,10s-4.79-4.19-4.27-6.67,0-4.47-.43-9.23,2.73-8.12,8.05-3.93C31.24,88.1,38,86.92,35.82,94Z" fill="url(#j)"/><path d="M95.45,8.63C91.83.94,84.78-1.3,81.58,3.7S105,28.82,95.45,8.63Z" fill="url(#k)" style="mix-blend-mode:screen"/><path d="M76.47,46.74c-4.83-.79-5.45-3.18,1-2.19S81.22,47.52,76.47,46.74Z" fill="url(#l)" style="mix-blend-mode:screen"/><path d="M23.3,85.89c2.31,4,8.23,2.17,3-1.7C26.26,84.19,21,81.85,23.3,85.89Z" fill="#f4f3c0" style="mix-blend-mode:screen"/><path d="M31.64,89c-1.41-.7-4.42.35-2.76,3S33.05,89.68,31.64,89Z" fill="#f4f3c0" style="mix-blend-mode:screen"/><path d="M33.5,89c-1.16-.12-1.42,2.26,0,1.71C35.48,90,34.65,89.16,33.5,89Z" fill="#f4f3c0" style="mix-blend-mode:screen"/><path d="M25.55,100.19c3.36,2.69,8.74-3.5,8.06-5S23.56,98.59,25.55,100.19Z" fill="#f4f3c0" style="mix-blend-mode:screen"/><path d="M25.27,90.74c-1.07-2.73-7.74-3-4.72,6.05C21.56,99.84,26.35,93.47,25.27,90.74Z" fill="#f4f3c0" style="mix-blend-mode:screen"/><path d="M18.47,98.49c-.19,2.24.46,4.82,4.06,5.46,0,0,0,0,.07-.07C24,102.09,20.08,98,18.47,98.49Z" fill="#f4f3c0" style="mix-blend-mode:screen"/><path d="M91.13,104.81c2-1.48,3.5-8-1.47-4.92-.38.49-.74,1-1.1,1.48a13.45,13.45,0,0,1-2.1,2.1C87.85,104.51,89.88,105.74,91.13,104.81Z" fill="#f4f3c0" style="mix-blend-mode:screen"/><path d="M91.74,108c-1.6-.84-4.51.61-5.35,2.39a16.43,16.43,0,0,0,4.34,3.23C92.84,112.51,93.56,108.92,91.74,108Z" fill="#f4f3c0" style="mix-blend-mode:screen"/><path d="M96.2,109.17c-2.31-1.16-2.83,2.7-1.54,3.71C96.74,114.52,98.51,110.32,96.2,109.17Z" fill="#f4f3c0" style="mix-blend-mode:screen"/><path d="M95.63,106.54c1.54.19,2.17-1.67.44-3S94.91,106.45,95.63,106.54Z" fill="#f4f3c0" style="mix-blend-mode:screen"/><path d="M94.93,100.06c.18,2.81,3.64,3.67,3.15-.45a.13.13,0,0,1,0-.06C97.77,97.24,94.75,97.25,94.93,100.06Z" fill="#f4f3c0" style="mix-blend-mode:screen"/><path d="M97.29,107.73c-.26.92,1.38,4.79,1.49,1.22C98.78,109,97.54,106.8,97.29,107.73Z" fill="#f4f3c0" style="mix-blend-mode:screen"/><path d="M88.12,107.49c.45-1.1-1.83-2.51-3.39-2.11-.47.87-.48,1.91.43,3.38C86.37,108.8,87.81,108.25,88.12,107.49Z" fill="#f4f3c0" style="mix-blend-mode:screen"/><path d="M88.56,101.37c-2,2.82-6.24,3.67-2.91,8.12s11.36,7.26,12.74,5.13a6.26,6.26,0,0,0,.69-1.45c-1.89,4.54-10.35-2.67-8.14-4.37s2-5.3,2.53-9,3.37-3.09,3.37-3.09a2.16,2.16,0,0,0-.76-.42C92.83,95.38,90.61,98.54,88.56,101.37Z" fill="#b01378" opacity="0.28" style="mix-blend-mode:multiply"/><path d="M18.21,88.12c.42,4.76.94,6.75.43,9.23s-.35,6.07,4.27,6.67,10.63-3.18,12.81-9.75c-1.24,2.42-4.67,8-9.89,7.87-6.65-.19-1.56-6.84-4.56-13.68-2.9-6.65,1.9-5.95,2.17-5.9C19.86,81.31,17.86,84.18,18.21,88.12Z" fill="#b01378" opacity="0.28" style="mix-blend-mode:multiply"/><path d="M52,135.3l.26-4.53-3.42-2.31c3.76,11.8-12,36.76-1.71,40.18a24.44,24.44,0,0,0,19-1.88c20.26-5,19.66-11.54,18.38-21-.61-4.46-2.93-10.6-5.22-15.83,4.05,11.11,3.88,19.36,3.88,19.36a31.64,31.64,0,0,0-7.18-15.91s10.29,16.72,4,23.51-8.47-3.78-8.47-3.78c-2.73,9.74-6.19-3.82-6.19-3.82-1.81,20-2.68-10.92-2.68-10.92a65.36,65.36,0,0,1-2.18,15.77c-2.18,7.56-1.4-2.18-1.4-2.18l-1.42,5.9c.9-17.88-2.34-25.49-2.36-25.56-1-.72-1.81-1.24-1.81-1.24Z" opacity="0.28" fill="url(#m)" style="mix-blend-mode:multiply"/><path d="M47.1,168.64a24.44,24.44,0,0,0,19-1.88c9.19-2.25,14.08-4.83,16.57-7.87-11.45,11.34-16.75-2-16.75-2,.17,12.5-1.62.33-1.62.33-1.53,13.76-4.88,2.3-4.88,2.3s.6,5.82-.55,5.73-1.16-6.58-1.16-6.58-.6,8-2.22,7.52-2-13.08-2-13.08-.51,11.29-2.22,9.32.39-24.62.39-24.62S48.8,161.2,46.58,159s.5-13,.5-13C44.31,156.29,40.79,166.54,47.1,168.64Z" opacity="0.28" fill="url(#n)" style="mix-blend-mode:multiply"/></g></svg>