<svg xmlns="http://www.w3.org/2000/svg" xmlns:xlink="http://www.w3.org/1999/xlink" viewBox="0 0 90.14 174.19"><defs><linearGradient id="a" x1="33.1" y1="198.44" x2="33.1" y2="-80.79" gradientUnits="userSpaceOnUse"><stop offset="0" stop-color="#454898"/><stop offset="0.13" stop-color="#5558a1"/><stop offset="0.38" stop-color="#8183b9"/><stop offset="0.73" stop-color="#c5c6df"/><stop offset="1" stop-color="#fff"/></linearGradient><linearGradient id="b" x1="13.66" y1="160.93" x2="48.53" y2="40.29" gradientUnits="userSpaceOnUse"><stop offset="0" stop-color="#f1f2c0"/><stop offset="0.17" stop-color="#f1d5b4"/><stop offset="0.4" stop-color="#f0b3a5"/><stop offset="0.63" stop-color="#f09a9a"/><stop offset="0.83" stop-color="#f08b93"/><stop offset="1" stop-color="#f08691"/></linearGradient><linearGradient id="c" x1="34.59" y1="155.07" x2="34.59" y2="99.09" gradientUnits="userSpaceOnUse"><stop offset="0" stop-color="#62b66b"/><stop offset="0.18" stop-color="#4eae6a"/><stop offset="0.73" stop-color="#169766"/><stop offset="1" stop-color="#008e64"/></linearGradient><linearGradient id="d" x1="27.69" y1="154.23" x2="27.69" y2="98.3" xlink:href="#c"/><linearGradient id="e" x1="40.18" y1="158.26" x2="40.18" y2="99.31" xlink:href="#c"/><linearGradient id="f" x1="47.65" y1="108.63" x2="47.65" y2="86.08" xlink:href="#c"/><linearGradient id="g" x1="38.2" y1="153.88" x2="38.2" y2="79.1" xlink:href="#c"/><linearGradient id="h" x1="43.39" y1="157.11" x2="43.39" y2="55.51" gradientUnits="userSpaceOnUse"><stop offset="0" stop-color="#d94e96"/><stop offset="0.31" stop-color="#b04b96"/><stop offset="0.78" stop-color="#784796"/><stop offset="1" stop-color="#624696"/></linearGradient><linearGradient id="i" x1="28.5" y1="149.22" x2="28.5" y2="49.72" xlink:href="#h"/><linearGradient id="j" x1="35.74" y1="149.5" x2="35.74" y2="51.24" xlink:href="#h"/><linearGradient id="k" x1="37.89" y1="154.48" x2="37.89" y2="51.93" xlink:href="#h"/><linearGradient id="l" x1="38.54" y1="174.24" x2="37.81" y2="155.26" gradientUnits="userSpaceOnUse"><stop offset="0.02" stop-color="#fff"/><stop offset="0.44" stop-color="#f0a79f"/><stop offset="0.83" stop-color="#e35d4e"/><stop offset="1" stop-color="#de402e"/></linearGradient><linearGradient id="m" x1="51.93" y1="70.55" x2="35.08" y2="91.71" gradientUnits="userSpaceOnUse"><stop offset="0" stop-color="#f4e600"/><stop offset="0.02" stop-color="#efe100"/><stop offset="0.23" stop-color="#a79e00"/><stop offset="0.43" stop-color="#6c6601"/><stop offset="0.61" stop-color="#3e3a01"/><stop offset="0.77" stop-color="#1d1b01"/><stop offset="0.91" stop-color="#080801"/><stop offset="1" stop-color="#010101"/></linearGradient><linearGradient id="n" x1="50.82" y1="85.35" x2="50.82" y2="67.39" xlink:href="#m"/><linearGradient id="o" x1="59.88" y1="78.47" x2="39.11" y2="99.24" xlink:href="#m"/><linearGradient id="p" x1="51.49" y1="98.67" x2="36.98" y2="113.18" xlink:href="#m"/><linearGradient id="q" x1="44.59" y1="67.94" x2="36.49" y2="76.04" xlink:href="#m"/><linearGradient id="r" x1="47.24" y1="86.18" x2="30.91" y2="102.51" gradientUnits="userSpaceOnUse"><stop offset="0" stop-color="#f4e600"/><stop offset="0.03" stop-color="#ebdd00"/><stop offset="0.39" stop-color="#888000"/><stop offset="0.68" stop-color="#3f3c01"/><stop offset="0.89" stop-color="#121101"/><stop offset="1" stop-color="#010101"/></linearGradient><linearGradient id="s" x1="58.88" y1="49.75" x2="44.85" y2="67.39" xlink:href="#m"/><linearGradient id="t" x1="43.22" y1="45.28" x2="14.51" y2="60.08" xlink:href="#m"/><linearGradient id="u" x1="74.47" y1="-21.91" x2="32.38" y2="130.37" xlink:href="#m"/><linearGradient id="v" x1="13.66" y1="160.93" x2="48.53" y2="40.29" gradientUnits="userSpaceOnUse"><stop offset="0" stop-color="#f0e3f0"/><stop offset="0.24" stop-color="#ece1ef"/><stop offset="0.46" stop-color="#e1daec"/><stop offset="0.67" stop-color="#cfcfe8"/><stop offset="0.87" stop-color="#b5bfe1"/><stop offset="1" stop-color="#a0b2dc"/></linearGradient><linearGradient id="w" x1="20.37" y1="28.96" x2="67.09" y2="28.96" gradientTransform="matrix(1, -0.03, 0.03, 1, -2.06, 8.56)" gradientUnits="userSpaceOnUse"><stop offset="0" stop-color="#fff"/><stop offset="0.01" stop-color="#fcfcfd"/><stop offset="0.08" stop-color="#d8cfe4"/><stop offset="0.16" stop-color="#b8a8cd"/><stop offset="0.25" stop-color="#9c87ba"/><stop offset="0.34" stop-color="#866cab"/><stop offset="0.44" stop-color="#75579f"/><stop offset="0.55" stop-color="#694896"/><stop offset="0.68" stop-color="#624092"/><stop offset="0.89" stop-color="#603d90"/></linearGradient><linearGradient id="x" x1="34.7" y1="63.66" x2="34.7" y2="2.8" gradientUnits="userSpaceOnUse"><stop offset="0" stop-color="#454898"/><stop offset="0" stop-color="#464998"/><stop offset="0.27" stop-color="#8789bd"/><stop offset="0.51" stop-color="#bbbcd9"/><stop offset="0.72" stop-color="#e0e0ee"/><stop offset="0.89" stop-color="#f7f7fa"/><stop offset="1" stop-color="#fff"/></linearGradient><linearGradient id="y" x1="59.01" y1="23.26" x2="42.52" y2="29.94" gradientUnits="userSpaceOnUse"><stop offset="0" stop-color="#f4e600"/><stop offset="0.05" stop-color="#d4c800"/><stop offset="0.15" stop-color="#a39a00"/><stop offset="0.25" stop-color="#787101"/><stop offset="0.35" stop-color="#534e01"/><stop offset="0.46" stop-color="#353201"/><stop offset="0.57" stop-color="#1e1c01"/><stop offset="0.69" stop-color="#0e0d01"/><stop offset="0.82" stop-color="#040401"/><stop offset="1" stop-color="#010101"/></linearGradient><linearGradient id="z" x1="42.22" y1="1.96" x2="21.07" y2="23.11" gradientUnits="userSpaceOnUse"><stop offset="0" stop-color="#a25252"/><stop offset="0.35" stop-color="#9e4e4e"/><stop offset="0.72" stop-color="#924241"/><stop offset="1" stop-color="#843432"/></linearGradient><linearGradient id="aa" x1="42.17" y1="2.74" x2="23.13" y2="21.78" gradientUnits="userSpaceOnUse"><stop offset="0" stop-color="#df9495"/><stop offset="0.24" stop-color="#ce8182"/><stop offset="0.73" stop-color="#ae5f5f"/><stop offset="1" stop-color="#a25252"/></linearGradient></defs><g style="isolation:isolate"><path d="M15.36,37.48H50.84A15.35,15.35,0,0,1,66.16,53.79l-6.7,107.12a11.16,11.16,0,0,1-7.06,9.69c-6.94,2.71-18.38,5.62-29.61,1.65a11.19,11.19,0,0,1-7.38-9L.15,55A15.36,15.36,0,0,1,15.36,37.48Z" fill="url(#a)"/><path d="M17.9,42.22H48.29c7.59,0,13.6,6.68,13.13,14.58l-5.74,95.72a9.94,9.94,0,0,1-6,8.66c-6,2.42-15.75,5-25.37,1.48a9.91,9.91,0,0,1-6.32-8L4.88,57.85C3.76,49.59,9.91,42.22,17.9,42.22Z" fill="url(#b)"/><path d="M20.12,35.37S22.93,39.84,37,39.05s13.54-3.64,13.54-3.64,1.94,3.47-.18,4.91-10.26,2.27-15,2.31S15.51,41.33,20.12,35.37Z" fill="#b01378"/><path d="M28.4,115.14a29.17,29.17,0,0,1,8.89.82c3.49.87,6.39,2.37,6,4.54a1.26,1.26,0,0,1-.33.65c-1.79,3.39-4.49,4.92-5.52,7.25a41.66,41.66,0,0,1,6.71-.25c10.51.5,6.73-12.36,3.21-15.71a13.27,13.27,0,0,0-3.12-2.16,21.09,21.09,0,0,0-10.19-2l-.66,0c-3.91.24-7.08.77-4.14-2.44a2.79,2.79,0,0,1,.66-.51,11.25,11.25,0,0,1-2.16-3.49,6.65,6.65,0,0,1,0-4.67c-3.79,1.57-7.11,4-8.47,8.27C15.19,118.05,24,115.65,28.4,115.14Z" fill="url(#c)"/><path d="M31,136.51a8.13,8.13,0,0,1-.86-2.06c-1.64-6.26.83-8.59,3.65-12.34-4.86,0-10,.37-11.46,4.34C19.84,133.29,24.31,137.36,31,136.51Z" fill="url(#d)"/><path d="M37.2,128.93a5,5,0,0,0-.2,2.12,4.17,4.17,0,0,0,2.26,3.55c4.91-.68,7.62.47,6.94,2.36-.31.82-3.3,2.12-6.92,3.92-7.42,3.66-17.52,9.39-12.88,17.38,0,0-2.55-8.78,9.58-11.34,3.46-.73,6.54-1.45,9.18-2.23a29.16,29.16,0,0,0,5.8-2.3c2.91-1.61,4.43-3.65,4.15-6.54C54.56,130.21,46.48,127.56,37.2,128.93Z" fill="url(#e)"/><path d="M55.92,56c-2.31-1.48-3.16-1.22-8.61,2.08s-9.55,5-9.93,10.07c2.39,2.67,5.54,6.52,6.8,9.53,11.4-.94,10.22-5.24,12.39-12.27C58.68,58.6,58.23,57.49,55.92,56Z" fill="url(#f)"/><path d="M32.93,89.09c3.11.43,6.28.72,8.45,1.26,1.54.39,2.58.9,2.72,1.69.26,1.36-2.51,1.83-6.32,2.51-3.1,3.65-3.71,5.89-.33,8.64,7.55-1.55,17.15-3.51,16-10-.83-4.56-4.9-6.77-9.18-8a52.23,52.23,0,0,0-7.48-1.32c-1.9-.22-3.3-.38-3.65-.7-.76-.67,1.82-2.19,4.33-3.44a1.94,1.94,0,0,0-.13-.3,42.58,42.58,0,0,0-3.06-4.66c-4.49,1.67-11.41,5-11.34,9.36C22.94,87.31,27.85,88.39,32.93,89.09Z" fill="url(#g)"/><path d="M51,142.39a29.16,29.16,0,0,1-5.8,2.3,5.42,5.42,0,0,1,.34.77c2.41,7.2-4.4,12.9-10.4,7.9,0,0,4.57,7,11.81,1.89A10.74,10.74,0,0,0,51,142.39Z" fill="url(#h)"/><path d="M34.24,74.77a42.58,42.58,0,0,1,3.06,4.66,1.94,1.94,0,0,1,.13.3c.52,1.23.16,2.62-.68,4.14a52.23,52.23,0,0,1,7.48,1.32,12,12,0,0,0,.47-5.86,7.38,7.38,0,0,0-.52-1.65c-1.26-3-4.41-6.86-6.8-9.53-1.66-1.85-3-3.12-3-3.12,1.52-12-4.32-12.81-11.83-16.31-5.78-2.69-6.66-2.85-8.79-1.13s-2.45,2.89.38,9.43c3.14,7.22,4.6,12,15.21,12A61.77,61.77,0,0,1,34.24,74.77Z" fill="url(#i)"/><path d="M33.34,108.28l.66,0a21.09,21.09,0,0,1,10.19,2c-1-3.78-3.88-5-5.89-6.44-.31-.22-.59-.43-.85-.65-3.38-2.75-2.77-5,.33-8.64.44-.51.91-1,1.44-1.61.81-.88,1.51-1.74,2.16-2.59-2.17-.54-5.34-.83-8.45-1.26-2.1,2.59-4.3,5.34-5.2,8.08a6.65,6.65,0,0,0,0,4.67,11.25,11.25,0,0,0,2.16,3.49A19.55,19.55,0,0,0,33.34,108.28Z" fill="url(#j)"/><path d="M46.2,137c-2.48-1.2-5.12-1.37-6.94-2.36A4.17,4.17,0,0,1,37,131.05a5,5,0,0,1,.2-2.12,3.35,3.35,0,0,1,.19-.53c1-2.33,3.73-3.86,5.52-7.25.11-.21.23-.42.33-.65.44-2.17-2.46-3.67-6-4.54a7.7,7.7,0,0,1-.29.79,26.61,26.61,0,0,1-3.24,5.36c-2.82,3.75-5.29,6.08-3.65,12.34a8.13,8.13,0,0,0,.86,2.06c1.8,3.11,5.19,3.61,8.31,4.37C42.9,139.08,45.89,137.78,46.2,137Z" fill="url(#k)"/><path d="M51,142.39a29.16,29.16,0,0,1-5.8,2.3,5.42,5.42,0,0,1,.34.77c2.41,7.2-4.4,12.9-10.4,7.9,0,0,3.58,5.44,9.41,3.19-2.48-.05-.66-.7,2.4-4.42s-1.6-7.14,1.24-7.54,3.3,3.72,3.32,3.86A11.36,11.36,0,0,0,51,142.39Z" fill="#543c90" opacity="0.45" style="mix-blend-mode:multiply"/><path d="M13.81,47.59c-2.13,1.74-2.45,2.89.38,9.43,3.14,7.22,4.6,12,15.21,12a61.77,61.77,0,0,1,4.84,5.74,42.58,42.58,0,0,1,3.06,4.66,1.94,1.94,0,0,1,.13.3c.52,1.23.16,2.62-.68,4.14a52.23,52.23,0,0,1,7.48,1.32,13,13,0,0,0,.56-2.6c-2.77,3.52-3.89-.76-6.22-4.91s-6.54-7.39-6.19-10,4.36-.23,4.37-.23C35.4,66,34.43,65,34.43,65c.78-6.15-.39-9.36-2.73-11.5.1.14,2.14,3.11,1,3.09s-7.6-3.87-7.6-3.87S34,58.16,33.7,62a4.74,4.74,0,0,1-3.59,4.46c-.32-7.09-6.41-7.85-9.41-8.59s-7.07-4.27-7.07-7.72,4.47-3.28,4.5-3.28A3.75,3.75,0,0,0,13.81,47.59Z" fill="#543c90" opacity="0.45" style="mix-blend-mode:multiply"/><path d="M41.38,90.35c-2.17-.54-5.34-.83-8.45-1.26-2.1,2.59-4.3,5.34-5.2,8.08a6.65,6.65,0,0,0,0,4.67,11.25,11.25,0,0,0,2.16,3.49,19.55,19.55,0,0,0,3.48,3l.66,0a21.09,21.09,0,0,1,10.19,2,9.14,9.14,0,0,0-4.3-5.38c2.77,2,.68,2.48-3,2s-7.13-4.46-7.67-7.22,3.21-10,6.94-9.33,2,3.72,2,3.72c.34-.37.65-.74,1-1.13C40,92.06,40.73,91.2,41.38,90.35Z" fill="#543c90" opacity="0.45" style="mix-blend-mode:multiply"/><path d="M43.24,120.5c.44-2.17-2.46-3.67-6-4.54a7.7,7.7,0,0,1-.29.79,26.61,26.61,0,0,1-3.24,5.36c-2.82,3.75-5.29,6.08-3.65,12.34a8.13,8.13,0,0,0,.86,2.06c1.8,3.11,5.19,3.61,8.31,4.37,3.62-1.8,6.61-3.1,6.92-3.92-2.09-1-4.28-1.29-6-2a.81.81,0,0,0,.32.18c2.54.8,2.87,2.33,2.28,3s-5.28,1.73-8.55-1.57S32.17,128,33.1,126.45s4.74-8.6,7.4-8.07.87,5.05.84,5.12a13.92,13.92,0,0,0,1.57-2.35C43,120.94,43.14,120.73,43.24,120.5Z" fill="#543c90" opacity="0.45" style="mix-blend-mode:multiply"/><path d="M29.2,105.84a2.79,2.79,0,0,1,.66-.51,11.25,11.25,0,0,1-2.16-3.49,6.65,6.65,0,0,1,0-4.67c-3.79,1.57-7.11,4-8.47,8.27-4.07,12.61,4.74,10.21,9.14,9.7a29.17,29.17,0,0,1,8.89.82c3.49.87,6.39,2.37,6,4.54,2.44-2.4-2.39-6.71-8.65-7.72S22.9,114,21,112.78s-1.69-7.34,1.15-9.79,5.7.6,5.19,3.15,1.41,2.21,1.41,2.21C27.79,108.12,27.73,107.45,29.2,105.84Z" fill="#0870b4" opacity="0.33" style="mix-blend-mode:multiply"/><path d="M46.81,126.65c-4.24,1.06-5.5-1.62-4.81-4-1.69,2.41-3.74,3.82-4.61,5.78a41.66,41.66,0,0,1,6.71-.25c5.83.28,7.26-3.55,6.78-7.59C50.87,122.79,50.21,125.8,46.81,126.65Z" fill="#0870b4" opacity="0.33" style="mix-blend-mode:multiply"/><path d="M30.69,124.75c-4.3,3.6-1.84,8.6-1.84,8.6s-5.7-1.3-5.5-5.9c.16-3.69,3.53-4.73,4.86-5-2.76.48-5,1.57-5.91,4-2.46,6.84,2,10.91,8.67,10.06a8.13,8.13,0,0,1-.86-2.06c-1.64-6.26.83-8.59,3.65-12.34-.6,0-1.2,0-1.8,0C32.69,122.29,32.9,122.9,30.69,124.75Z" fill="#0870b4" opacity="0.33" style="mix-blend-mode:multiply"/><path d="M44.19,133.35c-2.42-.2-7.34-.4-6.3-2.55,1-2,6-2.08,6.71-2.08a30.5,30.5,0,0,0-7.4.21,5,5,0,0,0-.2,2.12,4.17,4.17,0,0,0,2.26,3.55c4.91-.68,7.62.47,6.94,2.36C47.41,135.93,46.61,133.55,44.19,133.35Z" fill="#0870b4" opacity="0.33" style="mix-blend-mode:multiply"/><path d="M51.68,141.16c-3,2.34-19.38,6.1-18.58,4.35s6.18-4.63,6.18-4.63c-7.42,3.66-17.52,9.39-12.88,17.38,0,0-2.55-8.78,9.58-11.34,3.46-.73,6.54-1.45,9.18-2.23a29.16,29.16,0,0,0,5.8-2.3c2.91-1.61,4.43-3.65,4.15-6.54a6.36,6.36,0,0,0-.14-.76C55.15,137.31,54.63,138.84,51.68,141.16Z" fill="#0870b4" opacity="0.33" style="mix-blend-mode:multiply"/><path d="M56.16,56.16s1.65,1.28,1.4,2.66-5.2,5.66-9.91,7-5,5.25-5,5.25c-2-3.7,4.31-9.46,4.31-9.46-6.21,4.66-7.81,6.71-7.66,3.86.12-2.23,2.67-4.12,3.79-4.85-3.23,2-5.39,3.88-5.66,7.52,2.39,2.67,5.54,6.52,6.8,9.53a22.4,22.4,0,0,0,6-1.15c-9,1.11-3-6.46,1.55-9.2s3.51,3.16,3.45,3.51c.46-1.57.81-3.38,1.44-5.43C58.6,58.85,58.26,57.58,56.16,56.16Z" fill="#0870b4" opacity="0.33" style="mix-blend-mode:multiply"/><path d="M37.3,79.43a42.58,42.58,0,0,0-3.06-4.66c-4.49,1.67-11.41,5-11.34,9.36,0,3.18,5,4.26,10,5,3.11.43,6.28.72,8.45,1.26,1.54.39,2.58.9,2.72,1.69.2,1-1.29,1.53-3.62,2,2.39-.48,5.85-1.28,6.28-2,.65-1-.76-3.86-10-4.41s-12-2.7-11.6-5.2,6.2-5.9,8.5-5.15.83,4,.83,4c.83-.53,1.87-1.08,2.9-1.6A1.94,1.94,0,0,0,37.3,79.43Z" fill="#0870b4" opacity="0.33" style="mix-blend-mode:multiply"/><path d="M36.6,99.89c-1.3-2.3,1.6-5.41,1.6-5.41s.86-.15,2-.38c-.75.15-1.56.29-2.45.45-3.1,3.65-3.71,5.89-.33,8.64,4-.82,8.6-1.77,11.84-3.46C46.1,101.19,37.81,102,36.6,99.89Z" fill="#0870b4" opacity="0.33" style="mix-blend-mode:multiply"/><path d="M44.85,72.22s-1.31-4.9,7.75-6.4A19.68,19.68,0,0,0,44.85,72.22Z" fill="#603d90" opacity="0.56" style="mix-blend-mode:multiply"/><path d="M18.94,58.78A7.7,7.7,0,0,0,26.85,64S21.34,68.68,18.94,58.78Z" fill="#603d90" opacity="0.89" style="mix-blend-mode:multiply"/><path d="M34.89,171.78c6.55.32,19.85-2.81,22.42-9.49s-34.15-6-37.62-.61S22.86,171.19,34.89,171.78Z" opacity="0.28" fill="url(#l)" style="mix-blend-mode:multiply"/><path d="M16.39,47.52s2.3-.21,2.15.39S16.39,47.52,16.39,47.52Z" fill="#603d90" opacity="0.56" style="mix-blend-mode:multiply"/><path d="M56.06,57.42s-.8,1.64-1.5,1.65S54.54,57.91,56.06,57.42Z" fill="#603d90" opacity="0.56" style="mix-blend-mode:multiply"/><path d="M53.51,55.92a3.29,3.29,0,0,1-1.45.24C51.61,56,52.81,55.82,53.51,55.92Z" fill="#603d90" opacity="0.56" style="mix-blend-mode:multiply"/><path d="M39.28,84.2c-5.56-.58-12-.83-.24,2.5S49.09,85.23,39.28,84.2Z" fill="url(#m)" style="mix-blend-mode:screen"/><path d="M51,67.76c-2.82,2.18-4.7,4.82-3.15,5.87s7-3.15,6.42-5.3S52.5,66.61,51,67.76Z" fill="url(#n)" style="mix-blend-mode:screen"/><path d="M43.08,93.48s-7,.89-6.11,4.76S58.25,91.78,43.08,93.48Z" fill="url(#o)" style="mix-blend-mode:screen"/><path d="M39.88,108.76c-4.35-.9-13.92-.93-2,3.42S47.67,110.37,39.88,108.76Z" fill="url(#p)" style="mix-blend-mode:screen"/><path d="M39.59,70.74s-3.06-4.21-5-2.45S42,80.26,43,79.16,43.12,75.11,39.59,70.74Z" fill="url(#q)" style="mix-blend-mode:screen"/><path d="M36.13,96.74c1.41-2.13.8-5.51-2.79-2.9s-1.58,9.43,1.58,9.8.66-2.57.66-2.57S34.4,99.36,36.13,96.74Z" fill="url(#r)" style="mix-blend-mode:screen"/><path d="M43.85,61.47c1,.75,4.84-1.1,4.84-1.1s-4.1,3-2.44,4.21c1,.7,4.18,0,6.92-1.45a16.42,16.42,0,0,0,4.11-3.7,5.36,5.36,0,0,0,.28-.75c.12-1.33-1.37-2.49-1.4-2.52L55.92,56a3.58,3.58,0,0,0-3.83-.52l-2.68,1.35-.07.05C48.81,57.19,42.9,60.76,43.85,61.47Z" fill="url(#s)" style="mix-blend-mode:screen"/><path d="M18.29,49.72C16.1,52.55,25.8,60.37,29.45,60.47s2.09-2.62.36-4.27a41.43,41.43,0,0,0-4.71-3.45s6.43,3.84,7.6,3.87-.9-2.95-1-3.09c-1.95-1.79-4.71-2.85-7.85-4.24C21.81,48.61,19.43,48.25,18.29,49.72Z" fill="url(#t)" style="mix-blend-mode:screen"/><path d="M52.52,37.58c.54.06,1.07.14,1.59.25-.06,0-6.1,5.85-24,7.85,5.4-.42,17-.73,19.33,3.94,3.07,6.13,4.09,123,12.64,61.12.52-4.6,1-9.59,1.45-15l-.48,7.78,3.11-49.73A15.34,15.34,0,0,0,52.52,37.58Z" fill="url(#u)" style="mix-blend-mode:screen"/><path d="M34.24,53.06c2-3.34,10.81-8.85,14.1-7.47S37.57,62,34.67,58.56C32.44,55.91,33.28,54.63,34.24,53.06Z" fill="#fff" style="mix-blend-mode:screen"/><path d="M45.24,56.32c-.79-3.06,4.28-6.13,6.1-6.22S47.36,64.49,45.24,56.32Z" fill="#fff" style="mix-blend-mode:screen"/><path d="M17.9,42.22H48.29c7.59,0,13.6,6.68,13.13,14.58l-5.74,95.72a9.94,9.94,0,0,1-6,8.66c-6,2.42-15.75,5-25.37,1.48a9.91,9.91,0,0,1-6.32-8L4.88,57.85C3.76,49.59,9.91,42.22,17.9,42.22Z" opacity="0.21" fill="url(#v)" style="mix-blend-mode:color-dodge"/><path d="M63.11,52.92C59.33,47.79,52.41,42,50.29,40.3a17.78,17.78,0,0,0,3.82-2.47,16,16,0,0,0-3.27-.35H15.36A15.36,15.36,0,0,0,.15,55L15.41,163.27a11.19,11.19,0,0,0,7.38,9c11.23,4,22.67,1.06,29.61-1.65a11.16,11.16,0,0,0,7.06-9.69l4.07-65.17C52.91,211.88,24,122.05,20.76,92.57S9,47,24.5,46.15c10.74-.61,18-2.56,22.62-4.41C49.23,45.06,55.84,55.29,60.91,61c6.1,6.91.51-4.23.51-4.23S67.61,59,63.11,52.92Z" fill="#de402e" opacity="0.28" style="mix-blend-mode:multiply"/><path d="M48.42,39.82S55.27,60.7,84.51,72.91c0,0,2.72-.6,2.31-2.53,0,0-28.52-10.78-36.63-30.62Z" fill="#b01378"/><path d="M49.64,38.3S51.86,55.67,86.58,62c0,0,1.25-2.66-.61-3.74,0,0-27.74-2.74-34.59-20Z" fill="#b01378"/><path d="M82.8,38.7a44.33,44.33,0,0,0-32.14-.43S56.22,51.42,69.35,52,100.39,45.66,82.8,38.7ZM72.37,50C59,49.73,52.51,39,52.51,39S68,36.63,79,40.19,85.71,50.24,72.37,50Z" fill="#b01378"/><path d="M74.34,13.09c-7.47,2.18-24.7,25.21-24.7,25.21l0,.79C80.71,29.53,81.82,10.91,74.34,13.09ZM51.67,37.32s16-18.54,20.7-18.92S69.48,30.81,51.67,37.32Z" fill="#b01378"/><path d="M58.79,47.82A22.34,22.34,0,0,1,54.35,43c-.7-1.18.29-.76,1.74.16A22.8,22.8,0,0,1,52.51,39a84.55,84.55,0,0,1,12.41-.76c-2.58-.31-4.81-.71-5.17-1.19-.82-1.06,4.63-1.44,6.19-1.53a45.84,45.84,0,0,0-8.77.85,59.14,59.14,0,0,0,7.35-3.69c-1.9.93-13.44,6.52-3.17,0,.21-.14.39-.27.6-.4a54.09,54.09,0,0,1-10.28,5s3.94-4.56,8.49-9.2C53.63,33.43,62,23.7,65.24,20A192.87,192.87,0,0,0,51,36.48a8.7,8.7,0,0,0-.46-1.07s.13.7-1.47,1.51c.43.68.63,1.71-.68,2.9-2.34,2.12-19.91,2.3-21.5,1.15s1.32-2.19,1.32-2.19c-6.56-1-8.12-3.41-8.12-3.41-4.61,6,10.55,7.3,15.28,7.26,4,0,10.27-.62,13.48-1.65A47.18,47.18,0,0,0,55,51.08c-4.7-7.42-2.92-6.32-.93-4.45-.1-.15-.22-.28-.32-.42l.6.69c.94.91,1.86,1.89,2.1,2.15l.05.05C50.79,42,55.7,45.41,58.79,47.82Z" opacity="0.56" fill="url(#w)" style="mix-blend-mode:multiply"/><path d="M23.69,38.29C29.29,40,38.59,41.5,48,37.72A10,10,0,0,0,54,29.84L55.16,22a4.86,4.86,0,0,0-5-5.54l-31.3,1.05a4.86,4.86,0,0,0-4.47,6.32l2.47,7.8A10.13,10.13,0,0,0,23.69,38.29Z" fill="url(#x)"/><path d="M14.42,23.84l2.47,7.8a10.13,10.13,0,0,0,6.8,6.65C29.29,40,38.59,41.5,48,37.72A10,10,0,0,0,54,29.84l.08-.54c-1,7.29-6.14,8.42-13.22,8.92s-5.51-10-5.51-10-4.59.25-4.61-2.09,5.52-1.51,5.52-1.51L37.7,23s7.23.68,10.41-.21,5-3.5,2.71-3.9a25.32,25.32,0,0,0-6.22.2l-5.09-2.28-20.62.69A4.86,4.86,0,0,0,14.42,23.84Z" fill="#de402e" opacity="0.28" style="mix-blend-mode:multiply"/><path d="M19.56,22.14s-2.32-.68-1.37-2.18,15.26.2,15.26.2Z" fill="#de402e" opacity="0.28" style="mix-blend-mode:multiply"/><path d="M50.82,18.91c2.29.4.46,3-2.71,3.9a15.14,15.14,0,0,1-3.26.42c-.32.37-.49.6-.49.6s-3.69.37-2.84,2.34,8.32,0,8.32,0,3.27,7.25.69,9.66c1.87-1.29,3.13-3.3,3.59-6.53l-.08.54L55.16,22a4.85,4.85,0,0,0-2.89-5.15C53,17.2,53.27,17.83,50.82,18.91Z" fill="url(#y)" style="mix-blend-mode:screen"/><path d="M17.21,1.69S21,3.52,24,2.4s.92-2.4.92-2.4L42.1,3.4l8.72,7.15s-2.91.85-2.41,2.66,2.41.7,2.41.7-6.36,2.56-2.29,7c0,0-1.32,2.39-10.53,0S25.3,23,25.3,23a10.6,10.6,0,0,1-5.81-1.48s1.91-1.22.2-3.22c0,0,.5-2-1.2-1.84a4,4,0,0,0,2.81-2.76c.8-2.41-2.9-1.7-2.9-1.7l.39-6.35Z" fill="url(#z)"/><path d="M40.9,15.31c2.36-2.7,5.84-1.43,6.89-1C47.1,14,45.65,13,46.91,11.4c1.12-1.41,2.93-1.13,3.91-.85l1.42-6.41S43.58.19,24.92,0c2.5.61,5.56,4.7-.42,5.66-3.3.53-5.75-1.78-7.29-4L18.4,12c.87-.94,2.51-2.1,4.5-.71,3,2.11-3,5.17-3,5.17s2.31-1,3.21.84c.78,1.56-1.25,4.74-3.61,4.22l.07.61s15.21,5.2,28.55.67l.42-1.92C44.26,22.58,38.1,18.51,40.9,15.31Z" fill="url(#aa)"/><path d="M33.7,7.3c-2.2-.3-5.3,4.45,0,5C36,12.58,35.9,7.6,33.7,7.3Z" fill="#a25252"/><path d="M45.5,7.29C44.4,3.7,35.2,4,37.9,8.6,40.1,12.35,46.61,10.88,45.5,7.29Z" fill="#a25252"/><path d="M50.82,13.91l-.33.15A3.54,3.54,0,0,0,50.82,13.91Z" fill="#de402e" opacity="0.28" style="mix-blend-mode:multiply"/><path d="M31.32,20.29c-1.5-4.61-1.49-16.91-1.49-16.91,4.74-.16,8.72-.14,12,0a85.17,85.17,0,0,1,10.46.8S43.58.19,24.92,0c0,0,2.1,1.28-.92,2.4s-6.79-.71-6.79-.71L18.4,12s3.7-.71,2.9,1.7a4,4,0,0,1-2.81,2.76c1.7-.15,1.2,1.84,1.2,1.84,1.71,2-.2,3.22-.2,3.22l.07.61s15.21,5.2,28.55.67l.42-1.92a5.16,5.16,0,0,1-1.17.3C46.57,21.39,37.84,22.68,31.32,20.29Z" fill="#de402e" opacity="0.28" style="mix-blend-mode:multiply"/></g></svg>