<svg xmlns="http://www.w3.org/2000/svg" xmlns:xlink="http://www.w3.org/1999/xlink" viewBox="0 0 134.91 158.55"><defs><linearGradient id="a" x1="83.49" y1="85.45" x2="134.91" y2="85.45" gradientUnits="userSpaceOnUse"><stop offset="0" stop-color="#e83c44"/><stop offset="0.28" stop-color="#e83f47"/><stop offset="0.49" stop-color="#e94851"/><stop offset="0.68" stop-color="#eb5861"/><stop offset="0.85" stop-color="#ed6d77"/><stop offset="1" stop-color="#f08691"/></linearGradient><linearGradient id="b" x1="71.8" y1="18.97" x2="102.45" y2="84.46" gradientUnits="userSpaceOnUse"><stop offset="0" stop-color="#e83c44"/><stop offset="0.2" stop-color="#e9444c"/><stop offset="0.52" stop-color="#eb5a63"/><stop offset="0.91" stop-color="#ef7d88"/><stop offset="1" stop-color="#f08691"/></linearGradient><linearGradient id="c" x1="129.55" y1="130.58" x2="116.27" y2="143.86" gradientUnits="userSpaceOnUse"><stop offset="0" stop-color="#eb5c76"/><stop offset="0.01" stop-color="#eb5b75"/><stop offset="0.26" stop-color="#e94759"/><stop offset="0.5" stop-color="#e73845"/><stop offset="0.75" stop-color="#e62f39"/><stop offset="1" stop-color="#e62c35"/></linearGradient><linearGradient id="d" x1="-15.86" y1="154.84" x2="40.03" y2="119.45" gradientUnits="userSpaceOnUse"><stop offset="0" stop-color="#c45953"/><stop offset="0.23" stop-color="#bd544e"/><stop offset="0.56" stop-color="#ab4540"/><stop offset="0.94" stop-color="#8d2d29"/><stop offset="1" stop-color="#872925"/></linearGradient><linearGradient id="e" x1="78.31" y1="145.72" x2="97.67" y2="165.08" gradientUnits="userSpaceOnUse"><stop offset="0" stop-color="#f5b8a5"/><stop offset="0.6" stop-color="#f29798"/><stop offset="1" stop-color="#f08691"/></linearGradient><linearGradient id="f" x1="55.35" y1="131.05" x2="83.3" y2="159" xlink:href="#e"/><linearGradient id="g" x1="21.71" y1="137.08" x2="43.9" y2="159.28" xlink:href="#e"/><linearGradient id="h" x1="27.09" y1="136.66" x2="21.07" y2="142.68" gradientUnits="userSpaceOnUse"><stop offset="0" stop-color="#de402e"/><stop offset="0.19" stop-color="#e77467"/><stop offset="0.39" stop-color="#f0a59d"/><stop offset="0.58" stop-color="#f6ccc7"/><stop offset="0.75" stop-color="#fbe8e6"/><stop offset="0.9" stop-color="#fef9f8"/><stop offset="1" stop-color="#fff"/></linearGradient><linearGradient id="i" x1="30.1" y1="137.32" x2="22.86" y2="144.56" gradientUnits="userSpaceOnUse"><stop offset="0" stop-color="#fff"/><stop offset="0.1" stop-color="#fef9f8"/><stop offset="0.25" stop-color="#fbe8e6"/><stop offset="0.42" stop-color="#f6ccc7"/><stop offset="0.61" stop-color="#f0a59d"/><stop offset="0.81" stop-color="#e77467"/><stop offset="1" stop-color="#de402e"/></linearGradient><linearGradient id="j" x1="95.75" y1="6.7" x2="34.22" y2="162.66" gradientUnits="userSpaceOnUse"><stop offset="0" stop-color="#df9495"/><stop offset="0.24" stop-color="#db9091"/><stop offset="0.49" stop-color="#cf8384"/><stop offset="0.74" stop-color="#bc6e6f"/><stop offset="1" stop-color="#a25252"/></linearGradient><linearGradient id="k" x1="68.66" y1="63.36" x2="64.63" y2="67.39" gradientUnits="userSpaceOnUse"><stop offset="0" stop-color="#f08691"/><stop offset="0.15" stop-color="#ed6d77"/><stop offset="0.32" stop-color="#eb5861"/><stop offset="0.51" stop-color="#e94851"/><stop offset="0.72" stop-color="#e83f47"/><stop offset="1" stop-color="#e83c44"/></linearGradient><linearGradient id="l" x1="75.79" y1="45.2" x2="69.45" y2="51.54" xlink:href="#k"/><linearGradient id="m" x1="88.43" y1="10.24" x2="70.81" y2="27.85" xlink:href="#k"/><linearGradient id="n" x1="101.4" y1="85.06" x2="92.73" y2="93.74" xlink:href="#c"/><linearGradient id="o" x1="93.56" y1="97.01" x2="107.94" y2="97.01" gradientUnits="userSpaceOnUse"><stop offset="0" stop-color="#ea4d58"/><stop offset="1" stop-color="#f08691"/></linearGradient><linearGradient id="p" x1="103.99" y1="146.91" x2="127.69" y2="146.91" xlink:href="#o"/><linearGradient id="q" x1="32.98" y1="124.98" x2="29.52" y2="152.41" gradientUnits="userSpaceOnUse"><stop offset="0" stop-color="#de402e"/><stop offset="0.46" stop-color="#ee9e95"/><stop offset="0.83" stop-color="#fae4e1"/><stop offset="1" stop-color="#fff"/></linearGradient><linearGradient id="r" x1="80.76" y1="121.98" x2="69.51" y2="133.23" gradientUnits="userSpaceOnUse"><stop offset="0" stop-color="#de402e"/><stop offset="0.1" stop-color="#e04b3a"/><stop offset="0.29" stop-color="#e56759"/><stop offset="0.53" stop-color="#ed958b"/><stop offset="0.82" stop-color="#f8d5d1"/><stop offset="1" stop-color="#fff"/></linearGradient><linearGradient id="s" x1="46.13" y1="96.39" x2="25.44" y2="117.08" xlink:href="#r"/><linearGradient id="t" x1="31.5" y1="152.62" x2="31.5" y2="134.09" gradientUnits="userSpaceOnUse"><stop offset="0" stop-color="#fff"/><stop offset="0.17" stop-color="#fae4e1"/><stop offset="0.54" stop-color="#ee9e95"/><stop offset="1" stop-color="#de402e"/></linearGradient><linearGradient id="u" x1="85.95" y1="141.76" x2="73.8" y2="153.91" xlink:href="#i"/><linearGradient id="v" x1="90.94" y1="140.46" x2="73.05" y2="158.35" xlink:href="#i"/><linearGradient id="w" x1="64.22" y1="127.01" x2="55.73" y2="135.5" xlink:href="#h"/><linearGradient id="x" x1="70.36" y1="129.95" x2="54.26" y2="146.06" xlink:href="#i"/><linearGradient id="y" x1="82.85" y1="119.26" x2="97.67" y2="105.69" gradientUnits="userSpaceOnUse"><stop offset="0" stop-color="#010101"/><stop offset="0.1" stop-color="#070603"/><stop offset="0.23" stop-color="#171608"/><stop offset="0.37" stop-color="#322f11"/><stop offset="0.52" stop-color="#57531d"/><stop offset="0.69" stop-color="#87802d"/><stop offset="0.86" stop-color="#c0b740"/><stop offset="1" stop-color="#f6ea51"/></linearGradient><linearGradient id="z" x1="-11.15" y1="149.82" x2="52.63" y2="106.65" gradientUnits="userSpaceOnUse"><stop offset="0" stop-color="#f6ea51"/><stop offset="0.14" stop-color="#c0b740"/><stop offset="0.31" stop-color="#87802d"/><stop offset="0.48" stop-color="#57531d"/><stop offset="0.63" stop-color="#322f11"/><stop offset="0.77" stop-color="#171608"/><stop offset="0.9" stop-color="#070603"/><stop offset="1" stop-color="#010101"/></linearGradient><linearGradient id="aa" x1="61.32" y1="96.02" x2="98.68" y2="61.84" xlink:href="#y"/></defs><g style="isolation:isolate"><path d="M85.51,39.52s7,19.21,23.36,32.7,31.68,43.28,24,56.61-11,1.57-7.06-3.6,4.86-21.41-8.31-36.5-27.44-25.14-32-42.86S85.51,39.52,85.51,39.52Z" fill="url(#a)"/><path d="M117.5,88.73c13.17,15.09,12.23,31.32,8.31,36.5s-.63,16.94,7.06,3.6a14.2,14.2,0,0,0,1.34-3.28c-4.12,4.86-7.67,4.65-4.84-6.24S126.94,99,116.13,85.45s3-2.5,3-2.46a69.38,69.38,0,0,0-10.28-10.77c-1.58-1.31-3.08-2.68-4.5-4.08,0,0,4.69,8.53-4.91-1.5s-10.1-18.88-10.1-18.88a71,71,0,0,1-3.85-8.24s-.17-.42-.41-1l-1.34-.14c.29,1.54.84,3.91,1.75,7.46C90.06,63.59,104.33,73.63,117.5,88.73Z" fill="#b01378" opacity="0.28" style="mix-blend-mode:multiply"/><path d="M86.53,29.64s.23,23.13,4.47,38.5,8.15,19,6.27,20.48S87.39,75.94,84.1,62a95.25,95.25,0,0,1-2.68-22.51l1.42-11.37Z" fill="url(#b)"/><path d="M113.34,140.12c2.42,5.79,13.18,9,17.06,2.63s0-12.07-2.12-13.21-8-3-11.64.63S112.05,137,113.34,140.12Z" fill="url(#c)"/><path d="M81.42,39.52A95.25,95.25,0,0,0,84.1,62C87.39,75.94,95.39,90.1,97.27,88.62c1.37-1.07-.33-3.29-3-10.34.17,10.21-8.06-8.94-9.77-22a65.61,65.61,0,0,1,2-25.06l-2.37-2.52-1.32-.53Z" fill="#b01378" opacity="0.28" style="mix-blend-mode:multiply"/><path d="M44.26,118.17s15.37-11,28.54-4.16S59.24,95,58.22,95,51,96,40.81,100s-22.74,9.88-24.39,12.15S11,123.74,11,123.74s-.86,12.94-.7,13.64,3.29,5.8,3.29,5.8L26,145.54l5.49,2s.86-15.45,1.57-23.76S44.26,118.17,44.26,118.17Z" fill="url(#d)"/><path d="M80.49,140.28s-.63,12.71-4.55,13.33-8.94-2.37-5.25,2.3,12,2.88,16.23-3.32a19.42,19.42,0,0,0,3-13.17Z" fill="url(#e)"/><path d="M59.4,135.74s4.46-3.85,3-6.83-8.79-3.68-3-5.56,13.33,8.23,9.17,16.07A19.23,19.23,0,0,1,57.19,149Z" fill="url(#f)"/><path d="M30.86,136.05s-1.92-4.52-9.3-1.69c0,0,.51-5.08-1.82-6.33,0,0,3-8,11.12-8.22Z" fill="#de402e" opacity="0.61" style="mix-blend-mode:multiply"/><path d="M24.11,134.56c-1.15-1.29-2.35-2.28-.63-2.51S37,142,29.91,146.87s-9.09-5.1-9.09-5.1S30.15,141.38,24.11,134.56Z" fill="url(#g)"/><path d="M44.26,118.17s15.37-11,28.54-4.16S59.24,95,58.22,95,51,96,40.81,100s-22.74,9.88-24.39,12.15S11,123.74,11,123.74s-.86,12.94-.7,13.64,3.29,5.8,3.29,5.8L26,145.54l5.49,2s.86-15.45,1.57-23.76S44.26,118.17,44.26,118.17Z" fill="#a0412f" opacity="0.61" style="mix-blend-mode:multiply"/><path d="M28,138.68c-.79-2.63-3.63-4.64-5.14-5.56.29.41.78.89,1.26,1.44,6,6.82-3.29,7.21-3.29,7.21a9.13,9.13,0,0,0,.24.9l6.13,1.66S29.09,142.32,28,138.68Z" opacity="0.44" fill="url(#h)" style="mix-blend-mode:multiply"/><path d="M25.12,132.78c2.2,2.25,5.83,7.11,2.3,12-1.64,2.28-1.57,3.19-.76,3.4a6.68,6.68,0,0,0,3.25-1.31C35.76,142.85,28.7,135.17,25.12,132.78Z" opacity="0.28" fill="url(#i)" style="mix-blend-mode:multiply"/><path d="M88.25,128.83c.08-5.56,2.51-9.4,1.18-12.54s-11.61-9.65-12.71-14.74-1.25-9.33-3.45-14.35-2-17.57,5.34-37.29,7.37-21,7.21-21.6-16-10.59-16-10.59S52.65,79.15,49.12,83.13,36.42,87.59,24,97.23,10.78,102.1,8.19,109.66s-3,9.84-5.8,14.86-2.82,8-1.65,12,5.33,13.88,13.33,15.37c7.45,1.39,13.54-1.31,15.22-3.71,0,2.47.37,4.45,1.8,5.51,2.74,2,11.21,2.82,14.43,1.73s10.74-2.83,15.68-8.94-1.49-14-5.1-13.1a10.69,10.69,0,0,0-7,5.41C48,141,42,140.52,42,140.52s-2.43-10.51-1.81-14,7.06-10.35,11.61-14.43,7.92-8.86,13.64-3.53,13,11,13,21.1-.71,11.68,2.12,14.58,8.54-.63,9.49-3.68S88.17,134.4,88.25,128.83Zm-60.61-4.7c0,3.21,2.21,10.34,2,16.23-.06,2-.22,3.85-.32,5.6-1.42-2.7-7-6.14-9.64-4.42,0,0-5.65-4.16-6.67-8.24s7.3-18.5,8.55-19.52,8.47-1.41,10.43,3.29C32,117.07,27.64,120.91,27.64,124.13Z" fill="url(#j)"/><path d="M72.18,75.94s-.89-7-6.3-9.23-9.26-1.93-10.77.68c0,0-2.37-3.38,0-6.62s11.77-2.23,15.83,6S72.18,75.94,72.18,75.94Z" fill="url(#k)"/><path d="M73.59,66.64s2.14-8.38-3.75-14.81-9-3.07-9-3.07a7.17,7.17,0,0,1-.91-7.36c1.81-4.31,10.92-.74,14,6S78.6,65.6,73.59,66.64Z" fill="url(#l)"/><path d="M81.42,42.31s1-9.77-5.79-12.28-9.81,1.78-9.81,1.78-4-6-.39-8.6a5.94,5.94,0,0,1-1.84-6.27,5.45,5.45,0,0,1,5-4.24s-.94-4.39,2.27-5.56c0,0-2-5.88,3.61-7.06s14.35,11.06,14.82,16-1,5.08-1,5.08a11.09,11.09,0,0,1,.55,4.09,2.47,2.47,0,0,1-2,2,7.24,7.24,0,0,1,.55,5.17,4.42,4.42,0,0,1-3.6,3.22S86.19,39.69,81.42,42.31Z" fill="url(#m)"/><path d="M55.11,60.77c-2.37,3.24,0,6.62,0,6.62,1.51-2.61,5.36-2.91,10.77-.68s6.3,9.23,6.3,9.23c.1-12-12.33-10.72-12.85-13.31s2.19-3.21,2.5-3.28C58.89,58.68,56.22,59.25,55.11,60.77Z" fill="#b01378" opacity="0.28" style="mix-blend-mode:multiply"/><path d="M59.94,41.4a7.17,7.17,0,0,0,.91,7.36s3.09-3.36,9,3.07,3.75,14.81,3.75,14.81c5-15.39-8.38-17-8.89-21.19a3.63,3.63,0,0,1,3.36-4.38C64.64,39.07,61,38.85,59.94,41.4Z" fill="#b01378" opacity="0.28" style="mix-blend-mode:multiply"/><path d="M74.45.08c-5.64,1.18-3.61,7.06-3.61,7.06-3.21,1.17-2.27,5.56-2.27,5.56a5.45,5.45,0,0,0-5,4.24,5.94,5.94,0,0,0,1.84,6.27c-3.59,2.63.39,8.6.39,8.6s3-4.29,9.81-1.78,5.79,12.28,5.79,12.28c1.66-10.51-5.2-13.73-8.29-14.16s-4.38-5.53,2.18-3,8.24,10.3,8.24,10.3c-.66-5.25-4.9-11.11-9.75-12.12s-5.56-8.79,1.51-7.27S86.84,27.29,86.84,27.29a22.4,22.4,0,0,0-10.92-13c-2-1.11-2.83-6.87,3.74-3.64,6.13,3,8.3,9.52,8.56,10.37C84.67,8.39,75.22,9.47,76.84,5.44s4.57-2.2,4.57-2.2C79.05,1.05,76.54-.36,74.45.08Z" fill="#b01378" opacity="0.28" style="mix-blend-mode:multiply"/><path d="M94.52,82.77S89.11,85,92.29,92.41s10.23,2.35,10.82,0S102.29,81.12,94.52,82.77Z" fill="url(#n)"/><path d="M130.64,132.09a3.61,3.61,0,0,1-.16,3.89C129,138.05,119,134.59,119.64,131c.43-2.25,2.32-3,4.42-2.85a8.35,8.35,0,0,0-7.42,2c-3.65,3.64-4.59,6.86-3.3,10,2.42,5.79,13.18,9,17.06,2.63A10.05,10.05,0,0,0,130.64,132.09Z" fill="#b01378" opacity="0.28" style="mix-blend-mode:multiply"/><path d="M97.27,88.62c-6.64-1.06-3.36-8.17,2.12-5.28a6.72,6.72,0,0,0-4.87-.57S89.11,85,92.29,92.41s10.23,2.35,10.82,0a10.54,10.54,0,0,0-1.57-7C102.41,87.3,100.9,89.2,97.27,88.62Z" fill="#b01378" opacity="0.28" style="mix-blend-mode:multiply"/><path d="M98.41,93v11.29s7.17,2.12,7.41-2.23c0,0,2.4.94,3.38-.71S105.93,95,105.93,95s4.36,3.84,5.65,3.13,1.21-5.64,1.21-5.64-7.42-1.85-9.73-3.1S98.41,93,98.41,93Z" fill="url(#o)"/><path d="M102.44,92.13c2.44-1.2,6.52-.53,8.76,0a52.47,52.47,0,0,1-8.14-2.69c-2.3-1.25-4.65,3.57-4.65,3.57v11.29S99,93.85,102.44,92.13Z" fill="#b01378" opacity="0.28" style="mix-blend-mode:multiply"/><path d="M105.82,102.06s2.4.94,3.38-.71c-3.78,2-6-4.34-6-4.34,3.36,9-4.82,7.28-4.82,7.28S105.58,106.41,105.82,102.06Z" fill="#b01378" opacity="0.28" style="mix-blend-mode:multiply"/><path d="M114.17,136.05s-4,5.41-9.29,2.35c0,0-2,5.7,0,7.56s7.91-1.91,7.91-1.91-5.13,8.47,0,9.41c0,0,.67,4,4.55,4.35s5.08-1.9,5.08-1.9a5.5,5.5,0,0,0,5.27,0s-3.64-4.22-2.58-12.69S114.17,136.05,114.17,136.05Z" fill="url(#p)"/><path d="M104.88,146c2,1.85,7.91-1.91,7.91-1.91s-5.13,8.47,0,9.41c0,0,.67,4,4.55,4.35s5.08-1.9,5.08-1.9a5.5,5.5,0,0,0,5.27,0c-8.14-.37-5.27-12.35-5.27-12.35a21.87,21.87,0,0,0-2.15,8.58s-5.35-2.22-6.16-5.23,2.93-7.49,2.93-7.49-6.57,2.62-9.09,1.71a4.73,4.73,0,0,1-3.07-2.73S102.88,144.1,104.88,146Z" fill="#b01378" opacity="0.28" style="mix-blend-mode:multiply"/><path d="M70.84,7.14c-3.21,1.17-2.27,5.56-2.27,5.56a5.45,5.45,0,0,0-5,4.24,5.94,5.94,0,0,0,1.84,6.27c-3.59,2.63.39,8.6.39,8.6-.69,2.41-1.45,5-2.24,7.74-1.68-.11-3,.45-3.64,1.85a7.17,7.17,0,0,0,.91,7.36c-1.05,3.54-2.13,7.09-3.18,10.51a4.33,4.33,0,0,0-2.56,1.5c-2.37,3.24,0,6.62,0,6.62-2.67,8.26-4.93,14.55-6,15.74-3.53,4-12.7,4.46-25.17,14.1S10.78,102.1,8.19,109.66s-3,9.84-5.8,14.86-2.82,8-1.65,12,5.33,13.88,13.33,15.37c7.45,1.39,13.54-1.31,15.22-3.71,0,2.47.37,4.45,1.8,5.51,2.74,2,11.21,2.82,14.43,1.73s10.74-2.83,15.68-8.94-1.49-14-5.1-13.1a10.69,10.69,0,0,0-7,5.41C48,141,42,140.52,42,140.52s-2.43-10.51-1.81-14,7.06-10.35,11.61-14.43,7.92-8.86,13.64-3.53,13,11,13,21.1-.71,11.68,2.12,14.58,8.54-.63,9.49-3.68-1.89-6.2-1.81-11.77c.07-4.67,1.79-8.13,1.55-11-.15.43-.29.93-.44,1.51-3.68,14.85-8.59,4.54-8.59,1.91s-12.13-16.76-17.65-20.36S49.7,111.48,41.67,118.6c-7,6.21-14.12,4.36-11.47.36-1.21,1.41-2.56,3.38-2.56,5.17,0,3.21,2.21,10.34,2,16.23-.06,2-.22,3.85-.32,5.6-1.42-2.7-7-6.14-9.64-4.42,0,0-5.65-4.16-6.67-8.24s7.3-18.5,8.55-19.52,8.47-1.41,10.43,3.29c6.58-5.16,11.46-12.72,16.16-18.63s-7.43.31-17,5.31-10.35,6.66-11.87,7.93c-5.25,4.39-5.1-6.57-.25-7.39S35.3,92.84,43.37,89.43s6.79-4,10.68-9.17,6.2-15,6.2-15c-1.73-.41-3.73-2-2.92-4.23s4.5-1.66,4.5-1.66l3.47-11a3.71,3.71,0,0,1-3.22-4.41c.4-4,4.94-3.4,4.94-3.4L70.58,29.3s-6.33-.91-5.32-4,5.86-2.22,5.86-2.22-9-2.63-6.06-6.11c2.35-2.75,6.24-3,7.78-3-1.14-.1-3.36-.62-3.59-3.05-.3-3.29,5.47-3.14,5.47-3.14-5.42-1.18-3.21-6-3.1-6.24C69.67,3.71,70.84,7.14,70.84,7.14Z" fill="#de402e" opacity="0.28" style="mix-blend-mode:multiply"/><path d="M2.39,124.52c-2.82,5-2.82,8-1.65,12s5.33,13.88,13.33,15.37c7.45,1.39,13.54-1.31,15.22-3.71,0,2.47.37,4.45,1.8,5.51,2.74,2,11.21,2.82,14.43,1.73s10.74-2.83,15.68-8.94-1.49-14-5.1-13.1a10.69,10.69,0,0,0-7,5.41C48,141,42,140.52,42,140.52s-2.43-10.51-1.81-14c.32-1.72,2.08-4.31,4.33-7-1.36,1.61-11.35,13.21-13.65,12.47-2.48-.8-3.22-7.92-3.22-7.92,0,3.21,2.21,10.34,2,16.23-.06,2-.22,3.85-.32,5.6-1.42-2.7-7-6.14-9.64-4.42,0,0-5.65-4.16-6.67-8.24-.82-3.31,4.5-13.43,7.2-17.68C16.36,118,11,121.27,7.56,119c-1.67-1.11,1.35-11.22,1.35-11.23-.23.53-.46,1.16-.72,1.9C5.6,117.23,5.21,119.5,2.39,124.52Z" opacity="0.42" fill="url(#q)" style="mix-blend-mode:multiply"/><path d="M86.83,141.48c-4.85-.3-5.45-8-7.09-16.82S65.43,108.6,65.43,108.6c5.73,5.34,13,11,13,21.1s-.71,11.68,2.12,14.58,8.54-.63,9.49-3.68c.54-1.77-.17-3.57-.86-5.84C89.74,137.66,90,141.68,86.83,141.48Z" opacity="0.28" fill="url(#r)" style="mix-blend-mode:multiply"/><path d="M32,117.07c6.58-5.16,11.46-12.72,16.16-18.63L21.94,113.58C23.83,112.73,30.2,112.69,32,117.07Z" opacity="0.28" fill="url(#s)" style="mix-blend-mode:multiply"/><path d="M31.09,153.69c2.74,2,11.21,2.82,14.43,1.73s10.74-2.83,15.68-8.94a7.8,7.8,0,0,0,1.42-7.38,5.08,5.08,0,0,1-1.15,4c-2,2.83-8.59,4.45-10.1-.91-1.37-4.83.67-6.77,1.09-7.11a10.17,10.17,0,0,0-3.34,3.76C48,141,42,140.52,42,140.52c.95,4.64-.83,11.42-5.88,11.32S29.36,146,29.36,146l-.93-1.28c-2.14-2.36-6.45-4.59-8.71-3.14,0,0-5.65-4.16-6.67-8.24a7.23,7.23,0,0,1,.34-3.31c-1.68,4.15-4.67,10-8.09,9.43-5.25-.9-5-9.86-5-9.88a12.93,12.93,0,0,0,.44,7c1.18,4,5.33,13.88,13.33,15.37,6.23,1.16,11.49-.53,14-2.52-1.22,1.16-8.17,2.06-10,.75s-.21-6.77,4.37-7.17,6.79,5.23,6.79,5.23C29.3,150.65,29.66,152.63,31.09,153.69Z" opacity="0.42" fill="url(#t)" style="mix-blend-mode:multiply"/><path d="M87.44,143.25l-7-1.67c-.28,3.25-1.3,11.53-4.45,12a9.18,9.18,0,0,1-2.4,0C83.41,155.4,87.44,143.25,87.44,143.25Z" opacity="0.49" fill="url(#u)" style="mix-blend-mode:multiply"/><path d="M70.69,155.91c3.68,4.68,12,2.88,16.23-3.32a19.42,19.42,0,0,0,3-13.17l-.27,0-1,2.54s-2.47,11-8.91,12.33-9.89-1-10-1C69.15,153.44,69.25,154.09,70.69,155.91Z" opacity="0.28" fill="url(#v)" style="mix-blend-mode:multiply"/><path d="M60.23,138.87c3.68-1.89,8.23-7.88,4.51-11.33s-7.29-2.33-7.29-2.33c.93.91,4,1.88,4.93,3.7,1.48,3-3,6.83-3,6.83l-.5,2.94A1,1,0,0,0,60.23,138.87Z" opacity="0.49" fill="url(#w)" style="mix-blend-mode:multiply"/><path d="M68.57,139.42c2.61-4.93.61-10.76-2.69-13.94a8,8,0,0,1,.49,10.25c-4,5.65-6.82,7.22-6.82,7.22L57.9,144.7,57.19,149A19.23,19.23,0,0,0,68.57,139.42Z" opacity="0.28" fill="url(#x)" style="mix-blend-mode:multiply"/><path d="M89.43,117.43c.33-2.35-5.18-5.65-8-4.36S87.44,131.48,89.43,117.43Z" fill="url(#y)" style="mix-blend-mode:screen"/><path d="M39.7,110.72c-11.37,8.79-10,13.61-2.42,10.81C45.49,118.49,54.82,99,39.7,110.72Z" fill="url(#z)" style="mix-blend-mode:screen"/><path d="M79.29,48.08l1-2.63c-.87-4-4.49-17.07-14.74-12.63-.21.75-.44,1.52-.66,2.31C68,33.62,75.74,31.87,79.29,48.08Z" fill="#de402e" opacity="0.13" style="mix-blend-mode:multiply"/><path d="M72.18,84.86l.51.55a24,24,0,0,1-.64-5.36c-3.86-3.12-11.55-7.44-20.47-2.32-.57,1.53-1.08,2.8-1.52,3.74C50.06,81.47,60.87,72.49,72.18,84.86Z" fill="#de402e" opacity="0.13" style="mix-blend-mode:multiply"/><path d="M63.58,39.55c-.15.52-.31,1-.46,1.57,0,0,8.33-9,14.27,12.17.29-.84.61-1.71.93-2.58C77.05,45.27,73,32.87,63.58,39.55Z" fill="#de402e" opacity="0.13" style="mix-blend-mode:multiply"/><path d="M54.05,70.61c-.29.9-.58,1.76-.86,2.59,0,0,7.33-8.82,18.89,4.34,0-.63.08-1.31.14-2C70,72.25,64,65.32,54.05,70.61Z" fill="#de402e" opacity="0.13" style="mix-blend-mode:multiply"/><path d="M58.56,56.38c-.16.49-.31,1-.46,1.47,0,0,9.77-3.57,14.88,11.94.07-.44.16-.89.24-1.34C71.9,64.86,66.48,51.85,58.56,56.38Z" fill="#de402e" opacity="0.13" style="mix-blend-mode:multiply"/><path d="M60,51.78l-.35,1.16c1.71-.84,10.95-4.43,14,13.7.22-1,.46-2.06.73-3.14C73.31,58.25,70,47.46,60,51.78Z" fill="#de402e" opacity="0.13" style="mix-blend-mode:multiply"/><path d="M73.55,88.23c-4.2-10.81-6.82-14-12.18-8.48-7.19,7.47-9.63,10.9,1.63,19.42S77.37,98.08,73.55,88.23Z" fill="url(#aa)" style="mix-blend-mode:screen"/></g></svg>