<svg xmlns="http://www.w3.org/2000/svg" xmlns:xlink="http://www.w3.org/1999/xlink" viewBox="0 0 184.15 168.44"><defs><linearGradient id="a" x1="412.22" y1="179.27" x2="422.9" y2="71.64" gradientTransform="matrix(-0.99, 0.17, -0.17, -0.99, 502.78, 129.71)" gradientUnits="userSpaceOnUse"><stop offset="0" stop-color="#2b4d9c"/><stop offset="0.18" stop-color="#5671b0"/><stop offset="0.58" stop-color="#b0bdda"/><stop offset="0.86" stop-color="#e9edf5"/><stop offset="1" stop-color="#fff"/></linearGradient><linearGradient id="b" y1="101.35" x2="34.3" y2="101.35" gradientUnits="userSpaceOnUse"><stop offset="0" stop-color="#fff"/><stop offset="0.61" stop-color="#616161"/><stop offset="1" stop-color="#010101"/></linearGradient><linearGradient id="c" x1="381.67" y1="416.29" x2="381.67" y2="326.99" gradientTransform="matrix(-0.53, 0.44, -0.42, -0.51, 384.16, 127.66)" xlink:href="#a"/><linearGradient id="d" x1="32.38" y1="114.98" x2="32.38" y2="83.06" gradientUnits="userSpaceOnUse"><stop offset="0" stop-color="#fff"/><stop offset="0.89" stop-color="#763f91"/></linearGradient><linearGradient id="e" x1="124.29" y1="107.2" x2="124.29" y2="38.63" gradientUnits="userSpaceOnUse"><stop offset="0" stop-color="#fff"/><stop offset="0.14" stop-color="#e9edf5"/><stop offset="0.42" stop-color="#b0bdda"/><stop offset="0.82" stop-color="#5671b0"/><stop offset="1" stop-color="#2b4d9c"/></linearGradient><linearGradient id="f" x1="102.66" y1="68.1" x2="143.72" y2="68.1" xlink:href="#b"/><linearGradient id="g" x1="135.89" y1="122.12" x2="135.89" y2="52.16" gradientUnits="userSpaceOnUse"><stop offset="0" stop-color="#fff"/><stop offset="0.14" stop-color="#fcfbfd"/><stop offset="0.29" stop-color="#f3eff6"/><stop offset="0.43" stop-color="#e5daea"/><stop offset="0.58" stop-color="#d0bed9"/><stop offset="0.73" stop-color="#b699c4"/><stop offset="0.87" stop-color="#966cab"/><stop offset="1" stop-color="#763f91"/></linearGradient><linearGradient id="h" x1="108.39" y1="130.08" x2="108.39" y2="47.2" gradientUnits="userSpaceOnUse"><stop offset="0" stop-color="#fff"/><stop offset="0.13" stop-color="#fcfafc"/><stop offset="0.27" stop-color="#f2ecf4"/><stop offset="0.43" stop-color="#e1d5e7"/><stop offset="0.59" stop-color="#cab4d4"/><stop offset="0.75" stop-color="#ac8abc"/><stop offset="0.92" stop-color="#88589f"/><stop offset="1" stop-color="#763f91"/></linearGradient><linearGradient id="i" x1="116.25" y1="47.2" x2="116.25" y2="19.35" gradientUnits="userSpaceOnUse"><stop offset="0" stop-color="#c481b6"/><stop offset="0.14" stop-color="#c07eb2"/><stop offset="0.28" stop-color="#b476a7"/><stop offset="0.43" stop-color="#9f6994"/><stop offset="0.57" stop-color="#825679"/><stop offset="0.72" stop-color="#5d3d56"/><stop offset="0.87" stop-color="#30202d"/><stop offset="1" stop-color="#010101"/></linearGradient><linearGradient id="j" x1="125.13" y1="54" x2="125.13" y2="15.23" xlink:href="#h"/><linearGradient id="k" x1="136.83" y1="55.98" x2="136.83" y2="14.68" xlink:href="#d"/><linearGradient id="l" x1="122.31" y1="129.43" x2="122.31" y2="53.28" xlink:href="#d"/><linearGradient id="m" x1="23.89" y1="36.06" x2="152.59" y2="96.72" xlink:href="#b"/><linearGradient id="n" x1="50.39" y1="128.69" x2="50.39" y2="52.44" xlink:href="#h"/><linearGradient id="o" x1="79.94" y1="127.81" x2="79.94" y2="58.75" xlink:href="#g"/><linearGradient id="p" x1="66.11" y1="18.89" x2="66.11" y2="2.2" xlink:href="#d"/><linearGradient id="q" x1="25.55" y1="75.63" x2="69.77" y2="17.94" xlink:href="#i"/><linearGradient id="r" x1="78.38" y1="58.32" x2="78.38" y2="7.65" xlink:href="#h"/><linearGradient id="s" x1="121.49" y1="-15.89" x2="121.49" y2="-36.78" gradientTransform="translate(-32.39 212.11) rotate(-48.06)" gradientUnits="userSpaceOnUse"><stop offset="0" stop-color="#fff"/><stop offset="0.89" stop-color="#1e3f92"/></linearGradient><linearGradient id="t" x1="126.41" y1="-18.13" x2="126.41" y2="-27.7" xlink:href="#s"/><linearGradient id="u" x1="71.08" y1="93.29" x2="71.08" y2="65.35" gradientTransform="matrix(1, 0, 0, 1, 0, 0)" xlink:href="#s"/><linearGradient id="v" x1="80.74" y1="85.62" x2="80.74" y2="68.5" gradientTransform="matrix(1, 0, 0, 1, 0, 0)" xlink:href="#s"/><linearGradient id="w" x1="54.05" y1="106.87" x2="54.05" y2="63.78" gradientTransform="matrix(1, 0, 0, 1, 0, 0)" xlink:href="#s"/><linearGradient id="x" x1="86.42" y1="54.52" x2="86.42" y2="43.37" gradientTransform="matrix(1, 0, 0, 1, 0, 0)" xlink:href="#s"/><linearGradient id="y" x1="6.31" y1="85.62" x2="6.31" y2="70.87" xlink:href="#d"/><linearGradient id="z" x1="8.45" y1="103.05" x2="8.45" y2="75.58" xlink:href="#i"/><linearGradient id="aa" x1="20.13" y1="93.29" x2="20.13" y2="70.87" xlink:href="#h"/><linearGradient id="ab" x1="17.35" y1="126.49" x2="17.35" y2="99.99" xlink:href="#h"/><linearGradient id="ac" x1="18.14" y1="106.02" x2="52.44" y2="106.02" xlink:href="#g"/><linearGradient id="ad" y1="101.35" x2="34.3" y2="101.35" gradientUnits="userSpaceOnUse"><stop offset="0" stop-color="#e0b2d4"/><stop offset="0" stop-color="#dfb1d3"/><stop offset="0.16" stop-color="#a5839c"/><stop offset="0.31" stop-color="#735b6c"/><stop offset="0.46" stop-color="#4a3b46"/><stop offset="0.61" stop-color="#2a2228"/><stop offset="0.75" stop-color="#131012"/><stop offset="0.88" stop-color="#060505"/><stop offset="1" stop-color="#010101"/></linearGradient><linearGradient id="ae" x1="134.16" y1="52.16" x2="134.16" y2="24.94" gradientTransform="matrix(1, 0, 0, 1, 0, 0)" xlink:href="#s"/><linearGradient id="af" x1="134.28" y1="121.42" x2="134.28" y2="70.02" gradientTransform="matrix(1, 0, 0, 1, 0, 0)" xlink:href="#s"/><linearGradient id="ag" x1="117.5" y1="129.35" x2="117.5" y2="88.3" gradientTransform="matrix(1, 0, 0, 1, 0, 0)" xlink:href="#s"/><linearGradient id="ah" x1="31.33" y1="93.44" x2="41.52" y2="20.42" gradientTransform="matrix(0.63, -0.07, 0.09, 0.83, 62.63, 64.07)" gradientUnits="userSpaceOnUse"><stop offset="0" stop-color="#fff"/><stop offset="0.27" stop-color="#bec9e1"/><stop offset="0.62" stop-color="#6f86bc"/><stop offset="0.88" stop-color="#3e5da5"/><stop offset="1" stop-color="#2b4d9c"/></linearGradient><linearGradient id="ai" x1="542.24" y1="402.06" x2="552.43" y2="329.04" gradientTransform="matrix(-0.42, 0.32, -0.34, -0.45, 407.49, 127.19)" gradientUnits="userSpaceOnUse"><stop offset="0" stop-color="#2b4d9c"/><stop offset="0.12" stop-color="#3e5da5"/><stop offset="0.38" stop-color="#6f86bc"/><stop offset="0.73" stop-color="#bec9e1"/><stop offset="1" stop-color="#fff"/></linearGradient><linearGradient id="aj" x1="29.76" y1="141.36" x2="67.18" y2="141.36" xlink:href="#h"/><linearGradient id="ak" x1="106.89" y1="138.48" x2="141.17" y2="138.48" xlink:href="#h"/><linearGradient id="al" x1="29.76" y1="129.55" x2="67.18" y2="129.55" xlink:href="#ad"/><linearGradient id="am" x1="67.18" y1="107.32" x2="110.83" y2="107.32" xlink:href="#ad"/><linearGradient id="an" x1="107.75" y1="130.46" x2="141.17" y2="130.46" xlink:href="#ad"/><linearGradient id="ao" x1="124.03" y1="147.98" x2="124.03" y2="143.43" xlink:href="#d"/><linearGradient id="ap" x1="48.32" y1="126.57" x2="48.32" y2="109.13" xlink:href="#d"/><linearGradient id="aq" x1="89.01" y1="149.23" x2="89.01" y2="108.26" xlink:href="#h"/><linearGradient id="ar" x1="62.15" y1="149.96" x2="62.15" y2="126.78" gradientUnits="userSpaceOnUse"><stop offset="0" stop-color="#fff"/><stop offset="0.04" stop-color="#ded1e5"/><stop offset="0.1" stop-color="#b99dc7"/><stop offset="0.16" stop-color="#9c74b0"/><stop offset="0.2" stop-color="#87579f"/><stop offset="0.25" stop-color="#7b4595"/><stop offset="0.28" stop-color="#763f91"/></linearGradient><linearGradient id="as" x1="136.2" y1="143.43" x2="136.2" y2="124.16" xlink:href="#d"/><linearGradient id="at" x1="102.66" y1="68.1" x2="143.72" y2="68.1" xlink:href="#ad"/><linearGradient id="au" x1="23.89" y1="36.06" x2="152.59" y2="96.72" xlink:href="#ad"/><linearGradient id="av" x1="60.57" y1="35.94" x2="47.72" y2="10.99" gradientUnits="userSpaceOnUse"><stop offset="0" stop-color="#010101"/><stop offset="0.48" stop-color="#61445a"/><stop offset="1" stop-color="#cc8fbe"/></linearGradient><linearGradient id="aw" x1="47.68" y1="52.06" x2="47.68" y2="15.65" gradientUnits="userSpaceOnUse"><stop offset="0" stop-color="#73bf90"/><stop offset="0.07" stop-color="#66a97f"/><stop offset="0.24" stop-color="#477659"/><stop offset="0.41" stop-color="#2e4c39"/><stop offset="0.57" stop-color="#1a2b21"/><stop offset="0.73" stop-color="#0c140f"/><stop offset="0.87" stop-color="#040605"/><stop offset="1" stop-color="#010101"/></linearGradient><linearGradient id="ax" x1="56.84" y1="41.2" x2="56.84" y2="19.72" xlink:href="#aw"/><linearGradient id="ay" x1="115.21" y1="86.44" x2="115.21" y2="70.7" gradientTransform="matrix(0.97, 0.25, -0.25, 0.97, 22.94, -73.17)" gradientUnits="userSpaceOnUse"><stop offset="0" stop-color="#73bf90"/><stop offset="0.08" stop-color="#63a47c"/><stop offset="0.25" stop-color="#457357"/><stop offset="0.41" stop-color="#2d4a38"/><stop offset="0.57" stop-color="#1a2a20"/><stop offset="0.73" stop-color="#0c130f"/><stop offset="0.87" stop-color="#040605"/><stop offset="1" stop-color="#010101"/></linearGradient><linearGradient id="az" x1="120.29" y1="77.92" x2="120.29" y2="68.04" gradientTransform="matrix(0.97, 0.25, -0.25, 0.97, 22.94, -73.17)" gradientUnits="userSpaceOnUse"><stop offset="0" stop-color="#73bf90"/><stop offset="0.16" stop-color="#58936f"/><stop offset="0.37" stop-color="#395f48"/><stop offset="0.56" stop-color="#213629"/><stop offset="0.74" stop-color="#0f1913"/><stop offset="0.89" stop-color="#050706"/><stop offset="1" stop-color="#010101"/></linearGradient><linearGradient id="ba" x1="111.54" y1="21.46" x2="130.72" y2="21.46" xlink:href="#av"/><linearGradient id="bb" x1="7.73" y1="98.37" x2="-0.22" y2="82.95" xlink:href="#av"/><linearGradient id="bc" x1="34.11" y1="21.36" x2="34.11" y2="5.62" gradientTransform="translate(-33.72 96.13) rotate(-25.99)" gradientUnits="userSpaceOnUse"><stop offset="0" stop-color="#73bf90"/><stop offset="0.49" stop-color="#3a5f48"/><stop offset="1" stop-color="#010101"/></linearGradient><linearGradient id="bd" x1="39.19" y1="12.83" x2="39.19" y2="2.95" xlink:href="#bc"/><linearGradient id="be" x1="72.26" y1="128.01" x2="75.24" y2="141.84" xlink:href="#h"/><linearGradient id="bf" x1="50.74" y1="150.62" x2="50.74" y2="133.74" xlink:href="#h"/><linearGradient id="bg" x1="45.42" y1="113.7" x2="28.67" y2="149.83" gradientUnits="userSpaceOnUse"><stop offset="0" stop-color="#010101"/><stop offset="0.13" stop-color="#30202d"/><stop offset="0.28" stop-color="#5d3d56"/><stop offset="0.43" stop-color="#825679"/><stop offset="0.57" stop-color="#9f6994"/><stop offset="0.72" stop-color="#b476a7"/><stop offset="0.86" stop-color="#c07eb2"/><stop offset="1" stop-color="#c481b6"/></linearGradient><linearGradient id="bh" x1="127.51" y1="123.7" x2="109.39" y2="131.09" xlink:href="#bg"/><linearGradient id="bi" x1="89.32" y1="86.84" x2="56.29" y2="85.58" xlink:href="#bg"/><linearGradient id="bj" x1="36.93" y1="126.39" x2="32.02" y2="116.85" xlink:href="#av"/><linearGradient id="bk" x1="82.68" y1="88.58" x2="78.4" y2="80.27" xlink:href="#av"/><linearGradient id="bl" x1="121.49" y1="128.23" x2="117.72" y2="120.91" xlink:href="#av"/><linearGradient id="bm" x1="97.5" y1="108.76" x2="97.5" y2="84.64" gradientTransform="translate(-14.64 33.19) rotate(-6.64)" xlink:href="#s"/><linearGradient id="bn" x1="103.18" y1="106.17" x2="103.18" y2="95.12" gradientTransform="translate(-14.64 33.19) rotate(-6.64)" xlink:href="#s"/><linearGradient id="bo" x1="61.16" y1="135.49" x2="59.56" y2="121.75" gradientTransform="matrix(1, 0, 0, 1, 0, 0)" xlink:href="#s"/><linearGradient id="bp" x1="52.72" y1="120.95" x2="51.71" y2="112.33" gradientTransform="matrix(1, 0, 0, 1, 0, 0)" xlink:href="#s"/><linearGradient id="bq" x1="102.65" y1="101.73" x2="101.73" y2="93.82" gradientTransform="matrix(1, 0, 0, 1, 0, 0)" xlink:href="#s"/><linearGradient id="br" x1="134.44" y1="126.03" x2="133.75" y2="120.12" gradientTransform="matrix(1, 0, 0, 1, 0, 0)" xlink:href="#s"/><linearGradient id="bs" x1="466.85" y1="152.2" x2="397.29" y2="183.42" gradientTransform="matrix(-0.99, -0.17, -0.17, 0.99, 559.75, 43.48)" gradientUnits="userSpaceOnUse"><stop offset="0" stop-color="#62b66b"/><stop offset="0.08" stop-color="#46aa69"/><stop offset="0.18" stop-color="#279e67"/><stop offset="0.28" stop-color="#129565"/><stop offset="0.38" stop-color="#049064"/><stop offset="0.47" stop-color="#008e64"/><stop offset="1" stop-color="#055c55"/></linearGradient><linearGradient id="bt" x1="502.17" y1="148.35" x2="425.01" y2="183.5" gradientTransform="matrix(-0.99, -0.17, -0.17, 0.99, 559.75, 43.48)" gradientUnits="userSpaceOnUse"><stop offset="0" stop-color="#f6ea51"/><stop offset="0.1" stop-color="#cac043"/><stop offset="0.23" stop-color="#958e31"/><stop offset="0.36" stop-color="#686323"/><stop offset="0.49" stop-color="#433f16"/><stop offset="0.62" stop-color="#26240d"/><stop offset="0.75" stop-color="#111106"/><stop offset="0.88" stop-color="#050502"/><stop offset="1" stop-color="#010101"/></linearGradient><linearGradient id="bu" x1="494.72" y1="137.01" x2="425.55" y2="168.51" gradientTransform="matrix(-0.99, -0.17, -0.17, 0.99, 559.75, 43.48)" gradientUnits="userSpaceOnUse"><stop offset="0" stop-color="#f6ea51"/><stop offset="0.09" stop-color="#e0d54a"/><stop offset="0.72" stop-color="#413e16"/><stop offset="1" stop-color="#010101"/></linearGradient><linearGradient id="bv" x1="461.09" y1="152.57" x2="323.93" y2="180.82" gradientTransform="matrix(-1, -0.01, -0.01, 1, 533.55, 0.86)" gradientUnits="userSpaceOnUse"><stop offset="0" stop-color="#62b66b"/><stop offset="0.09" stop-color="#4aac69"/><stop offset="0.22" stop-color="#2fa167"/><stop offset="0.36" stop-color="#1a9966"/><stop offset="0.52" stop-color="#0b9365"/><stop offset="0.71" stop-color="#038f64"/><stop offset="1" stop-color="#008e64"/></linearGradient><linearGradient id="bw" x1="530.75" y1="159.64" x2="461.31" y2="163.01" gradientTransform="matrix(-1, -0.01, -0.01, 1, 533.55, 0.86)" gradientUnits="userSpaceOnUse"><stop offset="0" stop-color="#f6ea51"/><stop offset="0.13" stop-color="#f2e650"/><stop offset="0.26" stop-color="#e6db4c"/><stop offset="0.39" stop-color="#d3c946"/><stop offset="0.51" stop-color="#b7ae3d"/><stop offset="0.64" stop-color="#948d31"/><stop offset="0.77" stop-color="#686323"/><stop offset="0.89" stop-color="#363312"/><stop offset="1" stop-color="#010101"/></linearGradient><linearGradient id="bx" x1="522.86" y1="155.95" x2="467.83" y2="164.16" gradientTransform="matrix(-1, -0.01, -0.01, 1, 533.55, 0.86)" gradientUnits="userSpaceOnUse"><stop offset="0" stop-color="#f6ea51"/><stop offset="0.11" stop-color="#e4d94b"/><stop offset="0.32" stop-color="#b5ac3c"/><stop offset="0.62" stop-color="#686323"/><stop offset="1" stop-color="#010101"/></linearGradient><linearGradient id="by" x1="530.49" y1="151.17" x2="461.05" y2="152.76" gradientTransform="matrix(-1, -0.01, -0.01, 1, 533.55, 0.86)" gradientUnits="userSpaceOnUse"><stop offset="0" stop-color="#f6ea51"/><stop offset="0.1" stop-color="#f1e54f"/><stop offset="0.23" stop-color="#e1d64a"/><stop offset="0.37" stop-color="#c7bd42"/><stop offset="0.52" stop-color="#a39b36"/><stop offset="0.68" stop-color="#746e27"/><stop offset="0.85" stop-color="#3c3914"/><stop offset="1" stop-color="#010101"/></linearGradient><linearGradient id="bz" x1="78.14" y1="88.72" x2="78.14" y2="77.53" gradientTransform="matrix(1, 0, 0, 1, 0, 0)" xlink:href="#bc"/><linearGradient id="ca" x1="35.17" y1="129.92" x2="35.17" y2="117.5" gradientTransform="matrix(1, 0, 0, 1, 0, 0)" xlink:href="#bc"/><linearGradient id="cb" x1="38.53" y1="127.81" x2="38.53" y2="120.38" gradientTransform="matrix(1, 0, 0, 1, 0, 0)" xlink:href="#bc"/><linearGradient id="cc" x1="80.02" y1="91.7" x2="80.02" y2="85.32" gradientTransform="matrix(1, 0, 0, 1, 0, 0)" xlink:href="#bc"/></defs><g style="isolation:isolate"><path d="M144.38,138.1s1.41-18.36-8.8-32.58C135.58,105.52,131.2,131.76,144.38,138.1Z" fill="#055c55"/><path d="M144.41,134.11l1-1.09A41.2,41.2,0,0,1,149,120c-1.43,2-2.45,3-.9-1.28,3-8.26,11.67-15.66,12.36-16.24-11.18,7.38-15.12,18.46-16.51,25.69a57.33,57.33,0,0,0-2-9.59c.15,1.2,1.79,15.43-2.24,11.92-4.2-3.66-4.63-19.83-4.63-19.84-.53,8-.14,22.85,9.35,27.41C144.38,138.1,144.49,136.57,144.41,134.11Z" fill="#0870b4" opacity="0.24" style="mix-blend-mode:multiply"/><path d="M143.81,143.91S136,113,163.65,98.62c0,0-2.26,23.61-18.22,42.55,0,0,15.46-12.69,27.95-13C173.38,128.2,163.66,146.78,143.81,143.91Z" fill="#055c55"/><path d="M145.43,141.17A79.38,79.38,0,0,0,159,117.39c-3.76,7.45-8.54,15.44-9.57,10.24-1.72-8.69,4.61-21.88,4.81-22.3-16.2,15.53-10.38,38.58-10.38,38.58,10.38,1.5,18-2.86,22.85-7.37-4.63,3.58-12.12,5.31-12.75,2.94s7.79-8.14,8.36-8.53A79.21,79.21,0,0,0,145.43,141.17Z" fill="#0870b4" opacity="0.24" style="mix-blend-mode:multiply"/><path d="M54.28,142.4s-18.38,1.22-31,13.35C23.29,155.75,49.88,156.35,54.28,142.4Z" fill="#055c55"/><path d="M50.32,142.93l-1.22-.87a41.07,41.07,0,0,1-13.37-1.65c2.22,1.13,3.28,2-1.13,1.07-8.61-1.83-17.17-9.31-17.84-9.91,8.9,10,20.43,12.33,27.78,12.67a57.34,57.34,0,0,0-9.19,3.39c1.16-.32,15-4,12.11.52-3,4.68-19,7.41-19,7.41,8-.62,22.64-3.12,25.8-13.16C54.28,142.4,52.75,142.51,50.32,142.93Z" fill="#0870b4" opacity="0.24" style="mix-blend-mode:multiply"/><path d="M60.11,142.13S30.6,154.31,12.46,129c0,0,23.69-1.14,44.71,11.95,0,0-14.77-13.48-16.83-25.8C40.34,115.11,60.12,122.07,60.11,142.13Z" fill="#055c55"/><path d="M57.17,140.91a79.52,79.52,0,0,0-25.47-10c7.91,2.66,16.5,6.25,11.5,8-8.35,2.94-22.32-1.44-22.75-1.58,17.68,13.82,39.66,4.77,39.66,4.77,0-10.49-5.4-17.36-10.55-21.57,4.2,4.08,7,11.25,4.72,12.21s-9.16-6.56-9.63-7.06A79.25,79.25,0,0,0,57.17,140.91Z" fill="#0870b4" opacity="0.24" style="mix-blend-mode:multiply"/><polygon points="61.8 120.76 31.75 52.44 55.56 10.21 69.73 0 76.53 7.65 99.78 58.75 97.8 110.55 101.48 111.69 105.45 42.24 129.54 9.07 143.72 52.16 136.06 138.9 49.32 137.2 0 107.43 1.42 75.58 5.95 70.87 34.3 83.06 52.44 125.29 61.8 120.76" fill="#b01378"/><polygon points="126.99 130.39 132.66 58.75 143.72 52.16 136.06 138.9 126.99 130.39" fill="#b01378" opacity="0.26" style="mix-blend-mode:multiply"/><polygon points="31.75 52.44 61.8 120.76 67.18 132.94 69.03 127.81 60.09 61.8 31.75 52.44" fill="#62b66b" opacity="0.57" style="mix-blend-mode:color-dodge"/><path d="M98.76,66c-1.64-11.69-8.6-26.72-14.34-18.71S64,54.88,66.76,48.6s8.77-.65,7.45,0c0,0,2.31-6.54-3.44-5.56s-6.84,4.84-10.64,1.17S81,33.41,78.9,45.94c0,0,.18-5.95,7-3.11,0,0,2.68-6.58-6.14-7.14S66.63,41.36,62.39,37s7.44-2.21,12-3.85S69.54,22,61.63,21.79,45.87,25.65,49.07,29.1s11.12,2.95,9.94-.48c0,0-1.52,3.68-6.93,0s11-3.12,11.25,0S55.24,34.11,53,33c0,0,1.73,3.34-1.33,4.08s-4.81-7.54-4.81-7.54,0,5.34-3.7,6.94-.35,18.41,9.28,12.13-7.59-9.52-6-3a4.53,4.53,0,0,1,5.32-.91c3.22,1.5-5.92,5.78-7.18-.7S56.77,39.29,57,41.84,58.69,51.49,54,52.57s-13.88.34-13.09-6c0,0-6.27,16.54,5.17,19.29s11.34-7.09,11.34-7.09-2.72,5.36-8.21,4.79,6-9.6,10.18-8.22,5.29,17-9.57,17.35,2.94,24.63,12.09,18.75S58.58,77.7,58.58,77.7s5.36,5.87.74,7.85-13-3.92-11.11-7,13.62-5.61,15.31,1.18c0,0,3.56-13.44,11.2-12.39s6.89,13.37,1.77,15.94-7.52-1.34-6.9-5.11S74.86,80,74.86,80s3.11-8.71-3.14-7S64.26,87.87,69.1,90.63,81.17,80,87.09,79.37s7.28.85,7.28.85S85.21,75.81,87,70.37s8.37,6.27,8.37,6.27,2.53-12.8-7-12.38-16.06,2.47-10.82-4.72,17.76-7.22,14.3-2.45-8.48,1.45-8.48,1.45,2.41,7.07,9.75,1.34C93.12,59.88,99.48,71.09,98.76,66Z" opacity="0.2" fill="url(#a)" style="mix-blend-mode:multiply"/><polygon points="99.78 58.75 60.09 61.8 69.03 127.81 97.8 110.55 99.78 58.75" fill="#b01378" opacity="0.26" style="mix-blend-mode:multiply"/><polygon points="105.45 42.24 101.48 111.69 111.69 135.21 115.65 50.17 105.45 42.24" fill="#62b66b" opacity="0.57" style="mix-blend-mode:color-dodge"/><polygon points="1.42 75.58 18.14 97.8 5.95 70.87 1.42 75.58" fill="#62b66b" opacity="0.57" style="mix-blend-mode:color-dodge"/><polygon points="0 107.43 18.14 97.8 1.42 75.58 0 107.43" fill="#62b66b" style="mix-blend-mode:color-dodge"/><polygon points="34.3 83.06 18.14 97.8 5.95 70.87 34.3 83.06" fill="#b01378" opacity="0.26"/><polygon points="48.19 128.98 18.14 97.8 0 107.43 49.32 137.2 48.19 128.98" fill="#62b66b" opacity="0.57" style="mix-blend-mode:color-dodge"/><path d="M1,84.33S.85,102.76,3,103s12.61-4.59,12.89-6.24-13.5-20-13.5-20,14.82,19.73,6.08,0c0,0,9,16.16,11.68,16.43S34.3,83.06,34.3,83.06L18.14,97.8,34.3,114.56s-14.42-13.66-16.64-14.5-14.54,6.1-13.55,7.37,26.42,18.43,26.42,18.43L0,107.43Z" opacity="0.43" fill="url(#b)" style="mix-blend-mode:color-dodge"/><path d="M37.13,92.25c-4.08-5.27-11.78-10.62-12.44-5S16.55,97,16.17,93.06s4.24-2.88,3.74-2.19c0,0-.66-3.9-3.28-1.73s-2.09,4.38-5,3.68,7.48-11.38,9.94-4.62c0,0-1.56-3,2.67-3.58,0,0-.49-4-5.08-1.72s-5,6.64-8.4,5.72,3.14-3.26,5-5.41-5.56-4-9.6-1.84-6.86,6.51-4.29,7.27,6.42-1.8,4.87-3.14c0,0,.26,2.25-3.5,2s4.69-4.76,5.66-3.3-2.53,5.09-4,5.19c0,0,1.81,1.13.47,2.39S.81,89.49.81,89.49,2.31,92.11.88,94s5,9.16,8,3.26-6.47-2.47-3.84.29a2.72,2.72,0,0,1,2.42-2c2-.2-1.36,4.57-3.81,1.76s4.85-5.88,5.7-4.7,3.52,4.26,1.43,6.17-6.89,4.23-8.27.87c0,0,1.45,10,8,8s3.73-6.8,3.73-6.8.13,3.43-2.8,4.76.35-6.48,2.84-7,7.41,6.83,0,11.33,8.35,11.25,11.31,5.68-5.47-5.78-5.47-5.78,4.33,1.32,2.56,3.64-7.64,1.87-7.55-.19,5.3-6.74,8-3.89c0,0-1.95-7.66,2.19-9.37s7.19,4.56,5.33,7.32-4.16,1.54-4.9-.5,3.18-.62,3.18-.62-.87-5.19-3.55-2.55.39,9.5,3.6,9.45,3.11-8.77,5.91-10.8,3.91-1.71,3.91-1.71-5.84.51-6.47-2.68,6,.63,6,.63-2.29-7-7-4-7.4,5.91-6.77.85,6.94-8.75,6.52-5.39-3.86,3.19-3.86,3.19,3.18,2.77,5.27-2.19C32.58,90.9,38.92,94.56,37.13,92.25Z" opacity="0.2" fill="url(#c)" style="mix-blend-mode:multiply"/><polygon points="34.3 114.56 34.7 114.98 36.28 109.13 43.02 110.82 46.61 111.72 34.3 83.06 18.14 97.8 34.3 114.56" opacity="0.61" fill="url(#d)" style="mix-blend-mode:multiply"/><polygon points="55.56 10.21 64.63 20.69 76.53 7.65 69.73 0 55.56 10.21" fill="#62b66b" opacity="0.57" style="mix-blend-mode:color-dodge"/><polygon points="31.75 52.44 60.09 61.8 64.63 20.69 55.56 10.21 31.75 52.44" fill="#62b66b" style="mix-blend-mode:color-dodge"/><polygon points="76.53 7.65 99.78 58.75 60.09 61.8 64.63 20.69 76.53 7.65" fill="#b01378" opacity="0.26"/><polygon points="105.45 42.24 115.65 50.17 129.54 9.07 105.45 42.24" fill="#62b66b" style="mix-blend-mode:color-dodge"/><polygon points="132.66 58.75 115.65 50.17 129.54 9.07 132.66 58.75" fill="#62b66b" opacity="0.57" style="mix-blend-mode:color-dodge"/><polygon points="143.72 52.16 132.66 58.75 129.54 9.07 143.72 52.16" fill="#b01378" opacity="0.26"/><polygon points="115.65 50.17 111.69 135.21 126.99 130.39 132.66 58.75 115.65 50.17" fill="#b01378"/><path d="M107.06,56.28c-1.28,11.47,0,27.3,4.92,21s13.59-2.74,10.76,2.63-5.34-1.32-4.44-1.62c0,0-2.63,5.71,1,6s5-3.09,6.54,1.24S111.37,91.16,115,79.71c0,0-1.25,5.62-4.76,1.41,0,0-2.87,5.66,2.27,8.14s8.91-2.5,10.58,2.6-4.85.46-7.89,1,.75,11.65,5.41,13.6,10.12-.19,8.88-4.18-6-5.26-6-1.74c0,0,1.61-3.16,4.11,1.56s-7.16.54-6.69-2.46,5.88-3.48,7-1.88c0,0-.39-3.55,1.58-3.58s1.4,8.23,1.4,8.23,1-5.09,3.54-5.79,3.76-17.42-3.18-13.57,2.68,10.72,3,4.14a2.07,2.07,0,0,1-3.34-.3c-1.63-2.14,4.63-4.19,4.14,2.24s-8.17,1.77-7.84-.72.88-9.54,3.9-9.51,8.32,2.74,6.62,8.61c0,0,6.92-14.33.65-19.48s-8.11,4.25-8.11,4.25,2.65-4.5,5.81-2.75-5.42,7.81-7.64,5.57.14-17.35,9-14.38,3-24.06-3.57-20.48S133.2,54,133.2,54s-2-6.76,1.08-7.62,7,6.59,5.26,9.09-9.18,2.33-8.88-4.49c0,0-4.71,12-9,9.3s-1.52-14.22,2-15.53,4.21,2.92,3.11,6.37S124,48.19,124,48.19s-3.53,7.6.51,7.39,7.3-12.5,5-16.19-9.23,7.45-12.87,6.74-4.16-2.42-4.16-2.42,4.59,6.22,2.5,11-3.77-7.8-3.77-7.8-4,11.6,1.76,13.31,10,1.19,5.52,6.87-12,2.94-9-.83,5.32.49,5.32.49-.07-7.25-5.54-3.41C109.24,63.33,107.63,51.26,107.06,56.28Z" opacity="0.2" fill="url(#e)" style="mix-blend-mode:multiply"/><path d="M115.65,28.19s6.95-9.75,8.51-8.77-7.51,28.2-9.22,27.78-8.5-3.34-6.37-9.26l-3.12,4.3L102.66,91s3.56-43.91,5.09-43.77,6.34,2.83,6.49,5.24-2.55,74.69-2.55,74.69,5-73.46,7.22-73.84,13.18,7,12.33,9.93-2.72,47.92-2.72,47.92l4.14-52.39,11.06-6.59s-10.63,4.67-11.06,3.68-2.61-38.67-2.61-38.67S131.67,54,130.39,54s-12.33-5.1-12.19-6.52,9-35.32,11.74-32c0,0,.32-4.21,4,7.07L129.54,9.07Z" opacity="0.43" fill="url(#f)" style="mix-blend-mode:color-dodge"/><polygon points="128.07 116.79 137.54 122.12 143.72 52.16 132.66 58.75 128.07 116.79" opacity="0.61" fill="url(#g)" style="mix-blend-mode:multiply"/><path d="M108.54,128l.92,2.12,2.49-.65.8-17c-.65,8.65-1.07,14.71-1.07,14.71s2.7-72.28,2.56-74.69-5-5.1-6.49-5.24S102.67,90.93,102.66,91l-.12,2.24L110.83,106Z" opacity="0.3" fill="url(#h)" style="mix-blend-mode:multiply"/><path d="M114.94,47.2c1.71.42,10.78-26.8,9.22-27.78-1.31-.82-6.4,5.89-8,8.09l-7.58,10.43C106.44,43.86,113.24,46.77,114.94,47.2Z" fill="url(#i)" style="mix-blend-mode:screen"/><path d="M118.2,47.48C118.06,48.9,129.12,54,130.39,54s-.34-36.83-.34-36.83,1.22,21,2,32.09l-2.13-33.81C127.16,12.16,118.35,46.06,118.2,47.48Z" opacity="0.3" fill="url(#j)" style="mix-blend-mode:multiply"/><path d="M129.94,15.45l2.13,33.81c.26,3.73.48,6.33.59,6.58.43,1,11.06-3.68,11.06-3.68L134,22.52C130.26,11.24,129.94,15.45,129.94,15.45Z" opacity="0.3" fill="url(#k)" style="mix-blend-mode:multiply"/><path d="M119.18,120.13,123,114l5,2.84,4.59-58-4.14,52.39s1.87-44.95,2.72-47.92-10.15-10.31-12.33-9.93c-1.54.27-4.56,37.67-6.16,59.13l-.8,17,1.72-.45Z" opacity="0.3" fill="url(#l)" style="mix-blend-mode:multiply"/><path d="M44.09,30.56s-9.37,18.9-7.81,20.18,21,8.5,21.83,6.66,4.37-33.46,4-36.71S56,12,51.26,17.83l4.3-7.63L69.73,0l6.81,7.65,10,22s-9.29-18.28-10.7-17.86S69,15.87,69,15.87s4.73-7.2,4.53-9.49-2.11-5-4.53-4S58.11,8.5,58.68,10.35s6.32,9.94,7.78,8.34c0,0-5.23,32.05-4.31,35.88S93.26,59,94.54,57.7,90.35,38,90.35,38l9.43,20.72-39.69,3,7.09,52.33s-8.5-51.34-11.62-51.91-19.81-7.54-20.27-5.16,15.8,39.35,15.8,39.35l-19.34-44Z" opacity="0.43" fill="url(#m)" style="mix-blend-mode:color-dodge"/><path d="M67.75,128.69l1.28-.88-1.85-13.68s-8.5-51.34-11.62-51.91-19.81-7.54-20.27-5.16,15.8,39.35,15.8,39.35l-19.34-44L59.2,114.86l4.3,1.08Z" opacity="0.3" fill="url(#n)" style="mix-blend-mode:multiply"/><path d="M67.18,114.13,69,127.81l2.83-2-4.68-39.3L86,72.06l1.9-1.48,7,10.74-.39-.61.38.59,3.87,6,1.09-28.52-39.69,3Z" opacity="0.61" fill="url(#o)" style="mix-blend-mode:multiply"/><path d="M73.56,6.38c-.2-2.3-2.11-5-4.53-4S58.11,8.5,58.68,10.35s6.32,9.94,7.78,8.34L69,15.87S73.76,8.67,73.56,6.38Z" opacity="0.3" fill="url(#p)" style="mix-blend-mode:multiply"/><path d="M36.28,50.74c1.56,1.28,21,8.5,21.83,6.66s4.37-33.46,4-36.71S56,12,51.26,17.83L31.75,52.44,44.09,30.56S34.72,49.46,36.28,50.74Z" fill="url(#q)" style="mix-blend-mode:screen"/><path d="M75.83,11.76c-1.42.43-6.8,4.11-6.8,4.11l-2.57,2.82s-5.23,32.05-4.31,35.88S93.26,59,94.54,57.7,90.35,38,90.35,38L76.54,7.65l10,22S77.24,11.34,75.83,11.76Z" opacity="0.3" fill="url(#r)" style="mix-blend-mode:multiply"/><polygon points="21.07 97.57 23.69 95.53 37.13 110.95 34.88 112.87 21.07 97.57" opacity="0.3" fill="url(#s)" style="mix-blend-mode:multiply"/><polygon points="30.43 100.73 34.05 98.23 38.46 106.11 36.43 107.64 30.43 100.73" opacity="0.3" fill="url(#t)" style="mix-blend-mode:multiply"/><polygon points="64.63 66.24 77.53 65.36 74.82 93.28 72.19 93.28 64.63 66.24" opacity="0.3" fill="url(#u)" style="mix-blend-mode:multiply"/><polygon points="79.94 68.5 78.53 85.62 81.07 83.91 82.96 68.5 79.94 68.5" opacity="0.3" fill="url(#v)" style="mix-blend-mode:multiply"/><polygon points="45.92 63.78 49.89 65.36 62.17 106.87 61.23 106.87 45.92 63.78" opacity="0.3" fill="url(#w)" style="mix-blend-mode:multiply"/><polygon points="82.96 43.37 84.94 54.52 89.87 53.83 86.42 43.94 82.96 43.37" opacity="0.3" fill="url(#x)" style="mix-blend-mode:multiply"/><path d="M2.39,76.87c.51.68,14.64,19.35,6.06,0l1,1.78L6,70.87,1.42,75.58l1,1.34Z" opacity="0.3" fill="url(#y)" style="mix-blend-mode:multiply"/><path d="M3,103c2.12.28,12.61-4.59,12.89-6.24S3.33,78.13,2.42,76.92l-1-1.34L1,84.33S.85,102.76,3,103Z" fill="url(#z)" style="mix-blend-mode:screen"/><path d="M20.13,93.28c2.66.27,14.17-10.22,14.17-10.22L6,70.87l3.52,7.76C11.9,82.84,18,93.06,20.13,93.28Z" opacity="0.3" fill="url(#aa)" style="mix-blend-mode:multiply"/><path d="M34.7,115l-.4-.42s-14.42-13.66-16.64-14.5-14.54,6.1-13.55,7.37,26.42,18.43,26.42,18.43L0,107.43l31.58,19.06A53.35,53.35,0,0,1,33,121.18Z" opacity="0.3" fill="url(#ab)" style="mix-blend-mode:multiply"/><polygon points="34.3 83.06 18.14 97.8 48.19 128.98 52.44 125.29 34.3 83.06" opacity="0.61" fill="url(#ac)" style="mix-blend-mode:multiply"/><path d="M1,84.33S.85,102.76,3,103s12.61-4.59,12.89-6.24-13.5-20-13.5-20,14.82,19.73,6.08,0c0,0,9,16.16,11.68,16.43S34.3,83.06,34.3,83.06L18.14,97.8,34.3,114.56s-14.42-13.66-16.64-14.5-14.54,6.1-13.55,7.37,26.42,18.43,26.42,18.43L0,107.43Z" fill="url(#ad)" style="mix-blend-mode:screen"/><polygon points="134.08 52.16 136.25 52.16 133.42 25.3 132.06 24.95 134.08 52.16" opacity="0.3" fill="url(#ae)" style="mix-blend-mode:multiply"/><polygon points="134.16 70.02 129.94 120.28 132.66 121.42 138.62 70.02 134.16 70.02" opacity="0.3" fill="url(#af)" style="mix-blend-mode:multiply"/><polygon points="120.59 88.3 117.72 129.35 114.41 128.65 115.2 93.79 120.59 88.3" opacity="0.3" fill="url(#ag)" style="mix-blend-mode:multiply"/><polygon points="71.86 125.86 67.18 86.56 87.87 70.58 110.83 106.02 108.28 130.39 113.67 128.98 123.02 113.95 141.16 124.16 141.16 143.43 112.82 147.69 53.86 150.62 29.76 133.23 36.28 109.13 63.5 115.94 67.75 128.69 71.86 125.86" fill="#e72378"/><path d="M91,78.31a4.3,4.3,0,0,0-4.25,1c-2.14,2-.45,3.4,2.58,3.23,3.37-.19,2.24,3.5,0,3.5s-5-.26-5.58,1.67,3.73,2.7,3.73,2.7l.13.63a10.11,10.11,0,0,0-8,3.49c-3.37,3.92-7.46,5.18-7.16,11.31s11.23,4.58,11.23,4.58L94,117s2.18-1.93,3.56-.38l3,3.36a2.56,2.56,0,0,1,2-1.57c1.63-.4.86,2.79.86,2.79s1.89-.82,2.08,1-1.14,5-3.48,3.47-5.48,3.82-9-.28-5-.31-5.73-1.94-2-3.51-4.65-2.67.89,3.13.89,3.13a4.16,4.16,0,0,0-5.23,3.22c-1.16,4.36.69,7.9,5.22,9.51s7.9-.61,9.33-.48,1.46,3.35-1.28,2.74a2.5,2.5,0,0,0,3.71-.85c1.57-2.43-.56-4.3-4.57-2.91s-6.9-3.9-6.09-6.25,3.46-3.2,4.21-1-1.26,1-1.26,1,1.66,4.18,5.62,2.8,3.83-3.07,3.83-3.07l4.77-1.86s1.15,1.29,3.52.13,4.82-6.12,2.84-9-5.75.11-6.62-2.06-.15-3.38,1.45-3.13,2.56,1.68,3.93.23-.26-6.25-3.84-6.55-6.88,3-6.88,3l-14.34-3.68s-.75,2.46-4,1.79-1.2-2.25-1.2-2.25a2.64,2.64,0,0,1-1.82-2.8c.34-2.08,3.14-1.92,3.58-.72,0,0,2-7.12,7.74-4.42s6.58-5.88,4.82-8.07S94,87,95,85.46s-.83-3.59-3.52-3.53C87.36,82,86.74,78.42,91,78.31Z" opacity="0.2" fill="url(#ah)" style="mix-blend-mode:multiply"/><path d="M64.05,152.83a4.22,4.22,0,0,0,2.64-2.46c.84-2.1-.83-2.21-2.89-.79-2.3,1.59-2.75-1.09-1.21-2.06s3.6-2,3.34-3.42-3.52,0-3.52,0l-.29-.32a9.76,9.76,0,0,0,4.46-5.58c1-3.8,2.4-6.31,0-9.75-4.46-6.48-8.23,2.12-8.23,2.12l-9.49.63s-.88,2.1-2.36,1.78l-3.23-.68a2.12,2.12,0,0,1-.85,1.79c-1,.95-1.54-1.28-1.54-1.28s-1,1.31-1.8.3-.9-3.48,1.27-3.58,2.55-4.65,6.36-3.74,3.65-2,4.67-1.36a3,3,0,0,0,4.15-.45c1.54-1.63-1.68-1.46-1.68-1.46s3.24-1.1,2.59-4.19S53.33,114,49.61,115s-5.32,3.81-6.37,4.36-2.15-1.34,0-2.18a2.37,2.37,0,0,0-2.32,2.13c-.28,2.12,1.84,2.3,4.18-.28s6.15-.7,6.37,1-1.35,3.4-2.63,2.4.56-1.13.56-1.13a3.71,3.71,0,0,0-4.88.8c-2.3,2.55-1.65,3.49-1.65,3.49l-2.71,3.19s-1.24-.27-2.51,1.45-1.32,5.73,1,6.58,4-2.57,5.33-1.66,1.24,1.94,0,2.48-2.36.13-2.83,1.58,2.29,3.59,4.89,2.2,3.79-4.81,3.79-4.81l11.27-4.08s-.29-1.78,2.22-2.81,1.6.8,1.6.8,1.75-.51,2.21.87-1.55,2.51-2.26,2c0,0,1,5.1-3.93,6s-2.63,6.35-.66,6.88-1.34,2.73-1.5,4,1.79,1.76,3.65.55C65.34,149,67,150.91,64.05,152.83Z" opacity="0.2" fill="url(#ai)" style="mix-blend-mode:multiply"/><polygon points="63.5 115.94 52.44 132.09 36.28 109.13 63.5 115.94" fill="#62b66b" opacity="0.57" style="mix-blend-mode:color-dodge"/><polygon points="108.28 130.39 110.83 106.02 87.87 102.05 89.87 148.83 106.89 147.98 108.28 130.39" fill="#b01378" opacity="0.26" style="mix-blend-mode:multiply"/><polygon points="67.18 86.56 71.86 125.86 81.9 149.22 89.87 148.83 87.87 102.05 67.18 86.56" fill="#62b66b" opacity="0.57" style="mix-blend-mode:color-dodge"/><polygon points="29.76 133.23 52.44 132.09 67.18 149.96 53.86 150.62 29.76 133.23" opacity="0.3" fill="url(#aj)" style="mix-blend-mode:multiply"/><polygon points="63.5 115.94 67.75 128.69 71.86 149.73 67.18 149.96 52.44 132.09 63.5 115.94" fill="#b01378" opacity="0.26" style="mix-blend-mode:multiply"/><polygon points="106.89 147.98 108.28 130.39 113.67 128.98 131.24 137.2 141.16 143.43 106.89 147.98" opacity="0.3" fill="url(#ak)" style="mix-blend-mode:multiply"/><polygon points="141.16 124.16 131.24 137.2 141.16 143.43 141.16 124.16" fill="#b01378" opacity="0.26" style="mix-blend-mode:multiply"/><path d="M33,121.18s-3,8.93-1.27,9.5,18.71,1.7,17.57,0-13-21.55-13-21.55S51,126.71,52.44,126.57s8.05-8.08,7.92-9.07S43,110.82,43,110.82l20.48,5.12L52.44,132.09,67.18,150s-13.75-16-17.86-16.16-15.32-.09-15,1.41,13.89,11.32,13.89,11.32l-18.43-13.3Z" fill="url(#al)" style="mix-blend-mode:screen"/><path d="M70.2,112s-1.37-20.35,0-20.44,16.11,10.68,16.54,12.38,3.13,38.69,3.13,38.69l-2-40.53,23,4L94.44,80.71s13.13,20.15,12.45,22.33-16.86-2.13-17-4.25-2-24-2-24-1.13,21.69-2.41,21.41-15.3-9-15-9.68S86,72.06,86,72.06L67.18,86.56Z" fill="url(#am)" style="mix-blend-mode:screen"/><path d="M119.18,120.13s-3.38,7-1.68,8.28,10.34,6.38,10.48,4.82-3.56-15.34-3.56-15.34,6,14.72,7.67,15.34,7.52-8.08,6.38-9.07-9.15-6.66-9.15-6.66l11.85,6.66-9.93,13,9.93,6.23s-25.66-12.19-28.21-12-5.21,5.81-5.21,5.81l.53-6.81,5.39-1.41Z" fill="url(#an)" style="mix-blend-mode:screen"/><g opacity="0.3" style="mix-blend-mode:multiply"><polygon points="112.82 147.69 141.16 143.43 106.89 147.98 112.82 147.69" opacity="0.57" fill="url(#ao)" style="mix-blend-mode:color-dodge"/><path d="M51.57,126.05a1.91,1.91,0,0,0,.87.52c.56-.06,1.94-1.34,3.39-2.92,2.21-2.42,4.61-5.55,4.53-6.15s-8.52-3.68-13.59-5.42c-2.19-.75-3.75-1.26-3.75-1.26l-6.74-1.69S48.06,123.17,51.57,126.05Z" opacity="0.57" fill="url(#ap)" style="mix-blend-mode:color-dodge"/><path d="M108.28,130.39l.26-2.43L110.83,106l-8.94-1.55-3.84-.66-10.18-1.76.7,14L89.65,138l.22,4.59s-.13-1.79-.34-4.59h-.12l-.17-3.87c-.38-5.15-.89-11.83-1.35-17.61-.53-6.58-1-12-1.15-12.61-.43-1.7-15.17-12.47-16.54-12.38s0,20.44,0,20.44l-3-25.39,4.68,39.3.08.2,5,11.68,4.94,11.49L87,149l2.91-.14,5.39-.27,11.63-.58.77-9.64Z" opacity="0.3" fill="url(#aq)" style="mix-blend-mode:multiply"/><polygon points="68.09 130.43 67.75 128.69 63.5 115.94 61.17 119.34 59.41 121.91 52.44 132.09 56.77 137.34 67.18 149.96 71.86 149.73 69.49 137.59 68.09 130.43" opacity="0.61" fill="url(#ar)" style="mix-blend-mode:multiply"/><polygon points="136.87 129.81 132.5 135.55 131.24 137.2 133.88 138.85 141.16 143.43 141.16 124.16 136.87 129.81" opacity="0.61" fill="url(#as)" style="mix-blend-mode:multiply"/></g><path d="M115.65,28.19s6.95-9.75,8.51-8.77-7.51,28.2-9.22,27.78-8.5-3.34-6.37-9.26l-3.12,4.3L102.66,91s3.56-43.91,5.09-43.77,6.34,2.83,6.49,5.24-2.55,74.69-2.55,74.69,5-73.46,7.22-73.84,13.18,7,12.33,9.93-2.72,47.92-2.72,47.92l4.14-52.39,11.06-6.59s-10.63,4.67-11.06,3.68-2.61-38.67-2.61-38.67S131.67,54,130.39,54s-12.33-5.1-12.19-6.52,9-35.32,11.74-32c0,0,.32-4.21,4,7.07L129.54,9.07Z" fill="url(#at)" style="mix-blend-mode:screen"/><path d="M44.09,30.56s-9.37,18.9-7.81,20.18,21,8.5,21.83,6.66,4.37-33.46,4-36.71S56,12,51.26,17.83l4.3-7.63L69.73,0l6.81,7.65,10,22s-9.29-18.28-10.7-17.86S69,15.87,69,15.87s4.73-7.2,4.53-9.49-2.11-5-4.53-4S58.11,8.5,58.68,10.35s6.32,9.94,7.78,8.34c0,0-5.23,32.05-4.31,35.88S93.26,59,94.54,57.7,90.35,38,90.35,38l9.43,20.72-39.69,3,7.09,52.33s-8.5-51.34-11.62-51.91-19.81-7.54-20.27-5.16,15.8,39.35,15.8,39.35l-19.34-44Z" fill="url(#au)" style="mix-blend-mode:screen"/><path d="M69.73,0,55.56,10.2l-4.3,7.63-16,28.33s22.63-31.89,27.54-5.81l1.8-21.46S57.1,5.89,76.54,7.65Z" fill="url(#av)" style="mix-blend-mode:screen"/><polygon points="51.27 19.86 57.94 15.65 48.19 52.06 37.41 49.42 51.27 19.86" fill="url(#aw)" style="mix-blend-mode:screen"/><polygon points="57.94 20.42 52.44 41.2 57.94 39.48 61.23 19.72 57.94 20.42" fill="url(#ax)" style="mix-blend-mode:screen"/><polygon points="118.79 25.4 120.34 25.3 114.37 37.06 108.84 38.57 118.79 25.4" fill="url(#ay)" style="mix-blend-mode:screen"/><polygon points="122.23 23.32 123.66 23.41 120.59 32.38 118.18 32.19 122.23 23.32" fill="url(#az)" style="mix-blend-mode:screen"/><path d="M111.54,33.86S122.46,17,125.29,23.08c0,0,.38-8.25,5.43-10.42l-1.18-3.59Z" fill="url(#ba)" style="mix-blend-mode:screen"/><path d="M0,107.43S.9,77.35,7.61,84c0,0-5.41-11.41-.73-11l-.93-2L1.42,75.58Z" fill="url(#bb)" style="mix-blend-mode:screen"/><polygon points="1.79 85.61 2.9 84.52 6.03 97.34 2.81 102.08 1.79 85.61" fill="url(#bc)" style="mix-blend-mode:screen"/><polygon points="3.05 81.8 4.19 80.93 7.7 89.74 5.75 91.17 3.05 81.8" fill="url(#bd)" style="mix-blend-mode:screen"/><polygon points="71.86 125.86 67.75 128.69 71.86 149.73 81.9 149.22 71.86 125.86" opacity="0.3" fill="url(#be)" style="mix-blend-mode:multiply"/><path d="M54.94,137.31c-2.31-2-4.39-3.47-5.62-3.51l-.47,0c-1.34,0-3.24-.05-5.22,0-4.54.09-9.53.44-9.33,1.45.3,1.5,13.67,11.16,13.88,11.31l5.68,4.1L67.18,150A150.78,150.78,0,0,0,54.94,137.31Z" opacity="0.3" fill="url(#bf)" style="mix-blend-mode:multiply"/><path d="M48.51,131.31,48.19,129l.05,0c-3.22-5.24-12-19.81-12-19.81L34.7,115,33,121.18l-1.43,5.31,0,.12c-.41,2-.55,3.82.19,4.07a58.2,58.2,0,0,0,8.06.77A45.64,45.64,0,0,0,48.51,131.31Z" fill="url(#bg)" style="mix-blend-mode:screen"/><path d="M122.93,131.67c2.54,1.35,5,2.38,5,1.56a11.38,11.38,0,0,0-.32-2.21c-.14-.7-.32-1.52-.53-2.41-1-4.55-2.71-10.72-2.71-10.72s1.38,3.42,3,7c1.75,3.88,3.78,8,4.66,8.32s3.31-2.37,4.91-4.94c1.18-1.9,1.95-3.71,1.47-4.13-.18-.16-.56-.45-1-.81-2.49-1.88-8.12-5.85-8.12-5.85l8.22,4.62-9.47-5.33L123,114l-3.84,6.18s-3.38,7-1.68,8.28A52.21,52.21,0,0,0,122.93,131.67Z" fill="url(#bh)" style="mix-blend-mode:screen"/><path d="M85.46,96.24c1.28.28,2.41-21.41,2.41-21.41s1.85,21.83,2,24c.08,1,4.11,2.65,8.23,3.71,1.32.35,2.65.64,3.86.84,2.62.43,4.7.45,4.93-.3.29-.91-1.82-4.93-4.38-9.31-1.25-2.13-2.59-4.34-3.83-6.33-1.7-2.74-3.17-5-3.85-6.08l-7-10.74L86,72.06S70.72,85.89,70.44,86.56,84.19,96,85.46,96.24Z" fill="url(#bi)" style="mix-blend-mode:screen"/><path d="M29.76,133.23s6-19.95,15.66-11.11l-9.14-13Z" fill="url(#bj)" style="mix-blend-mode:screen"/><path d="M67.18,86.56S85.51,75.8,87.87,88.64V70.58Z" fill="url(#bk)" style="mix-blend-mode:screen"/><path d="M113.29,129.55,123,114l5,13.3S124.39,112.12,113.29,129.55Z" fill="url(#bl)" style="mix-blend-mode:screen"/><polygon points="91.35 106.07 95.18 106.3 95.03 129.92 91.62 129.87 91.35 106.07" opacity="0.3" fill="url(#bm)" style="mix-blend-mode:multiply"/><polygon points="97.04 115.96 102.08 116.56 99.88 126.75 96.96 126.52 97.04 115.96" opacity="0.3" fill="url(#bn)" style="mix-blend-mode:multiply"/><polygon points="55.47 132.09 58.68 135.78 65.48 127.13 63.5 121.3 55.47 132.09" opacity="0.3" fill="url(#bo)" style="mix-blend-mode:multiply"/><polygon points="44.93 113.24 57.83 120.35 59.24 117.85 47.1 112.87 44.93 113.24" opacity="0.3" fill="url(#bp)" style="mix-blend-mode:multiply"/><polygon points="98.46 94.2 101.48 100.44 105.92 101.35 102.08 94.2 98.46 94.2" opacity="0.3" fill="url(#bq)" style="mix-blend-mode:multiply"/><polygon points="130.58 121.3 135.89 125.86 137.44 123.35 132.19 120.3 130.58 121.3" opacity="0.3" fill="url(#br)" style="mix-blend-mode:multiply"/><path d="M79.37,133.19s26.46-5,72,18.63,1.59-3,1.59-3S103.25,127,79.37,133.19Z" fill="#055c55"/><path d="M70.53,131.08a33.12,33.12,0,0,1,8.33-1.55,53.32,53.32,0,0,1,17.21,2.1c-.6-.41-1.19-.82-1.76-1.28a32.64,32.64,0,0,1-4.23-4.08c-1.14-1.33-2.06-3.14-.91-4.71a.72.72,0,0,1,.69-.25c7,1.38,13.11,5,18.74,9.28a29.37,29.37,0,0,1-1.77-3.14c-.51-1.07-.76-2.24.13-3.18,2-2.12,5.13.11,7,1.25a63.42,63.42,0,0,1,6.63,4.63c-.52-.79-1-1.59-1.52-2.41-.88-1.52-2.1-3.24-2.15-5a2.09,2.09,0,0,1,2.79-2.21,15.74,15.74,0,0,1,2.75,1.31c1,.53,2,1.08,3,1.65,1.84,1.07,3.64,2.21,5.38,3.43a78.35,78.35,0,0,1,9.74,8.06,76.45,76.45,0,0,1,9.25,10.92,5.57,5.57,0,0,1,1.43,2.9.7.7,0,0,1-.31.67,53,53,0,0,1-9,4.08,21.93,21.93,0,0,1-4.74,1,7.63,7.63,0,0,1-4.48-.64,4.5,4.5,0,0,1-1.92-4.93,35.61,35.61,0,0,1-9.25,3.81,23.24,23.24,0,0,1-4.54.66c-1.24.06-2.83.17-3.76-.81-2-2.12,1.34-5.56,2.85-6.93a21.68,21.68,0,0,1,1.85-1.47,26.89,26.89,0,0,1-9.86,1c-2.27-.25-5.4-.87-5.3-3.7a3.73,3.73,0,0,1,.44-1.64,22.92,22.92,0,0,1-13.67-1.39.73.73,0,0,1-.26-1.13,10.94,10.94,0,0,1,5.38-3.17c-4.58.78-9,2.44-13.49,3.48-5.29,1.2-11.23,1.48-16-1.44a.75.75,0,0,1-.43-.78C65.27,132.81,68.25,131.83,70.53,131.08Z" fill="url(#bs)"/><path d="M106.83,127.45c-.51-1.07-.76-2.24.13-3.18,2-2.12,5.13.11,7,1.25a63.42,63.42,0,0,1,6.63,4.63c-.52-.79-1-1.59-1.52-2.41-.88-1.52-2.1-3.24-2.15-5a2.09,2.09,0,0,1,2.79-2.21,15.74,15.74,0,0,1,2.75,1.31c1,.53,2,1.08,3,1.65,1.84,1.07,3.64,2.21,5.38,3.43a78.35,78.35,0,0,1,9.74,8.06,76.45,76.45,0,0,1,9.25,10.92,5.57,5.57,0,0,1,1.43,2.9.7.7,0,0,1-.31.67,53,53,0,0,1-9,4.08,21.93,21.93,0,0,1-4.74,1,7.63,7.63,0,0,1-4.48-.64,4.06,4.06,0,0,1-2-3.12c4.86-.37,14.84-1.73,13-6.53-2.4-6.31-22.64-24.14-25.42-22.89S124,135.51,124,135.51s-13.12-11.18-15.5-10.27,2.35,8.77,2.35,8.77c-6.37-7.68-21-12.7-21-12.7,7,1.38,13.11,5,18.74,9.28A29.37,29.37,0,0,1,106.83,127.45Z" fill="#0870b4" opacity="0.3" style="mix-blend-mode:multiply"/><path d="M96.15,138.29l3.07,2a22.79,22.79,0,0,1-9.69-1.84.73.73,0,0,1-.41-.76C90.82,139.42,96.15,138.29,96.15,138.29Z" fill="#0870b4" opacity="0.3" style="mix-blend-mode:multiply"/><path d="M80.56,136.1a55.31,55.31,0,0,1,14.09-2c-4.58.78-9,2.44-13.49,3.48S71.4,139,67,137.13C70.4,138,75.17,137.65,80.56,136.1Z" fill="#0870b4" opacity="0.3" style="mix-blend-mode:multiply"/><path d="M79.37,133.19s26.46-5,72,18.63,1.59-3,1.59-3S103.25,127,79.37,133.19Z" fill="#0870b4" opacity="0.3" style="mix-blend-mode:multiply"/><path d="M94.22,134.06s6.51-.21,10.63,2.51c2.52,1.66-2.69,2.27-7.78,2.32l-.92-.6s-5.33,1.13-7-.61a.75.75,0,0,1,.15-.37,10.94,10.94,0,0,1,5.38-3.17c-4.58.78-9,2.44-13.49,3.48-5.29,1.2-11.23,1.48-16-1.44a.75.75,0,0,1-.43-.78c.58-2.59,3.56-3.57,5.84-4.32a33.12,33.12,0,0,1,8.33-1.55,53.32,53.32,0,0,1,17.21,2.1l.38.13C97.6,132.16,100.62,133.45,94.22,134.06Z" fill="url(#bt)" style="mix-blend-mode:screen"/><path d="M102.37,129.47c2.44,4.67-4.23,2.82-5.92,2.29l-.38-.13c-.6-.41-1.19-.82-1.76-1.28a32.64,32.64,0,0,1-4.23-4.08c-1.14-1.33-2.06-3.14-.91-4.71a.72.72,0,0,1,.69-.25s2.44.84,5.76,2.35C98.25,125,101.07,127,102.37,129.47Z" fill="url(#bu)" style="mix-blend-mode:screen"/><path d="M147.79,154.08s-64.66-6.43-95.67,5c0,0,15.89-10.66,96.43-7.71S147.79,154.08,147.79,154.08Z" fill="#055c55"/><path d="M37.22,161.26c3.39-2.44,7.52-3.61,11.52-4.72,3.59-1,7.19-1.94,10.8-2.85l-.54,0a13.87,13.87,0,0,1-4.5-.49c-2.51-1-2.84-4.49.15-5a20,20,0,0,1,4.77,0,40.39,40.39,0,0,1,5,.65c1,.2,2.06.46,3.08.75-.48-.43-1-.87-1.38-1.34a.73.73,0,0,1,.33-1.22A20.25,20.25,0,0,1,78,146.64a1.6,1.6,0,0,1-.31-1c0-2.19,3.48-2.05,4.94-2.07a27.62,27.62,0,0,1,10,1.77,5.68,5.68,0,0,1-1.37-2.91c-.18-3,4.15-2.86,6.17-2.74,4.79.28,9.23,2.16,13.42,4.4a3.87,3.87,0,0,1-.29-2.25,3.26,3.26,0,0,1,2.31-2.61c1.28-.32,2.7.21,3.92.55A60.38,60.38,0,0,1,129.46,145a3,3,0,0,1,.25-1c1.27-3,5-2.38,7.4-1.44s5.1,2,6.88,4a5.7,5.7,0,0,1,1.62,3,2.11,2.11,0,0,1-.08.75.78.78,0,0,1,.16,1.36,143.45,143.45,0,0,1-20.11,12,54.37,54.37,0,0,1-11,3.94,23,23,0,0,1-5.66.77,3.34,3.34,0,0,1-2.66-1.39,3.45,3.45,0,0,1-.61-2.45,45,45,0,0,1-16.27,3.13c-1.27,0-2.6.08-3.66-.71a3.37,3.37,0,0,1-1.32-2.44,3,3,0,0,1,.82-2.34,36.65,36.65,0,0,1-11.92.18.65.65,0,0,1-.45-.37,40.82,40.82,0,0,1-4.36,3.43,16.78,16.78,0,0,1-8.21,3c-1.13.06-3.09.19-3.61-1s.13-2.52.87-3.5c1.55-2.06,3.25-4,4.94-6-3,1.62-6,3.19-9.12,4.66-3.92,1.87-8.12,4.11-12.58,4.19-1.62,0-4-.14-5-1.51C34.55,163.73,36,162.17,37.22,161.26Z" fill="url(#bv)"/><path d="M63.68,166c4-1,8.55-6.35,9.57-7.58-.52.69-1.58,2.55,1.35,3.12,3.28.64,11-1,12.41-1.28-2.21.68-4.1,6.66,3.24,5.94,7.62-.74,17.74-4.89,17.74-4.89s-1.72,5.67,1.38,5.76,30.61-9.93,31.44-14.86-5.88-9.83-8.9-9.32-1.71,6.06-1.71,6.06-15.34-9.6-17.93-8.92.84,7.28.84,7.28-15.36-7.95-19.89-6.43,3.42,7.27,3.42,7.27-14.77-4-17.08-3.32,2.64,3.56,2.64,3.56-9.11-1.77-12.74-1.53,0,4.42,0,4.42c-5.05-2.86-13-3.15-14-3.18a24.78,24.78,0,0,1,4,.06,40.39,40.39,0,0,1,5,.65c1,.2,2.06.46,3.08.75-.48-.43-1-.87-1.38-1.34a.73.73,0,0,1,.33-1.22A20.25,20.25,0,0,1,78,146.64a1.6,1.6,0,0,1-.31-1c0-2.19,3.48-2.05,4.94-2.07a27.62,27.62,0,0,1,10,1.77,5.68,5.68,0,0,1-1.37-2.91c-.18-3,4.15-2.86,6.17-2.74,4.79.28,9.23,2.16,13.42,4.4a3.87,3.87,0,0,1-.29-2.25,3.26,3.26,0,0,1,2.31-2.61c1.28-.32,2.7.21,3.92.55A60.38,60.38,0,0,1,129.46,145a3,3,0,0,1,.25-1c1.27-3,5-2.38,7.4-1.44s5.1,2,6.88,4a5.7,5.7,0,0,1,1.62,3,2.11,2.11,0,0,1-.08.75.78.78,0,0,1,.16,1.36,143.45,143.45,0,0,1-20.11,12,55,55,0,0,1-11,3.94,23,23,0,0,1-5.66.77,3.34,3.34,0,0,1-2.66-1.39,3.45,3.45,0,0,1-.61-2.45,45,45,0,0,1-16.27,3.13c-1.27,0-2.6.08-3.66-.71a3.37,3.37,0,0,1-1.32-2.44,3,3,0,0,1,.82-2.34,36.65,36.65,0,0,1-11.92.18.65.65,0,0,1-.45-.37,40.82,40.82,0,0,1-4.36,3.43,16.78,16.78,0,0,1-8.21,3c-1.13.06-3.09.19-3.61-1s.13-2.52.87-3.5l.06-.08C55.75,167,59.8,167,63.68,166Z" fill="#0870b4" opacity="0.3" style="mix-blend-mode:multiply"/><path d="M147.79,154.08s-64.66-6.43-95.67,5c0,0,15.89-10.66,96.43-7.71S147.79,154.08,147.79,154.08Z" fill="#0870b4" opacity="0.3" style="mix-blend-mode:multiply"/><path d="M69.93,156.27c2.38,1.74-.27,5.88-2.42,7.66-.31.23-.62.45-.93.65l-1.86,1a7.64,7.64,0,0,1-1,.37c-3.88,1-7.93,1-6.07-2.13,1.53-2,3.21-4,4.88-5.9a5.48,5.48,0,0,0,1-.69C65.05,156.28,68,154.84,69.93,156.27Z" fill="url(#bw)" style="mix-blend-mode:screen"/><path d="M64.75,156.07a13.21,13.21,0,0,1-1.23,1.16,11.78,11.78,0,0,0-1,.69c-3,1.62-6,3.19-9.12,4.66-3.92,1.87-8.12,4.11-12.58,4.19-1.62,0-4-.14-5-1.51-1.19-1.53.21-3.09,1.48-4,3.39-2.44,7.52-3.61,11.52-4.72,3.54-1,7.1-1.91,10.66-2.81C60.86,154,65.92,154.81,64.75,156.07Z" fill="url(#bx)" style="mix-blend-mode:screen"/><path d="M67.49,152.32c-.73,1.42-8.49,1.35-8.49,1.35a13.87,13.87,0,0,1-4.5-.49c-2.51-1-2.84-4.49.15-5,.27-.05.54-.07.82-.1a44.79,44.79,0,0,1,5.08.47C60.64,148.55,68.22,150.91,67.49,152.32Z" fill="url(#by)" style="mix-blend-mode:screen"/><polygon points="81.64 77.53 73.13 86.1 76.82 88.72 83.15 78.12 81.64 77.53" fill="url(#bz)" style="mix-blend-mode:screen"/><polygon points="34.7 118 32.74 129.43 36.28 129.92 37.59 117.5 34.7 118" fill="url(#ca)" style="mix-blend-mode:screen"/><polygon points="38.27 120.38 37.59 127.81 38.89 127.81 39.47 120.61 38.27 120.38" fill="url(#cb)" style="mix-blend-mode:screen"/><polygon points="80.74 85.32 78.14 89.72 80.81 91.7 81.9 87.59 80.74 85.32" fill="url(#cc)" style="mix-blend-mode:screen"/></g></svg>