<svg xmlns="http://www.w3.org/2000/svg" xmlns:xlink="http://www.w3.org/1999/xlink" viewBox="0 0 107.58 142.05"><defs><linearGradient id="a" x1="-341.24" y1="487.32" x2="-341.24" y2="451.98" gradientTransform="translate(473.38 410.22) rotate(93)" gradientUnits="userSpaceOnUse"><stop offset="0" stop-color="#ed6b1f"/><stop offset="0.95" stop-color="#e8461e"/></linearGradient><linearGradient id="b" x1="-364.23" y1="469.65" x2="-364.23" y2="403.41" gradientTransform="translate(473.38 410.22) rotate(93)" gradientUnits="userSpaceOnUse"><stop offset="0" stop-color="#f4e600"/><stop offset="0.28" stop-color="#ed6b1f"/><stop offset="0.95" stop-color="#e8461e"/></linearGradient><linearGradient id="c" x1="-344.69" y1="427.55" x2="-344.69" y2="385.82" gradientTransform="translate(473.38 410.22) rotate(93)" gradientUnits="userSpaceOnUse"><stop offset="0.05" stop-color="#e8461e"/><stop offset="0.72" stop-color="#ed6b1f"/><stop offset="1" stop-color="#f4e600"/></linearGradient><linearGradient id="d" x1="-355.1" y1="487.08" x2="-355.1" y2="385.79" gradientTransform="translate(473.38 410.22) rotate(93)" gradientUnits="userSpaceOnUse"><stop offset="0" stop-color="#f6a019"/><stop offset="1" stop-color="#fab735"/></linearGradient><linearGradient id="e" x1="-278.57" y1="487.32" x2="-278.57" y2="454.23" gradientTransform="translate(473.38 410.22) rotate(93)" gradientUnits="userSpaceOnUse"><stop offset="0" stop-color="#fab735"/><stop offset="1" stop-color="#f6a019"/></linearGradient><linearGradient id="f" x1="-251.34" y1="486.65" x2="-251.34" y2="454.31" xlink:href="#a"/><linearGradient id="g" x1="-301.73" y1="452.21" x2="-301.73" y2="422.38" xlink:href="#d"/><linearGradient id="h" x1="-275.5" y1="455.25" x2="-275.5" y2="420.22" xlink:href="#d"/><linearGradient id="i" x1="-253.31" y1="455.28" x2="-253.31" y2="420.2" gradientTransform="translate(473.38 410.22) rotate(93)" gradientUnits="userSpaceOnUse"><stop offset="0.05" stop-color="#e8461e"/><stop offset="1" stop-color="#ed6b1f"/></linearGradient><linearGradient id="j" x1="-276.81" y1="486.47" x2="-276.81" y2="471.28" xlink:href="#a"/><linearGradient id="k" x1="-359.24" y1="462.77" x2="-359.24" y2="454.31" gradientTransform="translate(473.38 410.22) rotate(93)" gradientUnits="userSpaceOnUse"><stop offset="0" stop-color="#ffde0d"/><stop offset="1" stop-color="#ffe936"/></linearGradient><linearGradient id="l" x1="-369.32" y1="445.75" x2="-369.32" y2="413.15" xlink:href="#k"/><linearGradient id="m" x1="-352.74" y1="424.07" x2="-352.74" y2="385.97" xlink:href="#k"/><linearGradient id="n" x1="-296.29" y1="454.23" x2="-296.29" y2="422.98" xlink:href="#k"/><linearGradient id="o" x1="-259.83" y1="449.83" x2="-259.83" y2="426.33" xlink:href="#k"/><linearGradient id="p" x1="-301.89" y1="439.47" x2="-299.07" y2="439.47" xlink:href="#k"/></defs><g style="isolation:isolate"><path d="M38.49,72.44S8.5,41.6,5.73,31.73a7.39,7.39,0,0,1-.2-1.08c-.32-4.13.7-13.27.7-13.27l.07.11L8,19.87,39,62.19Z" fill="url(#a)"/><path d="M75.34,28.69c2.64-6.2-29.59-7.35-37.58-4.4-7.82,2.89-1.92,12.46-1.92,12.46L23.31,24.45,44.61,8.89l45.7,2.58L83.65,30.62Z" fill="url(#b)"/><path d="M107.56,18.56s-.82,11.79-3.13,18.44S86.65,58.48,64.06,71l-.41-11.86Z" fill="url(#c)"/><path d="M40.14,65.21A5,5,0,0,0,39,62.58C33.47,54.6,10.47,36.45,6.7,23a11.93,11.93,0,0,1-.4-5.48c.51-2.88,2.32-5.51,6-7.68,11-6.57,32-10.2,51.81-9.78,24.49.52,46.84,7.2,43.08,21.46-6.92,26.26-44.93,36.75-44.69,41.07l-1.61-22.8S85,25.68,78.23,18.56c-6.57-7-45.4-2.85-47.32,4.75s11,20.77,11,20.77Z" fill="url(#d)"/><path d="M35.14,93.37S3.85,85.92,2.78,85.85s-.56,19.73-.56,19.73,13,1.44,13.07,1.86a13.35,13.35,0,0,1-.29,3.89c-.31.37-13-1.45-13-1.45S.77,126.57,1,127.23s31.83,0,31.83,0Z" fill="url(#e)"/><path d="M32.84,127.21l.14,6S.64,142.56.31,142s.7-14.8.7-14.8Z" fill="url(#f)"/><path d="M63.71,39.23s-12.32-7.52-23.57,2.94l-5,90.18,29.67,3.87Z" fill="url(#g)"/><path d="M66.41,93.91l.51,42.88L32.1,132l3-38.58S47.39,82,66.41,93.91Z" fill="url(#h)"/><path d="M66.92,136.79c1.45-9.61-33-12.7-34.82-4.84C30.73,137.71,65.34,147.26,66.92,136.79Z" fill="url(#i)"/><path d="M2.22,105.58,2,109.88s14,2.22,14.47,2,1.16-3.93.54-4.75S2.22,105.58,2.22,105.58Z" fill="url(#j)"/><path d="M45.64,38.39s-6,8.12-6.38,28C39,80,39,86.53,39.81,87.69s13.34-5,24.9,5.21c0,0-10.15-9-27.33-1.15l1.11-19.32L29,62.33s-3.53-5-3.11-8.77,4.17.52,6.83,1.09,4.61-15.88,4.61-15.88l2.8,3.4A31.91,31.91,0,0,1,45.64,38.39Z" fill="#df2f6a" opacity="0.3" style="mix-blend-mode:multiply"/><path d="M85.67,48.5c3.62,2-5.88,12.89-10.56,15.84s-11,6.66-11,6.66-1-8.72.54-10.21S85.67,48.5,85.67,48.5Z" fill="#df386e" opacity="0.7" style="mix-blend-mode:multiply"/><path d="M5.91,20.58s-.78,4.88,7.53,14.34c8.54,9.72,8,13.66,6.9,15S8.93,38.64,6.9,34.51,5.91,20.58,5.91,20.58Z" fill="#df386e" opacity="0.7" style="mix-blend-mode:multiply"/><path d="M33,92.86S26.63,124,25.63,126.25s-12.18,3.93-13.07,6.83,20.42.09,20.42.09a8.67,8.67,0,0,1-.77-4.33c.12-2.75,2.93-35.47,2.93-35.47Z" fill="#df386e" opacity="0.5" style="mix-blend-mode:multiply"/><path d="M16.48,111.88l6.31.78s.94-8,.45-8.56S16,106.69,16,106.69L5.84,110.41Z" fill="#df386e" opacity="0.5" style="mix-blend-mode:multiply"/><path d="M2.78,85.85S-1.11,107.26.31,142l.7-14.8,1-17.35.21-4.3Z" fill="#e53852"/><path d="M66.42,95.56c0-1.65-9.57-6.54-14.31-6.08s-2.88,32.61-2,34.68S62,128.92,65,131.48,66.42,95.56,66.42,95.56Z" fill="#fed379" style="mix-blend-mode:soft-light"/><path d="M62.86,90.27c1.42.39.86-47.56.32-49.58s-7.63-4-9.56-3.28-2.49,46.19-.88,48.12S62.86,90.27,62.86,90.27Z" fill="#fed379" style="mix-blend-mode:soft-light"/><path d="M66.59,57.43c-1,.16-2.43-17-1.44-19.06S80.4,30.19,80.3,21.93s-27.65-6.39-30.24-8.22S47.75,2.37,48.89,1.39s54.23-2.85,56.51,17.23C107.7,38.89,68.46,57.11,66.59,57.43Z" fill="#fed379" style="mix-blend-mode:soft-light"/><path d="M72.38,16.43s-15.59-.85-20.24,1.41,21,6.27,22.78,7.81,5.48-2.88,4.4-5S72.38,16.43,72.38,16.43Z" fill="#df386e" opacity="0.7" style="mix-blend-mode:multiply"/><path d="M51.14,36.78c2.48.63.42,42.32.62,47.06s-4.49,2.77-4.93,1.29,2.38-45,2.91-46.74S51.14,36.78,51.14,36.78Z" fill="#e73075" opacity="0.2" style="mix-blend-mode:multiply"/><path d="M49.38,90.17c.07-1.93-4.69,0-5.61.62s-2.14,33.05-1.35,34.07,5.55,1.5,6.27,1.46S48.78,107.21,49.38,90.17Z" fill="#e73075" opacity="0.2" style="mix-blend-mode:multiply"/><path d="M48,1.21c-.69-.59-8.75.35-10,.55s-1.3,14.16.16,14.54,8.68-.91,9.6-1.63S48,1.21,48,1.21Z" fill="#e73075" opacity="0.2" style="mix-blend-mode:multiply"/><path d="M39,18.07s-5.77,3.66-6.67,7.2,3.89,12,3.89,12-5-5.81-6-11.41S39,18.07,39,18.07Z" fill="url(#k)"/><path d="M47.69,16s17.08-2.45,25.61-.87c8.74,1.63,7.18,6.77,5.42,9.25,0,0,1.4-2.5-1.74-5.83S47.69,16,47.69,16Z" fill="url(#l)"/><path d="M106.9,14.86s1.88,11-12.28,24.42A117.52,117.52,0,0,1,67.16,58.7s18.84-9.18,28-17.89C104.6,31.89,109,21.54,106.9,14.86Z" fill="url(#m)"/><path d="M99.76,35.89c2-3.07-8.06-4.32-15.1,1.29S82,49.67,82.87,49.71,96.76,40.4,99.76,35.89Z" fill="#fff"/><path d="M31.56,22.06c-.64-2.2-3.29,1.05-4.19,3.35s3.23,5.19,4.55,5.3S32.06,23.76,31.56,22.06Z" fill="#fff"/><path d="M63.55,61c-1-9.44-5.8,3.91-5.74,14.3s3.64,14.64,5,15S63.55,61,63.55,61Z" fill="#fff"/><path d="M37.38,91.75l0-3.08s16.34-6.81,27.3,4.23C64.71,92.9,51.55,84.7,37.38,91.75Z" fill="#df386e" opacity="0.7" style="mix-blend-mode:multiply"/><path d="M66.41,93.91s-17.92-8.24-31.27-.54C35.14,93.37,49.09,82.35,66.41,93.91Z" fill="url(#n)"/><path d="M61.14,130.39s-13-8.46-23.4-2.45C37.74,127.94,49.82,126.93,61.14,130.39Z" fill="url(#o)"/><path d="M7.68,103.72C2.29,103,2.29,87.56,4,87s22.08,3.43,24.69,5.83-9.69,12.49-12.58,13S7.68,103.72,7.68,103.72Z" fill="#fed379" style="mix-blend-mode:soft-light"/><path d="M25.36,116.74c0-2.18-22.71-6.53-23.43-5.41s-.21,13.22.6,14,19.9,1.31,21.62.73S25.36,116.74,25.36,116.74Z" fill="#fed379" style="mix-blend-mode:soft-light"/><path d="M51.37,128.37c-7.3-.6-12,5.72-12.67,7.3s21.14,8.1,26,3S57.59,128.88,51.37,128.37Z" fill="#df386e" opacity="0.7" style="mix-blend-mode:multiply"/><path d="M5.73,31.73a7.39,7.39,0,0,1-.2-1.08c-.32-4.13.7-13.27.7-13.27l.07.11c.51-2.88,2.32-5.51,6-7.68,11-6.57,32-10.2,51.81-9.78l.36.26s-35.15,1-49.13,9.91A18.32,18.32,0,0,0,6.7,23,20.5,20.5,0,0,0,5.73,31.73Z" fill="#df386e" opacity="0.7" style="mix-blend-mode:multiply"/><path d="M65.68,119.21c-.71-3.32-3.12,1.15-4.08,4.21s1,7,3.13,7.26S65.68,119.21,65.68,119.21Z" fill="#fff"/><path d="M20.64,90.54c6,2.84-7,2.89-9.47-.49S16.55,88.61,20.64,90.54Z" fill="#fff"/><path d="M39,62.58s-3.88-3.24-6.94-1.74,6.43,11.59,6.43,11.59Z" fill="#df386e" opacity="0.7" style="mix-blend-mode:multiply"/><path d="M40.14,42.17l4.93-3s-4.43,9-6.14,24.53Z" fill="#df386e" opacity="0.7" style="mix-blend-mode:multiply"/><path d="M62.64,38.67,59.56,37.5s4.64,9.08,4,23.5C63.55,61,63.91,43,62.64,38.67Z" fill="#fff"/><path d="M105.5,26.62c-.13-.95-4,9.16-4.3,10.17s1.85.83,1.85.83S106.27,32.21,105.5,26.62Z" fill="#fff"/><path d="M41.21,87.5s10.73-2.39,18,1.56C59.17,89.06,52.05,82.77,41.21,87.5Z" fill="url(#p)"/></g></svg>