<svg xmlns="http://www.w3.org/2000/svg" viewBox="0 0 130 102.51"><path d="M103.7,24c19.61.87,26.3,31.49,26.3,31.49-6.36-11.77-15.66-25.33-27.46-21.35s-9.08,12.42-9.3,14.82,3.48,21.6,3.48,21.6c2.8,32.07-32.35,32-32.35,32-37.66-2.94-49.2-52-49.37-52.63h0l-15,2L29.06,0l44,41.22L56.27,43.14c-1,14,4.92,25.84,10.45,30.22,4.85,3.85,9.4,1.91,8.67-9.53C73.84,39.37,84.1,23.07,103.7,24Z" fill="#ff3694"/><path d="M103.7,24c19.61.87,26.3,31.49,26.3,31.49-6.36-11.77-15.66-25.33-27.46-21.35s-9.08,12.42-9.3,14.82,3.48,21.6,3.48,21.6c2.8,32.07-32.35,32-32.35,32-37.66-2.94-49.2-52-49.37-52.63.42.56,32.39,42.84,51.41,23.77l.28-.29c4.85,3.85,9.4,1.91,8.67-9.53C73.84,39.37,84.1,23.07,103.7,24Z" fill="#fff" opacity="0.2" style="isolation:isolate"/><path d="M66.92,79.3c1.81.55,15.07,2.78,12.64-16.2s4-30.59,12-33.88,26.93-11.6,38.4,26.22h0c-.42-1-9.57-22-22.73-23.86-4.68-.47-20.31,2.83-17.32,21.24s8.87,41-23.8,43.91c-23.61,2-43.7-36.5-44-53.47l-8.5,1.47,15.06-32.9,2.53,2L61.38,37.57,47.12,39.69S50.11,74.48,66.92,79.3Z" fill="#e88cbf"/><path d="M28.66,11.8l2.53,2v0L20.39,39.92l5.17-1.43s1.89,38.3,34.67,53.71c8.48,4.19,32.93-.61,29-26s.66-32.09,9.55-34.44,21.07-2.25,31.13,23.65c-.42-1-9.57-22-22.73-23.86-4.68-.47-20.31,2.83-17.32,21.24s8.87,41-23.8,43.91c-23.61,2-43.7-36.5-44-53.47l-8.5,1.47Z" fill="#ea1356"/></svg>