<svg xmlns="http://www.w3.org/2000/svg" viewBox="0 0 110.65 96.39"><path d="M110.65,38l-14.14.61C71.86,135.11,0,81.58,0,81.58c45.92,7.45,56-14.53,57.75-29a42.58,42.58,0,0,0-.06-11.5l-14.93.7L76.23,0Z" fill="#00729c"/><path d="M96.51,38.61C71.86,135.11,0,81.58,0,81.58c45.92,7.45,56-14.53,57.75-29Z" fill="#fff" opacity="0.2" style="isolation:isolate"/><path d="M76.23,9.32l22.6,23.25H90.06s-11.92,72.86-67,54.92c0,0,44.9,6.12,42.29-53l-9.62.61Z" fill="#00a099"/><path d="M79.44,12.83,65,30.26l5.42-.41S77.83,97.8,23.11,87.47c0,0,45.31,5.32,42.3-53l-9.62.6L76.23,9.32Z" fill="#003d56"/></svg>