<svg xmlns="http://www.w3.org/2000/svg" xmlns:xlink="http://www.w3.org/1999/xlink" viewBox="0 0 182.64 134.33"><defs><linearGradient id="a" x1="24.11" y1="19.92" x2="69.35" y2="19.92" gradientUnits="userSpaceOnUse"><stop offset="0" stop-color="#fff"/><stop offset="0.07" stop-color="#e7dcf2"/><stop offset="0.19" stop-color="#c7afe0"/><stop offset="0.31" stop-color="#ab87d0"/><stop offset="0.43" stop-color="#9567c4"/><stop offset="0.55" stop-color="#834eba"/><stop offset="0.68" stop-color="#773cb3"/><stop offset="0.82" stop-color="#6f31af"/><stop offset="0.97" stop-color="#6d2eae"/></linearGradient><linearGradient id="b" x1="10.05" y1="34.16" x2="36.25" y2="34.16" gradientUnits="userSpaceOnUse"><stop offset="0" stop-color="#ff8890"/><stop offset="0.02" stop-color="#ff848c"/><stop offset="0.18" stop-color="#ff666f"/><stop offset="0.35" stop-color="#ff5059"/><stop offset="0.53" stop-color="#ff4049"/><stop offset="0.73" stop-color="#ff3640"/><stop offset="1" stop-color="#ff333d"/></linearGradient><linearGradient id="c" x1="5.36" y1="48.96" x2="44.93" y2="48.96" xlink:href="#b"/><linearGradient id="d" x1="5.36" y1="38.59" x2="47.59" y2="38.59" gradientUnits="userSpaceOnUse"><stop offset="0" stop-color="#b00077"/><stop offset="1" stop-color="#650045"/></linearGradient><linearGradient id="e" x1="28.07" y1="101.73" x2="148.67" y2="101.73" gradientUnits="userSpaceOnUse"><stop offset="0" stop-color="#ff8890"/><stop offset="0.16" stop-color="#ff8d92"/><stop offset="0.35" stop-color="#fd9c98"/><stop offset="0.56" stop-color="#fbb5a2"/><stop offset="0.79" stop-color="#f8d7af"/><stop offset="1" stop-color="#f4ffbf"/></linearGradient><linearGradient id="f" x1="75.58" y1="93.61" x2="258.96" y2="93.61" gradientUnits="userSpaceOnUse"><stop offset="0" stop-color="#9a402e"/><stop offset="0.37" stop-color="#c49086"/><stop offset="0.67" stop-color="#e4ccc7"/><stop offset="0.89" stop-color="#f8f1f0"/><stop offset="1" stop-color="#fff"/></linearGradient><linearGradient id="g" x1="75.96" y1="101.09" x2="115.82" y2="101.09" gradientUnits="userSpaceOnUse"><stop offset="0" stop-color="#fff"/><stop offset="0.11" stop-color="#f8f1f0"/><stop offset="0.33" stop-color="#e4ccc7"/><stop offset="0.63" stop-color="#c49086"/><stop offset="1" stop-color="#9a402e"/></linearGradient><linearGradient id="h" x1="68.19" y1="105.37" x2="105.28" y2="105.37" xlink:href="#g"/><linearGradient id="i" x1="52.09" y1="108.74" x2="75.56" y2="108.74" xlink:href="#g"/><linearGradient id="j" x1="72.16" y1="118.79" x2="102.64" y2="118.79" xlink:href="#g"/><linearGradient id="k" x1="66.89" y1="20.76" x2="79.25" y2="20.76" gradientUnits="userSpaceOnUse"><stop offset="0" stop-color="#008d63"/><stop offset="0.34" stop-color="#16a166"/><stop offset="1" stop-color="#4acf6d"/></linearGradient><linearGradient id="l" x1="69.57" y1="24.92" x2="90.39" y2="24.92" xlink:href="#k"/><linearGradient id="m" x1="87.08" y1="8.67" x2="110.26" y2="8.67" gradientUnits="userSpaceOnUse"><stop offset="0" stop-color="#6545bb"/><stop offset="0.25" stop-color="#7b50c5"/><stop offset="0.77" stop-color="#b36cde"/><stop offset="1" stop-color="#ce7aea"/></linearGradient><linearGradient id="n" x1="105.44" y1="0.56" x2="92.9" y2="13.56" gradientUnits="userSpaceOnUse"><stop offset="0" stop-color="#fff"/><stop offset="1" stop-color="#6d2eae"/></linearGradient><linearGradient id="o" x1="27.41" y1="98.29" x2="90.16" y2="98.29" xlink:href="#g"/><linearGradient id="p" x1="134.89" y1="59.57" x2="61.43" y2="93.03" gradientUnits="userSpaceOnUse"><stop offset="0" stop-color="#4acf6d"/><stop offset="0.04" stop-color="#45ca6c"/><stop offset="0.29" stop-color="#27b068"/><stop offset="0.54" stop-color="#119c65"/><stop offset="0.78" stop-color="#049164"/><stop offset="1" stop-color="#008d63"/></linearGradient><linearGradient id="q" x1="185.31" y1="49.88" x2="103.78" y2="87.02" gradientUnits="userSpaceOnUse"><stop offset="0" stop-color="#ffff52"/><stop offset="0.11" stop-color="#c9c941"/><stop offset="0.24" stop-color="#949430"/><stop offset="0.37" stop-color="#676721"/><stop offset="0.5" stop-color="#424215"/><stop offset="0.63" stop-color="#25250c"/><stop offset="0.75" stop-color="#101005"/><stop offset="0.88" stop-color="#040401"/><stop offset="1"/></linearGradient><linearGradient id="r" x1="177.72" y1="37.54" x2="104.26" y2="71" gradientUnits="userSpaceOnUse"><stop offset="0" stop-color="#ffff52"/><stop offset="0.12" stop-color="#dfdf48"/><stop offset="0.73" stop-color="#404015"/><stop offset="1"/></linearGradient><linearGradient id="s" x1="141.76" y1="73.42" x2="90.73" y2="124.45" gradientUnits="userSpaceOnUse"><stop offset="0" stop-color="#4acf6d"/><stop offset="0.14" stop-color="#3ec46b"/><stop offset="0.71" stop-color="#119c65"/><stop offset="1" stop-color="#008d63"/></linearGradient><linearGradient id="t" x1="217.83" y1="92.8" x2="144.47" y2="96.35" gradientUnits="userSpaceOnUse"><stop offset="0" stop-color="#ffff52"/><stop offset="0.13" stop-color="#fbfb51"/><stop offset="0.26" stop-color="#efef4d"/><stop offset="0.38" stop-color="#dcdc47"/><stop offset="0.5" stop-color="#c0c03e"/><stop offset="0.63" stop-color="#9d9d32"/><stop offset="0.75" stop-color="#717124"/><stop offset="0.87" stop-color="#3e3e14"/><stop offset="0.99" stop-color="#040401"/><stop offset="1"/></linearGradient><linearGradient id="u" x1="209.5" y1="88.86" x2="151.38" y2="97.54" gradientUnits="userSpaceOnUse"><stop offset="0" stop-color="#ffff52"/><stop offset="0.1" stop-color="#eded4c"/><stop offset="0.31" stop-color="#bebe3d"/><stop offset="0.6" stop-color="#717124"/><stop offset="0.97" stop-color="#0a0a03"/><stop offset="1"/></linearGradient><linearGradient id="v" x1="217.62" y1="83.6" x2="144.2" y2="85.28" gradientUnits="userSpaceOnUse"><stop offset="0" stop-color="#ffff52"/><stop offset="0.1" stop-color="#fafa50"/><stop offset="0.22" stop-color="#eaea4b"/><stop offset="0.36" stop-color="#d0d043"/><stop offset="0.51" stop-color="#acac37"/><stop offset="0.66" stop-color="#7d7d28"/><stop offset="0.83" stop-color="#444416"/><stop offset="0.99" stop-color="#020201"/><stop offset="1"/></linearGradient><linearGradient id="w" x1="89.13" y1="37.14" x2="3.59" y2="122.69" gradientUnits="userSpaceOnUse"><stop offset="0" stop-color="#ce7aea"/><stop offset="0.23" stop-color="#b36cde"/><stop offset="0.75" stop-color="#7b50c5"/><stop offset="1" stop-color="#6545bb"/></linearGradient><linearGradient id="x" x1="14.27" y1="121.52" x2="78.84" y2="44.62" gradientUnits="userSpaceOnUse"><stop offset="0" stop-color="#fff"/><stop offset="0.06" stop-color="#f5f1fa"/><stop offset="0.97" stop-color="#6d2eae"/></linearGradient><linearGradient id="y" x1="50.46" y1="38.01" x2="50.46" y2="14" gradientUnits="userSpaceOnUse"><stop offset="0" stop-color="#fff"/><stop offset="0.11" stop-color="#f3edf8"/><stop offset="0.32" stop-color="#d3c0e7"/><stop offset="0.62" stop-color="#a077ca"/><stop offset="0.89" stop-color="#6d2eae"/></linearGradient><linearGradient id="z" x1="-1.77" y1="151.34" x2="62.79" y2="74.44" gradientUnits="userSpaceOnUse"><stop offset="0.03" stop-color="#6d2eae"/><stop offset="1" stop-color="#fff"/></linearGradient><linearGradient id="aa" x1="58.22" y1="139.26" x2="76.11" y2="117.96" gradientUnits="userSpaceOnUse"><stop offset="0.38" stop-color="#6d2eae"/><stop offset="0.96" stop-color="#f5f1fa"/><stop offset="1" stop-color="#fff"/></linearGradient><linearGradient id="ab" x1="96.48" y1="58.82" x2="63.97" y2="83.49" gradientUnits="userSpaceOnUse"><stop offset="0" stop-color="#ffff52"/><stop offset="0.02" stop-color="#f5f54f"/><stop offset="0.13" stop-color="#bcbc3d"/><stop offset="0.25" stop-color="#8a8a2c"/><stop offset="0.37" stop-color="#60601f"/><stop offset="0.49" stop-color="#3d3d14"/><stop offset="0.61" stop-color="#22220b"/><stop offset="0.73" stop-color="#0f0f05"/><stop offset="0.85" stop-color="#040401"/><stop offset="0.99"/></linearGradient><linearGradient id="ac" x1="28.39" y1="42.88" x2="73.37" y2="42.88" gradientUnits="userSpaceOnUse"><stop offset="0" stop-color="#ff333d"/><stop offset="0.2" stop-color="#ff3841"/><stop offset="0.43" stop-color="#ff454e"/><stop offset="0.66" stop-color="#ff5b64"/><stop offset="0.9" stop-color="#ff7a82"/><stop offset="1" stop-color="#ff8890"/></linearGradient><linearGradient id="ad" x1="38.96" y1="43.66" x2="61.08" y2="43.66" xlink:href="#d"/><linearGradient id="ae" x1="7.83" y1="42.23" x2="2.64" y2="47.42" gradientUnits="userSpaceOnUse"><stop offset="0" stop-color="#ff5b74"/><stop offset="0.17" stop-color="#e24379"/><stop offset="0.36" stop-color="#c92f7e"/><stop offset="0.55" stop-color="#b72081"/><stop offset="0.76" stop-color="#ac1883"/><stop offset="1" stop-color="#a91584"/></linearGradient><linearGradient id="af" x1="12.15" y1="17.95" x2="6.4" y2="23.71" xlink:href="#ae"/><linearGradient id="ag" y1="40.21" x2="6.84" y2="40.21" gradientUnits="userSpaceOnUse"><stop offset="0" stop-color="#ff4a54"/><stop offset="1" stop-color="#ff8890"/></linearGradient><linearGradient id="ah" y1="16.79" x2="9.74" y2="16.79" xlink:href="#ag"/></defs><g style="isolation:isolate"><path d="M63,16.87l6.4,1.44a11.19,11.19,0,0,0-5.73-7c-4.57-2.12-6.41,6.47-10.18,4.8s-6.67-4.35-10.24-4S40.29,17.32,38,17.21s-7.14-6.81-13.84.44c0,0,10.6,4,15.4,9.83s23.67-8.27,23.67-8.27Z" fill="#6545bb"/><path d="M39.51,27.48c4.8,5.8,23.67-8.27,23.67-8.27L63,16.87l6.4,1.44a11.19,11.19,0,0,0-5.73-7c-4.57-2.12-6.41,6.47-10.18,4.8s-6.67-4.35-10.24-4c0,0,6.9.52,6.82,6.24s-11,.84-9.75-3.83c-.66,1.36-1.05,2.79-2.32,2.73-.94-.05-2.27-1.14-4-2a18.57,18.57,0,0,1,2.46,3.08c2.49,3.86-8.78-2.46-12.35-.66C24.11,17.65,34.71,21.67,39.51,27.48Z" opacity="0.56" fill="url(#a)" style="mix-blend-mode:multiply"/><path d="M42.86,44.22S17.19,55.6,10.05,23.68l1.56-1.56S17.41,51.58,42,40.42,42.86,44.22,42.86,44.22Z" fill="url(#b)"/><path d="M41.52,46.91s-19.42,18.31-36.16,0l1.78-1.8S19.5,62.8,40.41,42.88h4.52Z" fill="url(#c)"/><path d="M47.59,41.1,44,39.53l-2,.89a24.74,24.74,0,0,1-10.68,2.52c2.16.13,4.25,1,2.48,1.41-1.93.47-6.58,1.46-13.23-2.85s-9.6-15.78-9.08-16.15,1.79,2.15,1.79,2.16a35.4,35.4,0,0,1-1.64-5.39l-1.56,1.56c5,22.25,19,23.46,27,22.15.69-.55,1.39-1.14,2.09-1.77a42.13,42.13,0,0,1-5.38,4.14c7.05-1.55-1.95,6.5-11.18,6.36S8.14,48.94,8.46,48.11c.23-.57,1.88.37,2.89,1a18.56,18.56,0,0,1-4.21-4l-1.78,1.8c16.74,18.31,36.16,0,36.16,0l3.41-4C45.71,42.37,46.64,41.75,47.59,41.1Z" opacity="0.42" fill="url(#d)" style="mix-blend-mode:multiply"/><path d="M63.4,125.31c8.59-3.2,38.38,9,38.38,9s6.32-11.29,9.68-14.57l37.21-36.34L35,69.61c-2.34-.29-5.93-1.29-6.91.86" fill="url(#e)"/><path d="M136.75,86.09a1.77,1.77,0,0,0,.34-1c0-2.35-3.68-2.22-5.22-2.25a28.67,28.67,0,0,0-10.61,1.86,6.12,6.12,0,0,0,1.47-3.13,2.49,2.49,0,0,0-.24-1.29L112.57,79A40.34,40.34,0,0,0,102,83.22a4.11,4.11,0,0,0,.32-2.43A3.45,3.45,0,0,0,99.9,78c-1.35-.35-2.86.21-4.14.57A63.41,63.41,0,0,0,82.35,84a3,3,0,0,0-.25-1.08c-1.33-3.24-5.25-2.59-7.82-1.59s-5.4,2.15-7.3,4.27a6.23,6.23,0,0,0-1.72,3.28,2.54,2.54,0,0,0,.08.82c-.52.18-5.13,5.81-4.52,6.24,6.78,4.77,18,4.63,25.53,8.23a57.69,57.69,0,0,0,11.59,4.31,24.25,24.25,0,0,0,6,.85,3.54,3.54,0,0,0,2.83-1.48,3.89,3.89,0,0,0,.65-2.65,46.67,46.67,0,0,0,15.46,3.4l23.4-22.85A21.21,21.21,0,0,0,136.75,86.09Z" opacity="0.28" fill="url(#f)" style="mix-blend-mode:multiply"/><path d="M64.26,76s1.53-19.83-9.49-35.18C54.77,40.86,50,69.19,64.26,76Z" fill="#005b54"/><path d="M64.3,71.73l1.12-1.17a44.59,44.59,0,0,1,3.83-14c-1.55,2.19-2.65,3.19-1-1.38,3.28-8.92,12.59-16.92,13.34-17.54-12.07,8-16.33,19.94-17.83,27.74A62.45,62.45,0,0,0,61.59,55c.16,1.29,1.93,16.65-2.42,12.87-4.54-4-5-21.41-5-21.43C53.6,55.06,54,71.11,64.26,76,64.26,76,64.38,74.39,64.3,71.73Z" fill="#006fb3" opacity="0.24" style="mix-blend-mode:multiply"/><g opacity="0.28" style="mix-blend-mode:multiply"><path d="M77,92.62a39.74,39.74,0,0,1,10.47-.14L81.4,94c-1.06.26-.05.68.37.66l5.3-.24a19.1,19.1,0,0,1,2.35-.11c.7.07,1.42.46.29,1a5,5,0,0,1-1.67.42c-.63.08-.89.45-.48.62a19,19,0,0,0,4.32,1.21l-1.79.55c-.29.09-.56.25-.47.43.68,1.36,3.44,1.21,5.57,1.29l6.84.24c-2.37.57-4.72,1.07-7,1.48a6.55,6.55,0,0,0-3.63.62c-.89.45.39.64.79.58.94-.13,1.88-.28,2.82-.44.43,0,.84.12,1.22.16,1,.09,2,.15,3.1.16.62,0,1.24,0,1.88,0l-4.71,1.07c-1,.24-.07.7.37.67a51.08,51.08,0,0,1,6.16-.08,4.83,4.83,0,0,0-.72.52c-.43.35.17.48.47.52l4.47.62c1.55.22,3.61.27,4.69.93s.59,2.34,1.55,3.14c-.4.16-.59.42,0,.58a2.79,2.79,0,0,0,2.1-.26c.53-.27.23-.51-.1-.57-1.23-.21-.79-1.64-1.08-2.37a2.84,2.84,0,0,0-2.08-1.44,57.5,57.5,0,0,0-8-1.22,4.47,4.47,0,0,1,1-.48c.76-.28-.08-.58-.32-.6-1.35-.11-2.73-.16-4.14-.16l5.91-1.35c1.14-.26-.12-.71-.6-.65a43,43,0,0,1-8.47.32c2.48-.49,5-1,7.5-1.71.89-.23.29-.65-.13-.66l-7-.25-3.38-.12c-1.14,0-2.5,0-3.07-.55l2.61-.81c.9-.28.29-.62-.13-.66a19,19,0,0,1-4.14-.88,4.49,4.49,0,0,0,2.08-1c.71-.7.27-1.2-.37-1.43A10.65,10.65,0,0,0,88,93.64l-2.43.11,4.25-1.06c.75-.18.46-.56.09-.63a42.26,42.26,0,0,0-13.34-.13C75.33,92.11,76.23,92.73,77,92.62ZM114.42,110h-.07l0-.07Z" fill="url(#g)"/><path d="M69.21,96.67a28.12,28.12,0,0,1,7.84.36q.58.09,1.2.15c-1.18.32-2.36.67-3.54,1.06-.84.27.37.56.59.55a5.83,5.83,0,0,1,3.84,1,25.3,25.3,0,0,1-5.73.82c-1,0-1.1.62-.27.66h.23c3.18.13,6.41.17,9.67.16-1.69.74-3.38,1.51-5.1,2.16l-1.6,0c-.91,0-6.46-.49-6.72,1.38-.2,1.45,4.61.59,6.16.2a27.84,27.84,0,0,0,2.7-.83c1.19.06,2.37.13,3.52.23.29,0,1.07.17,2,.27l-2.46,1.06c-.79.35.3.57.6.56a14.16,14.16,0,0,1,3.25.15,12.93,12.93,0,0,0-1.51.8c-.38.23.11.42.29.44a15.72,15.72,0,0,0,4.84-.17,12.7,12.7,0,0,1,2.82-.32q1.2-.17.27.93l-.45.13a10.93,10.93,0,0,0-1.39.65c-.54.35.49.49.74.48,6-.37,8.34,3.07,12.26,4.72l-.09.05c-.86.07-1.23.6-.24.63a3.23,3.23,0,0,0,2.25-.57c.27-.19,0-.34-.11-.39-4.27-1.57-6.61-4.82-12.2-5.11.85-.3,1.76-.59,2-1.21s-.94-.81-1.6-.9c-2.12-.29-4.94.6-7.17.57a10.38,10.38,0,0,1,1.3-.62c.6-.24.08-.47-.14-.52a14.71,14.71,0,0,0-3.15-.42l2-.88c.88-.08,1.62-.33,1.84-.92.15-.37-1.07-.39-1.5-.2l-1,.42a16.16,16.16,0,0,1-1.89-.18q-1.19-.12-2.37-.21L80,103.69l.59-.24c1-.41,2-.85,3-1.28l1.18-.52.55-.23c.36,0,.71,0,1.07,0,.19,0,.72-.06.87-.27.37-.52-.31-.67-.87-.7a4.32,4.32,0,0,0-1.72.31q-3.26,0-6.43,0c.81-.16,1.63-.34,2.47-.58.23-.06.6-.23.44-.38a6.45,6.45,0,0,0-3.69-1.54c1.65-.5,3.3-1,5-1.33,1.11-.26-.25-.69-.85-.56-2.52.59-4.32-.1-6.31-.34a29.15,29.15,0,0,0-6.46,0C67.54,96.17,68.54,96.74,69.21,96.67Zm2.75,8c-.14-.43.07-.41.74-.51a10.67,10.67,0,0,1,1.38,0c.72,0,1.42,0,2.13,0C74.51,104.75,72.18,105.37,72,104.7Z" fill="url(#h)"/><path d="M53.08,104a23.9,23.9,0,0,1,6.08-.43,4.62,4.62,0,0,1,1.28.14c.21.3-.76.85-1.12,1a9.17,9.17,0,0,0-2,1.19c-.27.23-.24.45,0,.56a12.87,12.87,0,0,0,3.11,1c-.73.36-1.41.74-2.11,1.17s.23.69.61.66q6.48-.54,12.85-.89c-2.4,1-4.8,1.89-7.21,2.74-1.09-.09-2.19-.15-3.32-.18a29.48,29.48,0,0,0-6.11.18c-1.35.25-2.68,1-2.29,1.87.81,1.67,5.66.89,8.36.18,1.14-.3,2.29-.65,3.44-1,.88.08,1.73.19,2.57.32s1.61.39,2.57.6a20.61,20.61,0,0,0-2.35,1.08c-.85.46-.06.77.43.76,1.47,0,2.94-.08,4.44-.17,1.24-.08,1.27-1,.24-.94l-2.18.09a15.9,15.9,0,0,1,1.59-.57,5.46,5.46,0,0,0,2.51-.65c1-.52-.1-.83-.68-.73s-1.19.24-1.79.39a11.64,11.64,0,0,1-1.68-.37c-.93-.19-1.89-.36-2.87-.5l-.67-.07c2.78-1,5.57-2.19,8.28-3.24,1-.41.42-.88-.22-.85-4.5.23-9,.54-13.62.9.5-.25,1-.48,1.55-.7.8-.32.15-.73-.19-.76a12.25,12.25,0,0,1-3.28-.77c1-.59,2.2-1,2.87-1.76s.19-1.15-.52-1.34c-2.27-.62-5.77-.28-8.75.28C51.54,103.41,52.12,104.22,53.08,104Zm5.24,8.86a10,10,0,0,1-2.48.09c-.63-.07-1,0-.5-.59s.76-.43,1.52-.46c1.8-.07,3.55,0,5.25,0A27.1,27.1,0,0,1,58.32,112.9Z" fill="url(#i)"/><path d="M101,121.47a12.27,12.27,0,0,1-6.14,1.85,3.76,3.76,0,0,1-2.5-.83c-.45-.43-.59-1-1.17-1.37l0,0a45.57,45.57,0,0,0,6.42-3.57c.54-.36-1.12-.41-1.42-.31a50.22,50.22,0,0,1-10.77,2.3c1.7-.88,3.42-1.68,5.2-2.4.54-.21-.93-.38-1-.37q-4.16.2-8.48.75c1.93-.94,3.88-1.84,5.87-2.66.5-.21-1-.4-1.24-.35a63.9,63.9,0,0,1-7.84,1.1c-.56,0-1.11.08-1.66.1a8,8,0,0,1-2,0c-.65-.5,1.65-1.14,2.33-1.58.44-.29-1.08-.56-1.55-.26-.75.49-3.14,1.11-2.83,1.93.23.6,2.12.42,3,.41a62.4,62.4,0,0,0,8.1-.72c-1.77.78-3.53,1.59-5.25,2.46-.57.29,1.07.38,1.25.35,2.92-.44,5.78-.75,8.58-1q-2.55,1.1-5,2.41c-.54.3.9.38,1,.38a49.29,49.29,0,0,0,10-1.53c-1.27.75-2.59,1.44-3.93,2.06-2.33-.34-5.59,1.08-7.84,2.87-.4.32,1.28.31,1.51.25a46.36,46.36,0,0,0,6.27-2.14c.28.25.49.58.76.87a5,5,0,0,0,2.92,1.19,14.58,14.58,0,0,0,9-2C103,121.48,101.51,121.18,101,121.47Zm-12.48-.18c-1,.42-2,.8-3,1.14a11,11,0,0,1,1.83-.88A4.6,4.6,0,0,1,88.53,121.29Z" fill="url(#j)"/></g><path d="M66.89,27.7S74.73,13,78.62,13.86,66.89,27.7,66.89,27.7Z" fill="url(#k)"/><path d="M69.57,27.7s16.3.44,20.09-3.13S81.85,20.78,69.57,27.7Z" fill="url(#l)"/><path d="M66.89,27.7s5-4.15,8.64-7.91c-3.82,3.19-8.38,6.68-4.24,1.37C77.16,13.62,78.74,13.9,79,14a1.08,1.08,0,0,0-.36-.15C74.73,13,66.89,27.7,66.89,27.7Z" fill="#006fb3" opacity="0.3" style="mix-blend-mode:multiply"/><path d="M69.57,27.7s13,.35,18.49-2.12c-4.43,1.18-15.3,2.12-10.88-.35S88,22.16,88.07,22.16C84.46,21.88,77.15,23.43,69.57,27.7Z" fill="#006fb3" opacity="0.3" style="mix-blend-mode:multiply"/><path d="M92.37,13.82S62.32,26.23,47.53,55.05s0-5.45,0-5.45S63.44,21.67,92.37,13.82Z" fill="#005b54"/><path d="M88.77,12.74S89.89,2.25,93.46,1.13s0,7.15,0,7.15S98.15-.43,106.85,0s-2,7.59-2,7.59,5.48-2,5.42,2S95,15,95,15s5.13-.44,5.8,1.34-8.26.9-12,0S88.77,12.74,88.77,12.74Z" fill="url(#m)"/><path d="M96.35,13.15c.07-1.33,7.66-5.33,7.66-5.33s-8.92,4.56-7.87.14S103.7.36,104,.21C97.13,1.49,93.46,8.28,93.46,8.28S91.51,14.91,90.39,11s2.25-9.37,2.25-9.37c-2.93,2.3-3.87,11.16-3.87,11.16s-3.8,2.68,0,3.57,12.72,1.79,12,0S95,15,95,15a61.32,61.32,0,0,0,10.12-1.81C105,13.17,96.28,14.48,96.35,13.15Z" opacity="0.3" fill="url(#n)" style="mix-blend-mode:multiply"/><path d="M63.4,125.31c2.32-.87,6.21-.6,10.63.25-2.44-1.49-4.18-2.83-4.32-3.68-.54-3.09,8.85-7.68,13.15-11.15s-3.75-5.17-3.75-5.17S58.5,118.24,62.55,103.9s25.78-8.8,25.78-8.8,15.13-6,13.26-7.15S73.2,75.61,55.93,72.15l-8.57-1a170.87,170.87,0,0,0-19.95.69" opacity="0.28" fill="url(#o)" style="mix-blend-mode:multiply"/><path d="M148.91,70.71a34.61,34.61,0,0,0-8.4-3.15,54.94,54.94,0,0,0-18.31-.85c.69-.34,1.38-.67,2-1a34.54,34.54,0,0,0,5.14-3.59c1.42-1.21,2.7-3,1.78-4.85a.76.76,0,0,0-.68-.39c-7.57.21-14.55,3-21.17,6.52a30.4,30.4,0,0,0,2.4-3c.72-1,1.19-2.25.43-3.41-1.71-2.62-5.37-.81-7.52.07a69.62,69.62,0,0,0-7.73,3.74c.69-.75,1.36-1.51,2-2.3,1.19-1.45,2.76-3.06,3.13-5a2.23,2.23,0,0,0-2.51-2.86,16.9,16.9,0,0,0-3.1.9c-1.14.38-2.28.79-3.4,1.22q-3.16,1.22-6.21,2.69a81.09,81.09,0,0,0-11.58,6.83,82,82,0,0,0-11.58,10,6.12,6.12,0,0,0-2,2.84.77.77,0,0,0,.21.76,57.1,57.1,0,0,0,8.67,6,23.37,23.37,0,0,0,4.78,1.87,7.89,7.89,0,0,0,4.78.13A4.9,4.9,0,0,0,83,78.87a37.55,37.55,0,0,0,9,5.71,25,25,0,0,0,4.62,1.53c1.28.27,2.92.68,4.06-.19,2.49-1.9-.41-6.17-1.74-7.89a20.36,20.36,0,0,0-1.68-1.9A27.88,27.88,0,0,0,107.3,79c2.41.14,5.78.05,6.18-3a4.05,4.05,0,0,0-.17-1.82,23.7,23.7,0,0,0,14.49,1,.8.8,0,0,0,.47-1.16,11.72,11.72,0,0,0-5-4.35c4.63,1.66,8.9,4.22,13.44,6.13,5.3,2.24,11.45,3.6,17,1.36a.8.8,0,0,0,.58-.76C154.08,73.49,151.15,71.91,148.91,70.71Z" fill="url(#p)"/><path d="M111.72,60.32c.72-1,1.19-2.25.43-3.41-1.71-2.62-5.37-.81-7.52.07a69.62,69.62,0,0,0-7.73,3.74c.69-.75,1.36-1.51,2-2.3,1.19-1.45,2.76-3.06,3.13-5a2.23,2.23,0,0,0-2.51-2.86,16.9,16.9,0,0,0-3.1.9c-1.14.38-2.28.79-3.4,1.22q-3.16,1.22-6.21,2.69a81.09,81.09,0,0,0-11.58,6.83,82,82,0,0,0-11.58,10,6.12,6.12,0,0,0-2,2.84.77.77,0,0,0,.21.76,57.1,57.1,0,0,0,8.67,6,23.37,23.37,0,0,0,4.78,1.87,7.89,7.89,0,0,0,4.78.13,4.4,4.4,0,0,0,2.61-3c-5-1.27-15.16-4.51-12.4-9.29,3.61-6.28,27.87-21.63,30.54-19.81s-8.43,14.12-8.43,14.12,15.66-9.55,18-8.15-4,8.91-4,8.91c8-7,24.1-9.75,24.1-9.75-7.57.21-14.55,3-21.17,6.52A30.4,30.4,0,0,0,111.72,60.32Z" fill="#006fb3" opacity="0.3" style="mix-blend-mode:multiply"/><path d="M120.93,73.78l-3.55,1.56a23.36,23.36,0,0,0,10.42-.21.77.77,0,0,0,.56-.74C126.28,75.94,120.93,73.78,120.93,73.78Z" fill="#006fb3" opacity="0.3" style="mix-blend-mode:multiply"/><path d="M137.57,74.24a57.87,57.87,0,0,0-14.34-4.62c4.63,1.66,8.9,4.22,13.44,6.13s9.92,3.25,14.88,2C147.81,78.14,142.91,76.87,137.57,74.24Z" fill="#006fb3" opacity="0.3" style="mix-blend-mode:multiply"/><path d="M139.32,71.37S112.64,61.28,61,78.26s-1.13-3.46-1.13-3.46S115.53,60.45,139.32,71.37Z" fill="#006fb3" opacity="0.3" style="mix-blend-mode:multiply"/><path d="M63.66,82.31S55.18,48.9,85.07,33.42c0,0-2.44,25.49-19.67,45.94,0,0,16.69-13.71,30.18-14C95.58,65.35,85.09,85.41,63.66,82.31Z" fill="#005b54"/><path d="M65.4,79.36A85.65,85.65,0,0,0,80,53.68c-4.06,8-9.22,16.67-10.34,11.05-1.85-9.37,5-23.62,5.2-24.07-17.49,16.77-11.2,41.65-11.2,41.65,11.2,1.62,19.38-3.09,24.67-8-5,3.86-13.1,5.74-13.77,3.17s8.41-8.78,9-9.2A85.33,85.33,0,0,0,65.4,79.36Z" fill="#006fb3" opacity="0.24" style="mix-blend-mode:multiply"/><path d="M123.69,69.62s-6.75-1.39-11.52.76c-2.92,1.32,2.4,2.9,7.69,3.87l1.07-.47s5.35,2.16,7.43.61a.7.7,0,0,0-.09-.42,11.72,11.72,0,0,0-5-4.35c4.63,1.66,8.9,4.22,13.44,6.13,5.3,2.24,11.45,3.6,17,1.36a.8.8,0,0,0,.58-.76c-.15-2.86-3.08-4.44-5.32-5.64a34.61,34.61,0,0,0-8.4-3.15,54.94,54.94,0,0,0-18.31-.85l-.42.06C120.5,67,117.13,67.82,123.69,69.62Z" fill="url(#q)" style="mix-blend-mode:screen"/><path d="M116,63.27c-3.37,4.54,3.9,3.76,5.77,3.5l.42-.06c.69-.34,1.38-.67,2-1a34.54,34.54,0,0,0,5.14-3.59c1.42-1.21,2.7-3,1.78-4.85a.76.76,0,0,0-.68-.39s-2.69.45-6.41,1.47C121.09,59.28,117.81,60.84,116,63.27Z" fill="url(#r)" style="mix-blend-mode:screen"/><path d="M180.62,96.25c-3.57-2.65-7.93-3.94-12.15-5.16C164.68,90,160.88,89,157.06,88l.58,0a14.37,14.37,0,0,0,4.76-.51c2.66-1.06,3-4.84-.13-5.43a20.72,20.72,0,0,0-5-.07,41.08,41.08,0,0,0-5.3.68c-1.1.22-2.18.49-3.26.8q.77-.69,1.47-1.44a.8.8,0,0,0-.35-1.32,21,21,0,0,0-12.2-.39,1.77,1.77,0,0,0,.34-1c0-2.36-3.67-2.23-5.21-2.25a28.67,28.67,0,0,0-10.62,1.85,6.12,6.12,0,0,0,1.47-3.13c.21-3.24-4.37-3.11-6.51-3C112,73,107.29,75,102.84,77.4a4.21,4.21,0,0,0,.33-2.43,3.45,3.45,0,0,0-2.43-2.82c-1.35-.36-2.85.21-4.14.57A63.1,63.1,0,0,0,83.19,78.2a3.06,3.06,0,0,0-.25-1.09c-1.33-3.23-5.25-2.58-7.82-1.59s-5.39,2.15-7.29,4.27a6.25,6.25,0,0,0-1.73,3.28,2.49,2.49,0,0,0,.08.82A.84.84,0,0,0,66,85.35a149.92,149.92,0,0,0,21.19,13,56.72,56.72,0,0,0,11.59,4.31,23.8,23.8,0,0,0,6,.86,3.57,3.57,0,0,0,2.83-1.48,3.91,3.91,0,0,0,.65-2.66,46.46,46.46,0,0,0,17.19,3.46c1.34,0,2.75.11,3.87-.75a3.67,3.67,0,0,0,1.41-2.63,3.2,3.2,0,0,0-.85-2.52,38,38,0,0,0,12.6.25.69.69,0,0,0,.47-.4,46.19,46.19,0,0,0,4.59,3.73,17.48,17.48,0,0,0,8.66,3.32c1.2.07,3.28.23,3.83-1.06s-.13-2.73-.9-3.79c-1.63-2.23-3.41-4.35-5.19-6.48,3.17,1.76,6.37,3.48,9.62,5.08,4.13,2,8.56,4.47,13.27,4.59,1.71,0,4.21-.14,5.35-1.62C183.42,98.93,182,97.24,180.62,96.25Z" fill="url(#s)"/><path d="M152.62,101.19c-4.22-1.16-9-6.9-10.08-8.24.55.75,1.66,2.76-1.44,3.37-3.47.67-11.58-1.09-13.11-1.44,2.32.74,4.29,7.21-3.46,6.4-8-.84-18.73-5.37-18.73-5.37s1.79,6.14-1.49,6.21S72,91.26,71.16,85.92s6.27-10.57,9.46-10,1.78,6.55,1.78,6.55,16.27-10.3,19-9.55-.93,7.87-.93,7.87,16.29-8.52,21.06-6.86-3.65,7.84-3.65,7.84S133.52,77.5,136,78.25s-2.81,3.84-2.81,3.84,9.65-1.88,13.48-1.6,0,4.78,0,4.78c5.36-3.07,13.75-3.35,14.79-3.37a26.48,26.48,0,0,0-4.18,0,41.08,41.08,0,0,0-5.3.68c-1.1.22-2.18.49-3.26.8q.77-.69,1.47-1.44a.8.8,0,0,0-.35-1.32,21,21,0,0,0-12.2-.39,1.77,1.77,0,0,0,.34-1c0-2.36-3.67-2.23-5.21-2.25a28.67,28.67,0,0,0-10.62,1.85,6.12,6.12,0,0,0,1.47-3.13c.21-3.24-4.37-3.11-6.51-3C112,73,107.29,75,102.84,77.4a4.21,4.21,0,0,0,.33-2.43,3.45,3.45,0,0,0-2.43-2.82c-1.35-.36-2.85.21-4.14.57A62.8,62.8,0,0,0,83.2,78.2a3.31,3.31,0,0,0-.26-1.09c-1.33-3.23-5.25-2.58-7.82-1.59s-5.39,2.15-7.29,4.27a6.25,6.25,0,0,0-1.73,3.28,2.49,2.49,0,0,0,.08.82A.84.84,0,0,0,66,85.35a149.92,149.92,0,0,0,21.19,13,56.72,56.72,0,0,0,11.59,4.31,23.8,23.8,0,0,0,6,.86,3.57,3.57,0,0,0,2.83-1.48,3.91,3.91,0,0,0,.65-2.66,46.46,46.46,0,0,0,17.19,3.46c1.34,0,2.75.11,3.87-.75a3.67,3.67,0,0,0,1.41-2.63,3.2,3.2,0,0,0-.85-2.52,38,38,0,0,0,12.6.25.69.69,0,0,0,.47-.4,46.19,46.19,0,0,0,4.59,3.73,17.48,17.48,0,0,0,8.66,3.32c1.2.07,3.28.23,3.83-1.06s-.13-2.73-.9-3.79l-.06-.08C161,102.32,156.71,102.31,152.62,101.19Z" fill="#006fb3" opacity="0.3" style="mix-blend-mode:multiply"/><path d="M63.77,88s68.39-6.63,101.11,5.82c0,0-16.73-11.58-101.9-8.79S63.77,88,63.77,88Z" fill="#006fb3" opacity="0.3" style="mix-blend-mode:multiply"/><path d="M146.06,90.7c-2.52,1.87.26,6.35,2.52,8.29.32.25.65.48,1,.7l2,1.09a8.72,8.72,0,0,0,1.1.41c4.09,1.12,8.37,1.13,6.43-2.27-1.61-2.2-3.37-4.3-5.13-6.4a5.38,5.38,0,0,1-1.08-.75C151.22,90.73,148.13,89.17,146.06,90.7Z" fill="url(#t)" style="mix-blend-mode:screen"/><path d="M151.55,90.51a13.22,13.22,0,0,0,1.29,1.26c.66.42,1.08.75,1.08.75,3.17,1.76,6.37,3.48,9.62,5.08,4.13,2,8.56,4.47,13.27,4.59,1.71,0,4.21-.14,5.35-1.62,1.26-1.64-.21-3.33-1.54-4.32-3.57-2.65-7.93-3.94-12.15-5.16C164.73,90,161,89,157.22,88,155.67,88.24,150.31,89.15,151.55,90.51Z" fill="url(#u)" style="mix-blend-mode:screen"/><path d="M148.67,86.45c.76,1.53,9,1.5,9,1.5a14.37,14.37,0,0,0,4.76-.51c2.66-1.06,3-4.84-.13-5.43a8.08,8.08,0,0,0-.86-.11,45.8,45.8,0,0,0-5.38.48C155.94,82.41,147.91,84.92,148.67,86.45Z" fill="url(#v)" style="mix-blend-mode:screen"/><path d="M24.11,17.65S42.42,26.36,42,40.42c0,0-.45,7.59-11.16,15.18s-19.87,15-21,25.45-1.34,24.78-4.69,30.59-6.69,10,0,10,14.51-2.45,35.05,1.56,24.56,10,28.58,9.6S71.21,125,71.21,125s12.1-8,18.44-10,15.5-7.21,15.94-11.08-5.58-2.53-7.36-4.32-8-32.81-20.32-42.41S58.94,44.66,58,40.65,56.48,23,63.85,21.89,71.66,15,62.28,15s-9.15,9.83-14.51,8.71-7.59-4-7.59-4-.33,4.69-5.41,2.51S27.9,18.38,24.11,17.65Z" fill="url(#w)"/><path d="M103.64,101.21c5.84,2.37-6.79,9-18.88,13.08s-15.25-1-15.25-1,1.68,19.48-3,17.89-1.59-24.44-2.24-39.05,8.33-16,8.33-16c-8.24,1.44-12.36-5.66-12.36-5.66S56.12,82.27,46.66,80.4s-17.22-7.3-10.76-16,6.36-15.49,7.84-16.28S42,56.83,42,56.83s3.23-9.06,5.48-8.72-.21,15.11-.21,15.11,3.09-14.68,5.87-15.11c1.89-.29,4.18,5,5.45,8.39-1.08-3.39-2.45-8.78-.65-9.92,2.67-1.69,7.17,1.23,7.17,1.23-4.18-3-6.54-4.89-7.05-7.16-.07-.35-.15-.76-.22-1.23,0,0,.17,1.68-2.07,2s-3.2-9.9-.85-9.83c1.76.05,2.48,4.09,2.73,6.14-.07-.88-.12-1.86-.12-2.89,0-.32,0-.64,0-1,0-.06,0-.12,0-.19,0-.26,0-.53,0-.8a1.34,1.34,0,0,1,0-.2c0-.33,0-.65.08-1s.07-.65.11-1l0-.24c0-.26.09-.53.13-.79l0-.17c.06-.31.13-.62.2-.93,0-.06,0-.12.05-.18.06-.24.13-.48.2-.72a2.17,2.17,0,0,1,.07-.24c.08-.27.18-.54.27-.8l0,0c.11-.28.23-.54.35-.8l.1-.21c.1-.19.21-.39.32-.57l.11-.19a6.11,6.11,0,0,1,.46-.67l.08-.09c.14-.18.29-.35.44-.51l.17-.16a6.27,6.27,0,0,1,.48-.42l.12-.09a5.59,5.59,0,0,1,.66-.41l.18-.08a4.87,4.87,0,0,1,.57-.24l.22-.08c.26-.07.53-.14.82-.19s.79-.14,1.16-.23l.08,0a8.68,8.68,0,0,0,1-.29l.12,0c.29-.11.56-.23.81-.35l.12-.06a5.39,5.39,0,0,0,.67-.4l.1-.06a6.4,6.4,0,0,0,.54-.44l.07-.07a3.34,3.34,0,0,0,.4-.47l0-.07a2.17,2.17,0,0,0,.26-.5,2.42,2.42,0,0,0,.14-.58s-1.06,3.76-7.66,2.45-5.29,7.72-10.63,8.12-10.67-6.76-10.67-6.76A2.56,2.56,0,0,1,39.81,21c-.55,1.18-1.87,2.49-5,1.13C29.69,20,27.9,18.38,24.11,17.65a44.66,44.66,0,0,1,7.46,4.77c4.27,3.35,9,8.35,10.14,14.64A16.22,16.22,0,0,1,42,40.42S41.52,48,30.81,55.6s-19.87,15-21,25.45-1.34,24.78-4.69,30.59-6.69,10,0,10,14.51-2.45,35.05,1.56,24.56,10,28.58,9.6S71.21,125,71.21,125s12.1-8,18.44-10,15.5-7.21,15.94-11.08C105.77,102.33,104.88,101.62,103.64,101.21Z" opacity="0.56" fill="url(#x)" style="mix-blend-mode:multiply"/><path d="M41.71,37.06c-.35-4.41-.47-11.53,3.92.55,0,0-.12-15.35,4.39-1.68,0,0,4.53-9.27,6.1-6.89.9,1.37,1.25,3.88,1.39,5.76,0-5.42,1.25-12.14,6.34-12.91,3.45-.52,5.38-2.07,5.5-3.58,0,0-1.06,3.76-7.66,2.45s-5.29,7.72-10.63,8.12-10.67-6.76-10.67-6.76,3.73,9.92-8.81.3C35.84,25.77,40.57,30.77,41.71,37.06Z" opacity="0.56" fill="url(#y)" style="mix-blend-mode:multiply"/><path d="M30.81,55.6c-10.72,7.59-19.87,15-21,25.45s-1.34,24.78-4.69,30.59-6.69,10,0,10,14.51-2.45,35.05,1.56c16.53,3.24,22.36,7.77,26.1,9.19-4.92-2-6-5.87-6.6-14.16-.53-7.73,1.15-24,1.38-26.09-.18,1.64-1.36,11.57-4.19,18.51-3.09,7.58-11.52,11.09-24.3,8.85s-27,1.4-26.54-1.83,4.63-7.86,8.71-4.21S25.83,117,25.83,117c-12.08-4.64-7-23.74-2.67-29.77s33.71-4.6,33.71-4.6-37.78-1.86-36.23-9.73,7.58-13.34,9.69-12.61-2.81,8.21-2.81,8.21C34,62.84,39,53.67,39,53.67s-11,10.53-5,1.38,10-8.86,10-8.86S42.55,45.07,41,43.87C39.78,46.79,37,51.2,30.81,55.6Z" opacity="0.56" fill="url(#z)" style="mix-blend-mode:multiply"/><path d="M71.33,117.29,71.21,125s4.15-2.75,8.86-5.44C72.23,121.61,71.33,117.29,71.33,117.29Z" opacity="0.56" fill="url(#aa)" style="mix-blend-mode:multiply"/><path d="M59.4,51.28c.7,8.29,5.25,23.58,14.49,23.52,5.42,0,8-1.8,9.94-2.08,1.18-.26-11.52,4.87-12.62,11.37-1.42,8.48,11.43,20,19.22,17.77,6.14-1.8,2.12-17.69.14-24.34-3.18-8.06-7.36-16.21-12.66-20.35-4.29-3.35-7.88-5.88-10.79-7.93C65.62,48.21,58.77,43.9,59.4,51.28Z" fill="url(#ab)" style="mix-blend-mode:screen"/><path d="M42,40.42s-1.12,3.61,8,3,7.74-4.59,7.74-4.59,3,.07,3.31,2.33-2.68,5.94-10.5,5.72S39,45,39,42.88,42,40.42,42,40.42Z" fill="url(#ac)"/><path d="M61.06,41.18a6.5,6.5,0,0,1-2.23,3.36c-2.43,2.2-11.19,2.19-11.65.8s2.19-1.87,2.19-1.87a17,17,0,0,1-4.68-.3c-3.32-.8-2.72-2.75-2.72-2.75s-3,.34-3,2.46c0,1.17,1.15,2.2,3.49,2.93a31.46,31.46,0,0,0,8.11,1.09C58.38,47.12,61.39,43.44,61.06,41.18Z" opacity="0.42" fill="url(#ad)" style="mix-blend-mode:multiply"/><path d="M3.79,41.71c3.14-.87,5.5,1.14,5.36,3.11C9,46.54,6.81,49.19,3.29,47.68S1.92,42.22,3.79,41.71Z" fill="url(#ae)"/><path d="M6.59,18.1c2.23-2,5.63-1,6.41,1.06a3.86,3.86,0,0,1-2.95,5.25C7.37,24.74,2.06,22.23,6.59,18.1Z" fill="url(#af)"/><path d="M3.79,41.71c-1.87.51-4,4.46-.5,6S9,46.54,9.15,44.82C9.29,42.85,6.93,40.84,3.79,41.71Zm5.07,2c1.13,1.65-1.81,5.58-3.78,3C4.29,45.68,7.78,42.12,8.86,43.7Z" fill="#b00077" opacity="0.28" style="mix-blend-mode:multiply"/><path d="M13.22,20.11c.07,2.69-4.45,4.31-4.18,2,.31-2.65,3.19-4.35,3.78-3.34a4.14,4.14,0,0,0-6.23-.68c-4.53,4.13.78,6.64,3.46,6.31A3.77,3.77,0,0,0,13.22,20.11Z" fill="#b00077" opacity="0.28" style="mix-blend-mode:multiply"/><path d="M4.83,43.72S.22,42.54,0,39.75c0,0,2.34-4,6.31-3.12C6.31,36.63,8.2,45.33,4.83,43.72Z" fill="url(#ag)"/><path d="M0,39.75c.22,2.79,4.83,4,4.83,4,1.8.86,2.1-1.23,2-3.36-.09,1.06-.51,2.73-2.18,2.52A5.41,5.41,0,0,1,.93,40.2a1.79,1.79,0,0,0,1-.29C2.8,39.67,3.69,41,3.69,41s-.89-2.09.09-1.95S5.29,41.5,5.29,41.5l-.2-3a1.84,1.84,0,0,0,1.22-1.87C2.34,35.73,0,39.75,0,39.75Z" fill="#b00077" opacity="0.28" style="mix-blend-mode:multiply"/><path d="M0,19.92s1-5.62,6-7.07c0,0,4.91,5.25,3.52,7.07S0,19.92,0,19.92Z" fill="url(#ah)"/><path d="M0,19.92s8.09,1.81,9.49,0c.64-.84-.06-2.4-1-3.84.58,1.3,1.26,3.34.1,3.84-1.73.74-6.36-.7-6.36-.7S2,18.75,3.42,18.09a4.37,4.37,0,0,1,3.22.22S4,17.06,4.87,15.75A8.47,8.47,0,0,0,6,12.85C1,14.3,0,19.92,0,19.92Z" fill="#b00077" opacity="0.28" style="mix-blend-mode:multiply"/></g></svg>