<svg xmlns="http://www.w3.org/2000/svg" xmlns:xlink="http://www.w3.org/1999/xlink" viewBox="0 0 183.91 166.33"><defs><linearGradient id="a" x1="-4.96" y1="13.9" x2="17.78" y2="13.9" gradientTransform="matrix(-0.99, -0.15, -0.15, 0.99, 38.31, 18)" gradientUnits="userSpaceOnUse"><stop offset="0" stop-color="#5a4a99"/><stop offset="0.31" stop-color="#7058a1"/><stop offset="0.95" stop-color="#a87cb5"/><stop offset="1" stop-color="#ad7fb7"/></linearGradient><linearGradient id="b" x1="13.05" y1="5.94" x2="0.75" y2="18.69" gradientTransform="matrix(-0.99, -0.15, -0.15, 0.99, 38.31, 18)" gradientUnits="userSpaceOnUse"><stop offset="0" stop-color="#fff"/><stop offset="1" stop-color="#603d90"/></linearGradient><linearGradient id="c" x1="239.06" y1="3.2" x2="179.47" y2="30.35" gradientTransform="matrix(-0.87, -0.49, -0.49, 0.87, 227.96, 145.52)" gradientUnits="userSpaceOnUse"><stop offset="0" stop-color="#f6ea51"/><stop offset="0.1" stop-color="#cac043"/><stop offset="0.23" stop-color="#958e31"/><stop offset="0.36" stop-color="#686323"/><stop offset="0.49" stop-color="#433f16"/><stop offset="0.62" stop-color="#26240d"/><stop offset="0.75" stop-color="#111106"/><stop offset="0.88" stop-color="#050502"/><stop offset="1" stop-color="#010101"/></linearGradient><linearGradient id="d" x1="233.51" y1="-5.81" x2="179.82" y2="18.65" gradientTransform="matrix(-0.87, -0.49, -0.49, 0.87, 227.96, 145.52)" gradientUnits="userSpaceOnUse"><stop offset="0" stop-color="#f6ea51"/><stop offset="0.09" stop-color="#e0d54a"/><stop offset="0.72" stop-color="#413e16"/><stop offset="1" stop-color="#010101"/></linearGradient><linearGradient id="e" x1="76.06" y1="84.84" x2="14.66" y2="77.48" gradientUnits="userSpaceOnUse"><stop offset="0" stop-color="#055c55"/><stop offset="0.24" stop-color="#166d59"/><stop offset="0.7" stop-color="#439864"/><stop offset="1" stop-color="#62b66b"/></linearGradient><linearGradient id="f" x1="245.73" y1="52.57" x2="192.11" y2="55.17" gradientTransform="matrix(-0.94, -0.34, -0.34, 0.94, 226.46, 92.98)" gradientUnits="userSpaceOnUse"><stop offset="0" stop-color="#f6ea51"/><stop offset="0.13" stop-color="#f2e650"/><stop offset="0.26" stop-color="#e6db4c"/><stop offset="0.39" stop-color="#d3c946"/><stop offset="0.51" stop-color="#b7ae3d"/><stop offset="0.64" stop-color="#948d31"/><stop offset="0.77" stop-color="#686323"/><stop offset="0.89" stop-color="#363312"/><stop offset="1" stop-color="#010101"/></linearGradient><linearGradient id="g" x1="239.64" y1="49.69" x2="197.16" y2="56.04" gradientTransform="matrix(-0.94, -0.34, -0.34, 0.94, 226.46, 92.98)" gradientUnits="userSpaceOnUse"><stop offset="0" stop-color="#f6ea51"/><stop offset="0.11" stop-color="#e4d94b"/><stop offset="0.32" stop-color="#b5ac3c"/><stop offset="0.62" stop-color="#686323"/><stop offset="1" stop-color="#010101"/></linearGradient><linearGradient id="h" x1="245.58" y1="45.84" x2="191.91" y2="47.08" gradientTransform="matrix(-0.94, -0.34, -0.34, 0.94, 226.46, 92.98)" gradientUnits="userSpaceOnUse"><stop offset="0" stop-color="#f6ea51"/><stop offset="0.1" stop-color="#f1e54f"/><stop offset="0.23" stop-color="#e1d64a"/><stop offset="0.37" stop-color="#c7bd42"/><stop offset="0.52" stop-color="#a39b36"/><stop offset="0.68" stop-color="#746e27"/><stop offset="0.85" stop-color="#3c3914"/><stop offset="1" stop-color="#010101"/></linearGradient><linearGradient id="i" x1="59.17" y1="122.77" x2="164.27" y2="122.77" gradientUnits="userSpaceOnUse"><stop offset="0.02" stop-color="#f18b92"/><stop offset="0.05" stop-color="#ee8591"/><stop offset="0.25" stop-color="#d85c88"/><stop offset="0.46" stop-color="#c63c81"/><stop offset="0.65" stop-color="#ba257c"/><stop offset="0.84" stop-color="#b31879"/><stop offset="1" stop-color="#b01378"/></linearGradient><linearGradient id="j" x1="110.18" y1="127.45" x2="164.27" y2="127.45" gradientUnits="userSpaceOnUse"><stop offset="0" stop-color="#fff"/><stop offset="0.16" stop-color="#dad2e5"/><stop offset="0.42" stop-color="#a693c1"/><stop offset="0.63" stop-color="#8064a6"/><stop offset="0.8" stop-color="#694896"/><stop offset="0.89" stop-color="#603d90"/></linearGradient><linearGradient id="k" x1="-217.29" y1="131.27" x2="-48.26" y2="51.98" gradientTransform="matrix(-0.99, 0.16, 0.16, 0.99, -78.18, 5.7)" gradientUnits="userSpaceOnUse"><stop offset="0.04" stop-color="#42398e"/><stop offset="0.64" stop-color="#8867a9"/><stop offset="1" stop-color="#ad7fb7"/></linearGradient><linearGradient id="l" x1="-101.1" y1="196.12" x2="-101.1" y2="90.24" gradientTransform="matrix(-1.05, 0.54, 1.12, 0.38, -180.89, 80.42)" gradientUnits="userSpaceOnUse"><stop offset="0.2" stop-color="#42398e"/><stop offset="0.4" stop-color="#584796"/><stop offset="0.8" stop-color="#906cac"/><stop offset="1" stop-color="#ad7fb7"/></linearGradient><clipPath id="m"><path d="M74.78,94.17,61.26,90.05c-2.73-.83-3-2.57-.57-3.85L74.19,79c3.31-.1,3.1-1,2.69-1.43l16.64-8.82a13.08,13.08,0,0,1,9.11-.68l7.16,2.51,5.11,4.56-3.62-4,6.94,2.44,2.25,4.6.32-3.69,41.78,14.67c2.47.87,2.6,2.54.29,3.77l-2.25,1.19c-3.65,0-3.4.76-2.56,1.36l-21.88,11.61c-1.89-.26-1.92.14-1.32.7l-1.48.78a13.14,13.14,0,0,1-8.82.77l-17.23-5.24L122,102.16l-17.35,1.1L84.47,97.12c2.58-1.71-.15-1-1.67-.5l-5.67-1.73,9.38-2.17Z" fill="none"/></clipPath><linearGradient id="n" x1="109.2" y1="117.23" x2="148.24" y2="9.95" gradientUnits="userSpaceOnUse"><stop offset="0.04" stop-color="#42398e"/><stop offset="0.25" stop-color="#604d9a"/><stop offset="0.58" stop-color="#8a68a9"/><stop offset="0.84" stop-color="#a379b3"/><stop offset="1" stop-color="#ad7fb7"/></linearGradient><linearGradient id="o" x1="115.81" y1="40.77" x2="115.81" y2="-37.42" gradientTransform="translate(25.83 7.4) rotate(19.99)" xlink:href="#l"/><linearGradient id="p" x1="138.3" y1="55.33" x2="138.3" y2="-38.31" gradientUnits="userSpaceOnUse"><stop offset="0" stop-color="#010101"/><stop offset="0.12" stop-color="#060501"/><stop offset="0.24" stop-color="#131201"/><stop offset="0.38" stop-color="#2a2801"/><stop offset="0.52" stop-color="#4a4601"/><stop offset="0.66" stop-color="#736c01"/><stop offset="0.8" stop-color="#a59b00"/><stop offset="0.95" stop-color="#dfd200"/><stop offset="1" stop-color="#f4e600"/></linearGradient><clipPath id="q"><path d="M166.5,38.26l6.15-14.74A5.7,5.7,0,0,0,169.43,16L152.61,9.57c-2.57,1.52-3.21-.17-3.36-1.28L128.52.38a5.7,5.7,0,0,0-7.42,3.44l-2.94,8.44.52,11.2L117.55,14l-2.85,8.18L117.38,32l-3.74-6.75L96.48,74.39a5.69,5.69,0,0,0,3.35,7.2l2.8,1.08c2.75-1.83,3.25-.34,3.19,1.21l27.26,10.41c1.16-1.46,1.56-.72,1.64.63l1.84.7a5.69,5.69,0,0,0,7.29-3.13l7.84-18.77L139,77.7l13.94-6.92,9.17-22c-3.55-1.87-.81-1.91.76-1.81l2.58-6.19-9,.81Z" fill="none"/></clipPath><linearGradient id="r" x1="151.45" y1="57.04" x2="151.45" y2="-37.75" xlink:href="#p"/><linearGradient id="s" x1="112.54" y1="106.32" x2="137.94" y2="36.5" gradientUnits="userSpaceOnUse"><stop offset="0" stop-color="#fff"/><stop offset="0.21" stop-color="#fdfcfd"/><stop offset="0.35" stop-color="#f5f3f8"/><stop offset="0.48" stop-color="#e9e4ef"/><stop offset="0.59" stop-color="#d7cee3"/><stop offset="0.7" stop-color="#bfb1d3"/><stop offset="0.8" stop-color="#a38fbf"/><stop offset="0.89" stop-color="#8266a8"/><stop offset="0.97" stop-color="#603d90"/></linearGradient><linearGradient id="t" x1="98.76" y1="38.5" x2="72.86" y2="121.68" gradientUnits="userSpaceOnUse"><stop offset="0" stop-color="#ad7fb7"/><stop offset="0.28" stop-color="#b080b5"/><stop offset="0.5" stop-color="#ba81b0"/><stop offset="0.7" stop-color="#cb84a7"/><stop offset="0.89" stop-color="#e3889a"/><stop offset="0.98" stop-color="#f18b92"/></linearGradient><linearGradient id="u" x1="96.02" y1="168.51" x2="96.02" y2="90.33" gradientTransform="translate(-49.2 -12.37) rotate(-24.14)" gradientUnits="userSpaceOnUse"><stop offset="0" stop-color="#f08691"/><stop offset="0.28" stop-color="#f08992"/><stop offset="0.46" stop-color="#f09196"/><stop offset="0.61" stop-color="#f0a09c"/><stop offset="0.75" stop-color="#f0b5a6"/><stop offset="0.88" stop-color="#f1d0b1"/><stop offset="1" stop-color="#f1f1c0"/><stop offset="1" stop-color="#f1f2c0"/></linearGradient><linearGradient id="v" x1="30.21" y1="185.43" x2="35.1" y2="185.43" gradientTransform="translate(-115.66 34.09) rotate(-73.73)" gradientUnits="userSpaceOnUse"><stop offset="0" stop-color="#008e64"/><stop offset="0.27" stop-color="#169766"/><stop offset="0.82" stop-color="#4eae6a"/><stop offset="1" stop-color="#62b66b"/></linearGradient><linearGradient id="w" x1="35.38" y1="186.66" x2="36.41" y2="186.66" xlink:href="#v"/><linearGradient id="x" x1="48.03" y1="190.51" x2="44.58" y2="193.97" gradientTransform="translate(-115.66 34.09) rotate(-73.73)" gradientUnits="userSpaceOnUse"><stop offset="0" stop-color="#62b66b"/><stop offset="0.18" stop-color="#4eae6a"/><stop offset="0.73" stop-color="#169766"/><stop offset="1" stop-color="#008e64"/></linearGradient><linearGradient id="y" x1="47.24" y1="183.22" x2="49.2" y2="183.22" xlink:href="#v"/><linearGradient id="z" x1="49.54" y1="206.71" x2="55.19" y2="206.71" xlink:href="#v"/><linearGradient id="aa" x1="51.48" y1="203.53" x2="56.47" y2="203.53" xlink:href="#v"/><linearGradient id="ab" x1="23.75" y1="177.74" x2="20.53" y2="180.95" gradientTransform="translate(-113.45 30) rotate(-79.29)" gradientUnits="userSpaceOnUse"><stop offset="0" stop-color="#ad7fb7"/><stop offset="0.05" stop-color="#a87cb5"/><stop offset="0.69" stop-color="#7058a1"/><stop offset="1" stop-color="#5a4a99"/></linearGradient><linearGradient id="ac" x1="50.69" y1="182.76" x2="53.09" y2="182.76" xlink:href="#v"/><linearGradient id="ad" x1="51.89" y1="186.74" x2="54.69" y2="186.74" xlink:href="#v"/><linearGradient id="ae" x1="50.12" y1="192.06" x2="56.31" y2="192.06" xlink:href="#v"/><linearGradient id="af" x1="48.4" y1="196.41" x2="55.2" y2="196.41" xlink:href="#v"/><linearGradient id="ag" x1="46.98" y1="200.57" x2="53.32" y2="200.57" xlink:href="#v"/><linearGradient id="ah" x1="43.03" y1="205.74" x2="49.11" y2="205.74" gradientTransform="translate(-115.66 34.09) rotate(-73.73)" gradientUnits="userSpaceOnUse"><stop offset="0" stop-color="#008e64"/><stop offset="0.06" stop-color="#0f9465"/><stop offset="0.22" stop-color="#2da067"/><stop offset="0.39" stop-color="#44aa69"/><stop offset="0.56" stop-color="#55b16a"/><stop offset="0.76" stop-color="#5fb56b"/><stop offset="1" stop-color="#62b66b"/></linearGradient><linearGradient id="ai" x1="46.98" y1="205.08" x2="45.73" y2="207.55" gradientTransform="translate(-115.66 34.09) rotate(-73.73)" xlink:href="#d"/><linearGradient id="aj" x1="61.02" y1="204.23" x2="57.02" y2="208.23" gradientTransform="translate(-115.66 34.09) rotate(-73.73)" xlink:href="#ab"/><linearGradient id="ak" x1="46.57" y1="191.59" x2="36.68" y2="211.12" gradientTransform="translate(-115.66 34.09) rotate(-73.73)" gradientUnits="userSpaceOnUse"><stop offset="0" stop-color="#62b66b"/><stop offset="0.06" stop-color="#5bb36b"/><stop offset="0.49" stop-color="#2a9f67"/><stop offset="0.82" stop-color="#0b9365"/><stop offset="1" stop-color="#008e64"/></linearGradient><linearGradient id="al" x1="23.74" y1="177.74" x2="20.53" y2="180.95" gradientTransform="translate(-113.45 30) rotate(-79.29)" gradientUnits="userSpaceOnUse"><stop offset="0" stop-color="#fff"/><stop offset="0.89" stop-color="#603d90"/></linearGradient><linearGradient id="am" x1="60.61" y1="203.82" x2="56.61" y2="207.82" gradientTransform="translate(-115.66 34.09) rotate(-73.73)" xlink:href="#al"/><linearGradient id="an" x1="45.49" y1="184.59" x2="41.53" y2="192.41" gradientTransform="translate(-115.66 34.09) rotate(-73.73)" xlink:href="#d"/><linearGradient id="ao" x1="52.09" y1="199.88" x2="50.91" y2="202.2" gradientTransform="translate(-115.66 34.09) rotate(-73.73)" xlink:href="#d"/><linearGradient id="ap" x1="54.4" y1="194.89" x2="52.98" y2="197.7" gradientTransform="translate(-115.66 34.09) rotate(-73.73)" xlink:href="#d"/><linearGradient id="aq" x1="55.55" y1="189.99" x2="54.24" y2="192.57" gradientTransform="translate(-115.66 34.09) rotate(-73.73)" xlink:href="#d"/><linearGradient id="ar" x1="54.13" y1="184.55" x2="53.28" y2="186.23" gradientTransform="translate(-115.66 34.09) rotate(-73.73)" xlink:href="#d"/><linearGradient id="as" x1="12.45" y1="131.73" x2="12.45" y2="94.24" gradientTransform="translate(79.23 -44.68)" gradientUnits="userSpaceOnUse"><stop offset="0" stop-color="#d94e96"/><stop offset="0.14" stop-color="#bf4c96"/><stop offset="0.4" stop-color="#974a96"/><stop offset="0.63" stop-color="#7a4896"/><stop offset="0.83" stop-color="#684696"/><stop offset="0.98" stop-color="#624696"/></linearGradient><linearGradient id="at" x1="12.45" y1="128.87" x2="12.45" y2="100.34" gradientTransform="translate(37.05 -31.37) rotate(-22.44)" gradientUnits="userSpaceOnUse"><stop offset="0.37" stop-color="#fff"/><stop offset="0.45" stop-color="#efecf4"/><stop offset="0.61" stop-color="#c7bad8"/><stop offset="0.85" stop-color="#866bab"/><stop offset="0.97" stop-color="#603d90"/></linearGradient><linearGradient id="au" x1="2.6" y1="116.87" x2="2.6" y2="106.66" gradientTransform="translate(37.05 -31.37) rotate(-22.44)" gradientUnits="userSpaceOnUse"><stop offset="0" stop-color="#fff"/><stop offset="0.04" stop-color="#e8e2ef"/><stop offset="0.1" stop-color="#c8bcd9"/><stop offset="0.16" stop-color="#ac99c5"/><stop offset="0.23" stop-color="#947db4"/><stop offset="0.31" stop-color="#8165a7"/><stop offset="0.4" stop-color="#72539d"/><stop offset="0.51" stop-color="#684695"/><stop offset="0.65" stop-color="#623f91"/><stop offset="0.97" stop-color="#603d90"/></linearGradient><clipPath id="av"><path d="M88.29,71.85s-3.16-7.36-13-3.42C75.33,68.43,78.58,81.41,88.29,71.85Z" fill="none"/></clipPath><linearGradient id="aw" x1="2.57" y1="116.15" x2="2.57" y2="106.86" gradientTransform="translate(37.05 -31.37) rotate(-22.44)" gradientUnits="userSpaceOnUse"><stop offset="0" stop-color="#f08691"/><stop offset="0.25" stop-color="#f0a49e"/><stop offset="0.76" stop-color="#f1dcb7"/><stop offset="1" stop-color="#f1f2c0"/></linearGradient><linearGradient id="ax" x1="-12.23" y1="224.82" x2="-12.23" y2="215.13" gradientTransform="matrix(0.82, -0.56, 0.61, 0.81, -41.68, -114.19)" gradientUnits="userSpaceOnUse"><stop offset="0" stop-color="#ed6c1e"/><stop offset="0.07" stop-color="#c25819"/><stop offset="0.15" stop-color="#954413"/><stop offset="0.24" stop-color="#6d320e"/><stop offset="0.33" stop-color="#4c230a"/><stop offset="0.42" stop-color="#301607"/><stop offset="0.53" stop-color="#1b0d04"/><stop offset="0.65" stop-color="#0c0602"/><stop offset="0.79" stop-color="#040201"/><stop offset="1" stop-color="#010101"/></linearGradient><linearGradient id="ay" x1="-12.23" y1="224.45" x2="-12.23" y2="215.5" gradientTransform="matrix(0.82, -0.56, 0.61, 0.81, -41.68, -114.19)" gradientUnits="userSpaceOnUse"><stop offset="0" stop-color="#f4e600"/><stop offset="0.17" stop-color="#f3d005"/><stop offset="0.53" stop-color="#ef9713"/><stop offset="0.78" stop-color="#ed6c1e"/></linearGradient><linearGradient id="az" x1="-12.23" y1="223.13" x2="-12.23" y2="216.82" xlink:href="#ax"/><linearGradient id="ba" x1="3.41" y1="117.08" x2="3.41" y2="102.31" gradientTransform="translate(37.05 -31.37) rotate(-22.44)" gradientUnits="userSpaceOnUse"><stop offset="0" stop-color="#fff"/><stop offset="0.48" stop-color="#f39f89"/><stop offset="0.82" stop-color="#eb613c"/><stop offset="0.98" stop-color="#e8491e"/></linearGradient><linearGradient id="bb" x1="-192.42" y1="117.19" x2="-192.42" y2="106.97" gradientTransform="matrix(-0.92, 0.38, 0.38, 0.92, -120.18, 33.22)" xlink:href="#au"/><clipPath id="bc"><path d="M96.72,68.37s-3-7.44,6.77-11.57C103.49,56.8,110.34,68.29,96.72,68.37Z" fill="none"/></clipPath><linearGradient id="bd" x1="-192.45" y1="116.46" x2="-192.45" y2="107.17" gradientTransform="matrix(-0.92, 0.38, 0.38, 0.92, -120.18, 33.22)" xlink:href="#aw"/><linearGradient id="be" x1="-202.59" y1="184.69" x2="-202.59" y2="175" gradientTransform="matrix(-0.97, 0.18, 0.14, 1, -122.12, -80.46)" xlink:href="#ax"/><linearGradient id="bf" x1="-202.59" y1="184.31" x2="-202.59" y2="175.37" gradientTransform="matrix(-0.97, 0.18, 0.14, 1, -122.12, -80.46)" xlink:href="#ay"/><linearGradient id="bg" x1="-202.59" y1="183" x2="-202.59" y2="176.69" gradientTransform="matrix(-0.97, 0.18, 0.14, 1, -122.12, -80.46)" xlink:href="#ax"/><linearGradient id="bh" x1="-191.61" y1="117.4" x2="-191.61" y2="102.62" gradientTransform="matrix(-0.92, 0.38, 0.38, 0.92, -120.18, 33.22)" xlink:href="#ba"/><linearGradient id="bi" x1="12.45" y1="131.73" x2="12.45" y2="94.24" gradientTransform="translate(37.05 -31.37) rotate(-22.44)" gradientUnits="userSpaceOnUse"><stop offset="0.03" stop-color="#603d90"/><stop offset="0.04" stop-color="#644192"/><stop offset="0.17" stop-color="#8c73af"/><stop offset="0.3" stop-color="#b09ec8"/><stop offset="0.44" stop-color="#ccc1dc"/><stop offset="0.57" stop-color="#e3dceb"/><stop offset="0.71" stop-color="#f2f0f6"/><stop offset="0.85" stop-color="#fcfbfd"/><stop offset="1" stop-color="#fff"/></linearGradient><linearGradient id="bj" x1="12.23" y1="103.78" x2="12.23" y2="69.86" gradientTransform="translate(37.05 -31.37) rotate(-22.44)" gradientUnits="userSpaceOnUse"><stop offset="0" stop-color="#010101"/><stop offset="0.11" stop-color="#141301"/><stop offset="0.34" stop-color="#454101"/><stop offset="0.65" stop-color="#958c00"/><stop offset="1" stop-color="#f4e600"/></linearGradient><linearGradient id="bk" x1="41.13" y1="206.39" x2="49.84" y2="197.91" gradientTransform="translate(-107.19 31.65) rotate(-61.75)" gradientUnits="userSpaceOnUse"><stop offset="0" stop-color="#008e64"/><stop offset="0.23" stop-color="#119565"/><stop offset="0.67" stop-color="#3ea768"/><stop offset="1" stop-color="#62b66b"/></linearGradient><clipPath id="bl"><path d="M59,60.8l16,34.45,6.61-11.61S78.8,89.93,75.75,97l6.59,14.19A5.7,5.7,0,0,0,89.76,114L101,109.2c-.15-2.3-.26-5.28.2-5.34s2.48,2.43,3.46,3.76l2.87-1.22c-.07-.3-.14-.62-.22-1-.75-3.35,1.65-.65,1.65-.65.12-1.5,1.18-.93,2.25,0l14.69-6.3A5.72,5.72,0,0,0,129,91.18L103.22,25.77S82.27,108.5,59,60.8Z" fill="none"/></clipPath><linearGradient id="bm" x1="50.76" y1="158.13" x2="132.09" y2="78.96" gradientTransform="matrix(0.7, -0.72, 0.72, 0.7, -73.09, 4.08)" gradientUnits="userSpaceOnUse"><stop offset="0" stop-color="#010101"/><stop offset="0.25" stop-color="#423e01"/><stop offset="0.62" stop-color="#a19800"/><stop offset="0.88" stop-color="#ddd000"/><stop offset="1" stop-color="#f4e600"/></linearGradient><linearGradient id="bn" x1="54.69" y1="164.46" x2="135.83" y2="85.47" gradientTransform="matrix(0.7, -0.72, 0.72, 0.7, -73.09, 4.08)" gradientUnits="userSpaceOnUse"><stop offset="0" stop-color="#010101"/><stop offset="0.41" stop-color="#615b01"/><stop offset="1" stop-color="#f4e600"/></linearGradient></defs><g style="isolation:isolate"><path d="M57.92,53.9s-5.43-15.44-9.34-15.14S57.92,53.9,57.92,53.9Z" fill="#055c55"/><path d="M55.32,53.51s-15.87-2-19-6S44.43,45,55.32,53.51Z" fill="#055c55"/><path d="M57.92,53.9S53.68,49.15,50.7,45c3.24,3.65,7.16,7.7,3.92,1.94-4.59-8.17-6.16-8.13-6.41-8a.81.81,0,0,1,.37-.1C52.49,38.46,57.92,53.9,57.92,53.9Z" fill="#0870b4" opacity="0.3" style="mix-blend-mode:multiply"/><path d="M55.32,53.51S42.65,51.94,37.7,48.73c4.12,1.8,14.53,4.32,10.6,1.27s-10-4.57-10.1-4.58C41.74,45.68,48.6,48.26,55.32,53.51Z" fill="#0870b4" opacity="0.3" style="mix-blend-mode:multiply"/><path d="M35.25,36.7S62.57,53.15,72.68,83.27s.8-5.28.8-5.28S62.15,48.56,35.25,36.7Z" fill="#055c55"/><path d="M38.9,36.18s.46-10.34-2.84-11.95S35,31.16,35,31.16s-3.27-9.13-11.78-10,.84,7.66.84,7.66-5-2.75-5.56,1.15,14,7.44,14,7.44-4.91-1.19-5.83.45,7.88,2.07,11.7,1.77S38.9,36.18,38.9,36.18Z" fill="url(#a)"/><path d="M31.48,35.47c.13-1.31-6.64-6.3-6.64-6.3s8,5.73,7.61,1.29S26.24,22,26,21.8c6.47,2.24,9,9.36,9,9.36s.91,6.72,2.58,3.05-.81-9.42-.81-9.42c2.51,2.66,2.12,11.39,2.12,11.39s3.29,3.16-.52,3.47-12.61-.14-11.7-1.77,5.83-.45,5.83-.45A60.76,60.76,0,0,1,23,34.18C23.08,34.22,31.36,36.76,31.48,35.47Z" opacity="0.3" fill="url(#b)" style="mix-blend-mode:multiply"/><path d="M85.69,91.36s6.11-13.19,18.63-19C104.32,72.33,97.21,92.08,85.69,91.36Z" fill="#055c55"/><path d="M87.2,88.6l-.29-1.15a32.86,32.86,0,0,0,2.58-10.32c.2,2,.55,3,1.11-.53,1.09-6.86-2-15.28-2.24-15.95,4.84,9.4,3.28,18.55,1.45,24.06a46.08,46.08,0,0,1,5.1-5.81c-.56.77-7.18,9.93-3,9.07,4.31-.9,10.84-11.87,10.84-11.88-2.71,5.7-8.72,15.79-17,15.27C85.69,91.36,86.2,90.27,87.2,88.6Z" fill="#0870b4" opacity="0.24" style="mix-blend-mode:multiply"/><path d="M33.63,57.7a25.44,25.44,0,0,1,6.48,1,40,40,0,0,1,12,6c-.32-.46-.65-.92-.94-1.4a26.16,26.16,0,0,1-2-4.13c-.47-1.28-.66-2.85.6-3.73a.56.56,0,0,1,.57,0c4.76,2.84,8.2,7.13,11.17,11.72a23.84,23.84,0,0,1-.45-2.79A2.16,2.16,0,0,1,62,62c2-1,3.71,1.41,4.77,2.73a51.09,51.09,0,0,1,3.59,5.16c-.17-.73-.33-1.45-.46-2.19-.24-1.35-.67-2.94-.22-4.29a1.63,1.63,0,0,1,2.62-.92A12,12,0,0,1,74,64.21c.59.65,1.17,1.32,1.73,2q1.57,1.9,3,3.94a58.83,58.83,0,0,1,4.93,8.49,58.54,58.54,0,0,1,3.83,10.49,4.41,4.41,0,0,1,.26,2.52.55.55,0,0,1-.4.42,41.91,41.91,0,0,1-7.66.71,17.92,17.92,0,0,1-3.72-.51,5.81,5.81,0,0,1-3.09-1.63,3.57,3.57,0,0,1-.08-4.16,27.71,27.71,0,0,1-7.76.45,18.89,18.89,0,0,1-3.49-.68c-.92-.28-2.11-.61-2.53-1.58-.9-2.1,2.47-3.78,3.94-4.4a15.67,15.67,0,0,1,1.74-.62,20.42,20.42,0,0,1-7.45-1.8c-1.59-.77-3.7-2-2.87-4.12a2.92,2.92,0,0,1,.76-1.09,17.42,17.42,0,0,1-9.59-4.56.58.58,0,0,1,.11-.91,8.48,8.48,0,0,1,4.77-1c-3.55-.6-7.18-.49-10.76-.89-4.18-.48-8.59-1.8-11.31-5.21a.59.59,0,0,1-.1-.69C29.34,57.63,31.77,57.67,33.63,57.7Z" fill="#054756"/><path d="M61.05,64.37A2.16,2.16,0,0,1,62,62c2-1,3.71,1.41,4.77,2.73a51.09,51.09,0,0,1,3.59,5.16c-.17-.73-.33-1.45-.46-2.19-.24-1.35-.67-2.94-.22-4.29a1.63,1.63,0,0,1,2.62-.92A12,12,0,0,1,74,64.21c.59.65,1.17,1.32,1.73,2q1.57,1.9,3,3.94a58.83,58.83,0,0,1,4.93,8.49,58.54,58.54,0,0,1,3.83,10.49,4.41,4.41,0,0,1,.26,2.52.55.55,0,0,1-.4.42,41.91,41.91,0,0,1-7.66.71,17.92,17.92,0,0,1-3.72-.51,5.81,5.81,0,0,1-3.09-1.63,3.24,3.24,0,0,1-.61-2.83c3.65,1,11.28,2.55,11.23-1.49-.06-5.3-10-23.75-12.39-23.54s.32,12,.32,12-6.57-11.69-8.54-11.62-.64,7.11-.64,7.11c-2.59-7.34-11.88-14.83-11.88-14.83,4.76,2.84,8.2,7.13,11.17,11.72A23.84,23.84,0,0,1,61.05,64.37Z" fill="#0870b4" opacity="0.3" style="mix-blend-mode:multiply"/><path d="M50.37,69.66l1.71,2.27a17.16,17.16,0,0,1-6.57-3.86.58.58,0,0,1-.1-.68C46.18,69.13,50.37,69.66,50.37,69.66Z" fill="#0870b4" opacity="0.3" style="mix-blend-mode:multiply"/><path d="M39.6,64a42.41,42.41,0,0,1,10.79,2.18c-3.55-.6-7.18-.49-10.76-.89s-7.49-1.48-10.21-4C31.67,62.83,35.25,63.77,39.6,64Z" fill="#0870b4" opacity="0.3" style="mix-blend-mode:multiply"/><path d="M39.51,61.55S60.12,64.65,87,94s2-1.8,2-1.8S58.57,63.09,39.51,61.55Z" fill="#0870b4" opacity="0.3" style="mix-blend-mode:multiply"/><path d="M83.83,95.57s17.35-18.27,3.83-38.83c0,0-7.56,17.13-3.88,36.32,0,0-5.74-14.7-14.23-19.71C69.55,73.35,69.06,89.89,83.83,95.57Z" fill="#055c55"/><path d="M83.78,93.06a62.35,62.35,0,0,1-.13-21.58c-.29,6.57-.08,13.92,2.64,10.74C90.82,76.9,91.56,65.37,91.58,65,96.74,82,83.83,95.57,83.83,95.57A21.35,21.35,0,0,1,71,81.68c1.81,4.26,6.3,8.34,7.65,6.95s-2.23-8.61-2.47-9.1A62.68,62.68,0,0,1,83.78,93.06Z" fill="#0870b4" opacity="0.24" style="mix-blend-mode:multiply"/><path d="M50.1,66s4.79,1.52,7.07,4.6c1.39,1.88-2.56,1-6.29-.29l-.51-.68s-4.19-.53-5-2.27a.58.58,0,0,1,.21-.23,8.48,8.48,0,0,1,4.77-1c-3.55-.6-7.18-.49-10.76-.89-4.18-.48-8.59-1.8-11.31-5.21a.59.59,0,0,1-.1-.69c1.12-1.77,3.55-1.73,5.41-1.7a25.44,25.44,0,0,1,6.48,1,40,40,0,0,1,12,6l.24.19C53.07,65.49,54.92,67.22,50.1,66Z" fill="url(#c)" style="mix-blend-mode:screen"/><path d="M57.26,64.72c.53,4.1-3.83,1-4.93.17l-.24-.19c-.32-.46-.65-.92-.94-1.4a26.16,26.16,0,0,1-2-4.13c-.47-1.28-.66-2.85.6-3.73a.56.56,0,0,1,.57,0s1.56,1.25,3.57,3.23C55.45,60.36,57,62.53,57.26,64.72Z" fill="url(#d)" style="mix-blend-mode:screen"/><path d="M2.22,70.47c3.12-.93,6.43-.74,9.64-.52,2.87.19,5.74.43,8.61.68l-.39-.15a10.61,10.61,0,0,1-3.15-1.54c-1.56-1.39-.88-4.07,1.44-3.7a15,15,0,0,1,3.48,1.21,31.65,31.65,0,0,1,3.48,1.78c.7.42,1.38.88,2,1.36-.23-.44-.46-.89-.65-1.35a.58.58,0,0,1,.56-.82,15.31,15.31,0,0,1,8.49,2.76,1.29,1.29,0,0,1,0-.8c.59-1.62,3.08-.61,4.15-.25a20.79,20.79,0,0,1,6.83,3.92,4.49,4.49,0,0,1-.23-2.52c.66-2.29,3.78-1,5.22-.44a25.06,25.06,0,0,1,8.6,6.75,3.11,3.11,0,0,1,.39-1.75,2.52,2.52,0,0,1,2.36-1.33,6,6,0,0,1,2.71,1.42,46.41,46.41,0,0,1,7.85,7.1,2.66,2.66,0,0,1,.44-.69c1.72-1.89,4.26-.47,5.77.85a13.53,13.53,0,0,1,4,4.75,4.55,4.55,0,0,1,.37,2.69,1.8,1.8,0,0,1-.26.54.62.62,0,0,1-.24,1,110.52,110.52,0,0,1-17.8,3.68,42,42,0,0,1-9,.08,17.67,17.67,0,0,1-4.32-.9A2.59,2.59,0,0,1,51,92.61a2.85,2.85,0,0,1,.2-2,34.17,34.17,0,0,1-12.67-1.89A4.38,4.38,0,0,1,36,87.25a2.65,2.65,0,0,1-.31-2.16,2.32,2.32,0,0,1,1.21-1.52,27.59,27.59,0,0,1-8.73-3,.49.49,0,0,1-.22-.39,34.62,34.62,0,0,1-4.08,1.42,12.8,12.8,0,0,1-6.78.13c-.84-.25-2.31-.66-2.37-1.68a2.91,2.91,0,0,1,1.56-2.38c1.67-1.13,3.43-2.15,5.18-3.16-2.62.42-5.24.8-7.88,1.09-3.34.37-7,1-10.26-.14C2.18,75.1.5,74.36.09,73.06-.37,71.61,1.06,70.82,2.22,70.47Z" fill="url(#e)"/><path d="M20.24,80.82c3.18.26,7.9-2.5,9-3.15-.56.38-1.83,1.48.16,2.67,2.21,1.33,8.23,2.13,9.37,2.27-1.79-.07-4.74,3.89.78,5.26,5.75,1.42,14.21,1,14.21,1s-2.75,3.78-.52,4.64S78.12,94,80,90.58s-1.68-8.83-4-9.24-2.85,4.07-2.85,4.07S64.53,74.28,62.47,74.12s-1.31,5.64-1.31,5.64-9.08-9.91-12.78-10,.56,6.29.56,6.29-9.68-6.81-11.54-6.9,1,3.34,1,3.34-6.16-3.69-8.87-4.45-1.18,3.28-1.18,3.28c-2.92-3.44-8.62-5.71-9.33-6a18.87,18.87,0,0,1,2.86,1.07,31.65,31.65,0,0,1,3.48,1.78c.7.42,1.38.88,2,1.36-.23-.44-.46-.89-.65-1.35a.58.58,0,0,1,.56-.82,15.31,15.31,0,0,1,8.49,2.76,1.29,1.29,0,0,1,0-.8c.59-1.62,3.08-.61,4.15-.25a20.79,20.79,0,0,1,6.83,3.92,4.49,4.49,0,0,1-.23-2.52c.66-2.29,3.78-1,5.22-.44a25.06,25.06,0,0,1,8.6,6.75,3.11,3.11,0,0,1,.39-1.75,2.52,2.52,0,0,1,2.36-1.33,6,6,0,0,1,2.71,1.42,46.41,46.41,0,0,1,7.85,7.1,2.66,2.66,0,0,1,.44-.69c1.72-1.89,4.26-.47,5.77.85a13.53,13.53,0,0,1,4,4.75,4.55,4.55,0,0,1,.37,2.69,1.8,1.8,0,0,1-.26.54.62.62,0,0,1-.24,1,110.52,110.52,0,0,1-17.8,3.68,42,42,0,0,1-9,.08,17.67,17.67,0,0,1-4.32-.9A2.59,2.59,0,0,1,51,92.61a2.85,2.85,0,0,1,.2-2,34.17,34.17,0,0,1-12.67-1.89A4.38,4.38,0,0,1,36,87.25a2.65,2.65,0,0,1-.31-2.16,2.32,2.32,0,0,1,1.21-1.52,27.59,27.59,0,0,1-8.73-3,.49.49,0,0,1-.22-.39,34.62,34.62,0,0,1-4.08,1.42,12.8,12.8,0,0,1-6.78.13c-.84-.25-2.31-.66-2.37-1.68a2.91,2.91,0,0,1,1.56-2.38l.06,0C14.2,79.52,17.15,80.58,20.24,80.82Z" fill="#0870b4" opacity="0.3" style="mix-blend-mode:multiply"/><path d="M84.6,93.82S39.24,72.27,13.65,72.69C13.65,72.69,28,69,85.87,92,117.88,104.67,84.6,93.82,84.6,93.82Z" fill="#0870b4" opacity="0.3" style="mix-blend-mode:multiply"/><path d="M27.35,75.25c1.27,1.91-1.75,4.3-3.79,5.07-.28.09-.57.17-.85.24l-1.62.26a4.82,4.82,0,0,1-.85,0c-3.09-.24-6-1.3-3.86-3.15,1.65-1.11,3.39-2.12,5.12-3.12a4.28,4.28,0,0,0,.93-.25C23.8,74,26.31,73.68,27.35,75.25Z" fill="url(#f)" style="mix-blend-mode:screen"/><path d="M23.63,73.75a9.47,9.47,0,0,1-1.2.55,8.41,8.41,0,0,0-.93.25c-2.62.42-5.24.8-7.88,1.09-3.34.37-7,1-10.26-.14C2.18,75.1.5,74.36.09,73.06c-.46-1.45,1-2.24,2.13-2.59,3.12-.93,6.43-.74,9.64-.52,2.83.18,5.66.42,8.49.67C21.36,71.17,24.82,73.12,23.63,73.75Z" fill="url(#g)" style="mix-blend-mode:screen"/><path d="M26.62,71.68c-.91.86-6.54-1.2-6.54-1.2a10.61,10.61,0,0,1-3.15-1.54c-1.56-1.39-.88-4.07,1.44-3.7l.62.14a33.91,33.91,0,0,1,3.58,1.67C22.62,67.1,27.52,70.81,26.62,71.68Z" fill="url(#h)" style="mix-blend-mode:screen"/><path d="M150.25,83.58s14.4,2,23.67,12.19C173.92,95.77,153,94.8,150.25,83.58Z" fill="#055c55"/><path d="M153.33,84.21l1-.61A32.49,32.49,0,0,0,165,83c-1.81.77-2.69,1.4.84.9,6.87-1,14-6.4,14.58-6.83-7.55,7.39-16.76,8.6-22.56,8.47a46.68,46.68,0,0,1,7.05,3.16c-.9-.31-11.6-3.93-9.56-.24,2.12,3.85,14.53,6.86,14.54,6.86-6.25-.92-17.65-3.68-19.6-11.76C150.25,83.58,151.44,83.75,153.33,84.21Z" fill="#0870b4" opacity="0.24" style="mix-blend-mode:multiply"/><path d="M145.67,83.05s22.58,11.19,38.24-7.79c0,0-18.6-2.17-35.85,7,0,0,12.35-9.82,14.64-19.41C162.7,62.85,146.75,67.26,145.67,83.05Z" fill="#055c55"/><path d="M148.06,82.26a62.74,62.74,0,0,1,20.58-6.49c-6.36,1.67-13.32,4-9.48,5.69,6.41,2.77,17.65.07,18,0-14.67,9.92-31.49,1.6-31.49,1.6a21.42,21.42,0,0,1,9.48-16.41c-3.53,3-6.11,8.48-4.38,9.36s7.57-4.67,8-5A62.51,62.51,0,0,1,148.06,82.26Z" fill="#0870b4" opacity="0.24" style="mix-blend-mode:multiply"/><path d="M127.08,79.22s36.38,10,37.06,11.54-1.49,2-1.49,2,2.26,2.23-.91,3.62c0,0,1.33,2.49-.74,3s-.84,2-.84,2L150.3,120.8s-1.73,1.69-.44,1.69c0,0-.68,2.54.94,2.69s.22,1.38.22,1.38,5.74,12.06,6.75,13.32-.85,2.16-.85,2.16,2.74-.44,1.81,1.33-47.43,22.94-50.06,23S70.75,115.2,70.43,114.44a30.72,30.72,0,0,1-.69-4.35s2.19-2.79,1-2.69c0,0,.85-1-.87-1.65,0,0-2.6-2.48-1.29-2.43,0,0-2.46-2.09-.81-2.5L63.08,90.68s-4.07-.9-3.9-2.37,23.14-8.1,23.14-8.1Z" fill="url(#i)"/><path d="M114.67,164.15l1.46-.6,1.61-.68c2.19-.93,4.65-2,7.25-3.16l.08,0,1.88-.84.15-.07,1.93-.86.06,0,2-.91,4.09-1.87.08,0,1.91-.87.23-.11,1.84-.85.21-.1,1.81-.84.24-.11,1.76-.83.18-.08,3.46-1.65.21-.1,1.55-.75.21-.1,1.43-.7.24-.12,1.32-.65.22-.11,1.24-.62.13-.07,1.18-.61,1.06-.55.1-.06.85-.46.13-.07.68-.39.11-.06.52-.33.07,0,.36-.26a1.13,1.13,0,0,0,.2-.21c.93-1.77-1.81-1.33-1.81-1.33s1.86-.91.85-2.16S151,126.56,151,126.56s1.4-1.24-.22-1.38-.94-2.69-.94-2.69c-1.29,0,.44-1.69.44-1.69l9.86-19.39s-1.23-1.44.84-2,.74-3,.74-3c3.17-1.39.91-3.62.91-3.62s2.16-.44,1.49-2c-.14-.31-1.65-.94-4-1.76l-28.29,20.17s19.28-7.45,20-2c1,7.89-33.55,27.45-33.55,27.45s46.86-20.08,12.68,1.25c0,0,59.82-16-20.81,30,1.06-.37,2.6-1,4.49-1.75Z" opacity="0.56" fill="url(#j)" style="mix-blend-mode:multiply"/><path d="M112.14,157.06c1.37-.83-.43-18.78.85-19.67s.65-1.89.65-1.89c2.33-.43,2-2.11,2-2.11s5.22-11.17,7.78-17.69-4.62-8.1-4.62-8.1l22.22-20L154,87c5.59,1.74,9.89,3.23,10.12,3.76.67,1.59-1.49,2-1.49,2s2.26,2.23-.91,3.62c0,0,1.33,2.49-.74,3s-.84,2-.84,2L150.3,120.8s-1.73,1.69-.44,1.69c0,0-.68,2.54.94,2.69s.22,1.38.22,1.38,5.74,12.06,6.75,13.32-.85,2.16-.85,2.16,2.74-.44,1.81,1.33a1,1,0,0,1-.18.19l-.38.28-.07,0-.52.33-.11.06-.68.39-.13.07-.85.46-.1.06-1.05.55-1.19.61-.13.07-1.24.62-.22.11-1.32.65-.24.12-1.43.7-.21.1-1.55.75-.21.1-3.46,1.65-.18.08-1.76.83-.24.11-1.81.84-.21.1-1.84.85-.23.11-1.91.87-.08,0c-1.36.63-2.73,1.25-4.09,1.86l-2,.92-.06,0-1.93.86-.15.07-1.88.84-.08,0c-2.6,1.15-5.06,2.23-7.25,3.16l-1.57.66-1.5.62c-1.89.78-3.43,1.39-4.49,1.76C112.39,164.21,111,157.76,112.14,157.06Z" fill="#5b2c2e" opacity="0.28" style="mix-blend-mode:multiply"/><path d="M63.88,92.41S183.67,132,68.2,96c0,0,110.37,42.14.3,1.85,0,0,102.89,42.91-.74,3,0,0,120,52.46.81,2.5,0,0,108.63,54.42,2.24,3.09,0,0,98.58,54.18,1.08,2.16,0,0,93,63.55-1.68.88,0,0,93.71,74.41-.29,2.19,0,0,95.25,93.94.51,2.8,0,0,84.81,102.25,6.31,8.32l31.93,43.57,50.06-23s-104.9,46.47-3-1.34c0,0-93.45,38.16-.69-4.35,0,0-89.53,36.12-2.29-3.48,0,0-86.3,32.36-1.8-5.19,0,0-83.28,29.65-1.37-3.63,0,0-79.11,27,.33-2.89,0,0-72.36,23.45.59-4.56,0,0-66.8,20.82,4.09-5.48,0,0-80,22.21.37-3.53,0,0-72.36,20.28,2.94-4.39,0,0-78.2,24.69,2.31-3.12,0,0-84.15,31.05,1.58-5,0,0-88.76,33.9,1.63-2.38Z" fill="#70328a" opacity="0.28" style="mix-blend-mode:multiply"/><path d="M74.78,94.17,61.26,90.05c-2.73-.83-3-2.57-.57-3.85L74.19,79c3.31-.1,3.1-1,2.69-1.43l16.64-8.82a13.08,13.08,0,0,1,9.11-.68l7.16,2.51,5.11,4.56-3.62-4,6.94,2.44,2.25,4.6.32-3.69,41.78,14.67c2.47.87,2.6,2.54.29,3.77l-2.25,1.19c-3.65,0-3.4.76-2.56,1.36l-21.88,11.61c-1.89-.26-1.92.14-1.32.7l-1.48.78a13.14,13.14,0,0,1-8.82.77l-17.23-5.24L122,102.16l-17.35,1.1L84.47,97.12c2.58-1.71-.15-1-1.67-.5l-5.67-1.73,9.38-2.17Z" fill="url(#k)"/><path d="M157.36,89.63,102.5,70.43a11.72,11.72,0,0,0-8.12.51L65.94,86c-2.09,1.11-1.77,2.66.72,3.42l57.76,17.67a11.84,11.84,0,0,0,7.87-.6L157.83,93C159.83,91.9,159.62,90.43,157.36,89.63Z" fill="#622577" opacity="0.26" style="mix-blend-mode:multiply"/><polygon points="60.64 87.47 64.17 87.21 64.06 85.71 66.65 85.52 66.76 87.02 70.29 86.75 70.37 87.86 66.84 88.12 66.95 89.62 64.36 89.81 64.25 88.31 60.72 88.57 60.64 87.47" fill="#382b61"/><polygon points="123.99 107.04 127.2 106.8 127.1 105.44 129.46 105.26 129.56 106.63 132.77 106.39 132.84 107.39 129.63 107.63 129.73 109 127.38 109.17 127.28 107.81 124.06 108.05 123.99 107.04" fill="#382b61"/><polygon points="154.15 91.08 157.37 90.84 157.26 89.47 159.62 89.3 159.72 90.67 162.94 90.43 163.01 91.43 159.8 91.67 159.9 93.04 157.54 93.21 157.44 91.84 154.23 92.08 154.15 91.08" fill="#382b61"/><polygon points="93.5 70.18 97.03 69.92 96.92 68.42 99.51 68.22 99.62 69.72 103.14 69.46 103.23 70.56 99.7 70.83 99.81 72.33 97.22 72.52 97.11 71.02 93.58 71.28 93.5 70.18" fill="#382b61"/><path d="M81.35,93.36,69,89.56a7.38,7.38,0,0,0,.94-.4c2.28-1.18,2.16-2.8-.26-3.62a7.82,7.82,0,0,0-1.46-.33L93.15,72a4.26,4.26,0,0,0,1.09.55,12.53,12.53,0,0,0,8.51-.63,5.59,5.59,0,0,0,.76-.48L120,77.14l.5,1,.07-.83,34.87,12.19a6.43,6.43,0,0,0-.84.36c-2.08,1.07-2,2.55.24,3.31a7.62,7.62,0,0,0,1.33.3l-23,12.22a4.48,4.48,0,0,0-.93-.45,11.43,11.43,0,0,0-7.77.58,3.64,3.64,0,0,0-.74.48l-10-3.08,8.33-1.09-9.86.63L82.38,93.68l4.13-1Z" fill="url(#l)"/><polygon points="111.95 90.05 115.75 91.89 115.52 89.27 118.31 94.73 111.95 90.05" fill="#382b61"/><polygon points="115.95 94.48 119.75 96.32 119.52 93.7 126.64 103.94 115.95 94.48" fill="#382b61"/><polygon points="113.68 87.23 109.88 85.39 110.1 88.01 107.31 82.56 113.68 87.23" fill="#382b61"/><polygon points="109.68 82.81 105.88 80.97 106.1 83.58 98.99 73.35 109.68 82.81" fill="#382b61"/><path d="M114.54,88.62c.25-.45-.33-.85-1.3-.89a2.62,2.62,0,0,0-2.2.74c-.25.45.33.85,1.29.89A2.64,2.64,0,0,0,114.54,88.62Z" fill="#382b61"/><polygon points="114.97 89.57 121.11 89 115.87 87.94 128.35 89.32 114.97 89.57" fill="#382b61"/><polygon points="126.27 90.07 132.41 89.5 127.17 88.43 151.86 90.35 126.27 90.07" fill="#382b61"/><polygon points="110.66 87.71 104.52 88.28 109.75 89.35 97.27 87.96 110.66 87.71" fill="#382b61"/><polygon points="99.36 87.22 93.22 87.78 98.46 88.85 73.76 86.93 99.36 87.22" fill="#382b61"/><g clip-path="url(#m)"><g opacity="0.46" style="mix-blend-mode:multiply"><path d="M107,88.6a.55.55,0,0,1-.22,0l-.21.13c-.09,0,.38-.06.51,0C106.87,88.73,107,88.65,107,88.6Z" fill="#ab1737"/><path d="M134.35,85.5s-.3,0-.3,0S134.26,85.58,134.35,85.5Z" fill="#ab1737"/><path d="M134.14,85.29c.26-.11,0,0-.09,0l-.21,0,.3-.18.13,0-.13,0c.09-.06.3,0,.43,0s-.09.21-.3.32l.08,0c.35-.18.22-.37.14-.59a1.38,1.38,0,0,0-.51,0c-.48.24-.27.47,0,.66Z" fill="#ab1737"/><polygon points="133.76 85.08 133.84 85.11 134.06 85.02 133.76 85.08" fill="#ab1737"/><path d="M103.41,84c-.16-.19-.72-.15-1.11,0,0,.13-.39.23-.43.36s.73-.06.51.13c-.21-.13-.47.1-.52.22l.22-.13c.3.07.08.19.3.29l.21-.13.3.13C103.11,84.58,103.58,84.33,103.41,84Z" fill="#ab1737"/><path d="M125.64,82.94c.09-.29.52-.55-.29-.7a1.29,1.29,0,0,0-.91.36V83l.08,0,.43.12.09,0,.21.1C125.25,83,125.51,82.87,125.64,82.94Z" fill="#ab1737"/><path d="M103.21,82.92c-.08-.06-.34,0-.51,0-.39.13-.3.3-.31.48.18-.11,0-.16.31-.26l.43,0c-.18.06-.31.17-.14.2C103.21,83.25,103.47,83.06,103.21,82.92Z" fill="#ab1737"/><path d="M129,81.22l-.3,0-.3.21a.22.22,0,0,1,.17-.06l.13,0-.43.17c.21,0,.08.11.13.16v-.12h.17l-.09,0,.43-.1v.38C128.91,81.6,129.22,81.4,129,81.22Z" fill="#ab1737"/><path d="M130.74,70.75c.69-.12.25.21.51.27s-.25-.22.22-.31c.21.05.42.2.21.34.39-.17,0-.56.82-.71,0,.08.34.14.52,0,0-.27.69-.4.82-.67l.21.1c.18-.21,0-.48.1-.72.73.13.09-.4.73-.39-.47-.1-.72-.28-.42-.39a3.85,3.85,0,0,0-2.14-.5c-.51-.08-.6.08-1.24.15l.12,0c-.21,0-.43.15-.64.07a.9.9,0,0,1-.6.34c-.43,0-.87.19-.74.31a.52.52,0,0,1-.3,0c0,.08,0,.15-.22.21-.3.34-.35.7-1.12,1.07l.17-.12.34,0-.73.31c.38-.05.73-.28,1.12-.2s0,.22-.09.34l.21-.13c.34.09-.26.32.08.46a1.31,1.31,0,0,1,1.24.07v.38C129.92,71,130.23,70.81,130.74,70.75Z" fill="#ab1737"/><path d="M125.68,79.58s-.17,0-.3.06c-.3,0-.21-.16-.3-.25l.31-.07c.29.06-.18.16.21.18s0-.27,0-.41c-.6-.06-.64.21-.6.34-.18.18.25.24.38.36C125.42,79.75,125.81,79.67,125.68,79.58Z" fill="#ab1737"/><path d="M124.08,77.1a1.62,1.62,0,0,0-1.11-.24,1.5,1.5,0,0,0-.51.11,1.06,1.06,0,0,0-1.16-.2c-.78.65.46,1.12.93,1.4l.3-.13.21.15C123.64,77.86,124.16,77.51,124.08,77.1Z" fill="#ab1737"/><path d="M112.06,79.37v.08c.09-.12.39-.2.6-.31.13,0,.26.07.22.15l-.09,0c.17,0,0-.28.52-.23l.08.05c-.12-.35.74-.46.61-.77.82-.31-.12-.57-.07-.8-.35,0-.47-.1-.73-.14l-1.76.1a3.52,3.52,0,0,1-.91.35,2.74,2.74,0,0,0-1.23-.39c-1-.08-1.08.32-1.77.46.26.14,0,.35-.22.51l-.17.09c.77-.19.51.29.68.45v.11c.17-.07.13-.2.43-.21v.27a.32.32,0,0,1,.21-.18l.3.07c0-.06.13-.09.22-.13a.56.56,0,0,1,.3.07l.21-.14a1.06,1.06,0,0,0,.73.11l.17.37.21-.12c.17,0,.26.1.22.18l-.09,0,.3-.1.08.27C111.46,79.56,111.59,79.19,112.06,79.37Z" fill="#ab1737"/><path d="M100,78.29l.22.07c.34-.25,1.42-.5,1.34-.93,0-.25-.3-.38-.6-.62a4.66,4.66,0,0,0-2.36.45c.21.18-.39.56-.31.78l-.13,0,.3-.12.42.5C99.16,78.37,99.63,78.37,100,78.29Z" fill="#ab1737"/><polygon points="114.82 77.15 114.91 77.14 114.91 77.03 114.82 77.04 114.82 77.15" fill="#ab1737"/><path d="M117.64,74.8a.58.58,0,0,0-.22.06c.17-.06.56,0,.3.13C117.85,74.93,117.94,74.78,117.64,74.8Z" fill="#ab1737"/><path d="M117.23,73.45l.13,0s.21-.21.51-.15c.69-.45-1.41-.47-.2-.94-.6-.19-.29-.56-1.24-.58a1.73,1.73,0,0,0-1.33.54l-.22.36c.17,0,.25.05.21.1V73c.6-.15.21.21.59.27.65,0,.3.22.82.29l.12.12C116.92,73.65,117,73.51,117.23,73.45Z" fill="#ab1737"/><path d="M103.21,72.81c.13.11.14-.2.43,0,0-.18.52-.18.61-.31l.08,0c-.29-.26,1.08-.27.44-.67.6-.22-.51-.3-.29-.49a4,4,0,0,0-2.06,0c-.69.2-.22.12-1,.39l-.3.14c.68,0-.73.25,0,.34,0,.13-.3.22-.21.36a.62.62,0,0,1,.3-.06c.21.06.08.18.12.26l.3,0,.21.18a.59.59,0,0,1,.31-.07l.08.13C102.78,73,102.74,72.62,103.21,72.81Z" fill="#ab1737"/><polygon points="105.71 72.64 105.62 72.92 105.71 72.75 105.71 72.64" fill="#ab1737"/></g></g><path d="M166.5,38.26l6.15-14.74A5.7,5.7,0,0,0,169.43,16L152.61,9.57c-2.57,1.52-3.21-.17-3.36-1.28L128.52.38a5.7,5.7,0,0,0-7.42,3.44l-2.94,8.44.52,11.2L117.55,14l-2.85,8.18L117.38,32l-3.74-6.75L96.48,74.39a5.69,5.69,0,0,0,3.35,7.2l2.8,1.08c2.75-1.83,3.25-.34,3.19,1.21l27.26,10.41c1.16-1.46,1.56-.72,1.64.63l1.84.7a5.69,5.69,0,0,0,7.29-3.13l7.84-18.77L139,77.7l13.94-6.92,9.17-22c-3.55-1.87-.81-1.91.76-1.81l2.58-6.19-9,.81Z" fill="url(#n)"/><path d="M100.8,72.59,123.41,8.13a5.09,5.09,0,0,1,6.52-3.25l35.44,13.53a5.09,5.09,0,0,1,2.7,6.78L141.85,88.27a5.08,5.08,0,0,1-6.42,3L103.61,79.07A5.07,5.07,0,0,1,100.8,72.59Z" fill="#622577" opacity="0.26" style="mix-blend-mode:multiply"/><polygon points="170.67 18.36 167.8 19.7 166.46 16.83 164.35 17.81 165.69 20.68 162.82 22.02 163.8 24.13 166.67 22.79 168.01 25.66 170.12 24.68 168.78 21.8 171.65 20.46 170.67 18.36" fill="#382b61"/><polygon points="142.1 87.91 139.49 89.13 138.27 86.51 136.35 87.41 137.57 90.02 134.95 91.24 135.85 93.16 138.46 91.94 139.68 94.55 141.6 93.66 140.38 91.04 143 89.82 142.1 87.91" fill="#382b61"/><polygon points="104.56 73.64 101.95 74.85 100.73 72.24 98.81 73.14 100.03 75.75 97.41 76.97 98.31 78.89 100.92 77.67 102.14 80.28 104.06 79.39 102.84 76.77 105.45 75.55 104.56 73.64" fill="#382b61"/><polygon points="129.86 2.99 126.99 4.33 125.65 1.46 123.55 2.44 124.89 5.32 122.02 6.65 123 8.76 125.87 7.42 127.21 10.29 129.31 9.31 127.97 6.44 130.85 5.1 129.86 2.99" fill="#382b61"/><path d="M160.85,40.14l5.62-13.55a5.18,5.18,0,0,1-1.08-.27,5.39,5.39,0,0,1-3.23-6.93,5.23,5.23,0,0,1,.76-1.37L131.8,6.14a5.12,5.12,0,0,1-.29,1.58A5.41,5.41,0,0,1,124.58,11a6.33,6.33,0,0,1-1-.5l-6.79,19.31.6,2.19-.84-1.51L102.15,71.38a4.17,4.17,0,0,1,1,.24A4.93,4.93,0,0,1,106.07,78a4.75,4.75,0,0,1-.7,1.25l28.7,11a5.17,5.17,0,0,1,.27-1.32,4.89,4.89,0,0,1,7.32-2.44l4.55-11L139,77.7l7.92-3.94,13.48-32.5-4,.36Z" fill="url(#o)"/><polygon points="134.97 49.81 133.88 55.23 131.57 50.21 134.66 61.88 134.97 49.81" fill="#382b61"/><polygon points="136.18 60.18 135.1 65.6 132.79 60.58 137.19 83.46 136.18 60.18" fill="#382b61"/><polygon points="131.01 45.43 132.09 40 134.4 45.03 131.31 33.36 131.01 45.43" fill="#382b61"/><polygon points="129.79 35.06 130.88 29.64 133.19 34.66 128.78 11.78 129.79 35.06" fill="#382b61"/><path d="M131.68,48.48a1.62,1.62,0,1,1,2.35.24A1.67,1.67,0,0,1,131.68,48.48Z" fill="#382b61"/><polygon points="132.27 50.48 127.16 52.6 130.05 47.89 122.08 56.95 132.27 50.48" fill="#382b61"/><polygon points="124.34 57.27 119.23 59.39 122.11 54.67 105.57 71.08 124.34 57.27" fill="#382b61"/><polygon points="133.71 44.75 138.81 42.63 135.93 47.35 143.9 38.28 133.71 44.75" fill="#382b61"/><polygon points="141.64 37.97 146.74 35.85 143.86 40.56 160.4 24.16 141.64 37.97" fill="#382b61"/><path d="M128.52.38a5.7,5.7,0,0,0-7.42,3.44L119.82,7.5l32.27,63.69.83-.41,3.86-9.24L136.5,3.42Z" fill="url(#p)" style="mix-blend-mode:screen"/><g clip-path="url(#q)"><g opacity="0.46" style="mix-blend-mode:multiply"><path d="M137.3,44.51c.08,0,.09-.09.14-.15l.28.12c0-.13-.34.1-.34.36C137.49,44.71,137.31,44.61,137.3,44.51Z" fill="#ab1737"/><path d="M114,52.9l0-.06.23-.12C114.3,52.82,114.14,53,114,52.9Z" fill="#ab1737"/><path d="M114,52.39c-.29-.07,0,0,.1,0l.11-.21-.39-.17-.07.11.07-.11c-.13-.09-.26.09-.37.11-.05.25.26.35.53.45l0,.09c-.43-.16-.51-.57-.65-1a.59.59,0,0,1,.33-.36c.58.19.63.73.63,1.22Z" fill="#ab1737"/><polygon points="114.05 51.82 114.01 51.91 113.76 51.85 114.05 51.82" fill="#ab1737"/><path d="M135.6,34.09c-.06-.46.4-.66.79-.67.15.22.5.23.66.45-.07,0-.6.27-.26.51,0-.36.45,0,.59.15l-.27-.12c-.17.27.11.39,0,.69l-.28-.13-.1.4C136.36,35,135.77,34.75,135.6,34.09Z" fill="#ab1737"/><path d="M118.06,43.59c-.34-.5-.92-.77-.45-1.46.35-.25.79,0,1,.2L119,43l-.1,0-.21.44-.1,0-.06.29C118.41,43.53,118.08,43.39,118.06,43.59Z" fill="#ab1737"/><path d="M134.7,31.91c0-.15.26-.17.38-.27.42.05.52.41.69.74-.23-.11-.12-.31-.47-.32l-.27.32c.19,0,.38.15.29.31C135,32.54,134.65,32.31,134.7,31.91Z" fill="#ab1737"/><path d="M114,42.08l.18-.24.42.24c-.06,0-.12-.09-.18,0l-.05.14.47.09c-.14.15,0,.25,0,.35l-.1-.21-.14.07,0-.12-.42,0,.37.71C114.35,42.78,113.93,42.55,114,42.08Z" fill="#ab1737"/><path d="M102.72,23.38c-.63.14,0,.53-.12.78-.25-.06,0-.55-.46-.48a.55.55,0,0,0,.16.75l0,.06c-.47-.17-.53-1.12-1.31-.95a.29.29,0,0,1-.33.36c-.3-.49-.9-.41-1.25-.83l-.06.29a5.85,5.85,0,0,1-.76-1.3c-.41.62-.45-.71-.92-.36.26-.43.28-.89,0-.95a2.58,2.58,0,0,1,1.12-2c.3-.42.52-.16,1.07-.36l-.06.14c.19-.06.46.06.55-.2a.86.86,0,0,0,.76.32c.35-.18.83-.09.85.21.11.05.2,0,.27-.07a.41.41,0,0,0,.35.27c.55.48.93,1.14,1.86,1.43l-.25-.14-.21.26.84.2c-.34.1-.81-.14-1,.19s.25.4.39.59l-.28-.12c-.16.35.5.46.38.9-.67-.11-.79.33-.86.78l.37.72A.9.9,0,0,0,102.72,23.38Z" fill="#ab1737"/><path d="M114.84,37.3c.08.07.18,0,.28,0,.18-.24,0-.42,0-.63l-.28,0c-.17.27.27.2,0,.45-.45,0-.26-.51-.4-.78.39-.42.68.07.77.32.31.26,0,.59.06.88C115.19,37.5,114.83,37.53,114.84,37.3Z" fill="#ab1737"/><path d="M113.68,31.83c0-.44.3-1,.6-1s.37,0,.49-.06a.72.72,0,0,1,.67-1c1.19.82.72,2.34.63,3.1l-.35-.09v.39A2.3,2.3,0,0,1,113.68,31.83Z" fill="#ab1737"/><path d="M124.77,29.85l.07.15c-.17-.18-.47-.18-.74-.27,0,.15-.13.26,0,.39l.1,0c-.16,0-.26-.51-.59-.15l0,.12c-.24-.71-1-.47-1.19-1.12-.89-.15-.44-1.13-.69-1.53.29-.11.25-.43.4-.66l1.41-.72a2.33,2.33,0,0,0,1,.2,2.18,2.18,0,0,1,.56-1.37c.65-.67,1.1,0,1.74-.07,0,.41.33.66.64.84l.21.08c-.75.05-.1.81-.07,1.21l.11.2c-.2,0-.29-.3-.53-.18l.26.51c-.08-.07-.14-.19-.32-.21l-.17.27c0-.14-.18-.1-.28-.12s-.12.18-.16.27l-.29-.15c-.12.28,0,.51-.43.6L126,29l-.28-.12a.37.37,0,0,0,0,.45l.1,0-.32,0,.19.54C125.4,29.9,124.94,29.27,124.77,29.85Z" fill="#ab1737"/><path d="M132.73,21.55l-.09.24c-.49-.28-1.53-.2-1.87-1-.28-.46-.14-.86-.15-1.46a2,2,0,0,1,2.17-.4c0,.44.83.85,1,1.31l.15,0-.35-.08.16,1.16C133.41,21.28,133.07,21.53,132.73,21.55Z" fill="#ab1737"/><rect x="120.49" y="26.92" width="0.08" height="0.23" transform="translate(0.91 57.84) rotate(-27.08)" fill="#ab1737"/><path d="M116.29,24.18a.33.33,0,0,1,.22,0c-.18,0-.38.35-.1.39C116.26,24.53,116.05,24.3,116.29,24.18Z" fill="#ab1737"/><path d="M115.32,21.44l-.07.11c0,.09-.35-.27-.52,0-.94-.49.6-1.62-.74-1.88.26-.66-.31-1.19.37-1.73a1.28,1.28,0,0,1,1.5.32l.51.57a.18.18,0,0,0-.07.3l.16.3c-.59,0,0,.5-.19.81l0-.09c-.48.32,0,.66-.28,1.05v.29C115.73,21.64,115.54,21.44,115.32,21.44Z" fill="#ab1737"/><path d="M125.14,13c0,.26-.29-.3-.38.12-.17-.33-.55-.06-.74-.27l0,.1c0-.63-1,.05-1-1-.66-.11.09-.84-.25-1.08a1.71,1.71,0,0,1,1.51-1.11c.7,0,.28.12,1.08.24l.36.12c-.47.43.78.09.32.63.16.22.44.26.51.56a.31.31,0,0,0-.29,0c-.09.23.12.39.16.56l-.27.06v.45c-.08-.08-.19,0-.29,0l.05.27C125.6,13,125.3,12.36,125.14,13Z" fill="#ab1737"/><polygon points="123.12 13.94 123.45 14.42 123.22 14.15 123.12 13.94" fill="#ab1737"/></g></g><path d="M141.38,5.29l18.39,49.08,1.76-4.21-.65-2.1c-.63-.48-.62-.76-.29-.91l-1.78-5.74-2.4.21,2.23-.74L148.43,8Z" fill="url(#r)" style="mix-blend-mode:screen"/><path d="M110.68,33.72s-14.2,40.67-14.2,40.67a5.69,5.69,0,0,0,3.35,7.2l2.8,1.08c2.75-1.83,3.25-.34,3.19,1.21l27.26,10.41c1.16-1.46,1.56-.72,1.64.63l1.84.7a5.69,5.69,0,0,0,7.29-3.13l7.84-18.77L139,77.7l13.95-6.92,6.45-15.44C125.57,94,110.68,33.72,110.68,33.72Z" opacity="0.56" fill="url(#s)" style="mix-blend-mode:multiply"/><path d="M129,91.18,101.59,21.62A5.71,5.71,0,0,0,94,18.47L83.53,23c.16,1,.32,2.62-.15,2.62a7.59,7.59,0,0,1-2.45-1.5l-.66.28.15,1.47-.87-1.16L68.69,29.35c-.11,2.52-2.5,2.22-4.08,1.75L53.8,35.75a5.69,5.69,0,0,0-2.92,7.64L74.94,95.25l6.61-11.61S78.8,89.93,75.75,97l6.59,14.19A5.7,5.7,0,0,0,89.76,114L101,109.2c-.15-2.3-.26-5.28.2-5.34s2.48,2.43,3.46,3.76l2.87-1.22c-.07-.3-.14-.62-.22-1-.75-3.35,1.65-.65,1.65-.65.12-1.5,1.18-.93,2.25,0l14.69-6.3A5.72,5.72,0,0,0,129,91.18Z" fill="url(#t)"/><path d="M84.29,106.82,55.43,44.91A5.09,5.09,0,0,1,57.83,38L92.63,23a5.1,5.1,0,0,1,6.67,3l25.31,63.44a5.06,5.06,0,0,1-2.52,6.6L90.84,109.5A5.08,5.08,0,0,1,84.29,106.82Z" fill="#622577" opacity="0.26" style="mix-blend-mode:multiply"/><polygon points="96.57 19.3 95.44 22.27 92.48 21.14 91.65 23.31 94.61 24.44 93.48 27.4 95.66 28.23 96.78 25.27 99.74 26.39 100.57 24.22 97.61 23.09 98.74 20.13 96.57 19.3" fill="#382b61"/><polygon points="124.5 89.11 123.47 91.81 120.77 90.78 120.02 92.76 122.72 93.78 121.69 96.48 123.67 97.23 124.69 94.54 127.39 95.56 128.14 93.59 125.45 92.56 126.47 89.86 124.5 89.11" fill="#382b61"/><polygon points="87.61 105.01 86.59 107.71 83.89 106.68 83.14 108.66 85.83 109.68 84.81 112.38 86.79 113.13 87.81 110.44 90.51 111.47 91.26 109.49 88.57 108.46 89.59 105.76 87.61 105.01" fill="#382b61"/><polygon points="56.58 36.69 55.45 39.65 52.49 38.52 51.67 40.7 54.63 41.82 53.5 44.78 55.67 45.61 56.8 42.65 59.76 43.78 60.59 41.61 57.63 40.48 58.75 37.52 56.58 36.69" fill="#382b61"/><path d="M119.58,95.19a4.92,4.92,0,0,1,2.48-6.52,4.71,4.71,0,0,1,1.07-.33L99.29,28.14a6.13,6.13,0,0,1-1,.56A5.41,5.41,0,0,1,91.18,26a5.26,5.26,0,0,1-.4-1.52L60.17,37.6a5.33,5.33,0,0,1-1.83,8.48,5.66,5.66,0,0,1-1.08.35L77.62,90.55l3.93-6.91-3.45,8,6.21,13.47a5.27,5.27,0,0,1,.87-.49,4.94,4.94,0,0,1,6.53,2.48,5,5,0,0,1,.36,1.39l8.84-3.79c0-.47.14-.77.28-.79s.37.13.65.39l18.47-7.93A4.47,4.47,0,0,1,119.58,95.19Z" fill="url(#u)"/><path d="M75.44,53.31s-6.92.52-7.78,2.41S75.44,53.31,75.44,53.31Z" fill="url(#v)"/><path d="M76.4,53.17s-4.73-.86-5.58-2.2S76.4,53.17,76.4,53.17Z" fill="url(#w)"/><path d="M75.44,53.31s-.53,0-1.29.13a13.15,13.15,0,0,1-4.52,2c-3,.89-1.59-.22-1.21-.5a2,2,0,0,0-.76.76C66.8,57.6,75.44,53.31,75.44,53.31Z" fill="#0870b4" opacity="0.24" style="mix-blend-mode:multiply"/><path d="M86.09,44s-6.55-2.15-8.22-1.06S86.09,44,86.09,44Z" fill="url(#x)"/><path d="M86.09,44a39.38,39.38,0,0,0-4.38-1.12c1.65.58,1.78.93-1.16.68s-2.68-.62-2.68-.62C76.2,44,86.09,44,86.09,44Z" fill="#0870b4" opacity="0.24" style="mix-blend-mode:multiply"/><path d="M77.64,41.29S71.77,39.84,70,37.55,77.64,41.29,77.64,41.29Z" fill="url(#y)"/><path d="M70,37.55c1.77,2.29,7.64,3.74,7.64,3.74S75.82,40.13,73.92,39c2.68,1.92,1.45,1.39-1.42-.06C69.81,37.61,70,37.11,70,37.05,69.72,37,69.66,37.13,70,37.55Z" fill="#0870b4" opacity="0.24" style="mix-blend-mode:multiply"/><path d="M69.45,41.87S84.63,37.5,91.55,49s-.63,0-.63,0S86.22,39.21,69.45,41.87Z" fill="#055c55"/><path d="M70.82,51c.85,1.34,5.58,2.2,5.58,2.2s-.91-.5-2-1.05c.18.26,0,.38-.73.14-2.4-.73-2.89-1.57-2.89-1.57S70.72,50.81,70.82,51Z" fill="#0870b4" opacity="0.24" style="mix-blend-mode:multiply"/><path d="M74.92,35s3.7-1.32,10.17,2.35S96.63,50.84,96.63,50.84l-.76-.12s-6.44-10.39-11.3-13.23C80.89,35.34,75.81,34.62,74.92,35Z" fill="#055c55"/><path d="M105.44,79s6.17-5.6,12.86-1a22.4,22.4,0,0,1-12,1s4.82,2,6.41,4.85C112.68,83.87,107.21,83.91,105.44,79Z" fill="#055c55"/><path d="M106.27,79a20.66,20.66,0,0,0,7.13.2c-2.17,0-4.6-.08-3.53-1,1.79-1.46,5.61-1.62,5.73-1.63C110,74.82,105.44,79,105.44,79a7.07,7.07,0,0,0,4.5,4.37c-1.4-.63-2.72-2.15-2.24-2.58s2.83.79,3,.88A20.69,20.69,0,0,0,106.27,79Z" fill="#0870b4" opacity="0.24" style="mix-blend-mode:multiply"/><path d="M67.29,52.1s11.46,4.21,16.82-2.4-.68-.2-.68-.2S80.87,55.12,67.29,52.1Z" fill="#055c55"/><path d="M96.09,44.29s1.56-4.88,2.48-5.13S96.09,44.29,96.09,44.29Z" fill="url(#z)"/><path d="M96.25,42.32S95,36.81,93.79,36.41,93.73,38.92,96.25,42.32Z" fill="url(#aa)"/><path d="M98.47,40.09c-.1.19-1.09,2-1.33,2s.41-1.53.5-1.75a32.11,32.11,0,0,0-1.55,3.94A46.87,46.87,0,0,0,98.47,40.09Z" fill="#0870b4" opacity="0.24" style="mix-blend-mode:multiply"/><path d="M95.08,39.75a10.89,10.89,0,0,1-1.72-2.61,17.5,17.5,0,0,0,2.89,5.18,27.87,27.87,0,0,0-1.51-4.69C94.81,37.82,95.64,40.1,95.08,39.75Z" fill="#0870b4" opacity="0.24" style="mix-blend-mode:multiply"/><path d="M97.91,36.65s-3.88,9.1.86,15.2-1.13-.33-1.13-.33S93.15,45.25,97.91,36.65Z" fill="#055c55"/><path d="M70,41.77a6,6,0,0,1-2.49,1.92c-1.41.44-3-.62-1.7-1.52,0,0-2.44,0-2.21-1s2.34-.52,3.85.07c0,0-1.23-.71-1-1.36S70,40.38,70,41.77Z" fill="url(#ab)"/><path d="M86.32,48.46s-7,2.95-10.28,9.38C76,57.84,86.48,54.49,86.32,48.46Z" fill="#055c55"/><path d="M85.55,49.41s-9.17,5-17.49-1.57c0,0,8,4.42,16.19,1.19Z" fill="#055c55"/><path d="M84.85,49.2l-.6-.17a16.85,16.85,0,0,1-5.43,1.15c1,.15,1.55.34-.3.57-3.6.45-7.94-1.31-8.28-1.46a16.08,16.08,0,0,0,12.53,1.2,24.72,24.72,0,0,0-3.13,2.56c.41-.28,5.32-3.57,4.79-1.43S78,57.06,78,57.06c3-1.31,8.4-4.26,8.28-8.6C86.32,48.46,85.74,48.71,84.85,49.2Z" fill="#0870b4" opacity="0.24" style="mix-blend-mode:multiply"/><path d="M76.07,34.75s-2.91-.54-3.32.85S74.68,36.48,76.07,34.75Z" fill="url(#ac)"/><path d="M80.37,35.49a2.86,2.86,0,0,0-2.24-1.75c-1.58-.1-2,2.33-.63,2.68S80.37,35.49,80.37,35.49Z" fill="url(#ad)"/><path d="M83.23,36.84s-2.41.34-2.47,1.78,4.19,1.32,5-1-1.37-4.41-2.25-3.73S83.23,36.84,83.23,36.84Z" fill="url(#ae)"/><path d="M87.66,39.38s-3.59-.32-3.48,1.79,4.3,1.11,5.38-.45,1.1-3.58-.69-4.41S87.66,39.38,87.66,39.38Z" fill="url(#af)"/><path d="M91,42.9s-3-1.08-3.58.23,2.54,2.7,4.84,1.42,2.31-3.47,1.36-4.68S91.13,40.14,91,42.9Z" fill="url(#ag)"/><path d="M94.74,48.09S91.6,46.63,91,48.7s3.36,3.24,5.43,1.69,2-3.91.48-4.67S94.74,48.09,94.74,48.09Z" fill="url(#ah)"/><path d="M76.07,34.75a8.43,8.43,0,0,0-1-.1s.82.32-1,1.14S73,35.26,73,35.2a1.05,1.05,0,0,0-.23.4C72.34,37,74.68,36.48,76.07,34.75Z" fill="#0870b4" opacity="0.24" style="mix-blend-mode:multiply"/><path d="M94.74,48.09s-.52,1.56.48,1.61,2.08-1.28,2-2.71S95.61,45.18,94.74,48.09Z" fill="url(#ai)" style="mix-blend-mode:screen"/><path d="M77.5,36.42c1.36.34,2.87-.93,2.87-.93a3.28,3.28,0,0,0-1-1.29c.22.42.55,1.37-1,1.67-2,.36-1.54-1.21-1.51-1.33A1.3,1.3,0,0,0,77.5,36.42Z" fill="#0870b4" opacity="0.24" style="mix-blend-mode:multiply"/><path d="M80.76,38.62c-.05,1.44,4.19,1.32,5-1A3.24,3.24,0,0,0,85,34.32c.9,2.44-.19,4.76-2.47,4.82s-1.42-1.36-1.41-1.38A1.33,1.33,0,0,0,80.76,38.62Z" fill="#0870b4" opacity="0.24" style="mix-blend-mode:multiply"/><path d="M84.18,41.17c.11,2.12,4.3,1.11,5.38-.45.9-1.3,1-2.92,0-3.91a3.41,3.41,0,0,1-3.68,4.66c-2.14-.36-1-1.6-1-1.64A1.38,1.38,0,0,0,84.18,41.17Z" fill="#0870b4" opacity="0.24" style="mix-blend-mode:multiply"/><path d="M87.4,43.13c-.54,1.32,2.54,2.7,4.84,1.42s2.31-3.47,1.36-4.68a1.36,1.36,0,0,0-.24-.24,3,3,0,0,1,.29,2.51c-.51,2-3.9,2.89-5.2,2a.91.91,0,0,1,0-1.67A1.2,1.2,0,0,0,87.4,43.13Z" fill="#0870b4" opacity="0.24" style="mix-blend-mode:multiply"/><path d="M91,48.7a2.33,2.33,0,0,0-.06.35c.26.45.61,1,1,1.53a4.42,4.42,0,0,0,4.5-.19c1.81-1.36,2-3.34,1-4.32a2.77,2.77,0,0,1-1.54,3.6c-3.16.85-2-1.88-2-1.88C92.9,47.51,91.39,47.33,91,48.7Z" fill="#0870b4" opacity="0.24" style="mix-blend-mode:multiply"/><path d="M96.88,36.15A3.23,3.23,0,0,1,97,33.31c.78-1.54,2.88-.2,1.64,1.91,0,0,2-1.25,2.47-.45s-1.5,1.75-1.5,1.75,1.5.43.85,1S97.7,38,96.88,36.15Z" fill="url(#aj)"/><path d="M91.17,45.41c-1.22.34-1,1.83-.74,2.75.08.23.17.47.26.7l-.94-1.11-1.47-1.69A3.18,3.18,0,0,0,86.76,45a.38.38,0,0,0-.4.15,1.6,1.6,0,0,0-.15,1.51c-.3-.3-.6-.61-.89-.92A15,15,0,0,0,83.57,44a1.26,1.26,0,0,0-1.6-.11.33.33,0,0,0-.1.34,7.84,7.84,0,0,0,1,1.88,14.42,14.42,0,0,0-4.09-1.48.36.36,0,0,0-.41.51,4.94,4.94,0,0,0,.51.75l-1.12-.32a9,9,0,0,0-2-.42,1.18,1.18,0,0,0-1.14.49c-.58,1,1,1.62,1.69,1.88a19.14,19.14,0,0,0,3.66,1,20.37,20.37,0,0,0,2.34.23,14.33,14.33,0,0,0-1.91.87c-.44.24-.89.69-.6,1.22a1.4,1.4,0,0,0,1.26.54,7.83,7.83,0,0,0,3.28-.85.33.33,0,0,0,.17.14,10.06,10.06,0,0,0,2.76.48.81.81,0,0,0,.39,1,3.72,3.72,0,0,0,1,.39l-.08,0a1.09,1.09,0,0,0-.15,1.9,5.14,5.14,0,0,0,2.88.73h.08c-.22.69.51,1.36,1.08,1.61a6,6,0,0,0,4.73-.37.91.91,0,0,0,.18.37,2.24,2.24,0,0,0,1.59.55,14.42,14.42,0,0,0,2.18,0c1-.08,2.73-.95,2.8-2.31.05-1-1-.83-1.85-.67-.44-.94-1.14-2-2.16-1.78a1.17,1.17,0,0,0-.26.1,3.18,3.18,0,0,0-2.61-2.28.29.29,0,0,0-.31.22,7.48,7.48,0,0,0-1.91-2c-.24-.17-.5.06-.54.3s0,.34,0,.52c-.3-.6-.61-1.2-.92-1.8C93,46.78,92.39,45.07,91.17,45.41Z" fill="url(#ak)"/><path d="M65.85,42.17c-1.29.9.29,2,1.7,1.52A6,6,0,0,0,70,41.77c0-.66-.79-1.26-1.59-1.64.71.44,1.32,1,1,1.48-.67,1-3.62,2-3.81,1.33S66.7,41.8,66.7,41.8c-3.51-.09-2.87-.86-2.78-1a.63.63,0,0,0-.28.38C63.41,42.19,65.85,42.17,65.85,42.17Z" opacity="0.3" fill="url(#al)" style="mix-blend-mode:multiply"/><path d="M98.6,35.22a2,2,0,0,0,.27-1.84c.14.6-.49,3.1-1.63,2.4a1.61,1.61,0,0,1-.49-1.9,3.27,3.27,0,0,0,.13,2.27c.82,1.8,2.9,2,3.54,1.4s-.85-1-.85-1a5.6,5.6,0,0,0,.85-.52s-2.22,1.21-2.39.46S99.09,35,99.1,35C98.81,35.09,98.6,35.22,98.6,35.22Z" opacity="0.3" fill="url(#am)" style="mix-blend-mode:multiply"/><path d="M76.31,47.49a19.14,19.14,0,0,0,3.66,1,20.15,20.15,0,0,0,2.34.23c.6-.29,1.08-.49,1.08-.49-9.24-.66-8.86-2.37-8.85-2.39C74.23,46.72,75.66,47.25,76.31,47.49Z" fill="#0870b4" opacity="0.24" style="mix-blend-mode:multiply"/><path d="M82.6,43.9c.54-.77,3.91,3.4,3.91,3.4s-.31-2.31.85-1.66,3.83,4.29,3.83,4.29-.69-3.41.06-4.06,3.64,4.67,3.64,4.67-.59-1.41.16-1.44S97,51.5,97,51.5s0-.88.74-.72,1.8,2.48,1.8,2.48c.45-1.89,2.18,1.45,2.18,1.45,2.33-.25,1.17,1.8.07,2.11s-.61-1.21-.61-1.21-1.77,1.55-3,1.19-.34-1.7-.34-1.7-4.79,2.38-5.94,1,1.44-2.14,1.44-2.14-4.51,1-5-.38c-.39-1.24,1.62-.8,2.14-.67C86,51.74,87.81,51,87.81,51c-4.78-.35-3.44-1.35-2.76-1.71-1,.49-4.57,2.1-5,1.35-.32-.56,1.12-1.38,2.21-1.91a13.6,13.6,0,0,0-1.86.85c-.44.24-.89.69-.6,1.22a1.4,1.4,0,0,0,1.26.54,7.83,7.83,0,0,0,3.28-.85.33.33,0,0,0,.17.14,10.06,10.06,0,0,0,2.76.48.81.81,0,0,0,.39,1,3.72,3.72,0,0,0,1,.39l-.08,0a1.09,1.09,0,0,0-.15,1.9,5.14,5.14,0,0,0,2.88.73h.08c-.22.69.51,1.36,1.08,1.61a6,6,0,0,0,4.73-.37.91.91,0,0,0,.18.37,2.24,2.24,0,0,0,1.59.55,14.42,14.42,0,0,0,2.18,0c1-.08,2.73-.95,2.8-2.31.05-1-1-.83-1.85-.67-.44-.94-1.14-2-2.16-1.78a1.17,1.17,0,0,0-.26.1,3.18,3.18,0,0,0-2.61-2.28.29.29,0,0,0-.31.22,7.48,7.48,0,0,0-1.91-2c-.24-.17-.5.06-.54.3s0,.34,0,.52c-.3-.6-.61-1.2-.92-1.8-.41-.8-1-2.51-2.2-2.17s-1,1.83-.74,2.75c.08.23.17.47.26.7l-.94-1.11-1.47-1.69A3.18,3.18,0,0,0,86.76,45a.38.38,0,0,0-.4.15,1.6,1.6,0,0,0-.15,1.51c-.3-.3-.6-.61-.89-.92A15,15,0,0,0,83.57,44a1.26,1.26,0,0,0-1.6-.11.33.33,0,0,0-.1.34,7.84,7.84,0,0,0,1,1.88,16.69,16.69,0,0,0-2.46-1A20,20,0,0,1,83.65,47S82.06,44.68,82.6,43.9Z" fill="#0870b4" opacity="0.24" style="mix-blend-mode:multiply"/><path d="M79.88,46.83a26.88,26.88,0,0,1,11.93,4.53,28.22,28.22,0,0,0,11.72,4.7l.76-.8S96.5,54.18,92.43,51,81.6,46.65,79.88,46.83Z" fill="#0870b4" opacity="0.24" style="mix-blend-mode:multiply"/><path d="M78.77,44.6a.36.36,0,0,0-.41.51,4.94,4.94,0,0,0,.51.75l-1.12-.32a9,9,0,0,0-2-.42,1.18,1.18,0,0,0-1.14.49,1,1,0,0,0-.08.19c0,.15.06.7,1.75,1.27,0,0,9.41,1.72,6.6.3,0,0,1.14-.07-.66-1.36a9.72,9.72,0,0,0-1.41-.84A13,13,0,0,0,78.77,44.6Z" fill="url(#an)" style="mix-blend-mode:screen"/><path d="M91.27,41.24s-.55,2,.56,2S93.45,40,93,39.75,91.8,39.65,91.27,41.24Z" fill="url(#ao)" style="mix-blend-mode:screen"/><path d="M87.59,37.67s0,2,.83,2.19,1.2-2.43.58-3S87.54,36.16,87.59,37.67Z" fill="url(#ap)" style="mix-blend-mode:screen"/><path d="M83,35.27A2.73,2.73,0,0,0,83.72,37c.65.56,1.45-1.56,1-2.32S83,33.37,83,35.27Z" fill="url(#aq)" style="mix-blend-mode:screen"/><path d="M76.94,34.35s-.63,1.38.83,1.28S78.41,32.71,76.94,34.35Z" fill="url(#ar)" style="mix-blend-mode:screen"/><ellipse cx="91.68" cy="68.3" rx="19.57" ry="18.75" transform="translate(-19.13 40.17) rotate(-22.44)" fill="url(#as)"/><path d="M77.22,81.34s1.34-14.25,12.12-18.7,21.79,4.69,21.79,4.69S102.48,93.7,77.22,81.34Z" opacity="0.56" fill="url(#at)" style="mix-blend-mode:multiply"/><path d="M88.29,71.85s-2.23-9.7-13-3.42C75.33,68.43,79.28,83.3,88.29,71.85Z" opacity="0.56" fill="url(#au)" style="mix-blend-mode:multiply"/><g clip-path="url(#av)"><path d="M88.29,71.85s-3.16-7.36-13-3.42C75.33,68.43,78.58,81.41,88.29,71.85Z" fill="url(#aw)"/><path d="M86.92,67.19A5,5,0,0,1,85.6,74.1a5,5,0,0,1-7-1.06,5,5,0,0,1,1.32-6.91A5,5,0,0,1,86.92,67.19Z" fill="url(#ax)"/><path d="M86.46,67.51a4.48,4.48,0,0,1-1.08,6.28,4.56,4.56,0,0,1-6.33-1.07,4.49,4.49,0,0,1,1.08-6.29A4.57,4.57,0,0,1,86.46,67.51Z" fill="url(#ay)"/><path d="M85.37,68.28a3.17,3.17,0,0,1-.76,4.43A3.23,3.23,0,0,1,80.14,72a3.17,3.17,0,0,1,.76-4.43A3.23,3.23,0,0,1,85.37,68.28Z" fill="url(#az)"/><path d="M75.12,71.57s5.19-5.86,13.17.28-2.76-12.18-2.76-12.18-11.7,4.08-12.18,4.91S75.12,71.57,75.12,71.57Z" opacity="0.56" fill="url(#ba)" style="mix-blend-mode:multiply"/><path d="M79.16,69.57c-.58-.32.72-1.21.86-.83S80,70,79.16,69.57Z" fill="#fff"/></g><path d="M96.72,68.37s-5.27-8.45,6.77-11.57C103.49,56.8,111.18,70.13,96.72,68.37Z" opacity="0.56" fill="url(#bb)" style="mix-blend-mode:multiply"/><g clip-path="url(#bc)"><path d="M96.72,68.37s-3-7.44,6.77-11.57C103.49,56.8,110.34,68.29,96.72,68.37Z" fill="url(#bd)"/><path d="M94.4,64.1a5,5,0,0,0,5.81,4,5,5,0,0,0,4.21-5.7,4.94,4.94,0,0,0-5.81-4A5,5,0,0,0,94.4,64.1Z" fill="url(#be)"/><path d="M95,64a4.49,4.49,0,0,0,5.2,3.69,4.56,4.56,0,0,0,3.72-5.23,4.48,4.48,0,0,0-5.2-3.69A4.55,4.55,0,0,0,95,64Z" fill="url(#bf)"/><path d="M96.27,63.78a3.15,3.15,0,0,0,3.66,2.6,3.21,3.21,0,0,0,2.62-3.69,3.16,3.16,0,0,0-3.66-2.6A3.21,3.21,0,0,0,96.27,63.78Z" fill="url(#bg)"/><path d="M105.84,58.88s-7.8-.49-9.12,9.49-6.65-10.58-6.65-10.58,11.17-5.36,12.1-5.11S105.84,58.88,105.84,58.88Z" opacity="0.56" fill="url(#bh)" style="mix-blend-mode:multiply"/><path d="M101.57,60.31c.2-.63-1.36-.35-1.19,0S101.28,61.26,101.57,60.31Z" fill="#fff"/></g><path d="M106.75,55.93a19.84,19.84,0,0,1,1,2.07A19,19,0,0,1,72.6,72.53a17.77,17.77,0,0,0,1,3.24c4,9.57,15.25,14,25.24,9.86s14.88-15.23,10.93-24.8A18.22,18.22,0,0,0,106.75,55.93Z" opacity="0.56" fill="url(#bi)" style="mix-blend-mode:multiply"/><path d="M96.37,53c1.17,2.82-2.19,6.9-7.51,9.09s-10.57,1.69-11.74-1.14,2.19-6.9,7.51-9.1S95.21,50.14,96.37,53Z" fill="url(#bj)" style="mix-blend-mode:screen"/><path d="M76.05,64.32c-3.2-.53,3.17-8.64,6.63-7.77S84.63,65.74,76.05,64.32Z" fill="#694595" opacity="0.2" style="mix-blend-mode:multiply"/><path d="M89.12,60c-3,1.42-3.58-2.22-1.28-3.47S90.42,59.35,89.12,60Z" fill="#694595" opacity="0.2" style="mix-blend-mode:multiply"/><path d="M97.06,74.15c-2.41,2.06-2-3.24.1-3.52S99.57,72,97.06,74.15Z" fill="#694595" opacity="0.2" style="mix-blend-mode:multiply"/><path d="M102,74.78c-2.92,1.26-2.33-3.68.93-4.74S105.81,73.12,102,74.78Z" fill="#694595" opacity="0.2" style="mix-blend-mode:multiply"/><path d="M85.91,81.05c-.57-4.39,5.8-7,7.41-5.21S86.71,87.08,85.91,81.05Z" fill="#694595" opacity="0.2" style="mix-blend-mode:multiply"/><path d="M80.33,77.2c-1-1.24-4.46-.74-5.53,1a17.91,17.91,0,0,0,3.21,4C79.83,81.3,81.25,78.28,80.33,77.2Z" fill="#694595" opacity="0.2" style="mix-blend-mode:multiply"/><path d="M72.31,67.18a18,18,0,0,0,.59,6.55C74.16,72.43,73.75,67.86,72.31,67.18Z" fill="#694595" opacity="0.2" style="mix-blend-mode:multiply"/><path d="M96.76,54.43c1.55-.22,2.64-2,2.65-3.66a19.75,19.75,0,0,0-6.54-1.33C92.26,51.42,94.19,54.81,96.76,54.43Z" fill="#694595" opacity="0.2" style="mix-blend-mode:multiply"/><path d="M109.53,60.29c-1.93,1.61-3.69,5.7-2,7.38,1.11,1.09,2.5.64,3.56-.53a18,18,0,0,0-1.35-6.31Z" fill="#694595" opacity="0.2" style="mix-blend-mode:multiply"/><path d="M100.69,79.9c-.28,1.66.28,3.42,1.77,3.79A20.2,20.2,0,0,0,108,78.16C105.6,77.43,101.05,77.8,100.69,79.9Z" fill="#694595" opacity="0.2" style="mix-blend-mode:multiply"/><path d="M94.71,85c2.67-.86,2.9-4.67.68-4.12S92.29,85.74,94.71,85Z" fill="#694595" opacity="0.2" style="mix-blend-mode:multiply"/><path d="M101.19,93.73s-1.22-10,4.11-12.81c0,0,5.43-5.48,9.64,6.77a26.92,26.92,0,0,0-6.22-4.93s1.89.88,2.06,6,2.84,6.12,2.84,6.12-5.29-2.39-6.23-7.53S106,81.89,106,81.89,108.2,87,101.19,93.73Z" fill="#055c55"/><path d="M106.51,78.27a4.82,4.82,0,0,1,4.87-2.77s-2.09,5.37-6.08,5.42a14.92,14.92,0,0,1,2-10.23S107.72,75.61,106.51,78.27Z" fill="#055c55"/><path d="M99.42,82.4a5,5,0,0,0-1.16-1.26c-.62-.47-1.63-1.32-2.46-1.13A1.36,1.36,0,0,0,95,81.82c.05.14.12.27.18.4a10.56,10.56,0,0,0-1-.48c-.78-.34-2.21-.88-3-.26s-.09,1.81.36,2.42c.09.12.19.24.29.35l-.06,0a4.68,4.68,0,0,0-2.73-1c-1,.16-.92.92-.44,1.75l-.55-.32c-.51-.3-1-.65-1.55-.91a.93.93,0,0,0-1-.07c-.92.53-.15,1.5.87,2.33a14.2,14.2,0,0,0-3.54-.77c-1.36-.1-2.92.66-2.46,2.27s2.51,2,4,2.11a9,9,0,0,0,2.26,0,3.77,3.77,0,0,0-.56.93,1.15,1.15,0,0,0,1.11,1.54,3.11,3.11,0,0,0,2-.93,2.64,2.64,0,0,0,1.24,2.27c1.6.93,2.76-.32,3.54-1.72.2.69.6,1.23,1.4,1.06,1-.21,1.53-1.34,1.87-2.42a1.05,1.05,0,0,0,.23.29,1.25,1.25,0,0,0,1.41.21,2.23,2.23,0,0,0,1-2.23,1.25,1.25,0,0,0,.36.28,1.22,1.22,0,0,0,1.38-.21c.79-.74.43-1.59.06-2.42a1.7,1.7,0,0,0,1.92-1c.39-1.14-.78-1.51-1.79-1.63a1.92,1.92,0,0,0-.5-1.8C100.71,81.23,100,81.77,99.42,82.4Z" fill="url(#bk)"/><path d="M105.75,79.19a12.5,12.5,0,0,1-.22-4,13.27,13.27,0,0,0-.23,5.74,6.7,6.7,0,0,0-2.69,2.84,4.85,4.85,0,0,0-.76-.14,1.92,1.92,0,0,0-.5-1.8c-.64-.59-1.39,0-1.92.57a5.33,5.33,0,0,0-1.17-1.25c-.62-.47-1.63-1.32-2.46-1.13A1.36,1.36,0,0,0,95,81.82c.05.14.12.27.18.4a10.56,10.56,0,0,0-1-.48c-.78-.34-2.21-.88-3-.26s-.09,1.81.36,2.42c.09.12.19.24.29.35l-.06,0a4.68,4.68,0,0,0-2.73-1c-1,.16-.92.92-.44,1.75l-.55-.32-.42-.26a12.48,12.48,0,0,1,1.47,1.23s-.85-1.59-.26-2.08S92.71,85,92.71,85s-2.15-3.43-1.09-3.61,4.12,1.37,4.12,1.37-.93-3.4.64-2.6A7.94,7.94,0,0,1,99.08,83l.14-.07c.46-.25,2-1,2.08-.42s-1,1.37-1,1.37a8.26,8.26,0,0,1,1.93.85c.25.19.39.38.3.57a.77.77,0,0,1-.63.35,4.61,4.61,0,0,1-1.45-.09,5.5,5.5,0,0,1,1,1.68.7.7,0,0,1-.13.78l0,.06c-.87.59-2.74-1-2.74-1a10.53,10.53,0,0,1,.18,2.42c0,.46-.19.8-.49.8-.94,0-1.44-1.12-1.44-1.12,0,1.42-1.34,3.23-2,2.93s-1.2-2.45-1.2-2.45-2.22,3.87-3.26,3,.06-4.18.06-4.18S87.77,92,87,91.15s.68-3,.68-3c-5.89,1.84-7-.28-7.22-.76a.77.77,0,0,0,0,.15c.47,1.69,2.51,2,4,2.11a9,9,0,0,0,2.26,0,3.77,3.77,0,0,0-.56.93,1.15,1.15,0,0,0,1.11,1.54,3.11,3.11,0,0,0,2-.93,2.64,2.64,0,0,0,1.24,2.27c1.6.93,2.76-.32,3.54-1.72.2.69.6,1.23,1.4,1.06,1-.21,1.53-1.34,1.87-2.42a1.05,1.05,0,0,0,.23.29,1.25,1.25,0,0,0,1.41.21,1.55,1.55,0,0,0,.67-.62,3.26,3.26,0,0,0,.33-1.61,1.25,1.25,0,0,0,.36.28,1.2,1.2,0,0,0,.91,0c0,.53-.09,1-.1,1.53a44.68,44.68,0,0,1,4-6.64c1.52-1.7.88,2.91-.63,5.9,2.87-4.66,1.55-7.82,1.55-7.82s.4.34,1.35,5.48a8,8,0,0,0,.33,1.21c-.09-.56-.78-5-.48-6.1s3.32,2.62,3.52,5.9c-.24-4.35-1.73-5.43-2-5.59a23.36,23.36,0,0,1,4.27,3s-2.88-3-4.36-4.3,1-1.85,4.25,1.64c-1.59-2.61-3.2-3.41-4.53-3.47a10.5,10.5,0,0,0,2.48-3.15,11.84,11.84,0,0,1-3.63,3.27,2.6,2.6,0,0,1-.47.16,1.83,1.83,0,0,1-.73.06,10,10,0,0,1,2.44-3.92,4.66,4.66,0,0,0-2,2.14,13.46,13.46,0,0,0,.85-4.72A16.48,16.48,0,0,1,105.75,79.19Z" fill="#0870b4" opacity="0.24" style="mix-blend-mode:multiply"/><path d="M101.81,82.59c-6.21,3.18-17.37,5.29-17.37,5.29a124.09,124.09,0,0,0,18.17-4.12,4.85,4.85,0,0,0-.76-.14A2,2,0,0,0,101.81,82.59Z" fill="#0870b4" opacity="0.24" style="mix-blend-mode:multiply"/><path d="M103.82,96.2c.18.44.09.88-.19,1s-.66-.14-.84-.58-.09-.89.19-1S103.64,95.76,103.82,96.2Z" fill="#382b61"/><polygon points="104.1 95.16 106.86 94.96 104.74 96.75 109.96 93.69 104.1 95.16" fill="#382b61"/><polygon points="108.93 93.18 111.69 92.98 109.58 94.77 120.02 89.57 108.93 93.18" fill="#382b61"/><polygon points="102.51 97.66 99.75 97.86 101.86 96.07 96.65 99.13 102.51 97.66" fill="#382b61"/><polygon points="97.68 99.64 94.92 99.84 97.03 98.05 86.59 103.25 97.68 99.64" fill="#382b61"/><g clip-path="url(#bl)"><g opacity="0.46" style="mix-blend-mode:multiply"><path d="M77.75,83.33c-.06,0,0,.11,0,.2l-.3.06c0,.11.22-.28.07-.49C77.48,83.27,77.68,83.25,77.75,83.33Z" fill="#ab1737"/><path d="M92.12,63.15l.06,0-.13.24C91.91,63.39,91.93,63.14,92.12,63.15Z" fill="#ab1737"/><path d="M92.44,63.54c.29-.11,0,0-.1,0l0,.24.42-.08v0c.16,0,.16-.22.24-.31-.1-.23-.42-.14-.68-.06l0-.1c.44-.12.74.18,1.12.47a.61.61,0,0,1-.07.48c-.58.17-.94-.24-1.21-.65Z" fill="#ab1737"/><polygon points="92.69 64.07 92.67 63.97 92.91 63.88 92.69 64.07" fill="#ab1737"/><path d="M85.08,90.92c.32.34,0,.77-.26,1-.25-.09-.55.1-.8,0,0-.07.34-.56-.08-.56.18.31-.35.29-.57.21l.3-.06c0-.31-.32-.25-.44-.53l.3-.06-.14-.38C84,90.62,84.57,90.47,85.08,90.92Z" fill="#ab1737"/><path d="M94.08,73.11c.57.22,1.19.11,1.2,1-.14.4-.65.44-.94.41l-.71-.38.1,0-.09-.49.1,0-.12-.28C93.83,73.37,94.18,73.29,94.08,73.11Z" fill="#ab1737"/><path d="M87.06,92.2c.08.13-.11.28-.16.43-.37.2-.66,0-1-.22.25,0,.28.2.57,0l0-.42c-.16.09-.39.1-.41-.08C86.44,91.86,86.88,91.83,87.06,92.2Z" fill="#ab1737"/><path d="M98.32,72v.3l-.48,0c.07,0,.15,0,.16-.09l0-.15-.45.2c0-.2-.16-.18-.24-.26l.21.11.07-.14.06.12.33-.26-.71-.38C97.59,71.67,98.07,71.62,98.32,72Z" fill="#ab1737"/><path d="M118.2,81c.44-.46-.3-.42-.34-.7.24-.09.33.44.65.13a.55.55,0,0,0-.56-.52l0,0c.48-.13,1.07.62,1.61,0a.28.28,0,0,1,.07-.48c.52.23,1-.18,1.5,0l-.12-.28a6.49,6.49,0,0,1,1.37.64c0-.75.77.33,1-.23,0,.5.28.89.58.75a2.6,2.6,0,0,1,.24,2.31c0,.52-.34.43-.67.91l0-.15c-.12.15-.42.21-.33.48a.88.88,0,0,0-.82.17c-.18.34-.63.54-.81.31-.13,0-.15.14-.19.21a.41.41,0,0,0-.44,0,4.76,4.76,0,0,0-2.34-.11l.28,0,0-.33-.81.31c.22-.28.75-.34.74-.75s-.43-.18-.66-.26l.3-.06c-.06-.38-.67-.1-.82-.53.61-.28.46-.71.26-1.12l-.71-.38A.88.88,0,0,0,118.2,81Z" fill="#ab1737"/><path d="M100.31,76.44c-.1,0-.16.09-.21.19,0,.3.23.35.37.51l.22-.19c0-.32-.34,0-.26-.36.34-.29.5.27.76.41-.07.57-.59.34-.81.18-.4,0-.37-.46-.55-.69C99.91,76.49,100.19,76.25,100.31,76.44Z" fill="#ab1737"/><path d="M104.38,80.28c.26.36.33,1,.09,1.18,0,.24-.28.24-.37.33a.71.71,0,0,1,0,1.18c-1.45,0-1.92-1.51-2.28-2.18l.33-.13-.21-.33A2.31,2.31,0,0,1,104.38,80.28Z" fill="#ab1737"/><path d="M96.4,88.23l-.14-.08c.24,0,.48-.13.75-.21,0-.15,0-.28-.2-.32l-.1,0c.13-.1.5.27.58-.22l-.06-.11c.6.45,1.08-.17,1.62.25.81-.39,1,.67,1.44.86-.18.25,0,.5,0,.77l-.74,1.39a2.53,2.53,0,0,0-1,.41A2.09,2.09,0,0,1,99,92.44c-.15.93-.92.6-1.39,1-.19-.36-.65-.35-1-.32l-.22,0c.59-.46-.37-.72-.62-1l-.21-.11c.19-.07.41.09.54-.15l-.51-.27a.48.48,0,0,0,.39,0l0-.32c.1.1.2,0,.3,0s0-.22,0-.32l.32,0c-.06-.29-.25-.44,0-.73l-.64-.52.3,0a.36.36,0,0,0-.26-.36l-.1,0,.27-.16-.46-.33C95.85,88.55,96.59,88.81,96.4,88.23Z" fill="#ab1737"/><path d="M94.58,99.58l0-.25c.55,0,1.36-.71,2.12-.21.5.22.62.63,1,1.12-.22,1-.78,1.24-1.56,1.57-.26-.36-1.17-.23-1.54-.52l-.15,0,.34-.12-.8-.86C94.18,100.2,94.32,99.79,94.58,99.58Z" fill="#ab1737"/><rect x="101.45" y="88.01" width="0.08" height="0.23" transform="translate(-24.06 136.1) rotate(-61.88)" fill="#ab1737"/><path d="M106.6,88.06a.34.34,0,0,1-.18.12c.16-.09.12-.5-.14-.38C106.42,87.75,106.73,87.82,106.6,88.06Z" fill="#ab1737"/><path d="M109,89.76v-.14c-.09,0,.45,0,.43-.29,1.05-.13.43,1.67,1.68,1.12.16.69.93.8.68,1.63a1.29,1.29,0,0,1-1.42.59l-.74-.17a.18.18,0,0,0-.12-.29l-.29-.15c.46-.37-.32-.4-.31-.78l.09,0c.22-.54-.4-.52-.36-1l-.18-.23C108.5,89.82,108.78,89.88,109,89.76Z" fill="#ab1737"/><path d="M105.72,102.31c-.15-.22.41.08.24-.31.32.17.48-.27.76-.21l0-.1c.38.51.84-.64,1.37.29.6-.28.4.75.81.75a1.69,1.69,0,0,1-.6,1.77c-.59.39-.3.06-1,.42l-.37.11c.15-.62-.69.37-.62-.33-.25-.1-.51,0-.74-.18a.31.31,0,0,0,.22-.19c-.06-.25-.32-.26-.45-.37l.19-.21-.27-.36c.11,0,.17-.09.22-.19l-.2-.19C105.3,102.52,105.93,102.9,105.72,102.31Z" fill="#ab1737"/><polygon points="106.82 100.36 106.28 100.16 106.61 100.25 106.82 100.36" fill="#ab1737"/></g></g><path d="M83.53,23c.16,1,.32,2.62-.15,2.62a7.59,7.59,0,0,1-2.45-1.5l-.66.28.15,1.47-.87-1.16-5.9,2.54L60,63.12l5.43,11.7L91.22,19.68Z" fill="url(#bm)" style="mix-blend-mode:screen"/><path d="M95.24,18.11l-28,60.42.14.31L98.62,18.52A5.65,5.65,0,0,0,95.24,18.11Z" fill="url(#bn)" style="mix-blend-mode:screen"/></g></svg>