<svg xmlns="http://www.w3.org/2000/svg" xmlns:xlink="http://www.w3.org/1999/xlink" viewBox="0 0 73.96 198.82"><defs><linearGradient id="a" x1="32.06" y1="181.65" x2="46.51" y2="196.1" gradientUnits="userSpaceOnUse"><stop offset="0" stop-color="#62b66b"/><stop offset="0.18" stop-color="#4eae6a"/><stop offset="0.73" stop-color="#169766"/><stop offset="1" stop-color="#008e64"/></linearGradient><linearGradient id="b" x1="30.85" y1="182.4" x2="41.8" y2="192.78" gradientUnits="userSpaceOnUse"><stop offset="0" stop-color="#62b66b"/><stop offset="0.08" stop-color="#56a05e"/><stop offset="0.32" stop-color="#38683d"/><stop offset="0.53" stop-color="#203c23"/><stop offset="0.73" stop-color="#0f1c11"/><stop offset="0.89" stop-color="#050805"/><stop offset="1" stop-color="#010101"/></linearGradient><linearGradient id="c" x1="28.4" y1="174.41" x2="40.81" y2="186.82" gradientUnits="userSpaceOnUse"><stop offset="0" stop-color="#70bc7e"/><stop offset="0.49" stop-color="#395f40"/><stop offset="1" stop-color="#010101"/></linearGradient><linearGradient id="d" x1="40.43" y1="198.82" x2="40.43" y2="186.64" gradientUnits="userSpaceOnUse"><stop offset="0" stop-color="#fff"/><stop offset="0.89" stop-color="#1e3f92"/></linearGradient><linearGradient id="e" x1="39.37" y1="187.46" x2="39.37" y2="175.01" xlink:href="#d"/><linearGradient id="f" x1="33.79" y1="198.82" x2="33.79" y2="188" xlink:href="#d"/><linearGradient id="g" x1="52.12" y1="171.4" x2="26.96" y2="139.09" gradientUnits="userSpaceOnUse"><stop offset="0" stop-color="#b01378"/><stop offset="0.26" stop-color="#b0167a"/><stop offset="0.49" stop-color="#af2180"/><stop offset="0.7" stop-color="#ad3389"/><stop offset="0.9" stop-color="#ab4c97"/><stop offset="0.98" stop-color="#aa589d"/></linearGradient><linearGradient id="h" x1="36.98" y1="183.19" x2="36.98" y2="122.79" gradientUnits="userSpaceOnUse"><stop offset="0" stop-color="#fff"/><stop offset="0.01" stop-color="#fcfcfd"/><stop offset="0.08" stop-color="#d8cfe4"/><stop offset="0.16" stop-color="#b8a8cd"/><stop offset="0.25" stop-color="#9c87ba"/><stop offset="0.34" stop-color="#866cab"/><stop offset="0.44" stop-color="#75579f"/><stop offset="0.55" stop-color="#694896"/><stop offset="0.68" stop-color="#624092"/><stop offset="0.89" stop-color="#603d90"/></linearGradient><linearGradient id="i" x1="32.06" y1="114.46" x2="47.83" y2="130.24" xlink:href="#a"/><linearGradient id="j" x1="31.98" y1="116" x2="43.78" y2="130.24" gradientUnits="userSpaceOnUse"><stop offset="0" stop-color="#62b66b"/><stop offset="0.06" stop-color="#58a360"/><stop offset="0.23" stop-color="#3e7243"/><stop offset="0.4" stop-color="#28492b"/><stop offset="0.56" stop-color="#172a19"/><stop offset="0.72" stop-color="#0b130c"/><stop offset="0.87" stop-color="#030604"/><stop offset="1" stop-color="#010101"/></linearGradient><linearGradient id="k" x1="24.07" y1="106.22" x2="39.84" y2="121.99" xlink:href="#c"/><linearGradient id="l" x1="40.91" y1="123.94" x2="40.91" y2="109.4" xlink:href="#d"/><linearGradient id="m" x1="41.38" y1="131.57" x2="41.38" y2="122.9" xlink:href="#d"/><linearGradient id="n" x1="32.57" y1="131.57" x2="32.57" y2="119.04" xlink:href="#d"/><linearGradient id="o" x1="36.03" y1="131.57" x2="36.03" y2="122.79" xlink:href="#d"/><linearGradient id="p" x1="14.3" y1="35.83" x2="85.11" y2="106.64" xlink:href="#a"/><linearGradient id="q" x1="39.09" y1="104.62" x2="39.09" y2="21.69" gradientUnits="userSpaceOnUse"><stop offset="0" stop-color="#1e3f92"/><stop offset="1" stop-color="#fff"/></linearGradient><linearGradient id="r" x1="57.56" y1="84.41" x2="12.52" y2="24.76" gradientUnits="userSpaceOnUse"><stop offset="0" stop-color="#d94e96"/><stop offset="0.43" stop-color="#9e4a96"/><stop offset="0.8" stop-color="#734796"/><stop offset="0.98" stop-color="#624696"/></linearGradient><linearGradient id="s" x1="34.69" y1="87.95" x2="34.69" y2="41.9" gradientUnits="userSpaceOnUse"><stop offset="0" stop-color="#2b4d9c"/><stop offset="0.18" stop-color="#5671b0"/><stop offset="0.58" stop-color="#b0bdda"/><stop offset="0.86" stop-color="#e9edf5"/><stop offset="1" stop-color="#fff"/></linearGradient><linearGradient id="t" x1="15.74" y1="34.39" x2="86.55" y2="105.2" gradientUnits="userSpaceOnUse"><stop offset="0" stop-color="#62b66b"/><stop offset="0.06" stop-color="#5baa64"/><stop offset="0.52" stop-color="#2b502f"/><stop offset="0.84" stop-color="#0d170e"/><stop offset="1" stop-color="#010101"/></linearGradient><linearGradient id="u" x1="-6.58" y1="56.71" x2="64.23" y2="127.52" xlink:href="#t"/><linearGradient id="v" x1="6.44" y1="17.36" x2="39.9" y2="50.81" gradientUnits="userSpaceOnUse"><stop offset="0" stop-color="#f4e600"/><stop offset="0.59" stop-color="#615b01"/><stop offset="1" stop-color="#010101"/></linearGradient><linearGradient id="w" x1="55.98" y1="82.32" x2="34.53" y2="53.92" gradientUnits="userSpaceOnUse"><stop offset="0.02" stop-color="#fff"/><stop offset="0.1" stop-color="#dadae6"/><stop offset="0.21" stop-color="#acacc8"/><stop offset="0.33" stop-color="#8584ad"/><stop offset="0.45" stop-color="#656498"/><stop offset="0.58" stop-color="#4c4b87"/><stop offset="0.7" stop-color="#3b397b"/><stop offset="0.84" stop-color="#302e74"/><stop offset="1" stop-color="#2d2b72"/></linearGradient><linearGradient id="x" x1="49.58" y1="80.26" x2="75.15" y2="16.88" gradientUnits="userSpaceOnUse"><stop offset="0" stop-color="#010101"/><stop offset="0.38" stop-color="#615b01"/><stop offset="0.93" stop-color="#f4e600"/></linearGradient><linearGradient id="y" x1="49.65" y1="75.21" x2="67.78" y2="30.29" xlink:href="#x"/><linearGradient id="z" x1="30.39" y1="72.78" x2="28.3" y2="89.21" xlink:href="#t"/><linearGradient id="aa" x1="37.42" y1="32.77" x2="37.42" y2="18.36" gradientUnits="userSpaceOnUse"><stop offset="0" stop-color="#2d2b72"/><stop offset="0.16" stop-color="#302e74"/><stop offset="0.3" stop-color="#3b397b"/><stop offset="0.42" stop-color="#4c4b87"/><stop offset="0.55" stop-color="#656498"/><stop offset="0.67" stop-color="#8584ad"/><stop offset="0.79" stop-color="#acacc8"/><stop offset="0.9" stop-color="#dadae6"/><stop offset="0.98" stop-color="#fff"/></linearGradient><linearGradient id="ab" x1="31.66" y1="9.59" x2="50.13" y2="28.06" xlink:href="#a"/><linearGradient id="ac" x1="42.13" y1="48.58" x2="42.13" y2="4.15" xlink:href="#d"/><linearGradient id="ad" x1="31.58" y1="7.19" x2="34.92" y2="10.53" gradientUnits="userSpaceOnUse"><stop offset="0" stop-color="#70bc7e"/><stop offset="0.48" stop-color="#395f40"/><stop offset="0.99" stop-color="#010101"/></linearGradient><linearGradient id="ae" x1="42.13" y1="60.3" x2="42.13" y2="15.87" xlink:href="#d"/><linearGradient id="af" x1="38.48" y1="24.46" x2="38.48" y2="1.67" xlink:href="#d"/><linearGradient id="ag" x1="32.79" y1="10.94" x2="41.8" y2="19.96" gradientUnits="userSpaceOnUse"><stop offset="0" stop-color="#aa589d"/><stop offset="0.08" stop-color="#ab4c97"/><stop offset="0.29" stop-color="#ad3389"/><stop offset="0.51" stop-color="#af2180"/><stop offset="0.73" stop-color="#b0167a"/><stop offset="1" stop-color="#b01378"/></linearGradient><linearGradient id="ah" x1="34.22" y1="3.3" x2="47.22" y2="16.29" xlink:href="#t"/><linearGradient id="ai" x1="29.78" y1="11.03" x2="43.58" y2="24.84" xlink:href="#t"/><linearGradient id="aj" x1="35.15" y1="85.12" x2="42.63" y2="123.5" xlink:href="#a"/><linearGradient id="ak" x1="43.13" y1="83.57" x2="47.34" y2="105.16" gradientUnits="userSpaceOnUse"><stop offset="0" stop-color="#62b66b"/><stop offset="0.06" stop-color="#5baa64"/><stop offset="0.5" stop-color="#2b502f"/><stop offset="0.82" stop-color="#0d170e"/><stop offset="0.97" stop-color="#010101"/></linearGradient><linearGradient id="al" x1="24.31" y1="86.78" x2="28.1" y2="106.24" xlink:href="#j"/><linearGradient id="am" x1="33.59" y1="85.43" x2="37.77" y2="106.89" xlink:href="#b"/><linearGradient id="an" x1="30.35" y1="11.56" x2="42.59" y2="18.41" gradientUnits="userSpaceOnUse"><stop offset="0" stop-color="#a6539b"/><stop offset="0.48" stop-color="#50284a"/><stop offset="0.83" stop-color="#170c15"/><stop offset="1" stop-color="#010101"/></linearGradient><linearGradient id="ao" x1="32.26" y1="30.89" x2="32.26" y2="15.1" xlink:href="#d"/><linearGradient id="ap" x1="14.31" y1="88.72" x2="29.41" y2="103.82" xlink:href="#c"/><linearGradient id="aq" x1="40.24" y1="96.1" x2="46.52" y2="102.38" xlink:href="#c"/><linearGradient id="ar" x1="28.45" y1="89.16" x2="38.45" y2="99.16" xlink:href="#c"/><linearGradient id="as" x1="25.98" y1="109.45" x2="25.98" y2="91.78" xlink:href="#d"/><linearGradient id="at" x1="47.28" y1="109.41" x2="47.28" y2="91.78" xlink:href="#d"/><linearGradient id="au" x1="36.98" y1="183.19" x2="36.98" y2="149.58" gradientUnits="userSpaceOnUse"><stop offset="0" stop-color="#fff"/><stop offset="0.16" stop-color="#dad2e5"/><stop offset="0.42" stop-color="#a693c1"/><stop offset="0.63" stop-color="#8064a6"/><stop offset="0.8" stop-color="#694896"/><stop offset="0.89" stop-color="#603d90"/></linearGradient></defs><g style="isolation:isolate"><polygon points="33.42 177.37 29.24 187.19 36.15 198.82 44.71 186.64 38.51 175.01 33.42 177.37" fill="url(#a)"/><polygon points="36.15 198.82 36.45 188.47 44.71 186.64 36.15 198.82" fill="#1e3f92" opacity="0.49" style="mix-blend-mode:multiply"/><polygon points="35.23 177.19 36.45 188.47 44.71 186.64 38.51 175.01 35.23 177.19" fill="#008e64"/><polygon points="29.24 187.19 36.45 188.47 36.15 198.82 29.24 187.19" fill="#008e64"/><path d="M36.11,185.3s.58,2.42-2.27,2.31-4-1.81-3-4.17l-1.6,3.75,5.21,8.75s-4-7.66-3.21-7.91,4.17,1,4.54,1.66.37,6.76.37,6.76l.3-8,8.26-1.83-1.33-2.49s.58,2.37-.82,2.49S36.56,189.1,36.11,185.3Z" fill="url(#b)" style="mix-blend-mode:color-dodge"/><path d="M33.84,187.61c2.08.08,2.33-1.19,2.32-1.88l0-.43-.88-8.11L38.51,175l-5.09,2.36-2.58,6.07C29.84,185.8,31,187.5,33.84,187.61Z" fill="url(#c)" style="mix-blend-mode:screen"/><polygon points="36.15 198.82 44.71 186.64 36.45 188.47 36.15 198.82" opacity="0.3" fill="url(#d)" style="mix-blend-mode:multiply"/><path d="M36.11,185.3c.48,3.79,5.06,1.46,6.45,1.34s.82-2.49.82-2.49L38.51,175l-3.28,2.18Z" opacity="0.3" fill="url(#e)" style="mix-blend-mode:multiply"/><path d="M36.15,196.45s0-6-.37-6.76S32,187.79,31.24,188s3.2,7.91,3.2,7.91l1.71,2.88.3-10.35Z" opacity="0.3" fill="url(#f)" style="mix-blend-mode:multiply"/><path d="M32.83,124.31s4.09,12-1.36,28.89-3.48,29.93,6.3,30,8.66-20,5.39-30.19-.42-29.5-1.15-30.1S32.83,124.31,32.83,124.31Z" fill="url(#g)"/><path d="M37.77,183.19c9.69.05,8.66-20,5.39-30.19s-.42-29.5-1.15-30.1-9.18,1.41-9.18,1.41a39.55,39.55,0,0,1,1.46,12s0-4.83,3.67-3.36.66,11.66,2,20.05,3.56,23.18-3.49,23.37-8.41-8.15-5.42-21.83C26.13,170.78,28.25,183.13,37.77,183.19Z" opacity="0.56" fill="url(#h)" style="mix-blend-mode:multiply"/><polygon points="34.68 108.67 28.17 119.03 28.17 122.9 36.98 131.57 45.78 123.94 38.59 108.67 34.68 108.67" fill="url(#i)"/><polygon points="35.9 109.03 40.03 122.9 45.78 123.94 38.59 108.67 35.9 109.03" fill="#008e64"/><polygon points="36.98 131.57 40.03 122.9 45.78 123.94 36.98 131.57" fill="#1e3f92" opacity="0.49" style="mix-blend-mode:multiply"/><polygon points="28.17 119.03 32.93 122.79 36.98 131.57 28.17 122.9 28.17 119.03" fill="#1e3f92" opacity="0.49" style="mix-blend-mode:multiply"/><polygon points="40.03 122.9 32.93 122.79 36.98 131.57 40.03 122.9" fill="#008e64"/><path d="M32.33,112.41s-3.37,5.76-3,6.63,3.46,2.95,3.82,2.63,1.36-8.5,1.36-8.5-1,9,0,9.23,4.77,0,4.54-.78-2.19-9.21-2.19-9.21,3.46,10.23,3.94,10.38,4.94,1.15,4.94,1.15l-5.75-1L37,131.57s2.48-8,2.11-8.26-5.58-.37-5.49.13S35.77,129,35.77,129l-2.84-6.16L28.17,119Z" fill="url(#j)" style="mix-blend-mode:color-dodge"/><path d="M29.37,119c.41.86,3.46,2.95,3.82,2.63s1.36-8.5,1.36-8.5-1,9,0,9.23,4.77,0,4.54-.78-2.19-9.21-2.19-9.21L36,109.48c-.47,0-1.1,0-1.84,0l-6,9.59,4.16-6.63S29,118.17,29.37,119Z" fill="url(#k)" style="mix-blend-mode:screen"/><path d="M37,109.4s-.36,0-1,.08l.87,2.93s3.46,10.23,3.94,10.38,4.94,1.15,4.94,1.15l-6.84-14.53A15,15,0,0,1,37,109.4Z" opacity="0.3" fill="url(#l)" style="mix-blend-mode:multiply"/><polygon points="36.98 131.57 45.78 123.94 40.03 122.9 36.98 131.57" opacity="0.3" fill="url(#m)" style="mix-blend-mode:multiply"/><polygon points="28.17 119.03 28.17 122.9 36.98 131.57 32.93 122.79 28.17 119.03" opacity="0.3" fill="url(#n)" style="mix-blend-mode:multiply"/><path d="M39.09,123.31c-.36-.28-5.58-.37-5.49.13S35.77,129,35.77,129l-2.84-6.16,4,8.78S39.46,123.58,39.09,123.31Z" opacity="0.3" fill="url(#o)" style="mix-blend-mode:multiply"/><path d="M14.35,21.51a32.67,32.67,0,0,1,26.41-8.24c16.23,2.18,28.35,17,33.2,32,0,0,0,30.78-6.3,40.23,0,0-9,14-25.45,19.38S6.59,86.44,6.59,86.44-.68,63.91.05,52.52,14.35,21.51,14.35,21.51Z" fill="url(#p)"/><path d="M66.25,74.38,66.37,82l1.29,3.52C74,76,74,45.25,74,45.25L61.65,32.77Z" fill="#1e3f92" opacity="0.49" style="mix-blend-mode:multiply"/><path d="M45.47,100.49l-23.2-2.66-10.06-11-5.62-.37s19.15,23.75,35.62,18.42S67.66,85.48,67.66,85.48l-8.32,3.75Z" fill="#1e3f92" opacity="0.49" style="mix-blend-mode:multiply"/><path d="M6.59,73.48,4.23,78.35c1.29,4.75,2.36,8.09,2.36,8.09Z" fill="#1e3f92" opacity="0.49" style="mix-blend-mode:multiply"/><path d="M57,26.48l-8.84-11,.34-.11a31.43,31.43,0,0,0-7.72-2.07,33.3,33.3,0,0,0-4.69-.3l6.06,15.65Z" fill="#1e3f92" opacity="0.49" style="mix-blend-mode:multiply"/><path d="M41.33,13.36,32.2,16.08,19.12,21.51H14.35L14,26.59.05,52.52l2.47,2.67L6.59,73.48v13l5.62.37,10.06,11,23.2,2.66L59.34,89.23l8.32-3.75L66.37,82l-.12-7.58-4.6-41.61L74,45.25C69.17,30.41,57.28,15.81,41.33,13.36Z" fill="#1e3f92" opacity="0.3" style="mix-blend-mode:multiply"/><path d="M42.21,104.86c16.48-5.33,25.45-19.38,25.45-19.38A28.42,28.42,0,0,0,71,76.63L70.37,48.4,74,45.25,61.65,32.77,6,69.62l.55,3.86L4.23,78.35c1.29,4.75,2.36,8.09,2.36,8.09S25.74,110.19,42.21,104.86Z" opacity="0.3" fill="url(#q)" style="mix-blend-mode:multiply"/><ellipse cx="36.98" cy="57.16" rx="32.66" ry="38.8" fill="url(#r)"/><path d="M10.36,45.24c-.31,10,3.37,23.62,9.33,17.73s18.17-3.46,15,1.42-7.44-.72-6.24-1c0,0-2.87,5.15,2.08,5.15s6.42-3.07,9.08.55-19,6-15.47-4.17c0,0-1,5-6.32,1.61,0,0-3.19,5.12,4.12,6.86s11.82-2.87,14.75,1.4-6.56.79-10.63,1.5,2.49,10,9.08,11.34,13.76-1,11.58-4.33-8.9-4.06-8.4-1c0,0,1.8-2.87,5.8,1s-9.69,1-9.43-1.6,7.57-3.48,9.32-2.18c0,0-1-3,1.7-3.23s2.94,7,2.94,7,.75-4.48,4.09-5.29,2.94-15.36-6-11.48,5,9.06,4.59,3.34a3.85,3.85,0,0,1-4.59,0c-2.49-1.71,5.78-4,5.92,1.62s-10.92,2.18-10.78,0,0-8.32,4.13-8.54,11.68,1.7,10.1,6.92c0,0,7.62-12.95-1.57-16.9S44,57.24,44,57.24s3-4.1,7.56-2.84-6.39,7.18-9.71,5.43-2-15,10.51-13.16,1.06-21.06-7.44-17.44.78,12,.78,12S42,35.5,46.2,34.5,56.52,39.65,54.5,42,42.29,44.7,41.84,38.77c0,0-4.91,10.75-11.15,8.78s-3.86-12.18.8-13.61,6.11,2.2,5.05,5.27-4.15-2.31-4.15-2.31S28.54,43.75,34,43.25s8.38-11.4,4.72-14.41S27.1,36,22.05,35.7s-6-1.76-6-1.76,7,5,4.78,9.31-6.11-6.45-6.11-6.45-4,10.36,4.07,11.37,13.81.23,8.39,5.51-15.91,3.5-12.33,0,7.31,0,7.31,0-1-6.27-8-2.52C14.21,51.16,10.49,40.86,10.36,45.24Z" opacity="0.2" fill="url(#s)" style="mix-blend-mode:multiply"/><polygon points="37.52 30.89 37.3 24.46 42.81 16.08 46.97 16.54 37.52 30.89" fill="#1e3f92" opacity="0.49" style="mix-blend-mode:multiply"/><path d="M14,26.59s.25-4.07.67-4.42,4.42-.66,4.42-.66l9.52-4s-6.8,2.82-8.49,3.24S13.88,22.19,18,19.2c3.15-2.27,8.53-4.46,10.94-5.38a32.3,32.3,0,0,0-14.62,7.69s-1.83,2.64-4.18,6.54c2.2-3,3-3.58,3.13-2.49s-11.63,24.9-12.23,24S6.2,35.18,6.34,34.85C3.25,40.74.38,47.45.05,52.52Z" fill="url(#t)" style="mix-blend-mode:color-dodge"/><path d="M2.52,55.19.05,52.52c0,.15,0,.31,0,.47,2.76,1.77,4.43,12.68,4.91,15S6,74.7,4.64,74.75c-.89,0-2.95-8.87-4.27-15A140.21,140.21,0,0,0,4.23,78.35l2.36-4.87Z" fill="url(#u)" style="mix-blend-mode:color-dodge"/><path d="M11.91,37.22S3.36,51.6,16.23,60.14c15.85,10.52,49.85-11.65,36-30.09C37,9.69,14.46,29.92,11.91,37.22Z" fill="url(#v)" style="mix-blend-mode:screen"/><path d="M38.84,21.4c4.65.63,9.3,3.15,13.42,8.65,13.82,18.44-20.18,40.61-36,30.09C5,52.7,10.07,40.81,11.55,37.89A40.69,40.69,0,0,0,6.82,57.15C6.82,76.94,20.32,93,37,93s30.16-16,30.16-35.83C67.14,38.11,54.63,22.54,38.84,21.4Z" opacity="0.26" fill="url(#w)" style="mix-blend-mode:multiply"/><path d="M37,18.36c-18,0-32.67,17.37-32.67,38.8S18.94,96,37,96s32.66-17.38,32.66-38.8S55,18.36,37,18.36ZM37,93c-16.66,0-30.16-16-30.16-35.83a40.72,40.72,0,0,1,4.73-19.26c.22-.43.36-.67.36-.67,1.86-5.33,14.38-17.53,26.93-15.82,15.79,1.14,28.3,16.71,28.3,35.75C67.14,76.94,53.64,93,37,93Z" fill="#27306c" opacity="0.49" style="mix-blend-mode:multiply"/><path d="M22.51,34c2.77-2.1,5.78-7.08,5.78-11.11-8.31,3.26-15,10.55-16.38,14.35C11.91,37.22,16.51,38.53,22.51,34Z" fill="#f4e600" style="mix-blend-mode:screen"/><path d="M59.77,50.89l4,4S61.86,88.32,39.09,89.05C39.09,89.05,56.5,87.78,59.77,50.89Z" fill="url(#x)" style="mix-blend-mode:screen"/><path d="M54.74,56l2.91-1.33s-2,20.72-11.12,28.47C46.53,83.17,54,73.12,54.74,56Z" fill="url(#y)" style="mix-blend-mode:screen"/><path d="M37,93a26.9,26.9,0,0,0,17.35-6.53c-37.74,15-47-28.42-47.47-30.54,0,.42,0,.82,0,1.24C6.82,76.94,20.32,93,37,93Z" fill="url(#z)" style="mix-blend-mode:color-dodge"/><path d="M37.52,32.77s4.9-13,15-9.72a28.19,28.19,0,0,0-30.29-.54C23,22.25,32.51,19.21,37.52,32.77ZM44.19,23l-.35-.16Zm-1.75-.75-.25-.08Zm-1.78-.54-.13,0Z" opacity="0.26" fill="url(#aa)" style="mix-blend-mode:multiply"/><polygon points="37.52 30.89 26.98 15.08 37.52 0 46.97 16.54 37.52 30.89" fill="url(#ab)"/><polygon points="40.05 15.9 37.3 24.46 37.52 30.89 46.97 16.54 42.81 16.08 40.05 15.9" opacity="0.3" fill="url(#ac)" style="mix-blend-mode:multiply"/><path d="M28.15,14.67c.67.48,1.86.38,3.68-1.31A67.7,67.7,0,0,0,37.3,6.43s.16-4.52-.32-4.75-4.75,5.9-4.87,6.07l-2.22,3.18-.6.86C28.62,12.79,27.69,14.36,28.15,14.67Z" fill="url(#ad)" style="mix-blend-mode:screen"/><polygon points="40.05 15.9 37.3 24.46 37.52 30.89 46.97 16.54 42.81 16.08 40.05 15.9" opacity="0.43" fill="url(#ae)" style="mix-blend-mode:multiply"/><polygon points="37.52 0 37.3 6.43 38.59 15.45 31.14 15.23 26.98 15.08 37.52 30.89 37.3 24.46 40.05 15.9 42.81 16.08 46.97 16.54 37.52 0" fill="#1e3f92" opacity="0.3" style="mix-blend-mode:multiply"/><path d="M31.14,15.24l6.16,9.22,2.75-8.56,2.76.18-4.23-7.4S42.2,15,42.81,15.45s3,.18,3-.23S38.48,1.67,38.05,1.67s-.75,4.76-.75,4.76l1.3,9Z" opacity="0.3" fill="url(#af)" style="mix-blend-mode:multiply"/><polygon points="37.3 24.46 31.14 15.23 37.3 6.43 42.81 16.08 37.3 24.46" fill="url(#ag)"/><path d="M32.1,7.77S36.5,1.45,37,1.68s.32,4.75.32,4.75.32-4.75.75-4.75,7.77,13.13,7.77,13.54-2.4.66-3,.23-4.23-6.77-4.23-6.77l4.23,7.4,4.16.46L37.52,0Z" fill="url(#ah)" style="mix-blend-mode:color-dodge"/><path d="M29.89,10.92s-2.42,3.28-1.74,3.75,1.86.38,3.68-1.31A67.7,67.7,0,0,0,37.3,6.43l-6.16,8.81,6.16,9.22.22,6.43-7.07-10.6s5.92,8.38,6.33,8.33.63-3.63-.46-5.13-4.95-8.13-6.08-8-3.25-.35-2,1.45L27,15.1Z" fill="url(#ai)" style="mix-blend-mode:color-dodge"/><path d="M30.33,105.64,44,106.86s4.32,4.76-7.84,4.83-8.52-5.19-8.52-5.19Z" fill="#008e64"/><path d="M36.12,111.69c12.16-.07,7.84-4.83,7.84-4.83l-13.63-1.22-2.73.86a3.18,3.18,0,0,0-.5,1.85c2.38,1.06,7.2,2.46,14.49,1.14,0,0-10.35,3.26-14.18-.18C28.13,110.55,30.34,111.73,36.12,111.69Z" fill="#1e3f92" opacity="0.49" style="mix-blend-mode:multiply"/><path d="M42.11,97.61c.38-8-5.11-15.53-5.11-15.53-4.37,4.73-6.41,13.13-4.75,17.67a21.5,21.5,0,0,0-15.24-8c3.27,20,20,17.62,20,17.62S53.9,111,55.9,91.78C55.9,91.78,47.71,92.49,42.11,97.61Z" fill="url(#aj)"/><path d="M17,91.78c3.27,20,20,17.62,20,17.62C21.56,104.44,17,91.78,17,91.78Z" fill="#1e3f92" opacity="0.49" style="mix-blend-mode:multiply"/><path d="M37,82.08s3.15,7.7,0,27.32c0,0,7.82-14.17,18.9-17.62,0,0-8.19.71-13.79,5.83C42.49,89.66,37,82.08,37,82.08Z" fill="#1e3f92" opacity="0.3" style="mix-blend-mode:multiply"/><path d="M37,109.4S53.9,111,55.9,91.78C55.9,91.78,50.33,105.16,37,109.4Z" fill="#1e3f92" opacity="0.49" style="mix-blend-mode:multiply"/><path d="M32.25,99.75a21.59,21.59,0,0,0-15.1-8H17c12.48,5.81,20,17.62,20,17.62a29.82,29.82,0,0,0-4.76-9.69A.06.06,0,0,0,32.25,99.75Z" fill="#1e3f92" opacity="0.3" style="mix-blend-mode:multiply"/><path d="M37,109.4S46.14,97,53.29,93.9c0,0-2.3,7.08-11.72,13.56,10-5.39,14.33-15.68,14.33-15.68C44.82,95.23,37,109.4,37,109.4Z" fill="url(#ak)" style="mix-blend-mode:color-dodge"/><path d="M27.83,104.88c-.27-.24-7.23-6.53-8.71-11A56.07,56.07,0,0,1,37,109.4S29.49,97.59,17,91.78A30.39,30.39,0,0,0,27.83,104.88Z" fill="url(#al)" style="mix-blend-mode:color-dodge"/><path d="M32.24,99.72a25.52,25.52,0,0,1,2.51-13.28c3.29-6.28,2.81,18.55,2.8,19.17C39.74,88.78,37,82.08,37,82.08c-4.37,4.73-6.41,13.13-4.75,17.67Z" fill="url(#am)" style="mix-blend-mode:color-dodge"/><polygon points="37.3 6.43 38.23 16.08 42.81 16.08 37.3 6.43" fill="#603d90" opacity="0.31" style="mix-blend-mode:multiply"/><polygon points="37.3 24.46 38.23 16.08 31.14 15.23 37.3 24.46" fill="#603d90" opacity="0.31" style="mix-blend-mode:multiply"/><polygon points="38.23 16.08 42.81 16.08 37.3 24.46 38.23 16.08" fill="#603d90" opacity="0.55" style="mix-blend-mode:multiply"/><path d="M34.2,10.86S36.53,7.82,37,8s1,7.63.52,7.59-5.92.29-4.94-2.45l-1.44,2.06,6.16,9.22.51-4.61s-.5,2.68-.83,2.82S32.1,16.13,32.51,16s5,0,5.3.5A2.76,2.76,0,0,1,38,18l.21-1.92h4.58l-1.4-2.45s.68,1.45.37,1.82a5.39,5.39,0,0,1-3.37,0c-.41-.37-1.17-9.32.17-6.77L37.3,6.43Z" fill="url(#an)" style="mix-blend-mode:color-dodge"/><path d="M36.78,28.62c.41,0,.63-3.63-.46-5.13s-4.95-8.13-6.08-8-3.25-.35-2,1.45L27,15.1,37.52,30.89l-7.07-10.6S36.37,28.67,36.78,28.62Z" opacity="0.3" fill="url(#ao)" style="mix-blend-mode:multiply"/><path d="M19.12,93.9c1.48,4.45,8.43,10.73,8.71,11a34.18,34.18,0,0,0,7.11,3.79h1.47A55.85,55.85,0,0,0,19.12,93.9Z" fill="url(#ap)" style="mix-blend-mode:screen"/><path d="M53.29,93.9C47.17,96.54,39.62,106,37.55,108.67h1l.07.14a27.79,27.79,0,0,0,4.62-2.35c-.55.35-1.12.69-1.71,1C51,101,53.29,93.9,53.29,93.9Z" fill="url(#aq)" style="mix-blend-mode:screen"/><path d="M38.29,97.46c-.12,2.4-.35,5.1-.74,8.15,0-.62.49-25.45-2.8-19.17a25.52,25.52,0,0,0-2.51,13.28,30.15,30.15,0,0,1,4.55,9h.31A106.45,106.45,0,0,0,38.29,97.46Z" fill="url(#ar)" style="mix-blend-mode:screen"/><path d="M34.94,108.67a34.18,34.18,0,0,1-7.11-3.79A31.26,31.26,0,0,1,17.31,92.5c-.14-.31-.22-.52-.27-.63a.64.64,0,0,0,0-.09c2.43,14.84,12.27,17.36,17.18,17.67l.49-.78Z" opacity="0.3" fill="url(#as)" style="mix-blend-mode:multiply"/><path d="M55.9,91.78l0,.09-.15.32,0,.07-.23.47,0,.07c-.2.4-.47.9-.8,1.48l0,.07-.53.91-.07.11c-.2.32-.41.66-.65,1l0,.08q-.73,1.11-1.68,2.34l-.05.06c-.31.4-.63.8-1,1.2l-.11.13q-.51.6-1.08,1.2l-.1.11a34.21,34.21,0,0,1-2.6,2.46l-.09.07c-.45.39-.93.77-1.43,1.13l-.18.14q-.73.54-1.53,1l-.17.11a27.79,27.79,0,0,1-4.62,2.35l.28.6C43.44,109.17,54.32,107,55.9,91.78Z" opacity="0.3" fill="url(#at)" style="mix-blend-mode:multiply"/><path d="M37.77,183.19c9.69.05,8.66-20,5.39-30.19a26.35,26.35,0,0,1-.83-3.42,13.84,13.84,0,0,0,.05,1.56c.61,6-1.54,17.33-7.15,16.84-7.56-.65-4.17-13.45-4.17-13.45C26.13,170.78,28.25,183.13,37.77,183.19Z" opacity="0.56" fill="url(#au)" style="mix-blend-mode:multiply"/></g></svg>