<svg xmlns="http://www.w3.org/2000/svg" xmlns:xlink="http://www.w3.org/1999/xlink" viewBox="0 0 310.91 291.6"><defs><linearGradient id="a" x1="96.03" y1="50.43" x2="96.03" y2="47.19" gradientUnits="userSpaceOnUse"><stop offset="0.04" stop-color="#1f003d"/><stop offset="1" stop-color="#9741c7"/></linearGradient><linearGradient id="b" x1="159.11" y1="271.12" x2="159.11" y2="50.52" gradientUnits="userSpaceOnUse"><stop offset="0.19" stop-color="#2f0253"/><stop offset="1" stop-color="#9741c7"/></linearGradient><linearGradient id="c" x1="96.03" y1="50.43" x2="96.03" y2="45.75" gradientUnits="userSpaceOnUse"><stop offset="0" stop-color="#510057"/><stop offset="1" stop-color="#fff"/></linearGradient><linearGradient id="d" x1="159.11" y1="271.12" x2="159.11" y2="151.7" xlink:href="#c"/><linearGradient id="e" x1="126.03" y1="104.47" x2="221.76" y2="200.2" gradientUnits="userSpaceOnUse"><stop offset="0" stop-color="#ff0"/><stop offset="0.15" stop-color="#ffdf20"/><stop offset="0.48" stop-color="#ff8d72"/><stop offset="0.96" stop-color="#ff0bf3"/><stop offset="1" stop-color="#ff00fe"/></linearGradient><linearGradient id="f" x1="171.61" y1="236.86" x2="171.61" y2="83.11" gradientUnits="userSpaceOnUse"><stop offset="0" stop-color="#ff5e77"/><stop offset="0.53"/></linearGradient><linearGradient id="g" x1="171.61" y1="283.24" x2="171.61" y2="122.82" gradientUnits="userSpaceOnUse"><stop offset="0.16" stop-color="#fff"/><stop offset="1" stop-color="#9c006d"/></linearGradient><linearGradient id="h" x1="194.44" y1="150.88" x2="236.12" y2="192.56" xlink:href="#e"/><linearGradient id="i" x1="233.13" y1="252.77" x2="233.13" y2="182.9" gradientUnits="userSpaceOnUse"><stop offset="0" stop-color="#ff00fe"/><stop offset="0.04" stop-color="#ff0bf3"/><stop offset="0.52" stop-color="#ff8d72"/><stop offset="0.85" stop-color="#ffdf20"/><stop offset="1" stop-color="#ff0"/></linearGradient><linearGradient id="j" x1="242.74" y1="224.12" x2="216.01" y2="270.41" xlink:href="#e"/><linearGradient id="k" x1="89.6" y1="130.29" x2="191.14" y2="231.82" xlink:href="#e"/><linearGradient id="l" x1="89.14" y1="193.82" x2="159.22" y2="263.9" xlink:href="#e"/><linearGradient id="m" x1="219.62" y1="227.12" x2="219.62" y2="116.39" xlink:href="#f"/><linearGradient id="n" x1="235.37" y1="243.59" x2="235.37" y2="184.47" xlink:href="#f"/><linearGradient id="o" x1="229.89" y1="261.18" x2="229.89" y2="233.59" xlink:href="#f"/><linearGradient id="p" x1="136.09" y1="239.33" x2="136.09" y2="131.18" xlink:href="#f"/><linearGradient id="q" x1="124.67" y1="252.04" x2="124.67" y2="204" xlink:href="#f"/><linearGradient id="r" x1="233.12" y1="252.77" x2="233.12" y2="206.59" gradientUnits="userSpaceOnUse"><stop offset="0" stop-color="#fff"/><stop offset="1" stop-color="#9c006d"/></linearGradient><linearGradient id="s" x1="222.5" y1="262.19" x2="231.53" y2="239.77" xlink:href="#r"/><linearGradient id="t" x1="129.19" y1="261.33" x2="129.19" y2="207.22" xlink:href="#g"/><linearGradient id="u" x1="219.55" y1="245.74" x2="219.55" y2="141.92" xlink:href="#g"/><linearGradient id="v" x1="138.94" y1="257.66" x2="138.94" y2="168.5" xlink:href="#g"/><linearGradient id="w" x1="179.23" y1="308.42" x2="179.23" y2="213.14" gradientUnits="userSpaceOnUse"><stop offset="0" stop-color="#2f0253"/><stop offset="1" stop-color="#9741c7"/></linearGradient><linearGradient id="x" x1="171.68" y1="172.64" x2="171.68" y2="71.65" gradientUnits="userSpaceOnUse"><stop offset="0.24"/><stop offset="1" stop-color="#b3e72c"/></linearGradient><linearGradient id="y" x1="224.16" y1="162.28" x2="224.16" y2="104.94" xlink:href="#x"/><linearGradient id="z" x1="232.45" y1="201.55" x2="232.45" y2="199.53" xlink:href="#x"/><linearGradient id="aa" x1="247.65" y1="219.41" x2="247.65" y2="177.24" xlink:href="#x"/><linearGradient id="ab" x1="236.52" y1="248.55" x2="236.52" y2="230.79" xlink:href="#x"/><linearGradient id="ac" x1="253.21" y1="231.06" x2="253.21" y2="230.85" xlink:href="#x"/><linearGradient id="ad" x1="116.01" y1="188.1" x2="116.01" y2="118.56" xlink:href="#x"/><linearGradient id="ae" x1="104.27" y1="225.7" x2="104.27" y2="197.67" xlink:href="#x"/><linearGradient id="af" x1="85.75" y1="211.8" x2="85.75" y2="210.44" xlink:href="#x"/><linearGradient id="ag" x1="120.29" y1="208.89" x2="120.29" y2="207.22" xlink:href="#x"/><linearGradient id="ah" x1="168.4" y1="153.42" x2="168.4" y2="74.93" gradientUnits="userSpaceOnUse"><stop offset="0"/><stop offset="1" stop-color="#ff7"/></linearGradient><linearGradient id="ai" x1="117.76" y1="177.61" x2="117.76" y2="119.29" xlink:href="#ah"/><linearGradient id="aj" x1="107.41" y1="215.31" x2="90.92" y2="200.7" xlink:href="#ah"/><linearGradient id="ak" x1="228.34" y1="161.74" x2="228.34" y2="105.48" xlink:href="#ah"/><linearGradient id="al" x1="254.52" y1="201.64" x2="265.98" y2="178.74" xlink:href="#ah"/><linearGradient id="am" x1="250.59" y1="229.52" x2="230.86" y2="249.25" gradientUnits="userSpaceOnUse"><stop offset="0" stop-color="#ff7"/><stop offset="1"/></linearGradient><linearGradient id="an" x1="73.13" y1="128.21" x2="73.13" y2="80.66" xlink:href="#i"/><linearGradient id="ao" x1="31.02" y1="132.96" x2="31.02" y2="89.83" xlink:href="#i"/><linearGradient id="ap" x1="11.27" y1="102.02" x2="11.27" y2="75.84" xlink:href="#i"/><linearGradient id="aq" x1="98.45" y1="73.01" x2="98.45" y2="15.72" xlink:href="#i"/><linearGradient id="ar" x1="126.34" y1="47.5" x2="126.34" y2="0" xlink:href="#i"/><linearGradient id="as" x1="204.88" y1="59.47" x2="204.88" y2="10.06" xlink:href="#i"/><linearGradient id="at" x1="253.36" y1="104.48" x2="253.36" y2="78.24" xlink:href="#i"/><linearGradient id="au" x1="262.61" y1="104.48" x2="262.61" y2="53.76" xlink:href="#i"/><linearGradient id="av" x1="284.25" y1="145.36" x2="284.25" y2="111.26" xlink:href="#i"/><linearGradient id="aw" x1="302.85" y1="192.57" x2="302.85" y2="157.66" xlink:href="#i"/><linearGradient id="ax" x1="72.52" y1="127.52" x2="72.52" y2="93.44" xlink:href="#g"/><linearGradient id="ay" x1="31.59" y1="132.96" x2="31.59" y2="100.12" xlink:href="#g"/><linearGradient id="az" x1="13.49" y1="102.02" x2="13.49" y2="83.32" xlink:href="#g"/><linearGradient id="ba" x1="96.34" y1="73.01" x2="96.34" y2="25.07" xlink:href="#g"/><linearGradient id="bb" x1="123.94" y1="47.5" x2="123.94" y2="10.78" xlink:href="#g"/><linearGradient id="bc" x1="207.39" y1="59.47" x2="207.39" y2="21.38" xlink:href="#g"/><linearGradient id="bd" x1="253.98" y1="104.48" x2="253.98" y2="84.63" xlink:href="#g"/><linearGradient id="be" x1="263.27" y1="104.48" x2="263.27" y2="67.28" xlink:href="#g"/><linearGradient id="bf" x1="284.68" y1="145.36" x2="284.68" y2="120.2" xlink:href="#g"/><linearGradient id="bg" x1="302.24" y1="192.57" x2="302.24" y2="166.56" xlink:href="#g"/><linearGradient id="bh" x1="73.13" y1="97.28" x2="73.13" y2="80.66" xlink:href="#x"/><linearGradient id="bi" x1="30.49" y1="110.37" x2="30.49" y2="89.83" xlink:href="#x"/><linearGradient id="bj" x1="8.74" y1="91.83" x2="8.74" y2="75.84" xlink:href="#x"/><linearGradient id="bk" x1="99.82" y1="44.66" x2="99.82" y2="15.72" xlink:href="#x"/><linearGradient id="bl" x1="130.49" y1="20.9" x2="130.49" y2="0" xlink:href="#x"/><linearGradient id="bm" x1="197.06" y1="31.82" x2="197.06" y2="10.06" xlink:href="#x"/><linearGradient id="bn" x1="252.16" y1="92.16" x2="252.16" y2="78.24" xlink:href="#x"/><linearGradient id="bo" x1="261.45" y1="77.62" x2="261.45" y2="53.76" xlink:href="#x"/><linearGradient id="bp" x1="282.74" y1="125.39" x2="282.74" y2="111.26" xlink:href="#x"/><linearGradient id="bq" x1="304.88" y1="177.17" x2="304.88" y2="157.66" xlink:href="#x"/></defs><g style="isolation:isolate"><path d="M94.87,50.43c.71-1.54,1.48-3.09,2.33-4.68A39.39,39.39,0,0,0,94.87,50.43Z" fill="url(#a)"/><path d="M297.41,187c-32.76,66.67-90.52,73.08-57.2,49.93,23.82-16.55,35.71-38.69,40.58-50,19-23.34,8.28-55.7,8.28-55.7,7.34,51.17-26.3,73.92-40.93,70.37a27.73,27.73,0,0,0-24.45,5.67c67.34-59.93,43.67-116,43.67-116,13.76,64.76-40.7,108.25-40.7,108.25,44.92-61.52,30.6-106,30.6-106,9.16,62.38-60.61,141.76-60.61,141.76s-21.33-41.47,13-93.81,4.63-95.35,4.63-95.35c35,79.5-46.61,155.75-69,103-16.08-37.84-29-37.14-35.17-63.89-6.73-29,8.86-60.84,8.86-60.84-15.69,33.63-18.23,55.76-4,78.92,9.06,14.7,24.12,39.24,28.14,48.25-5.83-11.67-18-24.54-39.64-48.25-19-20.88-12.7-43.34-8.62-52.84C83,75.93,89.18,95.63,116,121.51c28.45,27.45,45.52,81.81,45.52,81.81s6.75,56.79-14.29,22.63C137,209.41,123,202.27,108.63,197.14c-8.3-9.42-17.47-19.89-30.55-35.53-4.7-5.61-9.52-11.16-14.3-16.54A148.81,148.81,0,0,1,71.35,118s-5.68,9.46-9.6,24.8C38.36,116.67,16.62,95.54,16.62,95.54s21.77,23.67,44.53,49.7a115.12,115.12,0,0,0-3,26c-17.73-20.62-24.38-52.72-24.38-52.72s3.55,32.63,24.44,56.23a109.23,109.23,0,0,0,7.67,37c20.18,51.08,99.38,59.62,100.6,59.32l42.43-5c84.62-15.1,92.73-94.35,92.73-94.35Q299.77,179.85,297.41,187ZM139.17,232.51C129.61,221,122.32,212.66,115,204.3,150.48,222.58,158.49,255.74,139.17,232.51Zm-36.56-37.43c-13.35-4.37-26.61-7.91-37.07-16.47q-2.16-1.77-4.15-3.77a137.53,137.53,0,0,1,1.92-27.13C78.19,164.76,93.2,182.52,102.61,195.08ZM78.69,226c-11.49-14.53-16.08-31.47-17.13-47.56a67.63,67.63,0,0,0,32.26,18.07,95.08,95.08,0,0,1,12.71,4c.69,1,1.34,1.94,1.92,2.83C126.28,230.61,171,264,171,264S112.94,269.26,78.69,226Zm185.5-25.76a53.62,53.62,0,0,0,14.68-11.09c-23.77,43.74-68,62.65-68,62.65S223.46,221.55,264.19,200.19ZM213.9,261.33c51.86-10,73.78-50,80.9-67C269.54,259.61,213.9,261.33,213.9,261.33Z" fill="url(#b)"/><g opacity="0.44" style="mix-blend-mode:multiply"><path d="M94.87,50.43c.71-1.54,1.48-3.09,2.33-4.68A39.39,39.39,0,0,0,94.87,50.43Z" fill="url(#c)"/><path d="M297.41,187c-32.76,66.67-90.52,73.08-57.2,49.93,23.82-16.55,35.71-38.69,40.58-50,19-23.34,8.28-55.7,8.28-55.7,7.34,51.17-26.3,73.92-40.93,70.37a27.73,27.73,0,0,0-24.45,5.67c67.34-59.93,43.67-116,43.67-116,13.76,64.76-40.7,108.25-40.7,108.25,44.92-61.52,30.6-106,30.6-106,9.16,62.38-60.61,141.76-60.61,141.76s-21.33-41.47,13-93.81,4.63-95.35,4.63-95.35c35,79.5-46.61,155.75-69,103-16.08-37.84-29-37.14-35.17-63.89-6.73-29,8.86-60.84,8.86-60.84-15.69,33.63-18.23,55.76-4,78.92,9.06,14.7,24.12,39.24,28.14,48.25-5.83-11.67-18-24.54-39.64-48.25-19-20.88-12.7-43.34-8.62-52.84C83,75.93,89.18,95.63,116,121.51c28.45,27.45,45.52,81.81,45.52,81.81s6.75,56.79-14.29,22.63C137,209.41,123,202.27,108.63,197.14c-8.3-9.42-17.47-19.89-30.55-35.53-4.7-5.61-9.52-11.16-14.3-16.54A148.81,148.81,0,0,1,71.35,118s-5.68,9.46-9.6,24.8C38.36,116.67,16.62,95.54,16.62,95.54s21.77,23.67,44.53,49.7a115.12,115.12,0,0,0-3,26c-17.73-20.62-24.38-52.72-24.38-52.72s3.55,32.63,24.44,56.23a109.23,109.23,0,0,0,7.67,37c20.18,51.08,99.38,59.62,100.6,59.32l42.43-5c84.62-15.1,92.73-94.35,92.73-94.35Q299.77,179.85,297.41,187ZM139.17,232.51C129.61,221,122.32,212.66,115,204.3,150.48,222.58,158.49,255.74,139.17,232.51Zm-36.56-37.43c-13.35-4.37-26.61-7.91-37.07-16.47q-2.16-1.77-4.15-3.77a137.53,137.53,0,0,1,1.92-27.13C78.19,164.76,93.2,182.52,102.61,195.08ZM78.69,226c-11.49-14.53-16.08-31.47-17.13-47.56a67.63,67.63,0,0,0,32.26,18.07,95.08,95.08,0,0,1,12.71,4c.69,1,1.34,1.94,1.92,2.83C126.28,230.61,171,264,171,264S112.94,269.26,78.69,226Zm185.5-25.76a53.62,53.62,0,0,0,14.68-11.09c-23.77,43.74-68,62.65-68,62.65S223.46,221.55,264.19,200.19ZM213.9,261.33c51.86-10,73.78-50,80.9-67C269.54,259.61,213.9,261.33,213.9,261.33Z" fill="url(#d)"/></g><path d="M184.5,253s-48.62-64.22-49.23-126.9,51.37-70,68.19-28.44S184.5,253,184.5,253Z" fill="url(#e)"/><path d="M185,234.22a3.65,3.65,0,0,1-6.54,1c-10.86-16.06-38.17-60.74-38.6-104.57-.53-54.73,44.85-61.13,59.53-24.83C211.7,136.22,191.84,210.71,185,234.22Z" fill="url(#f)" style="mix-blend-mode:screen"/><path d="M184.5,253s35.78-113.75,19-155.34a54.34,54.34,0,0,0-2.4-5.09c17.57,35.84-19.45,107.19-29.45,104.32s-40.35-62.16-32.76-97.17a83.73,83.73,0,0,0-3.58,26.38C135.88,188.75,184.5,253,184.5,253Z" opacity="0.56" fill="url(#g)" style="mix-blend-mode:multiply"/><path d="M189.69,245.74s-9.05-67.58,19.79-106.42,55.43-54.12,33.11,4.59S189.69,245.74,189.69,245.74Z" fill="url(#h)"/><path d="M192.44,252.77s48-75.22,74.61-75.53S236.17,247.88,192.44,252.77Z" fill="url(#i)"/><path d="M194.28,262.86s47.39-39.45,62.07-30.88S236.47,270.2,194.28,262.86Z" fill="url(#j)"/><path d="M181.74,257.66s-37.92-149.53-78-138.52S147.19,235.64,181.74,257.66Z" fill="url(#k)"/><path d="M173.13,261.33s-39.7-58.1-77.93-63.3S108.26,244.82,173.13,261.33Z" fill="url(#l)"/><path d="M200.42,225.42a3.65,3.65,0,0,1-6.73-1.77c-.91-18-.24-54.66,17.44-78.46,24.14-32.52,46.41-45.32,27.72,3.84A435.63,435.63,0,0,1,200.42,225.42Z" fill="url(#m)" style="mix-blend-mode:screen"/><path d="M209.6,243.39a3.67,3.67,0,0,1-4.24-5.53c11.27-16.36,38.47-53.2,55.2-53.39C280.21,184.24,243.12,232.09,209.6,243.39Z" fill="url(#n)" style="mix-blend-mode:screen"/><path d="M209.14,261.16a3.67,3.67,0,0,1-2.1-6.58c11.92-9,35.4-25.18,44.31-20C262.43,241.06,239.7,262,209.14,261.16Z" fill="url(#o)" style="mix-blend-mode:screen"/><path d="M165,238.45a3.65,3.65,0,0,0,5.87-3.8c-8.37-29.36-34.09-110.39-61-103C80.1,139.83,133.7,211.79,165,238.45Z" fill="url(#p)" style="mix-blend-mode:screen"/><path d="M153.36,251.83a3.66,3.66,0,0,0,4-5.76c-10.94-13.73-33.64-38.77-55.72-41.78C73.17,200.42,106.72,236.18,153.36,251.83Z" fill="url(#q)" style="mix-blend-mode:screen"/><path d="M126.08,135.37c3.48,1.16,1.73,13.53-3.4,10.76S122.6,134.21,126.08,135.37Z" fill="#780078" opacity="0.22" style="mix-blend-mode:multiply"/><path d="M149.94,135.75c2.67-1.3,2.71-3.53,0-3.52S148.33,136.54,149.94,135.75Z" fill="#780078" opacity="0.22" style="mix-blend-mode:multiply"/><path d="M216.36,139.57c-.84-3,7.9-3.64,8.2-.78S217.21,142.54,216.36,139.57Z" fill="#780078" opacity="0.22" style="mix-blend-mode:multiply"/><path d="M225.58,137c2.19-.2,2.24-2,.76-2.13S224.24,137.08,225.58,137Z" fill="#780078" opacity="0.22" style="mix-blend-mode:multiply"/><path d="M258,200c-2.14-1,.53-4.81,3.2-3S260.13,200.91,258,200Z" fill="#780078" opacity="0.22" style="mix-blend-mode:multiply"/><path d="M217.2,184.75c3-.77,3.17-6.26-.64-5.07S214.24,185.53,217.2,184.75Z" fill="#780078" opacity="0.22" style="mix-blend-mode:multiply"/><path d="M216.65,260.24c3-.78,3.18-6.26-.64-5.08S213.69,261,216.65,260.24Z" fill="#780078" opacity="0.22" style="mix-blend-mode:multiply"/><path d="M207.71,191.39c-1.33-2.07.5-3,1.66-1.34S207.71,191.39,207.71,191.39Z" fill="#780078" opacity="0.22" style="mix-blend-mode:multiply"/><path d="M171.56,173.15c-4.15-.74-1.63-6.38,2.67-5.49S175.71,173.89,171.56,173.15Z" fill="#780078" opacity="0.22" style="mix-blend-mode:multiply"/><path d="M175.71,161.81c1.19-1,2.37,1.92.66,2.78S174.52,162.77,175.71,161.81Z" fill="#780078" opacity="0.22" style="mix-blend-mode:multiply"/><path d="M183.42,171.91a1.89,1.89,0,0,0-1.93-3.21C179.86,169.44,181.49,173.64,183.42,171.91Z" fill="#780078" opacity="0.22" style="mix-blend-mode:multiply"/><path d="M176.5,89.78c-4.16-.74-1.64-6.37,2.66-5.48S180.65,90.52,176.5,89.78Z" fill="#780078" opacity="0.22" style="mix-blend-mode:multiply"/><path d="M180.65,78.44c1.18-1,2.36,1.92.66,2.78S179.46,79.41,180.65,78.44Z" fill="#780078" opacity="0.22" style="mix-blend-mode:multiply"/><path d="M188.36,88.55a1.9,1.9,0,0,0-1.94-3.22C184.8,86.08,186.43,90.28,188.36,88.55Z" fill="#780078" opacity="0.22" style="mix-blend-mode:multiply"/><path d="M117.56,219.51c-3.13-2.8,2.22-7.56,5.78-5.79S120.38,222,117.56,219.51Z" fill="#780078" opacity="0.22" style="mix-blend-mode:multiply"/><path d="M114.73,127.36c-2.84-1.35-1.39-4.94,1-3.42S116,128,114.73,127.36Z" fill="#780078" opacity="0.22" style="mix-blend-mode:multiply"/><path d="M156.14,216.8c2.89-3.9,8.44,4.12,4.29,6.42S153.93,219.79,156.14,216.8Z" fill="#780078" opacity="0.22" style="mix-blend-mode:multiply"/><path d="M158.91,207.56c2.41-1.31,3.75,1.43,1.38,2.58S156.49,208.88,158.91,207.56Z" fill="#780078" opacity="0.22" style="mix-blend-mode:multiply"/><path d="M211,152.54c1.2.51,3.62,4.71-2.59,2.36S204.71,149.87,211,152.54Z" fill="#780078" opacity="0.22" style="mix-blend-mode:multiply"/><path d="M142.82,188c-.84-3,7.9-3.64,8.2-.78S143.67,191,142.82,188Z" fill="#780078" opacity="0.22" style="mix-blend-mode:multiply"/><path d="M152,185.38c2.19-.2,2.24-2,.76-2.13S150.7,185.5,152,185.38Z" fill="#780078" opacity="0.22" style="mix-blend-mode:multiply"/><path d="M214,232.9c-.85-3,7.9-3.65,8.2-.79S214.8,235.86,214,232.9Z" fill="#780078" opacity="0.22" style="mix-blend-mode:multiply"/><path d="M223.18,230.29c2.19-.2,2.24-2,.76-2.14S221.83,230.41,223.18,230.29Z" fill="#780078" opacity="0.22" style="mix-blend-mode:multiply"/><path d="M140.45,238c1.2.51,3.62,4.71-2.59,2.36S134.12,235.35,140.45,238Z" fill="#780078" opacity="0.22" style="mix-blend-mode:multiply"/><path d="M267.58,177.26c6.49,0,12.29,9.57-9.55,28.88-25.07,22.17-50.71,22.48-26.49-4a15,15,0,0,0,1.88-2.6c-21.2,22.28-41,53.27-41,53.27C235.86,247.91,292.84,177.94,267.58,177.26Z" opacity="0.56" fill="url(#r)" style="mix-blend-mode:multiply"/><path d="M245.8,245.74c-12.23,8.1-40.13,11.19-24.66-1.67,1.39-1.16,2.86-2.29,4.37-3.38a279,279,0,0,0-31.23,22.17C236.47,270.2,271,240.54,256.35,232a9.39,9.39,0,0,0-3.8-1.13C258.27,231.62,257.42,238,245.8,245.74Z" opacity="0.56" fill="url(#s)" style="mix-blend-mode:multiply"/><path d="M173.13,261.33S148.27,225,119,207.22c44.09,27.17-10.18,30.8-33.7,3.22C95.83,225.78,131.71,250.79,173.13,261.33Z" opacity="0.56" fill="url(#t)" style="mix-blend-mode:multiply"/><path d="M189.69,245.74s30.58-43.12,52.9-101.83c5-13.19,7.55-22.64,8.16-28.93-1.7,9.85-7.06,24-21,43-26.93,36.66-39,28.45-34,9.12C184.1,203.87,189.69,245.74,189.69,245.74Z" opacity="0.56" fill="url(#u)" style="mix-blend-mode:multiply"/><path d="M181.74,257.66S165.89,195.19,143.87,154c38.62,78.15-35.22,30.37-47.73-5C108.69,185.11,157.38,242.14,181.74,257.66Z" opacity="0.56" fill="url(#v)" style="mix-blend-mode:multiply"/><path d="M103.49,165.44s38.8,55.16,72.13,81.95c0,0-1.42-28-30.22-90.5,0,0,25.94,53.5,35.73,90.5,0,0-.92-23.06-17.43-57.31,0,0,11.92,16.52,23.54,62.69,0,0-8.25-31.5-2.14-89,0,0-3.67,41.29,2.14,67,0,0-4-30.8,10.11-68.3,0,0-11.94,28.23-4.91,72.57,0,0,27.65-35.47,46.24-81.19,0,0-13.21,43.89-44.4,91.9,0,0,20.05-28.25,40.91-48.07,0,0-20.35,24.06-29.06,40.8s24.84-3.81,36.73-12.34c0,0-12,10.85-23.24,17.85,0,0,9.18-5.27,11.76-6.59,0,0-20.87,12.77-25.71,19.54s20.73,6.85,35.42-.47a80,80,0,0,1-32.21,9.65s25,2.71,46.09-1.57c0,0-17.58,5.58-36.08,3.82,0,0,11.9,2.6,22.78-.38,0,0-6.42,2.83-17.66,2.14,0,0,11.09.77,16.75,5.2,0,0-13.46-5.58-37.85-2.91a14.47,14.47,0,0,1,9.56,3.83,18.86,18.86,0,0,0-11.39-2.6c-6.42.69-34.09,10.39-41.36,18,0,0,8.95-11.92,20.8-15.36,0,0-10.32,2.44-28.75.38a92.48,92.48,0,0,0,20-1s-36.54-8.11-66.66-5.36c0,0,35.7-5.5,60.24-1.6,0,0-27.75-4.21-50-23.78,0,0,26.4,21,48.93,17.74,0,0-16.51.15-30-10.24,0,0,11.93,8,25.54,6.8,0,0-30.83-9.08-54.48-29.69,0,0,31.69,21.13,49.12,23.27s-25.43-38.62-25.43-38.62,16.26,12.17,28.19,24.25C157.28,238.4,113.7,193.86,103.49,165.44Z" fill="url(#w)"/><g style="mix-blend-mode:screen"><path d="M204.36,131.29c2.31-14,2-27.82-3.19-38.5-15.58-29.89-51.08-28.59-62.36,7.13-4.53,21.38,4.95,51.68,15.31,72.72-15.49-35,17.71-75.08,34.66-75.08C205,97.56,205.63,122.73,204.36,131.29Z" fill="url(#x)"/><path d="M241.43,139.79c5.55-10.18,8.21-18.41,9.32-24.81,2.09-21.71-18.92-5.77-41.27,24.34-.52.69-1,1.41-1.47,2.11a92.35,92.35,0,0,0-10.59,20.85,59.35,59.35,0,0,1,10-15.71C224.54,126.72,251.5,117.13,241.43,139.79Z" fill="url(#y)"/><path d="M231.5,201.55c.63-.69,1.27-1.36,1.9-2Z" fill="url(#z)"/><path d="M268.46,177.32c-.29,0-.57,0-.88-.06l-.53,0c-9.53.11-21.81,9.85-33.65,22.29a14.53,14.53,0,0,1-1.86,2.57c-7.7,8.43-10.35,14.14-9.59,17.31.79-14.08,62.42-43.36,40.77-17.69C278.13,186.17,274,178.07,268.46,177.32Z" fill="url(#aa)"/><path d="M252.6,230.86c-6.82-.71-17.07,3.89-27.09,9.83-1.51,1.09-3,2.22-4.37,3.38a16.32,16.32,0,0,0-4.09,4.48c8.69-11.43,42.94-13.86,30.45-4C257.45,237.41,258,231.62,252.6,230.86Z" fill="url(#ab)"/><path d="M252.55,230.85c.48.06.91.12,1.31.21A13.27,13.27,0,0,0,252.55,230.85Z" fill="url(#ac)"/><path d="M103.76,119.14C92,122.39,90.89,133.85,96.14,149c4.93,13.94,19.38,29.8,32.72,39.13C106.34,169.38,108,128.61,118.52,130c10.3,1.35,19.89,14.56,20.37,15.23C128.07,127.44,116,115.77,103.76,119.14Z" fill="url(#ad)"/><path d="M95.2,198c-13.85-1.88-15.92,3.76-9.87,12.49a55.87,55.87,0,0,0,22.11,15.18c-27.69-14.17,2.31-23.63,19-13.43-1.66-1.25-3.57-2.58-5.74-4C112.42,203.06,103.78,199.2,95.2,198Z" fill="url(#ae)"/><path d="M86.25,211.8c-.33-.43-.63-.86-.92-1.28l-.07-.08C85.56,210.88,85.9,211.34,86.25,211.8Z" fill="url(#af)"/><path d="M119,207.22c.6.36,1.16.73,1.72,1.09l.95.58C120.74,208.32,119.85,207.76,119,207.22Z" fill="url(#ag)"/></g><path d="M149.91,81.73c15.11-19.22,67.68,3.36,36.91,54.12S124.18,114.45,149.91,81.73Z" fill="url(#ah)" style="mix-blend-mode:screen"/><path d="M98.8,123.12c10.11-15,46.18,17.2,41.2,45.63S80.45,150.41,98.8,123.12Z" fill="url(#ai)" style="mix-blend-mode:screen"/><path d="M84.35,200.53c11.79-8.61,44.84,10.59,27.06,18.88C99.7,224.87,77.12,205.8,84.35,200.53Z" fill="url(#aj)" style="mix-blend-mode:screen"/><path d="M209.59,159.93c-11.91-8,24.8-54.68,36.95-54.45S230,173.56,209.59,159.93Z" fill="url(#ak)" style="mix-blend-mode:screen"/><path d="M264.38,178.62c12.81-.41,7.76,18.2-8.39,24.7S249.93,179.07,264.38,178.62Z" fill="url(#al)" style="mix-blend-mode:screen"/><path d="M228.42,245.74c-6.57,0,6.42-12.2,19.61-14.14S252.63,245.77,228.42,245.74Z" fill="url(#am)" style="mix-blend-mode:screen"/><path d="M152.8,90.32c1.12-4.93,10.26-6.23,14.69-1.34S149.56,104.54,152.8,90.32Z" fill="#fff"/><path d="M150.06,95c1.39-.91,6.1,8.73,2.2,10.54S147.61,96.62,150.06,95Z" fill="#fff"/><path d="M116.81,170.5c.16-1.65,10.62.76,9.57,4.94S116.51,173.41,116.81,170.5Z" fill="#fff"/><path d="M149.62,106.48c2.49.78.26,4.08-.82,3.38S148.18,106,149.62,106.48Z" fill="#fff"/><path d="M229.66,118c2.5.71.35,4.07-.74,3.39S228.21,117.61,229.66,118Z" fill="#fff"/><path d="M235.1,140.94c2.55-.51,2.18,3.46.89,3.36S233.62,141.24,235.1,140.94Z" fill="#fff"/><path d="M105,213.35c2.55-.51,2.18,3.45.89,3.36S103.5,213.64,105,213.35Z" fill="#fff"/><path d="M250.31,233.57c2.23-.5,1.9,3.44.78,3.34S249,233.87,250.31,233.57Z" fill="#fff"/><path d="M182.3,139.75c-1.37-2.13,3.64-11.23,7.89-5.77S183.67,141.88,182.3,139.75Z" fill="#fff"/><path d="M233.56,119.85c-.71-1.66,3.89-11,6.22-6.88S234.26,121.5,233.56,119.85Z" fill="#fff"/><path d="M257.26,185.46c.18-1.79,8.71-7.71,8.77-3S257.08,187.25,257.26,185.46Z" fill="#fff"/><path d="M177.41,145.58c-1.08-1.68,3-3.94,5.26-3.17S179.51,148.89,177.41,145.58Z" fill="#fff"/><path d="M99.37,130.66c-2.26-2.31,1.79-11.88,8.51-5.92S101.63,133,99.37,130.66Z" fill="#fff"/><path d="M97.46,137.2c-1.32-1.62,2.65-4.2,5.1-3.58S100.05,140.39,97.46,137.2Z" fill="#fff"/><path d="M243.34,238.32c-2.09-.89.71-4.81,3.46-5.27S247.44,240.07,243.34,238.32Z" fill="#fff"/><path d="M229.41,245.82c-.39-.78,3.91-1.25,4.14,0S229.79,246.6,229.41,245.82Z" fill="#fff"/><path d="M98.45,202.4c1,2.45-10,5.39-10.69,1.44S97.41,200,98.45,202.4Z" fill="#fff"/><path d="M71.35,81.39c15.63-5.84,7.3,24.71-3.27,46.06,0,0,1-6.23-1.57.76,0,0,2.7-5.26.52-23.7S67.64,82.77,71.35,81.39Z" fill="url(#an)"/><path d="M28.16,90c10-1.8,11.35,9.7,9.75,20s-1.72,18-.88,20.55c0,0-.62-1.66-.33,2.37,0,0-4.64-10.09-9-21.72S20.94,91.32,28.16,90Z" fill="url(#ao)"/><path d="M21.87,100.74s-.72-.25.67,1.28A123.42,123.42,0,0,0,6.66,92.1C-3.55,86.59-1,74.38,7.29,76S18.42,97,21.87,100.74Z" fill="url(#ap)"/><path d="M90.75,66.25c1.58-8.51,28.34-34.18,16.88-46.79S85.26,29,86.53,43.77,89.13,73,89.13,73C90,64,90.75,66.25,90.75,66.25Z" fill="url(#aq)"/><path d="M111.26,46.86s.15-8.45,16.81-20.37,21.1-27.37,4-26.45-22.3,47.46-22.3,47.46S112,41.47,111.26,46.86Z" fill="url(#ar)"/><path d="M218.87,58.6s-1.07-4.52,2,.87a169,169,0,0,1-4.08-18.53c-2.14-12.23-16.13-36.39-26-29.74S213.73,40.64,218.87,58.6Z" fill="url(#as)"/><path d="M253.14,78.25c5.92-.25,5.71,23.63,5.71,23.63s-.72-.9-.76,2.6c0,0-.54-4.3-6.84-13.64S248.55,78.44,253.14,78.25Z" fill="url(#at)"/><path d="M269.28,104.48s-.28-6,.91-2.53c0,0-.69-8.59-.47-19.48s.28-25.06-8.9-28.27-6,12-.46,24A168.06,168.06,0,0,1,269.28,104.48Z" fill="url(#au)"/><path d="M291.46,142.6s-1.19-2.49-1.36,2.76a41,41,0,0,0-9.78-21.56c-9-10.44,2.75-15.59,7.68-10.66S289.19,132.73,291.46,142.6Z" fill="url(#av)"/><path d="M296.47,192.57s3.68-8.18,9-12.21,8.94-24.22.34-22.61-7.71,26-11,34.82C294.8,192.57,297.53,189.67,296.47,192.57Z" fill="url(#aw)"/><path d="M66.77,127.52c2.2-5.8,1.31-.07,1.31-.07A136.91,136.91,0,0,0,78.77,98.33c-3,8.58-11.28,10.84-12.5-4.89A93.06,93.06,0,0,0,67,104.51C68.78,119.29,67.39,125.59,66.77,127.52Z" opacity="0.56" fill="url(#ax)" style="mix-blend-mode:multiply"/><path d="M24.7,102.44c.75,2.63,1.79,5.58,3,8.8,4.36,11.64,9,21.72,9,21.72-.29-4,.33-2.37.33-2.37-.84-2.55-.73-10.23.88-20.55a40.77,40.77,0,0,0,.42-9.92C38.49,115.64,28.54,115.21,24.7,102.44Z" opacity="0.56" fill="url(#ay)" style="mix-blend-mode:multiply"/><path d="M4.43,90.6a14.22,14.22,0,0,0,2.23,1.5A123.42,123.42,0,0,1,22.54,102c-1.39-1.53-.67-1.28-.67-1.28-2.18-2.39-4.13-11-7.35-17.42C17.86,89.53,10,94.16,4.43,90.6Z" opacity="0.56" fill="url(#az)" style="mix-blend-mode:multiply"/><path d="M86.53,43.77C87.79,58.56,89.13,73,89.13,73c.84-9.06,1.62-6.76,1.62-6.76.9-4.85,10-15.29,15.51-25.7-7.81,14.86-20.75.76-16.1-15.48A38.37,38.37,0,0,0,86.53,43.77Z" opacity="0.56" fill="url(#ba)" style="mix-blend-mode:multiply"/><path d="M111.31,46.43c.28-1.86,2.29-9.58,16.76-19.94a50.73,50.73,0,0,0,10.07-9.3c-8.93,10.91-25.23,7.68-18.49-6.41-7.37,14-9.9,36.72-9.9,36.72S111.81,41.87,111.31,46.43Z" opacity="0.56" fill="url(#bb)" style="mix-blend-mode:multiply"/><path d="M220.83,59.47a169,169,0,0,1-4.08-18.53c-.95-5.42-4.22-13.18-8.43-19.56,7.05,11.25-1.55,18-14.38,3,7.66,9.89,21.71,23,24.93,34.25C218.87,58.6,217.8,54.08,220.83,59.47Z" opacity="0.56" fill="url(#bc)" style="mix-blend-mode:multiply"/><path d="M258.08,104.48c.05-3.5.77-2.6.77-2.6s.09-10.25-1.51-17.25c1.55,6.9-1.78,11.63-8.24,2.49a28.34,28.34,0,0,0,2.15,3.72C257.55,100.18,258.08,104.48,258.08,104.48Z" opacity="0.56" fill="url(#bd)" style="mix-blend-mode:multiply"/><path d="M269.28,104.48s-.28-6,.91-2.53c0,0-.69-8.59-.47-19.48,0-2.21.08-4.55,0-6.91-.81,6.27-8.52,4.46-13.4-8.28a73.87,73.87,0,0,0,4,11A168.06,168.06,0,0,1,269.28,104.48Z" opacity="0.56" fill="url(#be)" style="mix-blend-mode:multiply"/><path d="M290.1,145.36c.17-5.25,1.36-2.76,1.36-2.76-1.56-6.77-.29-15.79-.93-22.38.69,8.76-4.26,10.8-12.63,0a15.64,15.64,0,0,0,2.42,3.6A41,41,0,0,1,290.1,145.36Z" opacity="0.56" fill="url(#bf)" style="mix-blend-mode:multiply"/><path d="M296.47,192.57s3.68-8.18,9-12.21c1.71-1.31,3.24-4.31,4.25-7.71-2.84,8-13.58,7.7-10.14-6.09-2.27,8.35-2.66,20.37-4.74,26C294.8,192.57,297.53,189.67,296.47,192.57Z" opacity="0.56" fill="url(#bg)" style="mix-blend-mode:multiply"/><path d="M71.35,81.39c-2.79,1-5.06,3.18-5.08,12a34.36,34.36,0,0,0,.5,3.84c.17-7.1,12.07-10.64,13.18-7C80.31,83,78,78.9,71.35,81.39Z" fill="url(#bh)" style="mix-blend-mode:screen"/><path d="M28.16,90c-5.22.94-5.4,5.55-3.46,12.42a16.92,16.92,0,0,0,4.55,7.93c-5.44-6,5.24-20.24,8.17-14.77C36,91.59,33.2,89.11,28.16,90Z" fill="url(#bi)" style="mix-blend-mode:screen"/><path d="M10.14,91.68c-7.2-.8-6.1-13-1.7-12.14a9.09,9.09,0,0,1,6.08,3.78,68.35,68.35,0,0,1,2.94,7.08C15.14,84,12.14,76.93,7.29,76-.29,74.51-3,84.67,4.43,90.6A7.74,7.74,0,0,0,10.14,91.68Z" fill="url(#bj)" style="mix-blend-mode:screen"/><path d="M107.63,19.46c-7.4-8.14-14.55-1.82-18.36,7.66.28-.7.58-1.39.89-2.05C87.8,33.34,90,41,93.73,44.66c-8.32-10.32,19.41-26.8,16-13.74a11.39,11.39,0,0,0-.38,2.45C111.05,28.11,111,23.2,107.63,19.46Z" fill="url(#bk)" style="mix-blend-mode:screen"/><path d="M132.05,0c-5.16.28-9.23,4.7-12.4,10.74-2.17,4.54-1.94,7.94-.35,10.12-3.86-7.53,27.09-21.85,22.1-9.13a3.14,3.14,0,0,0-.19.79C145,5.24,142.71-.53,132.05,0Z" fill="url(#bl)" style="mix-blend-mode:screen"/><path d="M202.58,31.82c-13.3-10.75-5-22.53,2.62-14.68-4.67-5.64-10-9-14.44-5.94-4.06,2.73-.89,8.2,4.6,14.94-.49-.61-1-1.2-1.42-1.79A31.1,31.1,0,0,0,202.58,31.82Z" fill="url(#bm)" style="mix-blend-mode:screen"/><path d="M253.14,78.25c-4.23.18-7.61,2.8-3.17,10.53-.33-.58-.62-1.13-.87-1.66,2.47,3.49,4.47,4.95,5.93,5-4.52-1.53-2.94-18,1.42-10.53C255.64,79.54,254.57,78.19,253.14,78.25Z" fill="url(#bn)" style="mix-blend-mode:screen"/><path d="M260.82,54.2c-6.46-2.26-6.77,4.61-4.47,13.08,2,5.24,4.49,8.6,6.78,10.34-7.66-6.54,1.25-23.5,4.73-15.53C266.55,58.37,264.39,55.45,260.82,54.2Z" fill="url(#bo)" style="mix-blend-mode:screen"/><path d="M277.9,120.2a32.26,32.26,0,0,0,4.85,5.19c-4.94-4.46,1.76-15.21,5.69-11.7-.15-.18-.28-.38-.44-.55C283.67,108.82,274.13,112.25,277.9,120.2Z" fill="url(#bp)" style="mix-blend-mode:screen"/><path d="M305.77,157.75c-3.09.57-5,4.12-6.23,8.82-1.45,5.81-.37,9.2,1.57,10.6-4.76-4,9.06-22.67,9.79-13C310.76,160.1,309.3,157.09,305.77,157.75Z" fill="url(#bq)" style="mix-blend-mode:screen"/><path d="M181.74,261.33c-24.16-15.9-5.2-10.24-5.2-10.24s-38.67-31.84-56.83-57.23c16.3,22.79,37.57,44.54,37.57,44.54-11.93-12.08-28.19-24.25-28.19-24.25C148.76,230,171,257.66,171,257.66s-26.47-2.55-48.23-15.51a172.53,172.53,0,0,0,37.1,17c14.87,1.87,21.86,5,21.86,5C163.39,253.8,181.74,261.33,181.74,261.33Z" fill="#510057" opacity="0.44" style="mix-blend-mode:multiply"/><path d="M182.49,261.33c7.56,4.74.93,4,.93,4,5,2,.31,2.75-3.7,3,11.71-.3,6.07,1.8,2.16,3,9.07-2.42,13-2.66,14.67-2.55-9.71-2-.44-2.51-.44-2.51-7.5,0-3.67-2.93-3.67-2.93-5.35,2-.76-5.66-.76-5.66,8.86-6.73,2.6,5.2,2.6,5.2,18.65.66,4,2.9,4,2.9a59.66,59.66,0,0,0,11.08.39l-.45,0a81.62,81.62,0,0,0,20.47-4.4c-26.18,5.11-31.56-.38-31.56-.38,2.43-3.57,16.9-14.63,30.14-22.06-3.62,2-8.31,4.71-8.31,4.71A162.78,162.78,0,0,0,235,232.77c-10.63,8.3-36.92,21.37-36.92,21.37a82.82,82.82,0,0,1,16.07-33.84c-11.54,13.67-19.89,25.44-19.89,25.44a418.41,418.41,0,0,0,31.78-59.08,253,253,0,0,1-20.48,34.64c-12.9,18.35-13.14,27.25-13.14,27.25s-2.29-7.55,0-13.52a174.48,174.48,0,0,1-2.12-33.33c-.07.61-.14,1.35-.2,2.3-1.1,17.44,1.71,51,1.71,51l-4.59-24.24,3.83,25.52a177.08,177.08,0,0,1-8-39.53c.9,23.55,4.16,36,4.16,36a323.14,323.14,0,0,0-13.43-42.33,249.9,249.9,0,0,1,8.68,30.65c3.89,17.74,2,25.44-1.36,6.3-4.41-16.66-12.08-36.64-19.19-53.6,6.93,18.67,16.59,57.3,16.59,57.3C185.41,258.09,182.49,261.33,182.49,261.33Z" fill="#510057" opacity="0.44" style="mix-blend-mode:multiply"/><path d="M202.91,272.41c19.13-2.09,31.49.88,36,2.26C217.57,267.33,202.91,272.41,202.91,272.41Z" fill="#510057" opacity="0.44" style="mix-blend-mode:multiply"/><path d="M197,272.64c-4.3,1-27.37,9.83-36.5,18.19,8.3-7.44,34.35-16.53,40.55-17.19a18.94,18.94,0,0,1,11.16,2.46C208.65,273.64,201.38,271.59,197,272.64Z" fill="#510057" opacity="0.44" style="mix-blend-mode:multiply"/><path d="M134.5,252.5c13.43,10.27,29.81,10.13,29.81,10.13a6.1,6.1,0,0,0,3.2-1.3A54.6,54.6,0,0,1,134.5,252.5Z" fill="#510057" opacity="0.44" style="mix-blend-mode:multiply"/><path d="M199.47,270.82s16.82-2.15,24.54-.7c11.24.69,17.66-2.14,17.66-2.14-10.88,3-22.78.38-22.78.38,12.57,1.2,24.71-1,31.2-2.52-7.22,1.38-15.93,1.05-28.9,1.91C205.16,268.81,199.47,270.82,199.47,270.82Z" fill="#510057" opacity="0.44" style="mix-blend-mode:multiply"/><path d="M173.13,268.52c-31.85-1.53-57.75-23.63-57.75-23.63,19.57,17.21,43.37,22.54,48.84,23.57l1.16.21C170.86,269.83,173.13,268.52,173.13,268.52Z" fill="#510057" opacity="0.44" style="mix-blend-mode:multiply"/><path d="M105.14,270.27c30.12-2.75,66.66,5.36,66.66,5.36l6.58-1.76C150.09,266.07,105.14,270.27,105.14,270.27Z" fill="#510057" opacity="0.44" style="mix-blend-mode:multiply"/></g></svg>