<svg xmlns="http://www.w3.org/2000/svg" xmlns:xlink="http://www.w3.org/1999/xlink" viewBox="0 0 154.17 162.65"><defs><linearGradient id="a" x1="75.51" y1="40.95" x2="75.51" gradientUnits="userSpaceOnUse"><stop offset="0.11" stop-color="#382b61"/><stop offset="0.33" stop-color="#3b2e66"/><stop offset="0.59" stop-color="#443674"/><stop offset="0.87" stop-color="#52428b"/><stop offset="1" stop-color="#5a4a99"/></linearGradient><linearGradient id="b" x1="75.61" y1="51.29" x2="75.61" y2="14.51" gradientUnits="userSpaceOnUse"><stop offset="0" stop-color="#5a4a99"/><stop offset="0.31" stop-color="#7058a1"/><stop offset="0.95" stop-color="#a87cb5"/><stop offset="1" stop-color="#ad7fb7"/></linearGradient><linearGradient id="c" x1="87.55" y1="39.88" x2="81.83" y2="42.45" gradientUnits="userSpaceOnUse"><stop offset="0" stop-color="#055c55"/><stop offset="0.53" stop-color="#008e64"/><stop offset="0.62" stop-color="#049064"/><stop offset="0.72" stop-color="#129565"/><stop offset="0.82" stop-color="#279e67"/><stop offset="0.92" stop-color="#46aa69"/><stop offset="1" stop-color="#62b66b"/></linearGradient><linearGradient id="d" x1="105.14" y1="39.88" x2="99.42" y2="42.45" gradientTransform="matrix(-1, 0, 0, 1, 169.46, 0)" xlink:href="#c"/><linearGradient id="e" x1="61.04" y1="29.59" x2="65.63" y2="15.74" gradientTransform="translate(12.22 29.29) rotate(-16.79)" gradientUnits="userSpaceOnUse"><stop offset="0" stop-color="#cbb7da"/><stop offset="0.28" stop-color="#a895c6"/><stop offset="0.77" stop-color="#705fa6"/><stop offset="1" stop-color="#5a4a99"/></linearGradient><linearGradient id="f" x1="70.83" y1="12.7" x2="67.46" y2="16.06" gradientTransform="translate(12.22 29.29) rotate(-16.79)" gradientUnits="userSpaceOnUse"><stop offset="0" stop-color="#eb5c76"/><stop offset="0.07" stop-color="#e15378"/><stop offset="0.28" stop-color="#c83c7c"/><stop offset="0.5" stop-color="#b62b7f"/><stop offset="0.73" stop-color="#ab2181"/><stop offset="1" stop-color="#a81e82"/></linearGradient><linearGradient id="g" x1="68.22" y1="46.12" x2="68.22" y2="26.51" gradientUnits="userSpaceOnUse"><stop offset="0" stop-color="#010101"/><stop offset="0.38" stop-color="#686323"/><stop offset="0.68" stop-color="#b5ac3c"/><stop offset="0.89" stop-color="#e4d94b"/><stop offset="1" stop-color="#f6ea51"/></linearGradient><linearGradient id="h" x1="83.67" y1="46.46" x2="83.67" y2="30.4" xlink:href="#g"/><linearGradient id="i" x1="9.1" y1="74.7" x2="46.72" y2="74.7" gradientUnits="userSpaceOnUse"><stop offset="0.11" stop-color="#382b61"/><stop offset="0.49" stop-color="#392c63"/><stop offset="0.67" stop-color="#3e306b"/><stop offset="0.81" stop-color="#463878"/><stop offset="0.93" stop-color="#51428a"/><stop offset="1" stop-color="#5a4a99"/></linearGradient><linearGradient id="j" x1="103.73" y1="81.45" x2="142.7" y2="81.45" gradientUnits="userSpaceOnUse"><stop offset="0" stop-color="#5a4a99"/><stop offset="0.07" stop-color="#4f4086"/><stop offset="0.16" stop-color="#443675"/><stop offset="0.28" stop-color="#3d306a"/><stop offset="0.44" stop-color="#392c63"/><stop offset="0.89" stop-color="#382b61"/></linearGradient><linearGradient id="k" x1="84.57" y1="68.17" x2="61.03" y2="78.74" gradientTransform="matrix(-0.73, -0.68, -0.68, 0.73, 201.94, 71.61)" gradientUnits="userSpaceOnUse"><stop offset="0" stop-color="#62b66b"/><stop offset="0.08" stop-color="#46aa69"/><stop offset="0.18" stop-color="#279e67"/><stop offset="0.28" stop-color="#129565"/><stop offset="0.38" stop-color="#049064"/><stop offset="0.47" stop-color="#008e64"/><stop offset="1" stop-color="#055c55"/></linearGradient><linearGradient id="l" x1="76.24" y1="63.76" x2="76.24" y2="39.4" xlink:href="#b"/><linearGradient id="m" x1="78.07" y1="127.92" x2="78.07" y2="60.21" gradientUnits="userSpaceOnUse"><stop offset="0" stop-color="#d94e96"/><stop offset="0.14" stop-color="#bf4c96"/><stop offset="0.4" stop-color="#974a96"/><stop offset="0.63" stop-color="#7a4896"/><stop offset="0.83" stop-color="#684696"/><stop offset="0.98" stop-color="#624696"/></linearGradient><linearGradient id="n" x1="78.51" y1="127.92" x2="78.51" y2="60.21" gradientUnits="userSpaceOnUse"><stop offset="0" stop-color="#fff"/><stop offset="0.01" stop-color="#fcfcfd"/><stop offset="0.08" stop-color="#d8cfe4"/><stop offset="0.16" stop-color="#b8a8cd"/><stop offset="0.25" stop-color="#9c87ba"/><stop offset="0.34" stop-color="#866cab"/><stop offset="0.44" stop-color="#75579f"/><stop offset="0.55" stop-color="#694896"/><stop offset="0.68" stop-color="#624092"/><stop offset="0.89" stop-color="#603d90"/></linearGradient><linearGradient id="o" x1="78.49" y1="127.92" x2="78.49" y2="60.21" xlink:href="#n"/><linearGradient id="p" x1="79.55" y1="127.92" x2="79.55" y2="60.21" xlink:href="#n"/><linearGradient id="q" x1="78.94" y1="127.92" x2="78.94" y2="60.21" xlink:href="#n"/><linearGradient id="r" x1="78.07" y1="127.92" x2="78.07" y2="60.21" gradientUnits="userSpaceOnUse"><stop offset="0" stop-color="#fff"/><stop offset="0.06" stop-color="#ece7f1"/><stop offset="0.22" stop-color="#c1b4d4"/><stop offset="0.37" stop-color="#9f89bc"/><stop offset="0.51" stop-color="#8368a9"/><stop offset="0.65" stop-color="#70509b"/><stop offset="0.78" stop-color="#644293"/><stop offset="0.89" stop-color="#603d90"/></linearGradient><linearGradient id="s" x1="77.66" y1="162.65" x2="77.66" y2="61.47" gradientUnits="userSpaceOnUse"><stop offset="0" stop-color="#fff1d2"/><stop offset="0.13" stop-color="#fceace"/><stop offset="0.31" stop-color="#f3d8c2"/><stop offset="0.52" stop-color="#e4b9b0"/><stop offset="0.75" stop-color="#cf8f95"/><stop offset="1" stop-color="#b65b75"/></linearGradient><linearGradient id="t" x1="99.49" y1="149.05" x2="99.49" y2="97.49" gradientUnits="userSpaceOnUse"><stop offset="0" stop-color="#2b4d9c"/><stop offset="0.18" stop-color="#5671b0"/><stop offset="0.58" stop-color="#b0bdda"/><stop offset="0.86" stop-color="#e9edf5"/><stop offset="1" stop-color="#fff"/></linearGradient><linearGradient id="u" x1="85.32" y1="149.05" x2="85.32" y2="97.49" gradientTransform="matrix(-1, 0, 0, 1, 140.61, 0)" xlink:href="#t"/><linearGradient id="v" x1="77.66" y1="145.22" x2="77.66" y2="64.4" gradientUnits="userSpaceOnUse"><stop offset="0" stop-color="#055c55"/><stop offset="0.2" stop-color="#096056"/><stop offset="0.41" stop-color="#176d59"/><stop offset="0.63" stop-color="#2c825e"/><stop offset="0.86" stop-color="#4ba066"/><stop offset="1" stop-color="#62b66b"/></linearGradient><linearGradient id="w" x1="24.15" y1="44.83" x2="47.05" y2="44.83" xlink:href="#i"/><linearGradient id="x" x1="105.27" y1="44.83" x2="128.17" y2="44.83" xlink:href="#j"/><linearGradient id="y" x1="108.97" y1="61.99" x2="140.77" y2="61.99" xlink:href="#j"/><linearGradient id="z" x1="15.63" y1="55.68" x2="43.03" y2="55.68" xlink:href="#i"/><linearGradient id="aa" x1="79.39" y1="146.06" x2="79.39" y2="74.24" gradientUnits="userSpaceOnUse"><stop offset="0" stop-color="#a0b2dc"/><stop offset="0.1" stop-color="#97a8d0"/><stop offset="0.28" stop-color="#818fb1"/><stop offset="0.51" stop-color="#5c667e"/><stop offset="0.79" stop-color="#292e38"/><stop offset="1" stop-color="#010101"/></linearGradient><linearGradient id="ab" x1="78.43" y1="80.69" x2="78.43" y2="-0.13" xlink:href="#g"/><linearGradient id="ac" x1="59.18" y1="86.5" x2="59.18" y2="-1.89" gradientUnits="userSpaceOnUse"><stop offset="0" stop-color="#010101"/><stop offset="0.31" stop-color="#686323"/><stop offset="0.56" stop-color="#b5ac3c"/><stop offset="0.73" stop-color="#e4d94b"/><stop offset="0.82" stop-color="#f6ea51"/></linearGradient><linearGradient id="ad" x1="96.19" y1="89" x2="96.19" y2="-1.61" xlink:href="#ac"/><linearGradient id="ae" x1="76.65" y1="55.53" x2="76.65" y2="29.92" xlink:href="#g"/><linearGradient id="af" x1="129.46" y1="26.24" x2="144.9" y2="26.24" gradientTransform="matrix(0.97, 0.22, -0.22, 0.97, -4.09, -27.95)" xlink:href="#e"/><linearGradient id="ag" x1="158.16" y1="41.22" x2="173.69" y2="41.22" gradientTransform="matrix(0.91, 0.42, -0.42, 0.91, 1.74, -56.95)" xlink:href="#e"/><linearGradient id="ah" x1="192.45" y1="48.4" x2="207.9" y2="48.4" gradientTransform="translate(33.04 -102.81) rotate(45.57)" xlink:href="#e"/><linearGradient id="ai" x1="51.59" y1="46.76" x2="67.03" y2="46.76" gradientTransform="matrix(-0.97, 0.22, 0.22, 0.97, 77.7, -27.95)" xlink:href="#e"/><linearGradient id="aj" x1="80.71" y1="68.46" x2="96.19" y2="68.46" gradientTransform="matrix(-0.91, 0.42, 0.42, 0.91, 71.86, -56.95)" xlink:href="#e"/><linearGradient id="ak" x1="131.35" y1="99.67" x2="146.8" y2="99.67" gradientTransform="matrix(-0.7, 0.71, 0.71, 0.7, 40.56, -102.81)" xlink:href="#e"/><linearGradient id="al" x1="146.61" y1="15.56" x2="143.17" y2="19" gradientTransform="matrix(0.97, 0.22, -0.22, 0.97, -4.09, -27.95)" xlink:href="#f"/><linearGradient id="am" x1="175.43" y1="30.23" x2="171.97" y2="33.69" gradientTransform="matrix(0.91, 0.42, -0.42, 0.91, 1.74, -56.95)" xlink:href="#f"/><linearGradient id="an" x1="209.65" y1="35.89" x2="206.18" y2="39.36" gradientTransform="translate(33.04 -102.81) rotate(45.57)" xlink:href="#f"/><linearGradient id="ao" x1="-24.86" y1="-53.94" x2="-28.32" y2="-50.48" gradientTransform="matrix(0.74, -0.68, -0.68, -0.74, 5.41, -31.95)" xlink:href="#f"/><linearGradient id="ap" x1="-15.1" y1="-14.92" x2="-18.56" y2="-11.46" gradientTransform="matrix(0.64, -0.77, -0.77, -0.64, 10.72, 16.47)" xlink:href="#f"/><linearGradient id="aq" x1="10.68" y1="58.1" x2="7.25" y2="61.53" gradientTransform="matrix(0.33, -0.95, -0.95, -0.33, 55.81, 93.16)" xlink:href="#f"/></defs><g style="isolation:isolate"><path d="M79.42,35.25S81.81,32.76,81,30s-6.36-4.76-3-1.11c0,0-2.52,0,1.57,2.2,0,0-2.32,0,.33,1.77a3.76,3.76,0,0,1-3,2.69c-2.42.38-4.3-3.8-4.3-3.8s3-2.33,0-1.54c0,0,3.43-3.3,1.6-3,0,0,2.49-1.91-.49-1.75s-4.53,4.12-.44,9.09S79.42,35.25,79.42,35.25Z" fill="#5a4a99"/><path d="M83.09,38.13S85.91,30.68,91,26a17.86,17.86,0,0,1-4.47-14.44C87.81,2.75,90.13-1.3,85.74.37s-3.56,14.55,2.49,25.09A37.32,37.32,0,0,0,81.93,37c-2,6.4-11.1,0-11.1,0s-2.4-8.2-7.86-12.32c0,0,8.44-9.21,9.69-15.87S72.57,0,69.26,0,72.66,14.33,60,24.88c0,0,8.49,6.56,9.05,12.09S81.46,41.67,83.09,38.13Z" fill="url(#a)"/><path d="M71.31,51.29s-7.73-2.13-3.81-11.65,15.17-6,17,1.27-4.69,10.38-4.69,10.38Z" fill="url(#b)"/><path d="M81.19,40.84S80.69,47,75.51,47s-4.81-6.29-4.81-6.29l-2.52-2.49a10.56,10.56,0,0,0-.68,1.39c-3.92,9.52,3.81,11.65,3.81,11.65h8.5s5.34-2.55,5-8.47Z" fill="#0870b4" opacity="0.3" style="mix-blend-mode:multiply"/><path d="M81.54,42.57c-1.94-7.68,2.06-8,5.24-3.56S84.05,52.47,81.54,42.57Z" fill="url(#c)"/><path d="M70.32,42.57c2-7.68-2-8-5.24-3.56S67.82,52.47,70.32,42.57Z" fill="url(#d)"/><path d="M83,41.7c-.09-.79,1.27-1.76,1.74-1.55S83.21,43.52,83,41.7Z" fill="#f6ea51" opacity="0.9" style="mix-blend-mode:screen"/><path d="M68,41.81c-.79-.23-1.19-1.82-.8-2.14S69.8,42.35,68,41.81Z" fill="#f6ea51" opacity="0.9" style="mix-blend-mode:screen"/><path d="M74,37.37c-1-.26-2.63,2.77-1.26,2.67S75.51,37.74,74,37.37Z" fill="#694595" opacity="0.2" style="mix-blend-mode:multiply"/><path d="M73.64,40.07c1.35-1,4.85-.32,4.7,1.3S70.68,42.34,73.64,40.07Z" fill="#694595" opacity="0.2" style="mix-blend-mode:multiply"/><path d="M77.3,37.27c-1.1.9.56,2.8,1.28,2.32S79.22,35.69,77.3,37.27Z" fill="#694595" opacity="0.2" style="mix-blend-mode:multiply"/><polygon points="81.7 24.12 75.56 51.27 76.23 51.4 82.96 24.26 81.7 24.12" fill="url(#e)"/><path d="M80.77,28.2s1.86-3.74,1.16.21l1-4.15-1.26-.14Z" fill="#694595" opacity="0.2" style="mix-blend-mode:multiply"/><path d="M80.55,22a2.52,2.52,0,0,1,3.89-.48,2.17,2.17,0,0,1-.8,3.39C82.15,25.55,78.66,25.05,80.55,22Z" fill="url(#f)"/><path d="M84.73,22c.51,1.47-1.82,3.12-2.07,1.81-.28-1.52,1.08-2.94,1.61-2.48a2.57,2.57,0,0,0-3.72.66c-1.89,3,1.6,3.54,3.09,2.91A2.13,2.13,0,0,0,84.73,22Z" fill="#b01378" opacity="0.28" style="mix-blend-mode:multiply"/><path d="M83.21,22.57c-.18-.41.39-1.14.67-1.1S83.63,23.51,83.21,22.57Z" fill="#f6ea51" opacity="0.9" style="mix-blend-mode:screen"/><path d="M84,38.26c2.52.74,4.19,6,2.21,8,1.42-1.55,2.14-5,.53-7.2-2.92-4.08-6.52-4.12-5.59,1.83C81.22,40.69,80.49,37.21,84,38.26Z" fill="#0870b4" opacity="0.3" style="mix-blend-mode:multiply"/><path d="M67.46,38.49c2.64-1.94,3.21.17,3.34,1.27.34-4.85-3-4.57-5.72-.75A6.19,6.19,0,0,0,65,45.35C65,45.23,64.05,41,67.46,38.49Z" fill="#0870b4" opacity="0.3" style="mix-blend-mode:multiply"/><path d="M70.08,43.42c.86-3,.3-6.13-3-1.84S68.71,48.31,70.08,43.42Z" fill="url(#g)" style="mix-blend-mode:screen"/><path d="M81.83,43.57c-.59-2.26-.1-6,2.92-1.31S83,48.14,81.83,43.57Z" fill="url(#h)" style="mix-blend-mode:screen"/><path d="M9.1,67.28s.21-7.39,11.09-.22S41,82.89,44,80.4s2.68.65,2.68.65a6.27,6.27,0,0,1-5.61,4.41c-4.4.17-19.24-16.95-22.57-17.35s-6.76,1-6.64,3.67c0,0-2.12-4.18,3.08-5.62C15,66.16,11,64.45,9.1,67.28Z" fill="#5a4a99"/><path d="M9.1,67.28s.21-7.39,11.09-.22S41,82.89,44,80.4s2.68.65,2.68.65a6.27,6.27,0,0,1-5.61,4.41c-4.4.17-19.24-16.95-22.57-17.35s-6.76,1-6.64,3.67c0,0-2.12-4.18,3.08-5.62C15,66.16,11,64.45,9.1,67.28Z" fill="url(#i)"/><path d="M142.69,76s.64-7.36-11-1.38-22.48,13.55-25.22,10.75-2.75.36-2.75.36.73,4.35,5.08,5,21.06-14.82,24.42-14.88,6.6,1.73,6.18,4.35c0,0,2.59-3.93-2.42-5.91C137,74.22,141.08,72.94,142.69,76Z" fill="#5a4a99"/><path d="M142.69,76s.64-7.36-11-1.38-22.48,13.55-25.22,10.75-2.75.36-2.75.36.73,4.35,5.08,5,21.06-14.82,24.42-14.88,6.6,1.73,6.18,4.35c0,0,2.59-3.93-2.42-5.91C137,74.22,141.08,72.94,142.69,76Z" fill="url(#j)"/><path d="M24.7,28.64s4.75-5.82,9.06,6.13,6.91,24.57,10.91,24.29,1.75,2,1.75,2-3.61,2.73-7.25.36-5-24.58-7.4-26.8-6.07-3-7.62-.83c0,0,.88-4.57,6-2.77C30.11,31.07,28,27.48,24.7,28.64Z" fill="#5a4a99"/><path d="M67.5,51.13S40.74,58.87,41.67,61.47,62.14,59,62.14,59Z" fill="#5a4a99"/><path d="M127.61,28.64s-4.74-5.82-9,6.13-6.91,24.57-10.91,24.29-1.76,2-1.76,2,3.61,2.73,7.26.36,5-24.58,7.4-26.8,6.07-3,7.62-.83c0,0-.89-4.57-6-2.77C122.2,31.07,124.3,27.48,127.61,28.64Z" fill="#5a4a99"/><path d="M84.82,51.13s26.75,7.74,25.83,10.34S90.18,59,90.18,59Z" fill="#5a4a99"/><path d="M140.77,49.81s-2.51-7-10.65,3-14.88,21.07-18.56,19.56-2.36,1.4-2.36,1.4,2.49,3.7,6.74,2.59S129,54.65,132,53.31s6.77-1,7.48,1.59c0,0,.72-4.59-4.69-4.48C134.83,50.42,138,47.68,140.77,49.81Z" fill="#5a4a99"/><path d="M92.66,57.73s22.67,15.66,20.91,17.84-18.51-8.72-18.51-8.72Z" fill="#5a4a99"/><path d="M95.33,64.65S109.5,87.72,107,89,93.69,73.91,93.69,73.91Z" fill="url(#k)"/><path d="M15.63,41.3s3.69-6.48,10,4.63,11,23.15,14.91,22.26,2.09,1.74,2.09,1.74-3.1,3.26-7.1,1.49S26.41,48,23.63,46.14s-6.51-2-7.65.38c0,0,.09-4.64,5.4-3.67C21.38,42.85,18.7,39.63,15.63,41.3Z" fill="#5a4a99"/><path d="M61.69,56.78S36.62,68.61,38,71s19.77-5.65,19.77-5.65Z" fill="#5a4a99"/><path d="M57.47,61S40.74,82.47,43.1,84,58,70.41,58,70.41Z" fill="#5a4a99"/><path d="M47.83,61.89l0,0c1.65-.21,3.47-.53,5.24-.88-2.39,1.23-5,2.59-7.3,3.92,7.11-2.32,10.17-3,10.82-2.74.36.14,0,.58-.92,1.2-3.57,2.5-15,7.88-15.17,8,3-.44,8.22-2.32,12.12-3.86-1.62,2.2-3.41,4.71-5,7.1,10.09-9.84-2.32,7.44-2.32,7.44l3-1.1A134.09,134.09,0,0,0,58,70.41l-.31-5s2.75-6,2.75-6L62.14,59l5.36-7.87s-10.64,3.08-18.27,6C70.48,52.05,47.83,61.89,47.83,61.89Z" fill="#0870b4" opacity="0.3" style="mix-blend-mode:multiply"/><path d="M101,63.76c-1.6-1.2-3.14-2.31-4.44-3.25a80.17,80.17,0,0,0,10.15,1.65c-24.4-7.29-10.6-7.48-10.55-7.48-5.91-2-11.37-3.55-11.37-3.55L90.18,59s1.2.31,3,.74l1.87,7.11A141.21,141.21,0,0,0,107.49,74C91.8,59.85,98.58,62.58,101,63.76Z" fill="#0870b4" opacity="0.3" style="mix-blend-mode:multiply"/><path d="M58.63,67.92s-4.77-3.72,2.85-12.35,24.9-9.94,32.65,4.68S69.39,74.64,69.39,74.64Z" fill="url(#l)"/><path d="M77.4,60.25c11.52,1.23,24.2,9.43,26,31.7s-14.87,35.7-23.59,36-28.9-15.74-27.1-38.52S71.4,59.61,77.4,60.25Z" fill="url(#m)"/><path d="M78.24,82.8c14.15,2.14,21.28,15.7,24,22.42A37.28,37.28,0,0,0,103.53,96c-4.61-10.93-12.73-22.8-25.6-19.13C61.3,81.62,55.44,94,53.5,100.17a33.39,33.39,0,0,0,1.22,4.2C57.84,95.41,65,80.8,78.24,82.8Z" opacity="0.56" fill="url(#n)" style="mix-blend-mode:multiply"/><path d="M79.39,91.85c-11.72-.34-19.21,10.65-22.63,17.24a39.13,39.13,0,0,0,2.59,4.36c2.69-5.32,9.4-16.36,18.89-16.69,10-.34,17.51,12.32,20.12,17.43a35.44,35.44,0,0,0,1.86-3.52C98,104.64,92,92.21,79.39,91.85Z" opacity="0.56" fill="url(#o)" style="mix-blend-mode:multiply"/><path d="M79.39,115.65a13.8,13.8,0,0,0-11.9,6.66c1,.77,1.91,1.47,2.85,2.09,7.52-5.26,13.82-1.94,17.17.86a28.49,28.49,0,0,0,4.1-3A14.48,14.48,0,0,0,79.39,115.65Z" opacity="0.56" fill="url(#p)" style="mix-blend-mode:multiply"/><path d="M80.56,103.27c-8,.7-15.27,9.1-18.63,13.57.79.94,1.6,1.83,2.44,2.66,2.82-3.58,8.56-9.5,15.55-9.35,6.64.15,11.25,6.23,13.61,10.3a32.78,32.78,0,0,0,2.41-2.77C93.35,111.84,88,102.62,80.56,103.27Z" opacity="0.56" fill="url(#q)" style="mix-blend-mode:multiply"/><path d="M103.4,92c-1.8-22.27-14.48-30.47-26-31.7-6-.64-22.88,6.37-24.69,29.15s18.37,38.78,27.1,38.52S105.2,114.22,103.4,92ZM79,117.55c-14.74,0-21.91-22-21.91-22C72,87.4,77.66,70.74,77.66,70.74c6.41,16,21.71,25.39,21.71,25.39S93.78,117.55,79,117.55Z" opacity="0.56" fill="url(#r)" style="mix-blend-mode:multiply"/><path d="M110.82,89.4c-11.91-24.69-31-27.93-31-27.93l-1.69,1.59c0-.74-.05-1.15-.05-1.15l-2.56-.44s-19.1,3.24-31,27.93-8.3,54,2.88,66.33,11,9.9,22-21.2c5.13-14.5,7.36-31.25,8.28-45,.82,13.49,3,30.23,8.22,45,11,31.1,10.84,33.51,22,21.2S122.72,114.08,110.82,89.4Z" opacity="0.47" fill="url(#s)"/><path d="M83.63,58.79c2.64-.16,1.21-6.68-1.6-5.67S79.74,59,83.63,58.79Z" fill="#694595" opacity="0.2" style="mix-blend-mode:multiply"/><path d="M89.83,61.69c2.65-.17,1.22-6.69-1.6-5.68S85.94,61.93,89.83,61.69Z" fill="#694595" opacity="0.2" style="mix-blend-mode:multiply"/><path d="M78.2,62.3c2.65-.16,1.22-6.68-1.6-5.67S74.31,62.55,78.2,62.3Z" fill="#694595" opacity="0.2" style="mix-blend-mode:multiply"/><path d="M61.48,55.57S51.89,62.31,54.88,72s21.56-9,21.56-9l10,1.71L97.75,72a17.24,17.24,0,0,0-7.29-16.83s8.64,6-14.22,6.76S61.48,55.57,61.48,55.57Z" fill="#694595" opacity="0.2" style="mix-blend-mode:multiply"/><path d="M80.6,101.23c-.23,11.22,2.63,26.44,7.25,19.85s14.11-3.87,11.63,1.59-5.77-.81-4.84-1.18c0,0-2.23,5.77,1.61,5.77s5-3.44,7,.61-14.74,6.76-12-4.66c0,0-.78,5.55-4.91,1.79,0,0-2.47,5.74,3.2,7.69s9.18-3.22,11.45,1.57-5.09.88-8.25,1.68,1.93,11.21,7,12.69,10.68-1.09,9-4.85-6.91-4.54-6.52-1.14c0,0,1.4-3.21,4.5,1.14s-7.52,1.16-7.32-1.79,5.88-3.89,7.24-2.44c0,0-.76-3.4,1.31-3.61s2.29,7.84,2.29,7.84.58-5,3.18-5.91,2.27-17.21-4.68-12.87,3.87,10.15,3.56,3.75a2.32,2.32,0,0,1-3.56,0c-1.93-1.92,4.49-4.47,4.59,1.81s-8.47,2.44-8.36,0,0-9.32,3.2-9.56,9.07,1.91,7.84,7.75c0,0,5.92-14.5-1.21-18.92s-8.16,4.83-8.16,4.83,2.36-4.59,5.87-3.18-5,8-7.54,6.08-1.54-16.82,8.16-14.73.82-23.58-5.78-19.52.6,13.38.6,13.38-2.83-6.37.4-7.48,8,5.76,6.45,8.34-9.49,3.08-9.83-3.56c0,0-3.81,12-8.66,9.82s-3-13.64.62-15.23,4.74,2.46,3.92,5.9-3.22-2.59-3.22-2.59S94.72,99.56,99,99s6.51-12.76,3.67-16.13-9,8-13,7.68-4.64-2-4.64-2S90.51,94.19,88.76,99,84,91.78,84,91.78s-3.07,11.6,3.16,12.73,10.72.26,6.51,6.16-12.35,3.92-9.57,0,5.68,0,5.68,0-.79-7-6.19-2.81C83.6,107.86,80.71,96.32,80.6,101.23Z" opacity="0.2" fill="url(#t)" style="mix-blend-mode:multiply"/><path d="M74.17,101.23c.24,11.22-2.62,26.44-7.24,19.85s-14.11-3.87-11.64,1.59,5.78-.81,4.85-1.18c0,0,2.23,5.77-1.62,5.77s-5-3.44-7.05.61,14.74,6.76,12-4.66c0,0,.78,5.55,4.9,1.79,0,0,2.48,5.74-3.19,7.69s-9.19-3.22-11.46,1.57,5.09.88,8.26,1.68-1.94,11.21-7.06,12.69-10.68-1.09-9-4.85,6.91-4.54,6.52-1.14c0,0-1.4-3.21-4.51,1.14s7.53,1.16,7.32-1.79-5.87-3.89-7.23-2.44c0,0,.76-3.4-1.32-3.61s-2.28,7.84-2.28,7.84-.58-5-3.18-5.91S39,120.66,46,125s-3.87,10.15-3.56,3.75a2.31,2.31,0,0,0,3.56,0c1.93-1.92-4.49-4.47-4.6,1.81s8.48,2.44,8.37,0,0-9.32-3.2-9.56-9.07,1.91-7.85,7.75c0,0-5.92-14.5,1.22-18.92s8.16,4.83,8.16,4.83-2.36-4.59-5.87-3.18,5,8,7.54,6.08,1.54-16.82-8.16-14.73-.82-23.58,5.78-19.52-.61,13.38-.61,13.38,2.83-6.37-.39-7.48-8,5.76-6.45,8.34,9.48,3.08,9.83-3.56c0,0,3.81,12,8.66,9.82s3-13.64-.62-15.23S53,91,53.85,94.48s3.22-2.59,3.22-2.59,3,7.67-1.26,7.11S49.3,86.24,52.14,82.87s9,8,13,7.68,4.65-2,4.65-2S64.27,94.19,66,99s4.75-7.22,4.75-7.22,3.06,11.6-3.16,12.73-10.73.26-6.52,6.16,12.36,3.92,9.57,0-5.67,0-5.67,0,.78-7,6.19-2.81C71.18,107.86,74.07,96.32,74.17,101.23Z" opacity="0.2" fill="url(#u)" style="mix-blend-mode:multiply"/><path d="M77.92,62.23s-3.67-11.51-26,12-28.86,62.46-21.24,68c0,0,7.09-31.33,25-48.68S78.23,67.29,77.92,62.23Z" fill="#055c55"/><path d="M70.81,59.75c.93-2.33-5.78-4.8-6.57-3.47S69.2,63.82,70.81,59.75Z" fill="#694595" opacity="0.2" style="mix-blend-mode:multiply"/><path d="M77.4,62.23s3.66-11.51,26,12,28.87,62.46,21.25,68c0,0-7.09-31.33-25-48.68S77.09,67.29,77.4,62.23Z" fill="#055c55"/><path d="M103.4,72.28C84.19,52,78.79,57.71,77.66,59.7c-1.14-2-6.53-7.67-25.75,12.58C29.57,95.81,22.62,136.48,30.24,142c0,0,7.52-33.08,25.46-50.43C70.78,77,76.43,68.37,77.66,63c1.23,5.39,6.88,14,22,28.6C117.56,108.93,125.08,142,125.08,142,132.7,136.48,125.74,95.81,103.4,72.28Z" fill="url(#v)"/><path d="M24.7,28.64s4.75-5.82,9.06,6.13,6.91,24.57,10.91,24.29,1.75,2,1.75,2-3.61,2.73-7.25.36-5-24.58-7.4-26.8-6.07-3-7.62-.83c0,0,.88-4.57,6-2.77C30.11,31.07,28,27.48,24.7,28.64Z" fill="url(#w)"/><path d="M127.61,28.64s-4.74-5.82-9,6.13-6.91,24.57-10.91,24.29-1.76,2-1.76,2,3.61,2.73,7.26.36,5-24.58,7.4-26.8,6.07-3,7.62-.83c0,0-.89-4.57-6-2.77C122.2,31.07,124.3,27.48,127.61,28.64Z" fill="url(#x)"/><path d="M140.77,49.81s-2.51-7-10.65,3-14.88,21.07-18.56,19.56-2.36,1.4-2.36,1.4,2.49,3.7,6.74,2.59S129,54.65,132,53.31s6.77-1,7.48,1.59c0,0,.72-4.59-4.69-4.48C134.83,50.42,138,47.68,140.77,49.81Z" fill="url(#y)"/><path d="M15.63,41.3s3.69-6.48,10,4.63,11,23.15,14.91,22.26,2.09,1.74,2.09,1.74-3.1,3.26-7.1,1.49S26.41,48,23.63,46.14s-6.51-2-7.65.38c0,0,.09-4.64,5.4-3.67C21.38,42.85,18.7,39.63,15.63,41.3Z" fill="url(#z)"/><path d="M98.77,90.74c.28.29.55.56.85.84C117.56,108.93,125.08,142,125.08,142c7.24-5.25,1.31-42.21-18.45-66.07C136.14,123.21,100.53,92.29,98.77,90.74Z" fill="#0870b4" opacity="0.3" style="mix-blend-mode:multiply"/><path d="M30.24,142s7.52-33.08,25.46-50.43l.86-.85c-39.21,34.46-7.38-15.19-6.85-16C29.12,98.52,22.87,136.67,30.24,142Z" fill="#0870b4" opacity="0.3" style="mix-blend-mode:multiply"/><path d="M76.71,74.24s-30.47,28.24-28.82,46,18.35,57.07,29.8-30.73c0,0,1,22.32,11.45,42.79s17.61,17.66,21.53-5.55S76.71,74.24,76.71,74.24Z" opacity="0.21" fill="url(#aa)" style="mix-blend-mode:color-dodge"/><path d="M89.14,78.52s-17.08-25.8,2.47-2.67c0,0-18.89-27,0-5.65,0,0-15.64-20.64.36-3.57-2.84-3.06-12.73-14,3.36-2l.78.57C82.77,53.57,78.63,58,77.66,59.7c-.94-1.64-4.79-5.78-16.91,4.2.88-.57,21.59-14.18.94,2.89,0,0,21-14.63,5.75-1.39,4.79-4,11.8-9-1.33,7.19,0,0,22.2-21.37-.66,6.72,0,0,5.51-6.6,8.51-8.48A25.52,25.52,0,0,0,77.66,63a21.94,21.94,0,0,0,2.52,5.94C80.7,68.31,83.08,70.49,89.14,78.52Z" fill="url(#ab)" style="mix-blend-mode:screen"/><path d="M58.54,65.8c-17.89,17.35-12.83,26,3.39,12.77S70.18,54.5,58.54,65.8Z" fill="url(#ac)" style="mix-blend-mode:screen"/><path d="M98.25,67.14c9.48,7.7,18.23,34.28-6.08,10.9C76.44,62.91,88.09,58.89,98.25,67.14Z" fill="url(#ad)" style="mix-blend-mode:screen"/><path d="M52.64,78c-1-5.84,10.56-14.76,11.13-9.39S53.42,82.83,52.64,78Z" fill="#f6ea51" opacity="0.35" style="mix-blend-mode:screen"/><path d="M52.74,84.73c-2.4-1,2.92-5.74,4-4.11S55.67,86,52.74,84.73Z" fill="#f6ea51" opacity="0.35" style="mix-blend-mode:screen"/><path d="M59.8,80.35c-.27-2.42,3.91-5.41,5.34-4.74S60.44,85.92,59.8,80.35Z" fill="#f6ea51" opacity="0.35" style="mix-blend-mode:screen"/><path d="M93.91,83c1.08,2.32,7-1.24,5-3.41S92.32,79.61,93.91,83Z" fill="#f6ea51" opacity="0.35" style="mix-blend-mode:screen"/><path d="M97.71,78c-3.1-.19-7-7.8-4.77-10.92S104.53,78.38,97.71,78Z" fill="#f6ea51" opacity="0.35" style="mix-blend-mode:screen"/><path d="M89.31,77.47c2.6,0,2.68-6.86,1.11-7.11S84.76,77.43,89.31,77.47Z" fill="#f6ea51" opacity="0.35" style="mix-blend-mode:screen"/><path d="M80,53.63c-1.25,2.72-10.05,3.54-12.34.49S82.77,47.64,80,53.63Z" fill="#694595" opacity="0.2" style="mix-blend-mode:multiply"/><path d="M76.24,49.15c8,.2,18.79,5.38,1.14,6.31S66.41,48.9,76.24,49.15Z" fill="url(#ae)" style="mix-blend-mode:screen"/><polygon points="120 35.79 133.01 22.45 131.98 21.74 120.64 33.84 120 35.79" fill="url(#af)"/><polygon points="145.18 46.48 144.33 45.58 130.33 55.32 129.12 57.21 145.18 46.48" fill="url(#ag)"/><polygon points="150.8 72.87 150.34 71.74 131.09 76.83 128.8 78.24 150.8 72.87" fill="url(#ah)"/><polygon points="32.52 36.03 22.28 25.11 21.25 25.82 32.99 37.86 32.52 36.03 32.52 36.03" fill="url(#ai)"/><polygon points="11.31 38.13 10.46 39.04 25.25 48.92 24.54 47.35 11.31 38.13" fill="url(#aj)"/><polygon points="3.57 64.9 3.11 66.03 22.21 70.69 20.57 69.39 3.57 64.9" fill="url(#ak)"/><path d="M129.07,24.85s3.54-2.38.89.72l3-3.12-1-.71Z" fill="#694595" opacity="0.2" style="mix-blend-mode:multiply"/><path d="M132.07,19.36a2.49,2.49,0,0,1,3.63,1.42,2.27,2.27,0,0,1-2.44,2.58C131.64,23.2,128.86,21.1,132.07,19.36Z" fill="url(#al)"/><path d="M135.7,21.35c-.32,1.52-3.19,1.85-2.73.59.54-1.45,2.46-2,2.68-1.39a2.55,2.55,0,0,0-3.58-1.19c-3.21,1.74-.43,3.84,1.19,4A2.24,2.24,0,0,0,135.7,21.35Z" fill="#b01378" opacity="0.28" style="mix-blend-mode:multiply"/><path d="M134.1,21.11c.05-.44.92-.81,1.15-.63S134,22.12,134.1,21.11Z" fill="#f6ea51" opacity="0.9" style="mix-blend-mode:screen"/><path d="M140.8,48s4-1.61.72.89l3.66-2.44-.85-.91Z" fill="#694595" opacity="0.2" style="mix-blend-mode:multiply"/><path d="M144.94,43.27a2.45,2.45,0,0,1,3.24,2.12,2.31,2.31,0,0,1-3,2C143.68,46.93,141.42,44.33,144.94,43.27Z" fill="url(#am)"/><path d="M148.06,45.94c-.65,1.42-3.53,1.17-2.8,0,.84-1.31,2.84-1.5,2.92-.83a2.51,2.51,0,0,0-3.24-1.87c-3.52,1.06-1.26,3.66.28,4.14A2.29,2.29,0,0,0,148.06,45.94Z" fill="#b01378" opacity="0.28" style="mix-blend-mode:multiply"/><path d="M146.54,45.38c.15-.42,1.08-.6,1.26-.39S146.2,46.35,146.54,45.38Z" fill="#f6ea51" opacity="0.9" style="mix-blend-mode:screen"/><path d="M146.14,72.85s4.32-.17.34,1.08l4.32-1.06-.46-1.13Z" fill="#694595" opacity="0.2" style="mix-blend-mode:multiply"/><path d="M151.76,69.78a2.25,2.25,0,1,1-1.26,4C149.23,72.79,148.07,69.59,151.76,69.78Z" fill="url(#an)"/><path d="M153.69,73.34c-1.12,1.11-3.73-.1-2.63-.92,1.27-.94,3.22-.44,3,.21a2.42,2.42,0,0,0-2.34-2.85c-3.69-.19-2.53,3-1.26,4A2.33,2.33,0,0,0,153.69,73.34Z" fill="#b01378" opacity="0.28" style="mix-blend-mode:multiply"/><path d="M152.48,72.3c.29-.34,1.23-.2,1.32.07S151.81,73.09,152.48,72.3Z" fill="#f6ea51" opacity="0.9" style="mix-blend-mode:screen"/><path d="M25.19,28.22s-3.54-2.38-.89.72l-3.05-3.12,1-.71Z" fill="#694595" opacity="0.2" style="mix-blend-mode:multiply"/><path d="M21.12,26.69a2.37,2.37,0,0,0,2.41-3,2.36,2.36,0,0,0-3.45-1.07C18.75,23.56,17.42,26.7,21.12,26.69Z" fill="url(#ao)"/><path d="M23.24,23.24c-1.07-1.17-3.73-.09-2.68.78,1.22,1,3.19.61,3.05-.06a2.43,2.43,0,0,1-2.49,2.73c-3.7,0-2.37-3.13-1-4A2.33,2.33,0,0,1,23.24,23.24Z" fill="#b01378" opacity="0.28" style="mix-blend-mode:multiply"/><path d="M22,24.21c.28.36,1.22.26,1.33,0S21.34,23.39,22,24.21Z" fill="#f6ea51" opacity="0.9" style="mix-blend-mode:screen"/><path d="M14.83,40.59s-4-1.61-.72.89L10.46,39l.85-.91Z" fill="#694595" opacity="0.2" style="mix-blend-mode:multiply"/><path d="M10.31,40a2.34,2.34,0,0,0,2-3.23,2.37,2.37,0,0,0-3.57-.63C7.53,37.24,6.65,40.52,10.31,40Z" fill="url(#ap)"/><path d="M11.94,36.36c-1.22-1-3.71.38-2.55,1.11,1.35.84,3.24.19,3-.44a2.39,2.39,0,0,1-2.09,3c-3.66.48-2.78-2.8-1.59-3.86A2.34,2.34,0,0,1,11.94,36.36Z" fill="#b01378" opacity="0.28" style="mix-blend-mode:multiply"/><path d="M10.82,37.48c.32.32,1.24.1,1.31-.17S10.08,36.74,10.82,37.48Z" fill="#f6ea51" opacity="0.9" style="mix-blend-mode:screen"/><path d="M7.77,66s-4.32-.17-.34,1.08L3.11,66l.46-1.13Z" fill="#694595" opacity="0.2" style="mix-blend-mode:multiply"/><path d="M3.22,67.14a2.31,2.31,0,0,0,.66-3.71,2.38,2.38,0,0,0-3.57.63C-.41,65.46,0,68.83,3.22,67.14Z" fill="url(#aq)"/><path d="M3.38,63.13c-1.52-.54-3.33,1.62-2,1.91,1.57.33,3.1-.92,2.65-1.44a2.35,2.35,0,0,1-.84,3.54C0,68.83-.41,65.46.31,64.06A2.32,2.32,0,0,1,3.38,63.13Z" fill="#b01378" opacity="0.28" style="mix-blend-mode:multiply"/><path d="M2.74,64.56c.42.19,1.21-.32,1.17-.59S1.78,64.13,2.74,64.56Z" fill="#f6ea51" opacity="0.9" style="mix-blend-mode:screen"/></g></svg>