<svg xmlns="http://www.w3.org/2000/svg" viewBox="0 0 142 129.7"><g style="isolation:isolate"><path d="M100.47,119c-17.65,9.87-25.61,10.66-28.27,10.73h-.91c-2.59,0-10.19-.57-27-9.28l-1.49-.78c-20.92-11.06-55-40.29-38.3-67.95S60.36,39,60.36,39l10.34,2.8,10.28-3s38.81-15.84,56.18,11.41A29.41,29.41,0,0,1,142,66.88C141.49,88.81,116.93,109.75,100.47,119Z" fill="#2bbbe0"/><path d="M60.39,40.87l-.78-16.15s-6.09-.36-4.87-4,29.35-4.58,31.67-2.61.26,4.52-1,5.06l-1.25.53.69,17.67-13.78,3.3Z" fill="#2bbbe0"/><path d="M59.22,6.92s2.93,22.46,4,23.13,5.37,1.5,8.81,1.33,8.82-2.57,9.18-3.46S80.48,2.47,79,1.61,73.37-1.17,67.06,1,59.81,4.81,59.22,6.92Z" fill="#eb8020"/><path d="M78.08,4A5.75,5.75,0,0,0,74,1a8.17,8.17,0,0,0-1.23-.1C70.35.88,63.23,3.57,62,4.15S60.1,6,60.69,6.76,69,6.37,71.76,6.14s6.09-1.4,5.6-1.12-6.07,2.7-7,3.08c-2.7,1.09-6.1,1.41-6.62,2.4s1.1,18.27,2.57,19S79.42,28.72,80.08,28,79.22,11.23,78.8,6.48A6.71,6.71,0,0,0,78.08,4Z" fill="#ba5317"/><path d="M10.56,65.13s7.19,46.11,55.1,50.92,59.92-34.68,61.78-43.34c2.7-12.55-2.39-21.21-2.39-21.21L95.43,77.77l-56.3,1.55Z" fill="#b0312f"/><path d="M83.07,83.33a94.8,94.8,0,0,1-34.58-.78c-23.67-5-37.93-17.42-37.93-17.42-6-8.26,32.09,13.55,56.42,4,9.08-3.58,16.33-6.67,22.3-9.3,16.25-7.14,23-10.79,31.48-11.17C133.84,48,126.76,76.33,83.07,83.33Z" fill="#ca3b3b"/><path d="M83.07,83.33a94.8,94.8,0,0,1-34.58-.78,144.61,144.61,0,0,0,22.82.93c-.37,0-7.71-.22-8.4-1.82s6.51-3.62,13.42-2.4,1.5,3.93,1.31,4a61.29,61.29,0,0,0,15.84-3.58c9.3-3.27,28.33-15.3,27.87-23.85-.25-4.63-16.86-.68-32.07,3.92,16.25-7.14,23-10.79,31.48-11.17C133.84,48,126.76,76.33,83.07,83.33Z" fill="#eb5b78"/><path d="M66.12,119.74c-6.1-1.28-14.55-3.5-16.1-2.56-2.78,1.68,15.16,10.75,20.66,10.62s17.59-7,15.78-9.24S72.23,121,66.12,119.74Z" fill="#4cbecf" opacity="0.85" style="mix-blend-mode:multiply"/><path d="M27.28,47.7c4.37-4.55,2.63-9.46-5.29-5.24S7.61,55,5.92,66s3.61,16.24,6.83,16S10.56,65.13,27.28,47.7Z" fill="#fff"/><path d="M34.67,39C33.19,42.68,58,44.85,57.15,42.16S36.15,35.3,34.67,39Z" fill="#fff"/><path d="M87.75,41.59s16.11-5.21,27.71-2.11S131,49.22,131,49.22s-2.1-11-18.24-12.77A41.9,41.9,0,0,0,87.75,41.59Z" fill="#d3ebf2"/><path d="M66,19.4s-8.09.37-7.88,2.85c.19,2.33,5.22,2.58,5.22,2.58l.77,15.46S41.89,35,29,38.93s-34.56,22-17.55,48.52,51,36.08,60.78,33.77,30.22-29.73,30.22-29.73L94,107.81s33.64-17.29,31.23-46.64S92,37.75,86.24,39.53s-4,1.28-4,1.28L81.93,24.1S86.33,22.74,85,20,66,19.4,66,19.4Z" fill="#99d5e6" opacity="0.36" style="mix-blend-mode:screen"/><path d="M100.47,119c-17.65,9.87-25.61,10.66-28.27,10.73h-.91c-2.59,0-10.19-.57-27-9.28,8.12,2.91,15.21,5.22,15.21,5.22s-9.38-7.66-8.16-22.35c1.11-13.28,9.3-38.71,43.8-41.22s28.28,28.48,28.28,28.48,5.44-.93,12.9-10.79A36.13,36.13,0,0,0,142,66.88C141.49,88.81,116.93,109.75,100.47,119Z" fill="#43b3db" opacity="0.6" style="mix-blend-mode:multiply"/></g></svg>