<svg xmlns="http://www.w3.org/2000/svg" xmlns:xlink="http://www.w3.org/1999/xlink" viewBox="0 0 202.11 288.42"><defs><linearGradient id="a" x1="98.33" y1="288.42" x2="98.33" y2="180.91" gradientUnits="userSpaceOnUse"><stop offset="0" stop-color="#003f4f"/><stop offset="0.03" stop-color="#024251"/><stop offset="0.37" stop-color="#19636d"/><stop offset="0.66" stop-color="#27777f"/><stop offset="0.86" stop-color="#2c7e85"/></linearGradient><linearGradient id="b" x1="17.16" y1="6.69" x2="59.51" y2="66.92" gradientUnits="userSpaceOnUse"><stop offset="0" stop-color="#988ec4"/><stop offset="0.19" stop-color="#7c7cb5"/><stop offset="0.56" stop-color="#495a9a"/><stop offset="0.84" stop-color="#294689"/><stop offset="1" stop-color="#1d3e83"/></linearGradient><linearGradient id="c" x1="16.17" y1="7.38" x2="62.93" y2="73.87" gradientUnits="userSpaceOnUse"><stop offset="0.02" stop-color="#fff"/><stop offset="0.52" stop-color="#bfa5cb"/><stop offset="0.98" stop-color="#814c98"/></linearGradient><linearGradient id="d" x1="68" y1="48.96" x2="33.29" y2="48.96" gradientUnits="userSpaceOnUse"><stop offset="0.02" stop-color="#fff"/><stop offset="0.51" stop-color="#c9a5cb"/><stop offset="0.98" stop-color="#934b97"/></linearGradient><clipPath id="e"><path d="M67.61,61.32a2.54,2.54,0,0,0,1.74-3.16c-1.66-5.47-6.74-18.5-17.69-19.79C38.55,36.84,31.1,48.45,31.16,57.1a1.06,1.06,0,0,0,1.27,1c1.34-.29,3.87-.18,7.84,2.4C46.18,64.4,57.18,64.42,67.61,61.32Z" fill="none"/></clipPath><linearGradient id="f" x1="50.58" y1="62.75" x2="50.58" y2="42.88" gradientUnits="userSpaceOnUse"><stop offset="0.11" stop-color="#f1eab9"/><stop offset="0.24" stop-color="#f1e1b3"/><stop offset="0.43" stop-color="#f0c9a1"/><stop offset="0.68" stop-color="#eea185"/><stop offset="0.96" stop-color="#ec6b5e"/><stop offset="1" stop-color="#ec6459"/></linearGradient><linearGradient id="g" x1="78.16" y1="-10.93" x2="78.16" y2="-33.21" gradientTransform="translate(-24.18 80.86) rotate(-5.41)" gradientUnits="userSpaceOnUse"><stop offset="0" stop-color="#3f9144"/><stop offset="0.88" stop-color="#0c4b30"/></linearGradient><linearGradient id="h" x1="78.47" y1="-15.79" x2="78.47" y2="-29.49" gradientTransform="translate(-24.18 80.86) rotate(-5.41)" gradientUnits="userSpaceOnUse"><stop offset="0" stop-color="#9ec2e8"/><stop offset="0.06" stop-color="#93afd4"/><stop offset="0.23" stop-color="#777fa1"/><stop offset="0.4" stop-color="#615878"/><stop offset="0.57" stop-color="#4f3957"/><stop offset="0.73" stop-color="#422340"/><stop offset="0.87" stop-color="#3b1632"/><stop offset="1" stop-color="#38112d"/></linearGradient><linearGradient id="i" x1="77.85" y1="-3.37" x2="77.85" y2="-19.86" gradientTransform="translate(-24.18 80.86) rotate(-5.41)" gradientUnits="userSpaceOnUse"><stop offset="0" stop-color="#010101"/><stop offset="0.45" stop-color="#766f01"/><stop offset="0.83" stop-color="#d0c400"/><stop offset="1" stop-color="#f4e600"/></linearGradient><linearGradient id="j" x1="23.29" y1="60.01" x2="31.76" y2="68.48" gradientUnits="userSpaceOnUse"><stop offset="0" stop-color="#ef7f9f"/><stop offset="0.31" stop-color="#9b5267"/><stop offset="0.63" stop-color="#492731"/><stop offset="0.85" stop-color="#150c0e"/><stop offset="0.96" stop-color="#010101"/></linearGradient><linearGradient id="k" x1="40.98" y1="64.81" x2="51.22" y2="75.05" xlink:href="#j"/><linearGradient id="l" x1="43.3" y1="10.94" x2="53.91" y2="21.56" gradientUnits="userSpaceOnUse"><stop offset="0" stop-color="#faf2a2"/><stop offset="0.33" stop-color="#9c9765"/><stop offset="0.64" stop-color="#49462f"/><stop offset="0.86" stop-color="#15140e"/><stop offset="0.96" stop-color="#010101"/></linearGradient><linearGradient id="m" x1="19.45" y1="1.29" x2="35.52" y2="17.36" xlink:href="#l"/><linearGradient id="n" x1="56.64" y1="23.29" x2="61.06" y2="27.72" xlink:href="#l"/><linearGradient id="o" x1="13.45" y1="24.54" x2="19.77" y2="30.85" xlink:href="#l"/><linearGradient id="p" x1="21.9" y1="53.13" x2="26.88" y2="58.12" xlink:href="#j"/><linearGradient id="q" x1="83.58" y1="17.32" x2="141.22" y2="99.28" xlink:href="#b"/><linearGradient id="r" x1="81.97" y1="13.67" x2="161.42" y2="123.03" xlink:href="#c"/><linearGradient id="s" x1="91.84" y1="72.8" x2="153.01" y2="72.8" gradientUnits="userSpaceOnUse"><stop offset="0.02" stop-color="#934b97"/><stop offset="0.49" stop-color="#c9a5cb"/><stop offset="0.98" stop-color="#fff"/></linearGradient><clipPath id="t"><path d="M82.84,85.31a1.17,1.17,0,0,1-.49-2.23c4.11-2,10.16-6,17.81-13.65,14.71-14.72,44.2-13.67,53.18,11.09a1.16,1.16,0,0,1-1.14,1.55c-2-.12-5.92.37-12.26,3.77-10.21,5.47-15.09,4-28.84,1.63C102.2,85.93,90.2,85.46,82.84,85.31Z" fill="none"/></clipPath><linearGradient id="u" x1="117.55" y1="88.65" x2="117.55" y2="65.28" xlink:href="#f"/><linearGradient id="v" x1="140.01" y1="32.63" x2="140.01" y2="-2.59" gradientTransform="translate(75.56 -52.08) rotate(66.92)" xlink:href="#g"/><linearGradient id="w" x1="140.51" y1="24.95" x2="140.51" y2="3.29" xlink:href="#h"/><linearGradient id="x" x1="207.22" y1="61.92" x2="207.22" y2="35.85" gradientTransform="matrix(-0.08, 1.84, -1, -0.04, 181.24, -282.85)" xlink:href="#i"/><linearGradient id="y" x1="75.14" y1="47.05" x2="83.72" y2="55.63" xlink:href="#l"/><linearGradient id="z" x1="158.55" y1="38.47" x2="175.39" y2="55.31" xlink:href="#l"/><linearGradient id="aa" x1="142.19" y1="36.59" x2="147.38" y2="41.78" xlink:href="#l"/><linearGradient id="ab" x1="124.88" y1="19.12" x2="140.64" y2="34.89" xlink:href="#l"/><linearGradient id="ac" x1="89.16" y1="8.52" x2="111.91" y2="31.28" xlink:href="#l"/><linearGradient id="ad" x1="109.52" y1="70.34" x2="154.87" y2="115.68" xlink:href="#j"/><linearGradient id="ae" x1="84.42" y1="92.55" x2="121.42" y2="129.55" xlink:href="#j"/><linearGradient id="af" x1="142.74" y1="94.04" x2="162.66" y2="139.23" xlink:href="#b"/><linearGradient id="ag" x1="127.68" y1="119.62" x2="171.62" y2="119.62" gradientUnits="userSpaceOnUse"><stop offset="0.39" stop-color="#934b97"/><stop offset="0.68" stop-color="#c9a5cb"/><stop offset="0.98" stop-color="#fff"/></linearGradient><linearGradient id="ah" x1="138.21" y1="89.32" x2="176.18" y2="141.58" xlink:href="#c"/><linearGradient id="ai" x1="158.34" y1="78.56" x2="174.7" y2="94.92" xlink:href="#l"/><linearGradient id="aj" x1="113.71" y1="110.34" x2="119.68" y2="116.31" xlink:href="#l"/><linearGradient id="ak" x1="103.74" y1="121.95" x2="117.57" y2="135.78" xlink:href="#j"/><linearGradient id="al" x1="101.53" y1="130.06" x2="115.2" y2="130.06" xlink:href="#c"/><linearGradient id="am" x1="10.17" y1="67.6" x2="78.81" y2="165.22" gradientUnits="userSpaceOnUse"><stop offset="0.23" stop-color="#988ec4"/><stop offset="0.37" stop-color="#7c7cb5"/><stop offset="0.66" stop-color="#495a9a"/><stop offset="0.88" stop-color="#294689"/><stop offset="1" stop-color="#1d3e83"/></linearGradient><linearGradient id="an" x1="11.89" y1="73.28" x2="80.45" y2="167.64" xlink:href="#c"/><linearGradient id="ao" x1="36.88" y1="130.12" x2="89.92" y2="130.12" xlink:href="#s"/><clipPath id="ap"><path d="M93.52,142a1.21,1.21,0,0,0-.2-1c-1.54-2.06-8.2-10.93-17.11-22.18C66,106,47.37,102.25,43.53,116.74c-3.18,12-4.84,17.28-7.41,19.44a1.16,1.16,0,0,0,.25,1.9,45.77,45.77,0,0,1,11.28,8.39C54.57,153.37,86.44,170.64,93.52,142Z" fill="none"/></clipPath><linearGradient id="aq" x1="64.64" y1="156.37" x2="64.64" y2="116.69" xlink:href="#f"/><linearGradient id="ar" x1="64.14" y1="24.31" x2="64.14" y2="-10.47" gradientTransform="translate(-3.38 148.23) rotate(-22.17)" xlink:href="#g"/><linearGradient id="as" x1="62.85" y1="16.66" x2="62.85" y2="-4.72" gradientTransform="translate(-3.38 148.23) rotate(-22.17)" xlink:href="#h"/><linearGradient id="at" x1="56.93" y1="34.15" x2="56.93" y2="8.41" gradientTransform="translate(-3.38 148.23) rotate(-22.17)" xlink:href="#i"/><linearGradient id="au" x1="12.09" y1="139.97" x2="22.92" y2="150.8" xlink:href="#j"/><linearGradient id="av" x1="61.3" y1="173.79" x2="73.96" y2="186.45" xlink:href="#j"/><linearGradient id="aw" x1="29.41" y1="155.63" x2="46.13" y2="172.35" xlink:href="#j"/><linearGradient id="ax" x1="9.08" y1="61.02" x2="41.52" y2="93.46" xlink:href="#l"/><linearGradient id="ay" x1="21.78" y1="152.15" x2="29.86" y2="160.24" xlink:href="#j"/><linearGradient id="az" x1="57.66" y1="76.4" x2="68.73" y2="87.48" xlink:href="#l"/><linearGradient id="ba" x1="12.73" y1="110.49" x2="18.43" y2="116.18" xlink:href="#l"/><linearGradient id="bb" x1="4.89" y1="93.48" x2="17.8" y2="106.39" xlink:href="#l"/><linearGradient id="bc" x1="143.21" y1="237.63" x2="181.38" y2="237.63" gradientUnits="userSpaceOnUse"><stop offset="0" stop-color="#010101"/><stop offset="0.07" stop-color="#050e13"/><stop offset="0.41" stop-color="#1b516b"/><stop offset="0.69" stop-color="#2b81ab"/><stop offset="0.9" stop-color="#34a0d3"/><stop offset="1" stop-color="#38abe2"/></linearGradient><linearGradient id="bd" x1="33.03" y1="224.89" x2="75.58" y2="224.89" gradientUnits="userSpaceOnUse"><stop offset="0" stop-color="#38abe2"/><stop offset="0.1" stop-color="#34a0d3"/><stop offset="0.31" stop-color="#2b81ab"/><stop offset="0.59" stop-color="#1b516b"/><stop offset="0.93" stop-color="#050e13"/><stop offset="1" stop-color="#010101"/></linearGradient><linearGradient id="be" x1="31.11" y1="259.6" x2="83.68" y2="259.6" xlink:href="#bd"/><linearGradient id="bf" x1="136.99" y1="208.54" x2="178.59" y2="208.54" xlink:href="#bc"/><linearGradient id="bg" x1="51.51" y1="268.83" x2="89.11" y2="268.83" xlink:href="#bd"/><linearGradient id="bh" x1="113.82" y1="131.01" x2="156.15" y2="191.21" gradientUnits="userSpaceOnUse"><stop offset="0.12" stop-color="#988ec4"/><stop offset="0.29" stop-color="#7c7cb5"/><stop offset="0.61" stop-color="#495a9a"/><stop offset="0.86" stop-color="#294689"/><stop offset="1" stop-color="#1d3e83"/></linearGradient><linearGradient id="bi" x1="112.41" y1="132.68" x2="150.01" y2="184.43" xlink:href="#c"/><linearGradient id="bj" x1="125.06" y1="160.99" x2="151.86" y2="160.99" gradientUnits="userSpaceOnUse"><stop offset="0.2" stop-color="#934b97"/><stop offset="0.58" stop-color="#c9a5cb"/><stop offset="0.98" stop-color="#fff"/></linearGradient><clipPath id="bk"><path d="M124.58,170.13a3.54,3.54,0,0,1,0-3.44c2.81-5,11.53-19.28,18-18.3s8.62,11.11,9.25,15a3.47,3.47,0,0,1-.64,2.66C147.67,170.74,134,187.17,124.58,170.13Z" fill="none"/></clipPath><linearGradient id="bl" x1="138.02" y1="176.77" x2="138.02" y2="153.73" xlink:href="#f"/><linearGradient id="bm" x1="152.5" y1="106.44" x2="152.5" y2="84.17" xlink:href="#g"/><linearGradient id="bn" x1="152.82" y1="101.58" x2="152.82" y2="87.88" xlink:href="#h"/><linearGradient id="bo" x1="152.19" y1="114" x2="152.19" y2="97.51" xlink:href="#i"/><linearGradient id="bp" x1="108.87" y1="132.52" x2="127.36" y2="151.01" xlink:href="#l"/><linearGradient id="bq" x1="122.36" y1="128.8" x2="138.28" y2="144.73" xlink:href="#l"/><linearGradient id="br" x1="135.58" y1="120.26" x2="146.57" y2="131.24" xlink:href="#l"/><linearGradient id="bs" x1="125.3" y1="186.3" x2="137.69" y2="198.69" xlink:href="#j"/><linearGradient id="bt" x1="114.81" y1="166.98" x2="120.24" y2="172.41" xlink:href="#l"/><linearGradient id="bu" x1="118.26" y1="183.08" x2="129.12" y2="193.95" xlink:href="#j"/><linearGradient id="bv" x1="138.74" y1="178.96" x2="151.03" y2="191.25" xlink:href="#j"/><linearGradient id="bw" x1="74.61" y1="153.66" x2="106.07" y2="198.41" xlink:href="#b"/><linearGradient id="bx" x1="75.01" y1="150.07" x2="104.02" y2="189.99" xlink:href="#c"/><linearGradient id="by" x1="85.82" y1="180.37" x2="106.97" y2="180.37" xlink:href="#s"/><clipPath id="bz"><path d="M107,179.22a3.44,3.44,0,0,0-.79-2.67c-2.3-2.74-8.4-9.38-12.53-8.2-4.69,1.34-7.56,9.37-7.72,14.05a3.37,3.37,0,0,0,.81,2.29c2,2.41,7.77,8.45,13.12,7S106.56,182.56,107,179.22Z" fill="none"/></clipPath><linearGradient id="ca" x1="96.46" y1="191.18" x2="96.46" y2="172.57" xlink:href="#f"/><linearGradient id="cb" x1="111.31" y1="116.92" x2="111.31" y2="99.96" xlink:href="#g"/><linearGradient id="cc" x1="111.55" y1="113.22" x2="111.55" y2="102.79" xlink:href="#h"/><linearGradient id="cd" x1="111.07" y1="122.68" x2="111.07" y2="110.12" xlink:href="#i"/><linearGradient id="ce" x1="68.96" y1="151.61" x2="80.58" y2="163.23" xlink:href="#l"/><linearGradient id="cf" x1="79.37" y1="143.64" x2="90.35" y2="154.62" xlink:href="#l"/><linearGradient id="cg" x1="67.95" y1="164.76" x2="78.25" y2="175.06" xlink:href="#l"/><linearGradient id="ch" x1="100.47" y1="157.99" x2="102.61" y2="160.13" xlink:href="#l"/><linearGradient id="ci" x1="95.22" y1="196.7" x2="102.24" y2="203.73" xlink:href="#j"/><linearGradient id="cj" x1="80.7" y1="183.69" x2="82.45" y2="185.44" xlink:href="#j"/><linearGradient id="ck" x1="78.62" y1="188.44" x2="84.35" y2="194.17" xlink:href="#j"/><linearGradient id="cl" x1="87.47" y1="194.02" x2="95.72" y2="202.27" xlink:href="#j"/><radialGradient id="cm" cx="95.13" cy="170.34" r="3.89" gradientTransform="translate(10.59 8.26) rotate(2.49)" gradientUnits="userSpaceOnUse"><stop offset="0" stop-color="#6fc7da"/><stop offset="0.04" stop-color="#66b6c7"/><stop offset="0.18" stop-color="#4b8793"/><stop offset="0.32" stop-color="#345e66"/><stop offset="0.46" stop-color="#223c42"/><stop offset="0.59" stop-color="#132225"/><stop offset="0.73" stop-color="#091011"/><stop offset="0.87" stop-color="#030505"/><stop offset="1" stop-color="#010101"/></radialGradient><radialGradient id="cn" cx="10.37" cy="109.83" r="3.89" xlink:href="#cm"/><radialGradient id="co" cx="291.1" cy="208.64" r="3.89" gradientTransform="translate(307.97 -148.07) rotate(93.07)" xlink:href="#cm"/><radialGradient id="cp" cx="230.02" cy="186.15" r="3.89" gradientTransform="translate(307.97 -148.07) rotate(93.07)" xlink:href="#cm"/><radialGradient id="cq" cx="251.73" cy="234.09" r="3.89" gradientTransform="translate(307.97 -148.07) rotate(93.07)" xlink:href="#cm"/><radialGradient id="cr" cx="435.51" cy="181.11" r="3.89" gradientTransform="translate(307.97 -148.07) rotate(93.07)" xlink:href="#cm"/><radialGradient id="cs" cx="269.8" cy="176.98" r="3.89" gradientTransform="translate(307.97 -148.07) rotate(93.07)" xlink:href="#cm"/></defs><g style="isolation:isolate"><path d="M170.25,219.22c-13.46-10.35-44.21,18-50.42,37.55,0,0,6.65-27.2,31.05-43.32s26.62,13.46,26.62,13.46,4.87-24.85-5.33-26.92-38.3,0-56.63,64.77c0,0,5.47-68.46,54.56-82.36,0,0,3.55,8.13,9.47,7.39,0,0,.59-12-8.88-8.52s-46.87,12.22-57.37,80.83c0,0-3.1-55.6,12.57-72.46S137,169.9,137,169.9s-27.33,16.79-26.81,81.26c0,0-4.92-46,17.08-107.43l-3.09-8S107.62,177.89,107,248.42c0,0-.11-46.06-5.46-61.73s-1.67,5-1.67,5,4.66,21.44,4.92,69.13c0,0-3.78-55.33-20.3-79.57L80,182s11.23,6.54,19.92,68.43c0,0-11.07-49.84-35.1-63.64,2,1.25,24.88,16.88,35.1,76.06,0,0-17-60.2-47.51-70.91s-34.2,10.36-34.2,10.36-6.56,6.87,0,13.3c0,0,5.67,0,.79-13.38,0,0,3.4-18.05,29.28-10.28s39.92,45.33,47.32,63.22c0,0-13.91-23.22-24.56-33.72s-38,9.91-38,9.91,21.62-14.27,40.22,1.78,25.08,34.15,25.08,34.15S73.87,222.17,31,235c0,0-6.71-1.48-7.13,4.14,0,0,4.41,1.52,7.13-3.4,0,0,36.36-14.05,63.57,28.68,0,0-15.06-16.26-29.12-20.11s-33,12.14-34.31,31.06c0,0,13-12.57,30.16-16.27s33.81-.69,37.06,24.06c0,0-7.33-16.06-15.17-20.66s-25.59,5.18-31.65,13.75c0,0,19.86-8.57,28.78-7.39S99.6,288.42,99.6,288.42s-.77-5.18,3.22-1c0,0,2.28-1.92,4.17,1,0,0-1.8-13.46,1.16-14.64s7.09,11.09,7.09,11.09-1.33-10.49,11.24-9.46,24,13,24,13-3.3-16-17.62-20.26-17.62,11.29-17.62,11.29,3.89-43.38,34.05-48.55,31.94,27.35,31.94,27.35S183.71,229.57,170.25,219.22Z" fill="url(#a)"/><path d="M98.3,217.7c-3.09-13.47-7.53-27.2-13.82-36.43L80,182s1.74,1,4.38,6c2.51,4.77,5.84,13.16,9.26,27.72C92.86,208.81,95.17,205.38,98.3,217.7Z" fill="#2d2765" opacity="0.44" style="mix-blend-mode:multiply"/><path d="M105.59,212.87A176.32,176.32,0,0,0,103,192.51l-2.43.35-.35.88c.5,2.85,1.42,8.77,2.31,18C102.46,204.5,104.59,205.9,105.59,212.87Z" fill="#2d2765" opacity="0.44" style="mix-blend-mode:multiply"/><path d="M114.8,188.84a308.38,308.38,0,0,1,12.42-45.11l-3.09-8s-6,15.44-10.95,43.23C114.93,170.12,116.34,176.74,114.8,188.84Z" fill="#2d2765" opacity="0.44" style="mix-blend-mode:multiply"/><path d="M80.29,268.9c8.93,1.18,19.31,19.52,19.31,19.52s-.77-5.18,3.22-1c0,0,2.28-1.92,4.17,1,0,0-1.8-13.46,1.16-14.64s7.09,11.09,7.09,11.09-1.33-10.49,11.24-9.46,24,13,24,13c-5.92-22.18-31-20.59-35.24-9,0,0,3.89-43.38,34.05-48.55,24.87-4.27,30.44,17.08,31.63,24.71-2.58-29.75-17.31-33.54-31.48-29.18-12.66,3.9-23.63,18.31-27.68,25.87-.79,1.6-1.22,2.58-1.29,2.75-.22.58-.42,1.16-.6,1.72,0,0,6.65-27.2,31.05-43.32s26.62,13.46,26.62,13.46c0-11.09-4.76-24-13.47-22s-33.41,13.46-48.49,59.89c0,0,5.47-68.46,54.56-82.36,0,0,2.87,6.53,7.73,7.34-3.48-1.1-5.36-8-5.36-8s-35.17,3.58-54.16,57.72a168.91,168.91,0,0,0-5,22.66s-3.1-55.6,12.57-72.46a77.33,77.33,0,0,0,9.16-11.47c-5.19,2.11-21.71,13.32-24.9,70.6,0,.8,0,1.57,0,2.39,0,0,0-.33-.08-.89a197.55,197.55,0,0,1,.47-31c-1.56,9.56-2.77,14.05-2.16-.06,0-1.31.1-2.62.14-3.92-.85,10.19-1.41,21.23-1.52,33.09,0,0,0-10.73-.65-23.6.17,9.68-.47,18.56-2.41,4.75,0-.2-.05-.37-.08-.56.5,8.91.86,19.48.93,31.83a319.77,319.77,0,0,0-5.42-38.26c2.52,13.46,2.09,27.85-2.23,10.32l0-.08c.94,5.31,1.88,11.13,2.79,17.6l-.21-.88a149.84,149.84,0,0,0-23-50.28c7.78,11,17.48,30.43,23.21,63.58,0,0-7.1-25.13-20.36-45.81C72.15,206.78,62,196.2,49.76,191.93c-26.9-9.36-31.11,10.36-31.11,10.36.72,2.21,0,14.68-2.83,9.82a9.81,9.81,0,0,0,2.37,3.48s5.67,0,.79-13.38c0,0,3.4-18.05,29.28-10.28s39.92,45.33,47.32,63.22c0,0-2-3.25-5-7.87-5.83-8.46-16.49-21.41-27.95-22.81A45.18,45.18,0,0,0,33,231.34s21.62-14.27,40.22,1.78,25.08,34.15,25.08,34.15C67,219.81,31,235.78,31,235.78s36.36-14.05,63.57,28.68c0,0-11.24-11.71-30.53-8.72s-32.9,19.67-32.9,19.67,13-12.57,30.16-16.27,33.81-.69,37.06,24.06c0,0-8.34-14-17.58-15.93s-29.24,9-29.24,9S71.37,267.72,80.29,268.9Z" fill="#2d2765" opacity="0.44" style="mix-blend-mode:multiply"/><path d="M64.89,26.4s-.66-9.54-6-5.33c0,0-.67-9.53-7.1-12.86s-5.55,1.33-5.55,1.33S42.71.22,26.74,0,12.55,17.52,24.53,25.29c0,0-8.65-6.66-12.2,1.11s9.76,19.07,16.63,24c0,0-5.32-.89-6,2.22,0,0-8.43,4.88-3.1,10.87,0,0-7.77,9.31,13.75,9.09,0,0-5.32,10.65,17.74,8.43S72.21,70.09,72.21,70.09s4.44,2.52,4.88-8.21c0,0,5.46-7.54,1-10.86s-3-12.65-3.61-19.85C73.88,24.51,67.78,20.85,64.89,26.4Z" fill="url(#b)"/><path d="M78,51c-2.81-2.08-3.28-6.5-3.39-11.28C74.75,54.66,69,48,63,39.7c-5.2-7.21,0-11.92,1.52-13-8.15,5.62-4.63,9.5-4.63,9.5-8.82-7.89-2-14.23-1.09-15-8.06,6.18-3.34,12-3.34,12C39,29.5,44.8,13.13,46.05,10c-7.58,16.87.55,21.13.55,21.13-13.87,2.66-22.07-5.88-22.07-5.88,6.54,7.9,12.75,8.43,12.75,8.43-4.21,5.43-23.48,7.09-25.36-2.87,1.43,7.16,11.4,15.5,17,19.5,0,0-5.32-.89-6,2.22,5-.53,7.91.35,9.65,1.68,1.1.83-1.47,3.93-.47,3.92,2.63,0,2.91,1.88,2.91,1.88-7-2.17-15.19,3.39-15.19,3.39,16.3-6.88,23.73,1.64,23.73,1.64-7.21.08-10,7.45-10,7.45,8-10.53,12.2-3.1,21.4-6.1s14.86-2.88,14.86-2.88c-1.55,3.55,2.33,6.54,2.33,6.54-5.43-7,5.1-16.63,4.88-8.21C77.09,61.88,82.55,54.34,78,51Z" fill="url(#c)" style="mix-blend-mode:multiply"/><path d="M31.16,54.34s-2-18.13,12.55-21.15S68.48,47.24,69,57.11c0,0,.72,2.62-.7,3.87S54,69.22,42,61.51,31.16,54.34,31.16,54.34Z" fill="url(#d)" style="mix-blend-mode:multiply"/><path d="M49.26,35.55c-9.31-1-13.94,3.13-16.2,8.13-6.65,2.24-7.15-4.2-7.15-4.2-.61,6.77,3.83,8.1,6,7.57a26.18,26.18,0,0,0-.73,10.05L36.21,52l24.4,6.5,7.12,1.58a1.34,1.34,0,0,0,1.67-1.68C68.14,52.45,63.66,37,49.26,35.55Z" fill="#060f0b"/><g clip-path="url(#e)"><path d="M70,60.55S65.56,40,51.66,38.37,30.22,49.91,31.25,58.63c0,0,2.67-2.22,9,1.92S58.91,64.4,70,60.55Z" fill="url(#f)"/><path d="M62.1,50.32c.4,6.14-4,11.66-9.83,12.32S41.39,58.86,41,52.72s4-11.65,9.83-12.31S61.7,44.18,62.1,50.32Z" fill="url(#g)"/><path d="M58.3,50.19a7.09,7.09,0,0,1-6,7.57,6.32,6.32,0,0,1-6.94-6.1,7.1,7.1,0,0,1,6-7.57A6.32,6.32,0,0,1,58.3,50.19Z" fill="url(#h)" style="mix-blend-mode:multiply"/><path d="M60,61.07a8.54,8.54,0,0,1-7.28,9.12,7.61,7.61,0,0,1-8.35-7.34,8.54,8.54,0,0,1,7.28-9.12A7.6,7.6,0,0,1,60,61.07Z" opacity="0.32" fill="url(#i)" style="mix-blend-mode:screen"/><path d="M29.45,61.36s4.73-18.09,26.84-15.28C69.55,47.77,71,65.47,71,65.47V28.85L34.26,36.61Z" fill="#b93d26" opacity="0.36" style="mix-blend-mode:multiply"/><path d="M52.66,48.55c-.31-.13.2-1.89,2.19-3.41s4.67-2.28,5-2.11-.2,1.88-2.19,3.4S53.07,48.71,52.66,48.55Z" fill="#fff"/><path d="M50.77,50a.42.42,0,0,1-.05-.66,1.53,1.53,0,0,1,1.09-.14.42.42,0,0,1,0,.66A1.52,1.52,0,0,1,50.77,50Z" fill="#fff"/></g><path d="M21.28,70.71c-4.7-2.44,9-11.47,17.09-8.84-3.88-1.41-10-2-18.5,1.57C19.87,63.44,16,68.06,21.28,70.71Z" opacity="0.89" fill="url(#j)" style="mix-blend-mode:screen"/><path d="M48.3,69.54c5.28-.67,5.39-2.38,12.69-4.76-1.77.4-3.76.94-6,1.65-9.2,3-13.42-4.43-21.4,6.1,0,0-4.25,8.52,11.39,8.72C33.35,80.61,43,70.2,48.3,69.54Z" opacity="0.89" fill="url(#k)" style="mix-blend-mode:screen"/><path d="M48.87,13.37c5.41-4.49,9.22,3.68,9.32,3.91-.83-3.05-2.61-7.12-6.38-9.07-6.43-3.33-5.55,1.33-5.55,1.33l-.21.5c-.74,1.84-3.09,8.37-1.41,14.14A11.77,11.77,0,0,1,48.87,13.37Z" opacity="0.74" fill="url(#l)" style="mix-blend-mode:screen"/><path d="M25.85,4.88c11.94-3,18,1.46,19.33,2.82C43.23,5,38.18.16,26.74,0c-14-.19-14.36,13.38-6.2,22C18.69,19.74,13.88,7.93,25.85,4.88Z" opacity="0.74" fill="url(#m)" style="mix-blend-mode:screen"/><path d="M58.91,21.07l-.1.08c-.75.65-5.5,5.07-2.2,11-1.58-2.66,6.67-12.55,7.73-8.79C63.64,21,62.13,18.52,58.91,21.07Z" opacity="0.74" fill="url(#n)" style="mix-blend-mode:screen"/><path d="M22.73,24.17l-.14-.09c-2.76-1.47-7.77-3.14-10.26,2.32a7.59,7.59,0,0,0-.13,5.5A7.42,7.42,0,0,0,15,35.59C10.08,31.73,14.64,20.27,22.73,24.17Z" opacity="0.74" fill="url(#o)" style="mix-blend-mode:screen"/><path d="M23,52.57s-4.2,2.45-4.78,6c1.39-3.47,8.51-6.35,13.27-5C29.65,52.64,27,52.14,23,52.57Z" opacity="0.89" fill="url(#p)" style="mix-blend-mode:screen"/><path d="M124.56,19.47S116.13,1.65,99.05,3.6,84.19,26.45,87.52,35.4,90.4,49,90.4,49s-1.76-9.17-8.65-7.34S74,56.58,75.1,64.78,57.35,70.31,68.22,85.4c0,0-12.42,5.76,2.66,16.41s28.84,41.92,51.46,27.95c0,0,31.5,10.86,32.38-7.55,0,0,18,5.11,21.3-8.65s-20.85-22.4-20.85-22.4,9.53-5.76,7.09-11.53c0,0,22-11.44,16.42-30.67s-27.51-4.92-29.5-1.21c0,0,3.86-6.73,1.93-12.16s-8.14-.54-9.25,1.67c0,0,2.22-12.86-4.66-18.85S124.56,19.47,124.56,19.47Z" fill="url(#q)"/><path d="M155.17,91.16s9.53-5.76,7.09-11.53c0,0,15.76-8.21,17.2-22.42-2.94,11.92-25.64,13.12-37.38-.54,0,0,7.62,4,7.1-8.92,0,0-1.18,14.89-18.34,2.31,0,0,9.69,3.1,11-12.8,0,0-2.07,11.7-20.37,11.7,0,0,11.59-10.56,3.27-29,.71,1.77,3,8.8-1.24,19.64-4.44,11.44-33.6,30-33.6,30s4-7.8.48-20.6c0,0,4.29,19-9.46,29-6.69,4.89-11.32,5.55-14.31,5,.44.76,1,1.57,1.59,2.45,9.61-3.41,56.57,9.85,53.27,37.67,0,0,5.29-21.56-13.34-29.62,0,0,38.92-4.64,46.67,26.85,0,0-1-18.2-15.33-24,0,0,22.77-7.44,34,9.22a19.67,19.67,0,0,1,2.8,5.94C176.92,99,155.17,91.16,155.17,91.16Z" fill="url(#r)" style="mix-blend-mode:multiply"/><path d="M153.34,80.52S149.29,57,127.66,56.67,99,69.54,93.56,74.31s-10.62,8.47-10.62,8.47L88.4,84.4l64.44-3.88Z" fill="#060f0b"/><path d="M160.71,62a13.08,13.08,0,0,1-10.42,11.09c-9.54,2-2.44-3.25-2.44-3.25S157.75,70.54,160.71,62Z" fill="#060f0b"/><path d="M153,79s-3.17-19.36-21.8-25.87S94.42,73.5,94.42,73.5,87.13,85,97,85.91s26.19,5.25,31.81,7.32,14-11.23,23.35-11.16l-1.09-2.29Z" fill="url(#s)" style="mix-blend-mode:multiply"/><g clip-path="url(#t)"><path d="M82.84,85.31a1.17,1.17,0,0,1-.49-2.23c4.11-2,10.16-6,17.81-13.65,14.71-14.72,44.2-13.67,53.18,11.09a1.16,1.16,0,0,1-1.14,1.55c-2-.12-5.92.37-12.26,3.77-10.21,5.47-15.09,4-28.84,1.63C102.2,85.93,90.2,85.46,82.84,85.31Z" fill="url(#u)"/><ellipse cx="116.62" cy="82.61" rx="17.78" ry="16.62" transform="translate(2.51 168.67) rotate(-72.33)" fill="url(#v)"/><path d="M127.3,80.5c.39,6-3.89,11.33-9.56,12s-10.58-3.67-11-9.64,3.89-11.34,9.56-12S126.91,74.53,127.3,80.5Z" fill="url(#w)" style="mix-blend-mode:multiply"/><ellipse cx="116.81" cy="96.01" rx="13.01" ry="22.9" transform="translate(18.06 210.51) rotate(-88.64)" opacity="0.32" fill="url(#x)" style="mix-blend-mode:screen"/><path d="M68.37,97.82S80.06,68.18,131.79,72c31,2.31,34.88,31.83,34.88,31.83l-1-61.17L80.09,57.05Z" fill="#b93d26" opacity="0.36" style="mix-blend-mode:multiply"/><path d="M118.38,77.91c-.48-.2.32-3,3.46-5.39s7.4-3.61,7.91-3.34-.31,3-3.45,5.39S119,78.16,118.38,77.91Z" fill="#fff"/><path d="M115.4,80.2a.67.67,0,0,1-.09-1,2.47,2.47,0,0,1,1.73-.21.66.66,0,0,1,.08,1A2.38,2.38,0,0,1,115.4,80.2Z" fill="#fff"/></g><path d="M90.4,49s-1.76-9.17-8.65-7.34c-6.44,1.71-7.62,13.29-6.84,21.49C73.56,45.32,89.19,42.8,90.4,49Z" opacity="0.74" fill="url(#y)" style="mix-blend-mode:screen"/><path d="M179.24,51.46a24,24,0,0,0-.56-2.5c-4.5-15.61-19.81-9.12-26.49-4.14C154.21,43.32,176.71,40.16,179.24,51.46Z" opacity="0.74" fill="url(#z)" style="mix-blend-mode:screen"/><path d="M141.86,37.26A22.92,22.92,0,0,1,140,45c1.82-2.9,6.33-12.51,10.17-9.18a5.79,5.79,0,0,1,1.36,1.73,9.49,9.49,0,0,0-.46-2c-1.84-5.16-7.53-1-9,1.33Z" opacity="0.74" fill="url(#aa)" style="mix-blend-mode:screen"/><path d="M125.18,20.93A29.68,29.68,0,0,1,127.67,35c1-5.93,1.92-17.39,7.76-15.69s6.7,10.72,6.76,14c.1-4.28-.53-11-5-14.93-6.87-6-12.64,1.06-12.64,1.06l.2.45S124.93,20.29,125.18,20.93Z" opacity="0.74" fill="url(#ab)" style="mix-blend-mode:screen"/><path d="M124.27,18.92c-1.59-3-9.94-17.06-25.22-15.32C83.45,5.38,84,23,86.69,32.83,83.46,23.43,113.05-1.27,124.27,18.92Z" opacity="0.74" fill="url(#ac)" style="mix-blend-mode:screen"/><path d="M154.72,122.21s18,5.11,21.3-8.65a10.61,10.61,0,0,0,.28-2.06,19.67,19.67,0,0,0-2.8-5.94c-11.24-16.66-34-9.22-34-9.22,14.35,5.76,15.33,24,15.33,24-7.75-31.49-46.67-26.85-46.67-26.85,20.93,5.36,30.45,26.09,34.48,39.4C148.94,132.35,154.36,129.7,154.72,122.21Z" opacity="0.89" fill="url(#ad)" style="mix-blend-mode:screen"/><path d="M88.9,88.07c1.34.47,2.69,1,4.11,1.52,20.43,8,15.27,31.52,11.56,42.47a18.64,18.64,0,0,0,15.3-.95l1.62-8C123.61,105.21,105,93.37,88.9,88.07Z" opacity="0.89" fill="url(#ae)" style="mix-blend-mode:screen"/><path d="M107.7,120s-3.77-6.21,11.31-8.21S148.07,81.7,170.69,73s18.86,7.06,18.86,7.06,11.75,3.11-3.33,12.2c0,0,5.32,2.89-1.11,6.21,0,0,12.42-1.55,15.08,4s-5.54,10-16.63,14c0,0,8.87-.89,12.42.89s-1.33,5.1-1.33,5.1,8.87,5.1-4.66,11.31c0,0,5.32,9.54-11.76,14,0,0-3.32,10.65-18.63,3.77,0,0-3.55,8-15.74-1.33s-32.17-10.64-39.71-18.85S107.7,120,107.7,120Z" fill="url(#af)"/><path d="M171.43,115.56a32.76,32.76,0,0,0,.07-6.43s-3.35,21.17-43.82,11.58a58.41,58.41,0,0,0,12.18,6.16c6.76,2.4,22.41,7.49,29.17-3.8l-.05-1.14Z" fill="url(#ag)" style="mix-blend-mode:multiply"/><path d="M196,117.34c-3.55-1.78-12.42-.89-12.42-.89,6.44-2.32,11.89-4.79,14.82-7.54-12.24,10.66-24.4-7.62-24.4-7.62a14.67,14.67,0,0,0,11.13-2.81,11,11,0,0,1-7.47.74,17.3,17.3,0,0,0,8.58-7,7.72,7.72,0,0,1-2,.67,22,22,0,0,0,5.33-12.87c-4.55,25.73-49.47,33.16-65,38S107.7,120,107.7,120a13,13,0,0,0-3.86,1.93c3.48-1.85,6.3-.49,10.81,4.61s22.22,8,45.62,3.17,18,18,18,18c7.88-17.52-9.31-21.51-9.31-21.51,14.84-4.45,21.07,7.54,21.07,7.54-4.44-10.76-17.19-10.68-17.19-10.68s12.09-6.29,21.85-.63C194.65,122.44,199.53,119.11,196,117.34Z" fill="url(#ah)" style="mix-blend-mode:multiply"/><path d="M180.16,127.17c-8.57,3.77-12,0-13.1-1.8a14,14,0,0,0,4.37-9.81c-3,13.31-20.77,11.24-33.41,7a40.09,40.09,0,0,0-23.37-.64c12.27-2.94,30.46,9.6,43.77,7.38a18.46,18.46,0,0,0,5.24-1.65C170.52,134.52,180.16,127.17,180.16,127.17Z" fill="#060f0b"/><path d="M189.55,80.07s3.77-15.75-18.86-7.06c-12,4.62-21.57,14.69-30.17,23.43C158.07,80.64,191.48,73.66,189.55,80.07Z" opacity="0.74" fill="url(#ai)" style="mix-blend-mode:screen"/><path d="M115.56,120.43c-2.58.12-5.12-.53-4.2-2.31,1.34-2.59,8.68-4.86,16-9.84a19.81,19.81,0,0,1-8.33,3.51c-15.08,2-11.31,8.21-11.31,8.21S108.5,121.7,115.56,120.43Z" opacity="0.74" fill="url(#aj)" style="mix-blend-mode:screen"/><path d="M103.38,122.32c-1.85,2.4,3.19,11.21,11.79,15.47l.28.11a13.76,13.76,0,0,0-2.27-2.16c-8.55-6.29-5.21-14.05-1.68-12.37-2.83-2.4-5-2.82-7.63-1.45l-.15.12a1.3,1.3,0,0,0-.34.28Z" opacity="0.89" fill="url(#ak)" style="mix-blend-mode:screen"/><path d="M106.33,133.25l.5.35c.25.18.5.36.77.53l.57.35.8.48.62.33.85.45.64.3c.31.15.61.3.93.44s.44.19.66.28l1,.43.66.26.86.34c-8.6-4.26-13.64-13.07-11.79-15.47l-.18.17-.12.11c-.1.1-.21.21-.31.33l-.08.09a5.15,5.15,0,0,0-.65,1l-.06.13c-.06.13-.12.26-.17.39s0,.14-.07.2-.07.24-.1.36a2,2,0,0,0,0,.24c0,.12,0,.24,0,.36a2.44,2.44,0,0,0,0,.27,2.16,2.16,0,0,0,0,.36l0,.29a2.63,2.63,0,0,0,.06.39c0,.1,0,.2.07.3s.08.28.13.41a3,3,0,0,0,.11.32c.06.15.13.3.2.44s.1.22.16.33.18.32.28.49a2.8,2.8,0,0,0,.2.32c.12.19.26.38.4.57a2.92,2.92,0,0,1,.21.28c.23.29.48.59.76.89a14.08,14.08,0,0,0,1,1c.12.11.26.21.39.32S106.06,133.06,106.33,133.25Z" fill="url(#al)" style="mix-blend-mode:multiply"/><path d="M88.63,104.47s-1.19-15.82-17-26.17-13.83,1.77-13.83,1.77S31.85,55.6,9.37,63.55s2.55,29.24,2.55,29.24-8.7-3.25-7.62,4.58,10.84,11.68,10.84,11.68-5.71,1.48-3.22,8.14S27.26,128,27.26,128s-5.91,3.11,1.92,7.84c0,0-16.11-1.63-22,10.35s4.73,16,9.46,14.49c0,0-1.18,6.21,7.4,6.8,0,0,2.36,24.11,31.94,19.23,0,0,4.73,11.09,21.59,6.21S91,169.09,100.16,162.58,99,151.79,99,151.79s4.29-2.66-.3-6.21c0,0,7.34-2.59,5.92-9S97.5,134,97.5,134s8-20.84,1.77-33.86C95.89,93.09,88.77,94.86,88.63,104.47Z" fill="url(#am)"/><path d="M93.32,141c-6.39-9.61-8.78-14.48-18.81-27.35-8.14-10.44-25.43-17-31.13-1.85-3.4,9-2.42,18.39-7.26,24.39L67.33,136Z" fill="#060f0b"/><path d="M100.16,162.58c9.17-6.5-1.18-10.79-1.18-10.79s4.29-2.66-.3-6.21c0,0,7.34-2.59,5.92-9S97.5,134,97.5,134a72.56,72.56,0,0,0,4-18.29c-.56,6-3.74,10.49-10.37,3.73a12.54,12.54,0,0,1-2.51-15c-5.55,9-.72,14.64-.72,14.64C59.3,97.61,57.71,83.77,57.75,80.72c-.57,8,2.2,11,2.2,11s-5,8.5-26.86,8.8c-16.78.23-20.69-6.7-21.13-7.59,5.28,12.6,25.77,10,25.77,10-8.46,11.27-22.59,6.17-22.59,6.17A28.11,28.11,0,0,0,29,113.2s-12,13.16-17.12,4C14.4,123.84,27.26,128,27.26,128s-5.91,3.11,1.92,7.84c8.1.52,13.53,14,13.53,14-24.84-9.21-26.1,10.83-26.1,10.83,4.4-19.33,30.32-5.32,30.32-5.32C16.65,148.42,24,167.46,24,167.46c-3.51-25.17,49.31-1.4,49.31-1.4C48.81,170.09,56,186.69,56,186.69c-3-11.39,12.27-18.12,23.87-18.48,4.16-.13,8.11,4.82,11.48,11.21C94,172.94,95.31,166,100.16,162.58Z" fill="url(#an)" style="mix-blend-mode:multiply"/><path d="M30.22,114.9s7.61,5.76,12.86,1.33-.74,4.91-.74,4.91S36.28,123.1,30.22,114.9Z" fill="#060f0b"/><path d="M86.91,131.05c-10-15.93-22.24-36.78-37.47-31.75S44.29,127,36.88,135.4a109.12,109.12,0,0,1,10.77,11.07c5.19,6.21,20.23,25,37.33,8.87S69.26,133.9,69.26,133.9l2.66-8.73Z" fill="url(#ao)" style="mix-blend-mode:multiply"/><g clip-path="url(#ap)"><path d="M93.52,142a1.21,1.21,0,0,0-.2-1c-1.54-2.06-8.2-10.93-17.11-22.18C66,106,47.37,102.25,43.53,116.74c-3.18,12-4.84,17.28-7.41,19.44a1.16,1.16,0,0,0,.25,1.9,45.77,45.77,0,0,1,11.28,8.39C54.57,153.37,86.44,170.64,93.52,142Z" fill="url(#aq)"/><path d="M72.45,123.81c3,9.11-.67,19.47-8.3,23.13s-16.29-.76-19.34-9.87.67-19.47,8.3-23.13S69.4,114.7,72.45,123.81Z" fill="url(#ar)"/><path d="M65.58,126c1.87,5.6-.41,12-5.11,14.23s-10-.47-11.89-6.07.41-12,5.1-14.23S63.7,120.37,65.58,126Z" fill="url(#as)" style="mix-blend-mode:multiply"/><path d="M67.61,141.55c2.26,6.74-.49,14.41-6.15,17.12s-12.06-.56-14.31-7.3.49-14.42,6.14-17.13S65.35,134.8,67.61,141.55Z" opacity="0.32" fill="url(#at)" style="mix-blend-mode:screen"/><path d="M24.75,167.24S31.19,119.1,62.83,120c21,.62,42,38.55,42,38.55l-29-71.34L29.11,115.73Z" fill="#b93d26" opacity="0.36" style="mix-blend-mode:multiply"/><path d="M58.93,125.43c-.47-.05-.5-3,1.57-6.16s5.41-5.58,5.92-5.48.5,2.94-1.57,6.16S59.55,125.49,58.93,125.43Z" fill="#fff"/><path d="M57,128.48a.68.68,0,0,1-.34-1A2.08,2.08,0,0,1,58,126.8a.68.68,0,0,1,.34,1A2,2,0,0,1,57,128.48Z" fill="#fff"/></g><path d="M31,136.17a7.67,7.67,0,0,0-1.79-.35s-16.11-1.63-22,10.35C2.52,155.54,8,160,12.91,160.8,8.77,160.64,14.22,134.7,31,136.17Z" opacity="0.89" fill="url(#au)" style="mix-blend-mode:screen"/><path d="M75.26,168.66c-10,1.6-20.5,7.32-19.62,16.24.08.57.18,1.17.31,1.79,0,0,2.57,5.94,10.57,7.2C59.19,191.29,59.67,172.84,75.26,168.66Z" opacity="0.89" fill="url(#av)" style="mix-blend-mode:screen"/><path d="M58,160.26c-15.31-4.94-36.29-9-34,7.2,0,.23.06.42.09.63.39,2.37,2.35,10.94,10.49,15.8C24.14,177.69,33.11,155,58,160.26Z" opacity="0.89" fill="url(#aw)" style="mix-blend-mode:screen"/><path d="M12.89,94.25c1.19,1.41,3.69,3.54,8.55,4.91-4.27-2.1-11.13-7.28-9.52-18.44,2.29-16,31.05-13.22,44.34-2-5.85-5-27.64-22-46.89-15.17-22.48,8,2.55,29.24,2.55,29.24l.44.73C12.5,93.73,12.68,94,12.89,94.25Z" opacity="0.74" fill="url(#ax)" style="mix-blend-mode:screen"/><path d="M38.25,151.85c-8-2.35-18.91-3.15-21.64,8.81,0,0-.91,4.87,4.84,6.39C18.18,166.09,18.38,151.28,38.25,151.85Z" opacity="0.89" fill="url(#ay)" style="mix-blend-mode:screen"/><path d="M62.52,93.69c-.09-.26-4.87-12.9,2.52-15.47,2.6-.9,5.35-.25,7.83,1-.42-.3-.81-.6-1.25-.89C55.8,68,57.79,80.07,57.79,80.07l0,.65C57.73,82.3,58.16,86.77,62.52,93.69Z" opacity="0.74" fill="url(#az)" style="mix-blend-mode:screen"/><path d="M14.47,119.83c-2.83-2.68-.39-7.84,7.93-7.62a25.85,25.85,0,0,1-7.26-3.16s-5.71,1.48-3.22,8.14A6.38,6.38,0,0,0,14.47,119.83Z" opacity="0.74" fill="url(#ba)" style="mix-blend-mode:screen"/><path d="M14.18,96.48A13.79,13.79,0,0,1,12,92.89a5.5,5.5,0,0,0,.59.92l-.19-.29a7.62,7.62,0,0,1-.44-.73s-8.7-3.25-7.62,4.58,10.84,11.68,10.84,11.68C5.08,104.69,10.42,94.4,14.18,96.48Z" opacity="0.74" fill="url(#bb)" style="mix-blend-mode:screen"/><path d="M181.19,258.25s2.52-28.68-10.94-39c-6.53-5-17.14-.91-27,6.87C168,208.82,182.89,236.8,181.19,258.25Z" opacity="0.74" fill="url(#bc)" style="mix-blend-mode:screen"/><path d="M43.15,226.5s22.94-9.35,32.43-.08c-1.55-1.84-3.09-3.54-4.56-5-10.64-10.49-38,9.91-38,9.91a41.32,41.32,0,0,1,10.1-4.83Z" opacity="0.74" fill="url(#bd)" style="mix-blend-mode:screen"/><path d="M83.68,254.59c-5.29-4.18-11.87-8.49-18.26-10.24-14.06-3.84-33,12.14-34.31,31.06C35.68,245,71.11,245.56,83.68,254.59Z" opacity="0.74" fill="url(#be)" style="mix-blend-mode:screen"/><path d="M172.17,200c-6.66-1.35-21-.92-35.18,17.57,12.35-13.08,39.51-25.6,41.6-5.49C178.26,206.34,176.71,200.91,172.17,200Z" opacity="0.74" fill="url(#bf)" style="mix-blend-mode:screen"/><path d="M89.11,268.05a23.89,23.89,0,0,0-6-5.51c-7.85-4.59-25.59,5.18-31.65,13.75C64.66,263.41,81.54,260.66,89.11,268.05Z" opacity="0.74" fill="url(#bg)" style="mix-blend-mode:screen"/><path d="M119.09,165.1s.3-7.51-6.21-19.67-.93-23.89,11.73-15c0,0-1.83-11.35,9.26-.41,0,0-4.43-11.09,7.4-10.94s16.17,16.56,12.71,25.73c0,0,3-3.11,5.62,0s-2.07,11.24-5.62,13.75c0,0,3.11,1.63,0,4.29a10.27,10.27,0,0,1,9.76,10.2c.6,9.91-9.76,9.61-9.76,9.61s1.34,8.73-5,3.7c0,0,1,16.27-6.51,20.11s-9.91.15-9.61-3c0,0-6.36,2.37-8.73-4.58,0,0-4.58,2.33-7.24-4.82s5.32-13.81,1.63-18.69S112.14,165.54,119.09,165.1Z" fill="url(#bh)"/><path d="M154,162.88c3.11-2.66,0-4.29,0-4.29a18.47,18.47,0,0,0,6.29-10.19c-2.14,8.16-8.11,2.86-11.87-2.45,0,0,4,3.32,5.58-1.11,0,0-1.84,3.92-7.92-1.9a25.22,25.22,0,0,1-4.69-6.46,13.81,13.81,0,0,0-7.5-6.43s5.95,2.22,6.29,7.75c.26,4.24-6.88,11.93-6.88,11.93a18.43,18.43,0,0,0-8.67-19.27c.26.06,10,10,6.23,23-1.33,4.63-4.37,7.59-7.22,10.06-5.72,5-4.53,1.59-4.53,1.59a6.14,6.14,0,0,0-3.31,1c2.42-.82,6.06,1.88,6.64,7.4.53,5-2.62,3.56-4.48,1.25l.56.75c1.4,1.86,1.11,4,.37,6.28,2.79-6.28,19.34-7.29,5.24,17.23,0,0,10-12.64,6.73-18.19,0,0,15.38,4.4,2,22.77,0,0,14.23-15.32,3.14-21.82,0,0,12.09-5.57,13,4.67,0,0,1.53-9.32-7.77-7.27,0,0,11.83-10.7,12.79,3.57,0,0,1.41-11.74-6.58-8.49,0,0,5.82-16.12,14.29-7.26A10.87,10.87,0,0,0,154,162.88Z" fill="url(#bi)" style="mix-blend-mode:multiply"/><path d="M151.85,163.34s-1.12-15-7-17.54-11.06,5.74-15,12.16-5.3,8.73-5.3,8.73Z" fill="#060f0b"/><path d="M155.09,145.34s-.66,6.52-7,6.6,1.19,3.4,1.19,3.4S156.42,154.41,155.09,145.34Z" fill="#060f0b"/><path d="M130.37,157.17c5.14-7.36,8.09-17,13.85-14.6s7.42,17,7.63,20.45-6.37,12-13,16-14.2-8.43-13.75-8.51,4.8-8.05,4.8-8.05Z" fill="url(#bj)" style="mix-blend-mode:multiply"/><g clip-path="url(#bk)"><path d="M124.58,170.13a3.54,3.54,0,0,1,0-3.44c2.81-5,11.53-19.28,18-18.3s8.62,11.11,9.25,15a3.47,3.47,0,0,1-.64,2.66C147.67,170.74,134,187.17,124.58,170.13Z" fill="url(#bl)"/><path d="M147.18,160.16c.4,6.14-4,11.65-9.83,12.31s-10.88-3.77-11.28-9.91,4-11.65,9.83-12.32S146.78,154,147.18,160.16Z" fill="url(#bm)"/><path d="M143.38,160a7.11,7.11,0,0,1-6,7.58,6.33,6.33,0,0,1-6.94-6.1,7.1,7.1,0,0,1,6.05-7.58A6.34,6.34,0,0,1,143.38,160Z" fill="url(#bn)" style="mix-blend-mode:multiply"/><path d="M145.12,170.9a8.54,8.54,0,0,1-7.28,9.12,7.6,7.6,0,0,1-8.35-7.34,8.54,8.54,0,0,1,7.28-9.12A7.61,7.61,0,0,1,145.12,170.9Z" opacity="0.32" fill="url(#bo)" style="mix-blend-mode:screen"/><path d="M116.35,196.3s2.41-40.26,25-40.39c13.37-.07,14.71,19.4,14.71,19.4V138.69l-36.73,7.75Z" fill="#b93d26" opacity="0.36" style="mix-blend-mode:multiply"/><path d="M137.74,158.38c-.31-.12.2-1.88,2.18-3.41s4.68-2.28,5-2.11-.2,1.88-2.19,3.41S138.15,158.54,137.74,158.38Z" fill="#fff"/><path d="M135.85,159.83a.42.42,0,0,1,0-.66,1.58,1.58,0,0,1,1.09-.14.42.42,0,0,1,.05.66A1.52,1.52,0,0,1,135.85,159.83Z" fill="#fff"/></g><path d="M126.94,133.23a15.34,15.34,0,0,0-2.33-2.77c-12.66-8.92-18.25,2.82-11.73,15a55.78,55.78,0,0,1,5.57,14.49c-.7-3.81-2.17-11.57-3.8-18.3C112.68,133.49,121,128.83,126.94,133.23Z" opacity="0.74" fill="url(#bp)" style="mix-blend-mode:screen"/><path d="M133.28,149.73s1.05-1.13,2.33-2.76a20,20,0,0,0-2.18-6c-4.19-7.73-4-13.05-2.3-13.42-8-6.46-6.52,2.89-6.52,2.89A18.43,18.43,0,0,1,133.28,149.73Z" opacity="0.74" fill="url(#bq)" style="mix-blend-mode:screen"/><path d="M141.35,136.45c-4.8-10-.5-20.83,7.68-14.26a11.58,11.58,0,0,0-7.76-3.08c-11.83-.15-7.4,10.94-7.4,10.94s.21.08.54.24A13.78,13.78,0,0,1,141.35,136.45Z" opacity="0.74" fill="url(#br)" style="mix-blend-mode:screen"/><path d="M130.84,180.77c7.15,6.45,6.1,23.29-.82,23.15a7.81,7.81,0,0,0,2.82-.38C146.22,185.17,130.84,180.77,130.84,180.77Z" opacity="0.89" fill="url(#bs)" style="mix-blend-mode:screen"/><path d="M121.49,169.87c-1.38-3.06-3.89-4.44-5.71-3.82a3.18,3.18,0,0,1,.57-.34c-3.06,1.45-1.19,5.19,1.59,9C115,169.22,118.5,165.47,121.49,169.87Z" opacity="0.74" fill="url(#bt)" style="mix-blend-mode:screen"/><path d="M124.11,199c10.41-18.11,4.11-22.29-1-20.71,3.65-1.18,4.37,25.54-3.66,19.92A4.38,4.38,0,0,0,124.11,199Z" opacity="0.89" fill="url(#bu)" style="mix-blend-mode:screen"/><path d="M149,186.39c-.89-10.24-13-4.67-13-4.67,3.6-1.16,11.94,0,12.74,11.83A46.15,46.15,0,0,0,149,186.39Z" opacity="0.89" fill="url(#bv)" style="mix-blend-mode:screen"/><path d="M108.88,181.21s4.43-.14,1.26-5.17a26.08,26.08,0,0,1-4.36-15.82c.44-5.18-7.25-5.18-5.62,2.36,0,0-1.77-1.18-3-9.61s-13.31-19.21-15.52,1.71c0,0-7.84-2.45-9.47,2.28s2.52,8.14,2.52,8.14-5.79-1-2.9,7.54a15.4,15.4,0,0,0,10.44,10.2s-3.55.89-1.33,3.55c0,0-6.51,3.84-2.66,11.68s9.76,0,9.76,0,1.18,13.75,9.31,7.25c0,0,5,4.29,4.18-5.18,0,0,5.94,3.85,9.75-1.77S108.55,187.94,108.88,181.21Z" fill="url(#bw)"/><path d="M98.5,168.66c-4.24-2.6-8.09-2.54-10.86,5C84.35,175.19,80,171.9,80,171.9c2.73,4.2,5.39,4.69,6.8,4.59a34.7,34.7,0,0,0-.81,5.23l8.53-.06,11.89-4.84S102.75,171.26,98.5,168.66Z" fill="#060f0b"/><path d="M110.14,176a27.1,27.1,0,0,1-4.43-13.79c.05,10.2-5.22,2.61-5.55.33,0,0,0,3.84,2.37,5.47,0,0-18.64-1.06-20.88-12.32,0,6.65,6.31,10.33,6.31,10.33s-4.14,4.06-13.23-1c0,0,5.32,6.38,11.75,3.56,0,0-.06,18.69-9.82,11.18a14.48,14.48,0,0,0,5.61,3c1.74-.44,3.55,1.63,3.55,1.63a7.91,7.91,0,0,0-4.88,1.92s6.54-3.14,9.87,3.62c0,0-3.85-.4-2.77,8.06,0,0-.81-12.23,8.35-3.62,0,0-5.84,2.11,1,10.87,0,0-6.87-10.1,2.35-10.61,0,0-2.91,2.33,1.83,5.43,0,0-4.52-3.19,0-6.25s6.52-11.86,9.43-4.7c-1-2.44-2.22-5-2.08-8C108.88,181.21,113.31,181.07,110.14,176Z" fill="url(#bx)" style="mix-blend-mode:multiply"/><path d="M103.74,173.89c-6-7.45-17.93-13.08-17.81,7,0,0-.9,2.2,2.52,5.72s7.79,9.52,13.08,6.11S107,179.22,107,179.22l-5.44-6.14Z" fill="url(#by)" style="mix-blend-mode:multiply"/><g clip-path="url(#bz)"><path d="M107,179.22a3.44,3.44,0,0,0-.79-2.67c-2.3-2.74-8.4-9.38-12.53-8.2-4.69,1.34-7.56,9.37-7.72,14.05a3.37,3.37,0,0,0,.81,2.29c2,2.41,7.77,8.45,13.12,7S106.56,182.56,107,179.22Z" fill="url(#ca)"/><path d="M104.89,177.41a8.79,8.79,0,0,1-7.49,9.38,7.83,7.83,0,0,1-8.59-7.56,8.8,8.8,0,0,1,7.49-9.38A7.83,7.83,0,0,1,104.89,177.41Z" fill="url(#cb)"/><path d="M102,177.3a5.41,5.41,0,0,1-4.61,5.77,4.81,4.81,0,0,1-5.28-4.64,5.4,5.4,0,0,1,4.6-5.77A4.82,4.82,0,0,1,102,177.3Z" fill="url(#cc)" style="mix-blend-mode:multiply"/><path d="M103.32,185.59a6.49,6.49,0,0,1-5.54,6.94,5.79,5.79,0,0,1-6.36-5.59A6.49,6.49,0,0,1,97,180,5.79,5.79,0,0,1,103.32,185.59Z" opacity="0.32" fill="url(#cd)" style="mix-blend-mode:screen"/><path d="M85,190.2s-1.35-18.17,15.49-16c10.1,1.29,11.2,14.77,11.2,14.77V161.06l-28,5.9Z" fill="#b93d26" opacity="0.36" style="mix-blend-mode:multiply"/><path d="M95.74,176.5c0,.25-1.39.39-3-.59A7.55,7.55,0,0,1,89.81,173c0-.27,1.39-.39,3,.59A7.41,7.41,0,0,1,95.74,176.5Z" fill="#fff"/><path d="M97.3,177.43a.32.32,0,0,1-.45.22,1.22,1.22,0,0,1-.41-.73.32.32,0,0,1,.46-.23A1.17,1.17,0,0,1,97.3,177.43Z" fill="#fff"/></g><path d="M84.32,167.52c-12.66-.09-7.75-13.9-5-13.34-2.45-.33-6-.25-7.08,2.78-1.62,4.74,2.52,8.14,2.52,8.14C79,167.45,82.15,167.8,84.32,167.52Z" opacity="0.74" fill="url(#ce)" style="mix-blend-mode:screen"/><path d="M87.56,163.62c-10.48-8.49,5.37-21.87,9-13.2-2.84-7.71-12.87-14.58-14.86,4.26a6.8,6.8,0,0,0,0,1.28A12.29,12.29,0,0,0,87.56,163.62Z" opacity="0.74" fill="url(#cf)" style="mix-blend-mode:screen"/><path d="M72.93,170.46c-.94-5.22,1.8-5.36,1.8-5.36s-5.79-1-2.9,7.54a15.87,15.87,0,0,0,4.87,7.23,11.72,11.72,0,0,0,1.09.74C75.26,178.9,73.75,175,72.93,170.46Z" opacity="0.74" fill="url(#cg)" style="mix-blend-mode:screen"/><path d="M104.36,157c-2-1.2-5.32.41-4.2,5.61C100.16,159.16,102.73,156.64,104.36,157Z" opacity="0.74" fill="url(#ch)" style="mix-blend-mode:screen"/><path d="M99.7,194.71c-9.22.51-2.35,10.61-2.35,10.61a3.94,3.94,0,0,0,2.35,1C94.8,206.11,97.72,195,99.7,194.71Z" opacity="0.89" fill="url(#ci)" style="mix-blend-mode:screen"/><path d="M82.46,185.41s-1.23-2.21-.14-2.57c0,0-3.6.89-1.38,3.55a10,10,0,0,1,1.54-1Z" opacity="0.89" fill="url(#cj)" style="mix-blend-mode:screen"/><path d="M86.8,186.09a8.32,8.32,0,0,0-5.86.3s-6.51,3.84-2.66,11.68a10.57,10.57,0,0,0,.8,1.37C74.36,191.92,84.24,185.37,86.8,186.09Z" opacity="0.89" fill="url(#ck)" style="mix-blend-mode:screen"/><path d="M96.39,194.45c-9.16-8.61-8.35,3.62-8.35,3.62s.55,6.4,3.48,8.4C87.46,203.36,87.87,188.06,96.39,194.45Z" opacity="0.89" fill="url(#cl)" style="mix-blend-mode:screen"/><g opacity="0.65"><path d="M98.39,182.58a.15.15,0,0,1-.15.15.15.15,0,0,1-.15-.16.15.15,0,0,1,.16-.14A.14.14,0,0,1,98.39,182.58Z" fill="#bde2eb" style="mix-blend-mode:screen"/><path d="M102.13,182.75a3.89,3.89,0,1,1-3.72-4.06A3.9,3.9,0,0,1,102.13,182.75Z" opacity="0.69" fill="url(#cm)" style="mix-blend-mode:screen"/></g><g opacity="0.5"><path d="M202.11,102.07a.41.41,0,0,1-.82,0,.41.41,0,1,1,.82,0Z" fill="#bde2eb" style="mix-blend-mode:screen"/><g opacity="0.65"><path d="M16.34,118.46a.15.15,0,0,1-.3,0,.15.15,0,1,1,.3,0Z" fill="#bde2eb" style="mix-blend-mode:screen"/><path d="M20.08,118.62a3.89,3.89,0,1,1-3.72-4.06A3.9,3.9,0,0,1,20.08,118.62Z" opacity="0.69" fill="url(#cn)" style="mix-blend-mode:screen"/></g><g opacity="0.65"><path d="M122.33,141.38a.15.15,0,0,1-.16.14.14.14,0,0,1-.14-.15.15.15,0,0,1,.15-.15A.16.16,0,0,1,122.33,141.38Z" fill="#bde2eb" style="mix-blend-mode:screen"/></g><g opacity="0.65"><path d="M158.68,158.1a.16.16,0,0,1-.16.15.15.15,0,0,1-.14-.16.14.14,0,0,1,.15-.14A.15.15,0,0,1,158.68,158.1Z" fill="#bde2eb" style="mix-blend-mode:screen"/></g></g><g opacity="0.65"><path d="M112.61,176a.15.15,0,0,1-.14-.16.14.14,0,0,1,.15-.14.15.15,0,0,1,.15.16A.16.16,0,0,1,112.61,176Z" fill="#bde2eb" style="mix-blend-mode:screen"/></g><g opacity="0.65"><path d="M84,131.61a.15.15,0,0,1-.14-.16.14.14,0,0,1,.15-.14.15.15,0,0,1,.15.16A.16.16,0,0,1,84,131.61Z" fill="#bde2eb" style="mix-blend-mode:screen"/><path d="M83.84,135.34a3.89,3.89,0,1,1,4.09-3.67A3.88,3.88,0,0,1,83.84,135.34Z" opacity="0.69" fill="url(#co)" style="mix-blend-mode:screen"/></g><g opacity="0.65"><path d="M95.5,118.09a.15.15,0,0,1-.14-.16.14.14,0,0,1,.15-.14.15.15,0,0,1,.15.16A.16.16,0,0,1,95.5,118.09Z" fill="#bde2eb" style="mix-blend-mode:screen"/></g><g opacity="0.5"><path d="M129.14,266.92a.41.41,0,0,1-.39-.43.4.4,0,0,1,.43-.38.4.4,0,0,1,.38.42A.4.4,0,0,1,129.14,266.92Z" fill="#bde2eb" style="mix-blend-mode:screen"/><g opacity="0.65"><path d="M132.94,241.48a.16.16,0,0,1-.14-.16.15.15,0,0,1,.16-.14.14.14,0,0,1,.14.16A.15.15,0,0,1,132.94,241.48Z" fill="#bde2eb" style="mix-blend-mode:screen"/></g><g opacity="0.65"><path d="M109.76,71.82a.16.16,0,0,1,0-.31.15.15,0,0,1,.14.16A.15.15,0,0,1,109.76,71.82Z" fill="#bde2eb" style="mix-blend-mode:screen"/><path d="M109.56,75.55a3.89,3.89,0,1,1,4.1-3.68A3.88,3.88,0,0,1,109.56,75.55Z" opacity="0.69" fill="url(#cp)" style="mix-blend-mode:screen"/></g><g opacity="0.65"><path d="M60.73,90.93a.15.15,0,0,1-.14-.15.16.16,0,0,1,.16-.15.15.15,0,0,1,.14.16A.14.14,0,0,1,60.73,90.93Z" fill="#bde2eb" style="mix-blend-mode:screen"/><path d="M60.53,94.67A3.89,3.89,0,1,1,64.63,91,3.9,3.9,0,0,1,60.53,94.67Z" opacity="0.69" fill="url(#cq)" style="mix-blend-mode:screen"/></g><g opacity="0.65"><path d="M103.8,277.29a.15.15,0,0,1-.14-.16.16.16,0,0,1,.16-.14.15.15,0,0,1,.14.16A.14.14,0,0,1,103.8,277.29Z" fill="#bde2eb" style="mix-blend-mode:screen"/><path d="M103.6,281a3.9,3.9,0,1,1,4.1-3.68A3.89,3.89,0,0,1,103.6,281Z" opacity="0.69" fill="url(#cr)" style="mix-blend-mode:screen"/></g><g opacity="0.65"><path d="M116.79,112a.16.16,0,0,1-.14-.16.14.14,0,0,1,.16-.14.14.14,0,0,1,.14.15A.15.15,0,0,1,116.79,112Z" fill="#bde2eb" style="mix-blend-mode:screen"/><path d="M116.59,115.77a3.89,3.89,0,1,1,4.1-3.68A3.9,3.9,0,0,1,116.59,115.77Z" opacity="0.69" fill="url(#cs)" style="mix-blend-mode:screen"/></g></g></g></svg>